<?xml version="1.0" encoding="UTF-8"?>
<!DOCTYPE svg PUBLIC "-//W3C//DTD SVG 1.1//EN" "http://www.w3.org/Graphics/SVG/1.1/DTD/svg11.dtd">
<svg version="1.2" width="86.64mm" height="65.59mm" viewBox="5559 9469 8664 6559" preserveAspectRatio="xMidYMid" fill-rule="evenodd" stroke-width="28.222" stroke-linejoin="round" xmlns="http://www.w3.org/2000/svg" xmlns:ooo="http://xml.openoffice.org/svg/export" xmlns:xlink="http://www.w3.org/1999/xlink" xmlns:presentation="http://sun.com/xmlns/staroffice/presentation" xmlns:smil="http://www.w3.org/2001/SMIL20/" xmlns:anim="urn:oasis:names:tc:opendocument:xmlns:animation:1.0" xml:space="preserve">
 <defs class="ClipPathGroup">
  <clipPath id="presentation_clip_path" clipPathUnits="userSpaceOnUse">
   <rect x="5559" y="9469" width="8664" height="6559"/>
  </clipPath>
  <clipPath id="presentation_clip_path_shrink" clipPathUnits="userSpaceOnUse">
   <rect x="5567" y="9475" width="8647" height="6546"/>
  </clipPath>
 </defs>
 <defs class="TextShapeIndex">
  <g ooo:slide="id1" ooo:id-list="id3 id4 id5 id6 id7 id8 id9 id10 id11 id12 id13 id14 id15 id16 id17 id18 id19 id20 id21"/>
 </defs>
 <defs class="EmbeddedBulletChars">
  <g id="bullet-char-template(57356)" transform="scale(0.00048828125,-0.00048828125)">
   <path d="M 580,1141 L 1163,571 580,0 -4,571 580,1141 Z"/>
  </g>
  <g id="bullet-char-template(57354)" transform="scale(0.00048828125,-0.00048828125)">
   <path d="M 8,1128 L 1137,1128 1137,0 8,0 8,1128 Z"/>
  </g>
  <g id="bullet-char-template(10146)" transform="scale(0.00048828125,-0.00048828125)">
   <path d="M 174,0 L 602,739 174,1481 1456,739 174,0 Z M 1358,739 L 309,1346 659,739 1358,739 Z"/>
  </g>
  <g id="bullet-char-template(10132)" transform="scale(0.00048828125,-0.00048828125)">
   <path d="M 2015,739 L 1276,0 717,0 1260,543 174,543 174,936 1260,936 717,1481 1274,1481 2015,739 Z"/>
  </g>
  <g id="bullet-char-template(10007)" transform="scale(0.00048828125,-0.00048828125)">
   <path d="M 0,-2 C -7,14 -16,27 -25,37 L 356,567 C 262,823 215,952 215,954 215,979 228,992 255,992 264,992 276,990 289,987 310,991 331,999 354,1012 L 381,999 492,748 772,1049 836,1024 860,1049 C 881,1039 901,1025 922,1006 886,937 835,863 770,784 769,783 710,716 594,584 L 774,223 C 774,196 753,168 711,139 L 727,119 C 717,90 699,76 672,76 641,76 570,178 457,381 L 164,-76 C 142,-110 111,-127 72,-127 30,-127 9,-110 8,-76 1,-67 -2,-52 -2,-32 -2,-23 -1,-13 0,-2 Z"/>
  </g>
  <g id="bullet-char-template(10004)" transform="scale(0.00048828125,-0.00048828125)">
   <path d="M 285,-33 C 182,-33 111,30 74,156 52,228 41,333 41,471 41,549 55,616 82,672 116,743 169,778 240,778 293,778 328,747 346,684 L 369,508 C 377,444 397,411 428,410 L 1163,1116 C 1174,1127 1196,1133 1229,1133 1271,1133 1292,1118 1292,1087 L 1292,965 C 1292,929 1282,901 1262,881 L 442,47 C 390,-6 338,-33 285,-33 Z"/>
  </g>
  <g id="bullet-char-template(9679)" transform="scale(0.00048828125,-0.00048828125)">
   <path d="M 813,0 C 632,0 489,54 383,161 276,268 223,411 223,592 223,773 276,916 383,1023 489,1130 632,1184 813,1184 992,1184 1136,1130 1245,1023 1353,916 1407,772 1407,592 1407,412 1353,268 1245,161 1136,54 992,0 813,0 Z"/>
  </g>
  <g id="bullet-char-template(8226)" transform="scale(0.00048828125,-0.00048828125)">
   <path d="M 346,457 C 273,457 209,483 155,535 101,586 74,649 74,723 74,796 101,859 155,911 209,963 273,989 346,989 419,989 480,963 531,910 582,859 608,796 608,723 608,648 583,586 532,535 482,483 420,457 346,457 Z"/>
  </g>
  <g id="bullet-char-template(8211)" transform="scale(0.00048828125,-0.00048828125)">
   <path d="M -4,459 L 1135,459 1135,606 -4,606 -4,459 Z"/>
  </g>
  <g id="bullet-char-template(61548)" transform="scale(0.00048828125,-0.00048828125)">
   <path d="M 173,740 C 173,903 231,1043 346,1159 462,1274 601,1332 765,1332 928,1332 1067,1274 1183,1159 1299,1043 1357,903 1357,740 1357,577 1299,437 1183,322 1067,206 928,148 765,148 601,148 462,206 346,322 231,437 173,577 173,740 Z"/>
  </g>
 </defs>
 <defs class="TextEmbeddedBitmaps"/>
 <g class="SlideGroup">
  <g>
   <g id="container-id1">
    <g id="id1" class="Slide" clip-path="url(#presentation_clip_path)">
     <g class="Page">
      <g class="com.sun.star.drawing.LineShape">
       <g id="id3">
        <rect class="BoundingBox" stroke="none" fill="none" x="7196" y="11768" width="1325" height="1960"/>
        <path fill="none" stroke="rgb(0,102,255)" stroke-width="53" stroke-linejoin="round" d="M 8493,11795 L 7223,13700"/>
       </g>
      </g>
      <g class="com.sun.star.drawing.LineShape">
       <g id="id4">
        <rect class="BoundingBox" stroke="none" fill="none" x="8466" y="9863" width="1452" height="1960"/>
        <path fill="none" stroke="rgb(0,102,255)" stroke-width="53" stroke-linejoin="round" d="M 9890,9890 L 8493,11795"/>
       </g>
      </g>
      <g class="com.sun.star.drawing.LineShape">
       <g id="id5">
        <rect class="BoundingBox" stroke="none" fill="none" x="5953" y="13673" width="1298" height="1960"/>
        <path fill="none" stroke="rgb(0,102,255)" stroke-width="53" stroke-linejoin="round" d="M 5980,15605 L 7223,13700"/>
       </g>
      </g>
      <g class="com.sun.star.drawing.LineShape">
       <g id="id6">
        <rect class="BoundingBox" stroke="none" fill="none" x="7196" y="13673" width="1452" height="1960"/>
        <path fill="none" stroke="rgb(0,0,0)" stroke-width="53" stroke-linejoin="round" d="M 8620,15605 L 7223,13700"/>
       </g>
      </g>
      <g class="com.sun.star.drawing.LineShape">
       <g id="id7">
        <rect class="BoundingBox" stroke="none" fill="none" x="8467" y="11769" width="1324" height="1959"/>
        <path fill="none" stroke="rgb(0,0,0)" stroke-width="53" stroke-linejoin="round" d="M 8494,11796 L 9763,13700"/>
       </g>
      </g>
      <g class="com.sun.star.drawing.LineShape">
       <g id="id8">
        <rect class="BoundingBox" stroke="none" fill="none" x="9736" y="13673" width="1325" height="1960"/>
        <path fill="none" stroke="rgb(204,51,0)" stroke-width="53" stroke-linejoin="round" d="M 11033,15605 L 9763,13700"/>
       </g>
      </g>
      <g class="com.sun.star.drawing.LineShape">
       <g id="id9">
        <rect class="BoundingBox" stroke="none" fill="none" x="9864" y="9864" width="1451" height="1959"/>
        <path fill="none" stroke="rgb(0,0,0)" stroke-width="53" stroke-linejoin="round" d="M 9891,9891 L 11287,11795"/>
       </g>
      </g>
      <g class="com.sun.star.drawing.LineShape">
       <g id="id10">
        <rect class="BoundingBox" stroke="none" fill="none" x="11260" y="11768" width="1325" height="1960"/>
        <path fill="none" stroke="rgb(255,153,0)" stroke-width="53" stroke-linejoin="round" d="M 12557,13700 L 11287,11795"/>
       </g>
      </g>
      <g class="com.sun.star.drawing.LineShape">
       <g id="id11">
        <rect class="BoundingBox" stroke="none" fill="none" x="12530" y="13673" width="1325" height="2087"/>
        <path fill="none" stroke="rgb(255,153,0)" stroke-width="53" stroke-linejoin="round" d="M 12557,13700 L 13827,15732"/>
       </g>
      </g>
      <g class="com.sun.star.drawing.CustomShape">
       <g id="id12">
        <rect class="BoundingBox" stroke="none" fill="none" x="9468" y="9468" width="846" height="846"/>
        <path fill="rgb(0,102,255)" stroke="none" d="M 9890,9509 C 10106,9509 10271,9674 10271,9890 10271,10106 10106,10271 9890,10271 9674,10271 9509,10106 9509,9890 9509,9674 9674,9509 9890,9509 Z M 9509,9509 L 9509,9509 Z M 10272,10272 L 10272,10272 Z"/>
        <path fill="none" stroke="rgb(0,0,0)" stroke-width="81" stroke-linejoin="round" d="M 9890,9509 C 10106,9509 10271,9674 10271,9890 10271,10106 10106,10271 9890,10271 9674,10271 9509,10106 9509,9890 9509,9674 9674,9509 9890,9509 Z"/>
       </g>
      </g>
      <g class="com.sun.star.drawing.CustomShape">
       <g id="id13">
        <rect class="BoundingBox" stroke="none" fill="none" x="8071" y="11373" width="846" height="846"/>
        <path fill="rgb(0,102,255)" stroke="none" d="M 8493,11414 C 8709,11414 8874,11579 8874,11795 8874,12011 8709,12176 8493,12176 8277,12176 8112,12011 8112,11795 8112,11579 8277,11414 8493,11414 Z M 8112,11414 L 8112,11414 Z M 8875,12177 L 8875,12177 Z"/>
        <path fill="none" stroke="rgb(0,0,0)" stroke-width="81" stroke-linejoin="round" d="M 8493,11414 C 8709,11414 8874,11579 8874,11795 8874,12011 8709,12176 8493,12176 8277,12176 8112,12011 8112,11795 8112,11579 8277,11414 8493,11414 Z"/>
       </g>
      </g>
      <g class="com.sun.star.drawing.CustomShape">
       <g id="id14">
        <rect class="BoundingBox" stroke="none" fill="none" x="10838" y="11373" width="846" height="846"/>
        <path fill="rgb(255,153,0)" stroke="none" d="M 11260,11414 C 11476,11414 11641,11579 11641,11795 11641,12011 11476,12176 11260,12176 11044,12176 10879,12011 10879,11795 10879,11579 11044,11414 11260,11414 Z M 10879,11414 L 10879,11414 Z M 11642,12177 L 11642,12177 Z"/>
        <path fill="none" stroke="rgb(0,0,0)" stroke-width="81" stroke-linejoin="round" d="M 11260,11414 C 11476,11414 11641,11579 11641,11795 11641,12011 11476,12176 11260,12176 11044,12176 10879,12011 10879,11795 10879,11579 11044,11414 11260,11414 Z"/>
       </g>
      </g>
      <g class="com.sun.star.drawing.CustomShape">
       <g id="id15">
        <rect class="BoundingBox" stroke="none" fill="none" x="9368" y="13278" width="846" height="846"/>
        <path fill="rgb(204,51,0)" stroke="none" d="M 9790,13319 C 10006,13319 10171,13484 10171,13700 10171,13916 10006,14081 9790,14081 9574,14081 9409,13916 9409,13700 9409,13484 9574,13319 9790,13319 Z M 9409,13319 L 9409,13319 Z M 10172,14082 L 10172,14082 Z"/>
        <path fill="none" stroke="rgb(0,0,0)" stroke-width="81" stroke-linejoin="round" d="M 9790,13319 C 10006,13319 10171,13484 10171,13700 10171,13916 10006,14081 9790,14081 9574,14081 9409,13916 9409,13700 9409,13484 9574,13319 9790,13319 Z"/>
       </g>
      </g>
      <g class="com.sun.star.drawing.CustomShape">
       <g id="id16">
        <rect class="BoundingBox" stroke="none" fill="none" x="12108" y="13278" width="846" height="846"/>
        <path fill="rgb(255,153,0)" stroke="none" d="M 12530,13319 C 12746,13319 12911,13484 12911,13700 12911,13916 12746,14081 12530,14081 12314,14081 12149,13916 12149,13700 12149,13484 12314,13319 12530,13319 Z M 12149,13319 L 12149,13319 Z M 12912,14082 L 12912,14082 Z"/>
        <path fill="none" stroke="rgb(0,0,0)" stroke-width="81" stroke-linejoin="round" d="M 12530,13319 C 12746,13319 12911,13484 12911,13700 12911,13916 12746,14081 12530,14081 12314,14081 12149,13916 12149,13700 12149,13484 12314,13319 12530,13319 Z"/>
       </g>
      </g>
      <g class="com.sun.star.drawing.CustomShape">
       <g id="id17">
        <rect class="BoundingBox" stroke="none" fill="none" x="6828" y="13278" width="846" height="846"/>
        <path fill="rgb(0,102,255)" stroke="none" d="M 7250,13319 C 7466,13319 7631,13484 7631,13700 7631,13916 7466,14081 7250,14081 7034,14081 6869,13916 6869,13700 6869,13484 7034,13319 7250,13319 Z M 6869,13319 L 6869,13319 Z M 7632,14082 L 7632,14082 Z"/>
        <path fill="none" stroke="rgb(0,0,0)" stroke-width="81" stroke-linejoin="round" d="M 7250,13319 C 7466,13319 7631,13484 7631,13700 7631,13916 7466,14081 7250,14081 7034,14081 6869,13916 6869,13700 6869,13484 7034,13319 7250,13319 Z"/>
       </g>
      </g>
      <g class="com.sun.star.drawing.CustomShape">
       <g id="id18">
        <rect class="BoundingBox" stroke="none" fill="none" x="8198" y="15183" width="846" height="846"/>
        <path fill="rgb(0,153,0)" stroke="none" d="M 8620,15224 C 8836,15224 9001,15389 9001,15605 9001,15821 8836,15986 8620,15986 8404,15986 8239,15821 8239,15605 8239,15389 8404,15224 8620,15224 Z M 8239,15224 L 8239,15224 Z M 9002,15987 L 9002,15987 Z"/>
        <path fill="none" stroke="rgb(0,0,0)" stroke-width="81" stroke-linejoin="round" d="M 8620,15224 C 8836,15224 9001,15389 9001,15605 9001,15821 8836,15986 8620,15986 8404,15986 8239,15821 8239,15605 8239,15389 8404,15224 8620,15224 Z"/>
       </g>
      </g>
      <g class="com.sun.star.drawing.CustomShape">
       <g id="id19">
        <rect class="BoundingBox" stroke="none" fill="none" x="10611" y="15183" width="846" height="846"/>
        <path fill="rgb(204,51,0)" stroke="none" d="M 11033,15224 C 11249,15224 11414,15389 11414,15605 11414,15821 11249,15986 11033,15986 10817,15986 10652,15821 10652,15605 10652,15389 10817,15224 11033,15224 Z M 10652,15224 L 10652,15224 Z M 11415,15987 L 11415,15987 Z"/>
        <path fill="none" stroke="rgb(0,0,0)" stroke-width="81" stroke-linejoin="round" d="M 11033,15224 C 11249,15224 11414,15389 11414,15605 11414,15821 11249,15986 11033,15986 10817,15986 10652,15821 10652,15605 10652,15389 10817,15224 11033,15224 Z"/>
       </g>
      </g>
      <g class="com.sun.star.drawing.CustomShape">
       <g id="id20">
        <rect class="BoundingBox" stroke="none" fill="none" x="13378" y="15183" width="846" height="846"/>
        <path fill="rgb(255,153,0)" stroke="none" d="M 13800,15224 C 14016,15224 14181,15389 14181,15605 14181,15821 14016,15986 13800,15986 13584,15986 13419,15821 13419,15605 13419,15389 13584,15224 13800,15224 Z M 13419,15224 L 13419,15224 Z M 14182,15987 L 14182,15987 Z"/>
        <path fill="none" stroke="rgb(0,0,0)" stroke-width="81" stroke-linejoin="round" d="M 13800,15224 C 14016,15224 14181,15389 14181,15605 14181,15821 14016,15986 13800,15986 13584,15986 13419,15821 13419,15605 13419,15389 13584,15224 13800,15224 Z"/>
       </g>
      </g>
      <g class="com.sun.star.drawing.CustomShape">
       <g id="id21">
        <rect class="BoundingBox" stroke="none" fill="none" x="5558" y="15183" width="846" height="846"/>
        <path fill="rgb(0,102,255)" stroke="none" d="M 5980,15224 C 6196,15224 6361,15389 6361,15605 6361,15821 6196,15986 5980,15986 5764,15986 5599,15821 5599,15605 5599,15389 5764,15224 5980,15224 Z M 5599,15224 L 5599,15224 Z M 6362,15987 L 6362,15987 Z"/>
        <path fill="none" stroke="rgb(0,0,0)" stroke-width="81" stroke-linejoin="round" d="M 5980,15224 C 6196,15224 6361,15389 6361,15605 6361,15821 6196,15986 5980,15986 5764,15986 5599,15821 5599,15605 5599,15389 5764,15224 5980,15224 Z"/>
       </g>
      </g>
     </g>
    </g>
   </g>
  </g>
 </g>
</svg>