<?xml version="1.0" encoding="UTF-8"?>
<!DOCTYPE svg PUBLIC "-//W3C//DTD SVG 1.1//EN" "http://www.w3.org/Graphics/SVG/1.1/DTD/svg11.dtd">
<svg version="1.2" width="86.27mm" height="48.17mm" viewBox="7894 14055 8627 4817" preserveAspectRatio="xMidYMid" fill-rule="evenodd" stroke-width="28.222" stroke-linejoin="round" xmlns="http://www.w3.org/2000/svg" xmlns:ooo="http://xml.openoffice.org/svg/export" xmlns:xlink="http://www.w3.org/1999/xlink" xmlns:presentation="http://sun.com/xmlns/staroffice/presentation" xmlns:smil="http://www.w3.org/2001/SMIL20/" xmlns:anim="urn:oasis:names:tc:opendocument:xmlns:animation:1.0" xml:space="preserve">
 <defs class="ClipPathGroup">
  <clipPath id="presentation_clip_path" clipPathUnits="userSpaceOnUse">
   <rect x="7894" y="14055" width="8627" height="4817"/>
  </clipPath>
  <clipPath id="presentation_clip_path_shrink" clipPathUnits="userSpaceOnUse">
   <rect x="7902" y="14059" width="8610" height="4808"/>
  </clipPath>
 </defs>
 <defs class="TextShapeIndex">
  <g ooo:slide="id1" ooo:id-list="id3 id4 id5 id6 id7 id8 id9 id10 id11 id12 id13 id14 id15 id16 id17 id18 id19 id20 id21 id22 id23 id24 id25 id26 id27 id28 id29 id30 id31 id32 id33 id34 id35"/>
 </defs>
 <defs class="EmbeddedBulletChars">
  <g id="bullet-char-template-57356" transform="scale(0.00048828125,-0.00048828125)">
   <path d="M 580,1141 L 1163,571 580,0 -4,571 580,1141 Z"/>
  </g>
  <g id="bullet-char-template-57354" transform="scale(0.00048828125,-0.00048828125)">
   <path d="M 8,1128 L 1137,1128 1137,0 8,0 8,1128 Z"/>
  </g>
  <g id="bullet-char-template-10146" transform="scale(0.00048828125,-0.00048828125)">
   <path d="M 174,0 L 602,739 174,1481 1456,739 174,0 Z M 1358,739 L 309,1346 659,739 1358,739 Z"/>
  </g>
  <g id="bullet-char-template-10132" transform="scale(0.00048828125,-0.00048828125)">
   <path d="M 2015,739 L 1276,0 717,0 1260,543 174,543 174,936 1260,936 717,1481 1274,1481 2015,739 Z"/>
  </g>
  <g id="bullet-char-template-10007" transform="scale(0.00048828125,-0.00048828125)">
   <path d="M 0,-2 C -7,14 -16,27 -25,37 L 356,567 C 262,823 215,952 215,954 215,979 228,992 255,992 264,992 276,990 289,987 310,991 331,999 354,1012 L 381,999 492,748 772,1049 836,1024 860,1049 C 881,1039 901,1025 922,1006 886,937 835,863 770,784 769,783 710,716 594,584 L 774,223 C 774,196 753,168 711,139 L 727,119 C 717,90 699,76 672,76 641,76 570,178 457,381 L 164,-76 C 142,-110 111,-127 72,-127 30,-127 9,-110 8,-76 1,-67 -2,-52 -2,-32 -2,-23 -1,-13 0,-2 Z"/>
  </g>
  <g id="bullet-char-template-10004" transform="scale(0.00048828125,-0.00048828125)">
   <path d="M 285,-33 C 182,-33 111,30 74,156 52,228 41,333 41,471 41,549 55,616 82,672 116,743 169,778 240,778 293,778 328,747 346,684 L 369,508 C 377,444 397,411 428,410 L 1163,1116 C 1174,1127 1196,1133 1229,1133 1271,1133 1292,1118 1292,1087 L 1292,965 C 1292,929 1282,901 1262,881 L 442,47 C 390,-6 338,-33 285,-33 Z"/>
  </g>
  <g id="bullet-char-template-9679" transform="scale(0.00048828125,-0.00048828125)">
   <path d="M 813,0 C 632,0 489,54 383,161 276,268 223,411 223,592 223,773 276,916 383,1023 489,1130 632,1184 813,1184 992,1184 1136,1130 1245,1023 1353,916 1407,772 1407,592 1407,412 1353,268 1245,161 1136,54 992,0 813,0 Z"/>
  </g>
  <g id="bullet-char-template-8226" transform="scale(0.00048828125,-0.00048828125)">
   <path d="M 346,457 C 273,457 209,483 155,535 101,586 74,649 74,723 74,796 101,859 155,911 209,963 273,989 346,989 419,989 480,963 531,910 582,859 608,796 608,723 608,648 583,586 532,535 482,483 420,457 346,457 Z"/>
  </g>
  <g id="bullet-char-template-8211" transform="scale(0.00048828125,-0.00048828125)">
   <path d="M -4,459 L 1135,459 1135,606 -4,606 -4,459 Z"/>
  </g>
  <g id="bullet-char-template-61548" transform="scale(0.00048828125,-0.00048828125)">
   <path d="M 173,740 C 173,903 231,1043 346,1159 462,1274 601,1332 765,1332 928,1332 1067,1274 1183,1159 1299,1043 1357,903 1357,740 1357,577 1299,437 1183,322 1067,206 928,148 765,148 601,148 462,206 346,322 231,437 173,577 173,740 Z"/>
  </g>
 </defs>
 <defs class="TextEmbeddedBitmaps"/>
 <g class="SlideGroup">
  <g>
   <g id="container-id1">
    <g id="id1" class="Slide" clip-path="url(#presentation_clip_path)">
     <g class="Page">
      <g class="Group">
       <g class="com.sun.star.drawing.LineShape">
        <g id="id3">
         <rect class="BoundingBox" stroke="none" fill="none" x="12354" y="14197" width="483" height="1753"/>
         <path fill="none" stroke="rgb(237,28,36)" stroke-width="35" stroke-linejoin="round" d="M 12818,14215 L 12801,14282"/>
         <path fill="none" stroke="rgb(237,28,36)" stroke-width="35" stroke-linejoin="round" d="M 12783,14348 L 12766,14415"/>
         <path fill="none" stroke="rgb(237,28,36)" stroke-width="35" stroke-linejoin="round" d="M 12749,14482 L 12731,14549"/>
         <path fill="none" stroke="rgb(237,28,36)" stroke-width="35" stroke-linejoin="round" d="M 12714,14615 L 12697,14682"/>
         <path fill="none" stroke="rgb(237,28,36)" stroke-width="35" stroke-linejoin="round" d="M 12679,14749 L 12662,14816"/>
         <path fill="none" stroke="rgb(237,28,36)" stroke-width="35" stroke-linejoin="round" d="M 12645,14882 L 12627,14949"/>
         <path fill="none" stroke="rgb(237,28,36)" stroke-width="35" stroke-linejoin="round" d="M 12610,15016 L 12593,15083"/>
         <path fill="none" stroke="rgb(237,28,36)" stroke-width="35" stroke-linejoin="round" d="M 12575,15149 L 12558,15216"/>
         <path fill="none" stroke="rgb(237,28,36)" stroke-width="35" stroke-linejoin="round" d="M 12540,15283 L 12523,15349"/>
         <path fill="none" stroke="rgb(237,28,36)" stroke-width="35" stroke-linejoin="round" d="M 12506,15416 L 12488,15483"/>
         <path fill="none" stroke="rgb(237,28,36)" stroke-width="35" stroke-linejoin="round" d="M 12471,15550 L 12454,15616"/>
         <path fill="none" stroke="rgb(237,28,36)" stroke-width="35" stroke-linejoin="round" d="M 12436,15683 L 12419,15750"/>
         <path fill="none" stroke="rgb(237,28,36)" stroke-width="35" stroke-linejoin="round" d="M 12402,15817 L 12384,15883"/>
        </g>
       </g>
       <g class="com.sun.star.drawing.LineShape">
        <g id="id4">
         <rect class="BoundingBox" stroke="none" fill="none" x="12348" y="15913" width="43" height="1807"/>
         <path fill="none" stroke="rgb(237,28,36)" stroke-width="35" stroke-linejoin="round" d="M 12366,17701 L 12366,17632"/>
         <path fill="none" stroke="rgb(237,28,36)" stroke-width="35" stroke-linejoin="round" d="M 12366,17563 L 12367,17494"/>
         <path fill="none" stroke="rgb(237,28,36)" stroke-width="35" stroke-linejoin="round" d="M 12367,17425 L 12367,17356"/>
         <path fill="none" stroke="rgb(237,28,36)" stroke-width="35" stroke-linejoin="round" d="M 12367,17287 L 12368,17218"/>
         <path fill="none" stroke="rgb(237,28,36)" stroke-width="35" stroke-linejoin="round" d="M 12368,17149 L 12368,17080"/>
         <path fill="none" stroke="rgb(237,28,36)" stroke-width="35" stroke-linejoin="round" d="M 12368,17012 L 12369,16943"/>
         <path fill="none" stroke="rgb(237,28,36)" stroke-width="35" stroke-linejoin="round" d="M 12369,16874 L 12369,16805"/>
         <path fill="none" stroke="rgb(237,28,36)" stroke-width="35" stroke-linejoin="round" d="M 12369,16736 L 12370,16667"/>
         <path fill="none" stroke="rgb(237,28,36)" stroke-width="35" stroke-linejoin="round" d="M 12370,16598 L 12370,16529"/>
         <path fill="none" stroke="rgb(237,28,36)" stroke-width="35" stroke-linejoin="round" d="M 12370,16460 L 12370,16391"/>
         <path fill="none" stroke="rgb(237,28,36)" stroke-width="35" stroke-linejoin="round" d="M 12371,16322 L 12371,16253"/>
         <path fill="none" stroke="rgb(237,28,36)" stroke-width="35" stroke-linejoin="round" d="M 12371,16184 L 12371,16115"/>
         <path fill="none" stroke="rgb(237,28,36)" stroke-width="35" stroke-linejoin="round" d="M 12372,16046 L 12372,15977"/>
        </g>
       </g>
       <g class="com.sun.star.drawing.LineShape">
        <g id="id5">
         <rect class="BoundingBox" stroke="none" fill="none" x="10080" y="14600" width="2301" height="1338"/>
         <path fill="none" stroke="rgb(0,0,0)" stroke-width="28" stroke-linejoin="round" d="M 12366,15923 L 10269,14709"/>
         <path fill="rgb(0,0,0)" stroke="none" d="M 10080,14600 L 10239,14780 10315,14648 10080,14600 Z"/>
        </g>
       </g>
       <g class="com.sun.star.drawing.LineShape">
        <g id="id6">
         <rect class="BoundingBox" stroke="none" fill="none" x="10080" y="15917" width="2307" height="734"/>
         <path fill="none" stroke="rgb(0,0,0)" stroke-width="28" stroke-linejoin="round" d="M 12372,15931 L 10288,16580"/>
         <path fill="rgb(0,0,0)" stroke="none" d="M 10080,16645 L 10320,16650 10275,16505 10080,16645 Z"/>
        </g>
       </g>
       <g class="com.sun.star.drawing.LineShape">
        <g id="id7">
         <rect class="BoundingBox" stroke="none" fill="none" x="8175" y="14512" width="1793" height="1211"/>
         <path fill="none" stroke="rgb(0,0,0)" stroke-width="28" stroke-linejoin="round" d="M 9953,14526 L 8356,15600"/>
         <path fill="rgb(0,0,0)" stroke="none" d="M 8175,15722 L 8407,15658 8322,15532 8175,15722 Z"/>
        </g>
       </g>
       <g class="com.sun.star.drawing.LineShape">
        <g id="id8">
         <rect class="BoundingBox" stroke="none" fill="none" x="8175" y="16671" width="1793" height="1200"/>
         <path fill="none" stroke="rgb(0,0,0)" stroke-width="28" stroke-linejoin="round" d="M 9953,16685 L 8356,17749"/>
         <path fill="rgb(0,0,0)" stroke="none" d="M 8175,17870 L 8407,17807 8323,17680 8175,17870 Z"/>
        </g>
       </g>
       <g class="com.sun.star.drawing.LineShape">
        <g id="id9">
         <rect class="BoundingBox" stroke="none" fill="none" x="10080" y="16739" width="2301" height="977"/>
         <path fill="none" stroke="rgb(0,0,0)" stroke-width="28" stroke-linejoin="round" d="M 12366,17701 L 10281,16824"/>
         <path fill="rgb(0,0,0)" stroke="none" d="M 10080,16739 L 10261,16897 10320,16757 10080,16739 Z"/>
        </g>
       </g>
       <g class="com.sun.star.drawing.LineShape">
        <g id="id10">
         <rect class="BoundingBox" stroke="none" fill="none" x="10027" y="16812" width="1084" height="1920"/>
         <path fill="none" stroke="rgb(0,0,0)" stroke-width="28" stroke-linejoin="round" d="M 11096,18717 L 10134,17002"/>
         <path fill="rgb(0,0,0)" stroke="none" d="M 10027,16812 L 10072,17048 10205,16974 10027,16812 Z"/>
        </g>
       </g>
       <g class="com.sun.star.drawing.LineShape">
        <g id="id11">
         <rect class="BoundingBox" stroke="none" fill="none" x="12493" y="16988" width="2111" height="679"/>
         <path fill="none" stroke="rgb(0,0,0)" stroke-width="28" stroke-linejoin="round" d="M 14589,17002 L 12701,17596"/>
         <path fill="rgb(0,0,0)" stroke="none" d="M 12493,17661 L 12733,17665 12688,17520 12493,17661 Z"/>
        </g>
       </g>
       <g class="com.sun.star.drawing.LineShape">
        <g id="id12">
         <rect class="BoundingBox" stroke="none" fill="none" x="12493" y="15990" width="2111" height="1027"/>
         <path fill="none" stroke="rgb(0,0,0)" stroke-width="28" stroke-linejoin="round" d="M 14589,17002 L 12689,16085"/>
         <path fill="rgb(0,0,0)" stroke="none" d="M 12493,15990 L 12665,16158 12731,16021 12493,15990 Z"/>
        </g>
       </g>
       <g class="com.sun.star.drawing.LineShape">
        <g id="id13">
         <rect class="BoundingBox" stroke="none" fill="none" x="12493" y="14829" width="2365" height="1060"/>
         <path fill="none" stroke="rgb(0,0,0)" stroke-width="28" stroke-linejoin="round" d="M 14843,14843 L 12692,15799"/>
         <path fill="rgb(0,0,0)" stroke="none" d="M 12493,15888 L 12732,15865 12670,15726 12493,15888 Z"/>
        </g>
       </g>
       <g class="com.sun.star.drawing.LineShape">
        <g id="id14">
         <rect class="BoundingBox" stroke="none" fill="none" x="12938" y="14243" width="1920" height="615"/>
         <path fill="none" stroke="rgb(0,0,0)" stroke-width="28" stroke-linejoin="round" d="M 14843,14843 L 13146,14313"/>
         <path fill="rgb(0,0,0)" stroke="none" d="M 12938,14248 L 13133,14389 13178,14243 12938,14248 Z"/>
        </g>
       </g>
       <g class="com.sun.star.drawing.OpenBezierShape">
        <g id="id15">
         <rect class="BoundingBox" stroke="none" fill="none" x="15018" y="14865" width="1368" height="1021"/>
         <path fill="none" stroke="rgb(0,166,93)" stroke-width="35" stroke-linejoin="round" d="M 16367,15867 C 16358,15848 16348,15828 16335,15808"/>
         <path fill="none" stroke="rgb(0,166,93)" stroke-width="35" stroke-linejoin="round" d="M 16297,15750 C 16284,15732 16270,15714 16254,15696"/>
         <path fill="none" stroke="rgb(0,166,93)" stroke-width="35" stroke-linejoin="round" d="M 16209,15644 C 16194,15627 16178,15610 16161,15594"/>
         <path fill="none" stroke="rgb(0,166,93)" stroke-width="35" stroke-linejoin="round" d="M 16111,15546 C 16095,15530 16078,15515 16060,15499"/>
         <path fill="none" stroke="rgb(0,166,93)" stroke-width="35" stroke-linejoin="round" d="M 16008,15454 C 15990,15440 15972,15425 15954,15411"/>
         <path fill="none" stroke="rgb(0,166,93)" stroke-width="35" stroke-linejoin="round" d="M 15900,15368 C 15882,15354 15863,15340 15845,15326"/>
         <path fill="none" stroke="rgb(0,166,93)" stroke-width="35" stroke-linejoin="round" d="M 15789,15286 C 15770,15272 15751,15259 15732,15246"/>
         <path fill="none" stroke="rgb(0,166,93)" stroke-width="35" stroke-linejoin="round" d="M 15675,15208 C 15656,15195 15636,15182 15617,15170"/>
         <path fill="none" stroke="rgb(0,166,93)" stroke-width="35" stroke-linejoin="round" d="M 15558,15133 C 15539,15121 15519,15109 15500,15097"/>
         <path fill="none" stroke="rgb(0,166,93)" stroke-width="35" stroke-linejoin="round" d="M 15440,15062 C 15420,15050 15400,15039 15380,15028"/>
         <path fill="none" stroke="rgb(0,166,93)" stroke-width="35" stroke-linejoin="round" d="M 15319,14995 C 15298,14984 15278,14974 15257,14964"/>
         <path fill="rgb(0,166,93)" stroke="none" d="M 15019,14865 L 15213,15032 15275,14882 15019,14865 Z"/>
        </g>
       </g>
       <g class="com.sun.star.drawing.LineShape">
        <g id="id16">
         <rect class="BoundingBox" stroke="none" fill="none" x="11078" y="17683" width="1307" height="1053"/>
         <path fill="none" stroke="rgb(237,28,36)" stroke-width="35" stroke-linejoin="round" d="M 12366,17701 L 12312,17744"/>
         <path fill="none" stroke="rgb(237,28,36)" stroke-width="35" stroke-linejoin="round" d="M 12258,17787 L 12204,17830"/>
         <path fill="none" stroke="rgb(237,28,36)" stroke-width="35" stroke-linejoin="round" d="M 12151,17873 L 12097,17916"/>
         <path fill="none" stroke="rgb(237,28,36)" stroke-width="35" stroke-linejoin="round" d="M 12043,17959 L 11989,18003"/>
         <path fill="none" stroke="rgb(237,28,36)" stroke-width="35" stroke-linejoin="round" d="M 11935,18046 L 11881,18089"/>
         <path fill="none" stroke="rgb(237,28,36)" stroke-width="35" stroke-linejoin="round" d="M 11828,18132 L 11774,18175"/>
         <path fill="none" stroke="rgb(237,28,36)" stroke-width="35" stroke-linejoin="round" d="M 11720,18218 L 11666,18261"/>
         <path fill="none" stroke="rgb(237,28,36)" stroke-width="35" stroke-linejoin="round" d="M 11612,18304 L 11558,18347"/>
         <path fill="none" stroke="rgb(237,28,36)" stroke-width="35" stroke-linejoin="round" d="M 11505,18390 L 11451,18433"/>
         <path fill="none" stroke="rgb(237,28,36)" stroke-width="35" stroke-linejoin="round" d="M 11397,18476 L 11343,18519"/>
         <path fill="none" stroke="rgb(237,28,36)" stroke-width="35" stroke-linejoin="round" d="M 11289,18562 L 11235,18606"/>
         <path fill="none" stroke="rgb(237,28,36)" stroke-width="35" stroke-linejoin="round" d="M 11182,18649 L 11128,18692"/>
        </g>
       </g>
       <g class="com.sun.star.drawing.LineShape">
        <g id="id17">
         <rect class="BoundingBox" stroke="none" fill="none" x="14970" y="14970" width="1412" height="1031"/>
         <path fill="none" stroke="rgb(0,0,0)" stroke-width="28" stroke-linejoin="round" d="M 16367,15986 L 15146,15098"/>
         <path fill="rgb(0,0,0)" stroke="none" d="M 14970,14970 L 15110,15166 15199,15043 14970,14970 Z"/>
        </g>
       </g>
       <g class="com.sun.star.drawing.LineShape">
        <g id="id18">
         <rect class="BoundingBox" stroke="none" fill="none" x="8198" y="17986" width="2917" height="750"/>
         <path fill="none" stroke="rgb(0,166,93)" stroke-width="35" stroke-linejoin="round" d="M 11096,18717 L 11029,18701"/>
         <path fill="none" stroke="rgb(0,166,93)" stroke-width="35" stroke-linejoin="round" d="M 10962,18684 L 10895,18668"/>
         <path fill="none" stroke="rgb(0,166,93)" stroke-width="35" stroke-linejoin="round" d="M 10828,18651 L 10761,18635"/>
         <path fill="none" stroke="rgb(0,166,93)" stroke-width="35" stroke-linejoin="round" d="M 10694,18619 L 10627,18602"/>
         <path fill="none" stroke="rgb(0,166,93)" stroke-width="35" stroke-linejoin="round" d="M 10560,18586 L 10493,18569"/>
         <path fill="none" stroke="rgb(0,166,93)" stroke-width="35" stroke-linejoin="round" d="M 10426,18553 L 10359,18537"/>
         <path fill="none" stroke="rgb(0,166,93)" stroke-width="35" stroke-linejoin="round" d="M 10292,18520 L 10225,18504"/>
         <path fill="none" stroke="rgb(0,166,93)" stroke-width="35" stroke-linejoin="round" d="M 10158,18487 L 10091,18471"/>
         <path fill="none" stroke="rgb(0,166,93)" stroke-width="35" stroke-linejoin="round" d="M 10024,18454 L 9958,18438"/>
         <path fill="none" stroke="rgb(0,166,93)" stroke-width="35" stroke-linejoin="round" d="M 9891,18422 L 9824,18405"/>
         <path fill="none" stroke="rgb(0,166,93)" stroke-width="35" stroke-linejoin="round" d="M 9757,18389 L 9690,18372"/>
         <path fill="none" stroke="rgb(0,166,93)" stroke-width="35" stroke-linejoin="round" d="M 9623,18356 L 9556,18340"/>
         <path fill="none" stroke="rgb(0,166,93)" stroke-width="35" stroke-linejoin="round" d="M 9489,18323 L 9422,18307"/>
         <path fill="none" stroke="rgb(0,166,93)" stroke-width="35" stroke-linejoin="round" d="M 9355,18290 L 9288,18274"/>
         <path fill="none" stroke="rgb(0,166,93)" stroke-width="35" stroke-linejoin="round" d="M 9221,18258 L 9154,18241"/>
         <path fill="none" stroke="rgb(0,166,93)" stroke-width="35" stroke-linejoin="round" d="M 9087,18225 L 9020,18208"/>
         <path fill="none" stroke="rgb(0,166,93)" stroke-width="35" stroke-linejoin="round" d="M 8953,18192 L 8886,18176"/>
         <path fill="none" stroke="rgb(0,166,93)" stroke-width="35" stroke-linejoin="round" d="M 8819,18159 L 8752,18143"/>
         <path fill="none" stroke="rgb(0,166,93)" stroke-width="35" stroke-linejoin="round" d="M 8685,18126 L 8618,18110"/>
         <path fill="none" stroke="rgb(0,166,93)" stroke-width="35" stroke-linejoin="round" d="M 8551,18094 L 8484,18077"/>
         <path fill="rgb(0,166,93)" stroke="none" d="M 8198,18007 L 8415,18143 8453,17986 8198,18007 Z"/>
        </g>
       </g>
       <g class="com.sun.star.drawing.OpenBezierShape">
        <g id="id19">
         <rect class="BoundingBox" stroke="none" fill="none" x="10062" y="16797" width="2196" height="923"/>
         <path fill="none" stroke="rgb(0,166,93)" stroke-width="35" stroke-linejoin="round" d="M 12239,17701 C 12218,17701 12197,17700 12174,17699"/>
         <path fill="none" stroke="rgb(0,166,93)" stroke-width="35" stroke-linejoin="round" d="M 12103,17692 C 12081,17690 12059,17687 12036,17683"/>
         <path fill="none" stroke="rgb(0,166,93)" stroke-width="35" stroke-linejoin="round" d="M 11968,17671 C 11945,17667 11922,17662 11898,17657"/>
         <path fill="none" stroke="rgb(0,166,93)" stroke-width="35" stroke-linejoin="round" d="M 11833,17642 C 11811,17637 11788,17632 11766,17626"/>
         <path fill="none" stroke="rgb(0,166,93)" stroke-width="35" stroke-linejoin="round" d="M 11697,17608 C 11675,17602 11654,17595 11632,17589"/>
         <path fill="none" stroke="rgb(0,166,93)" stroke-width="35" stroke-linejoin="round" d="M 11566,17569 C 11544,17562 11522,17555 11499,17548"/>
         <path fill="none" stroke="rgb(0,166,93)" stroke-width="35" stroke-linejoin="round" d="M 11434,17526 C 11412,17519 11391,17511 11369,17504"/>
         <path fill="none" stroke="rgb(0,166,93)" stroke-width="35" stroke-linejoin="round" d="M 11304,17480 C 11282,17473 11260,17464 11239,17456"/>
         <path fill="none" stroke="rgb(0,166,93)" stroke-width="35" stroke-linejoin="round" d="M 11174,17431 C 11153,17423 11132,17414 11110,17406"/>
         <path fill="none" stroke="rgb(0,166,93)" stroke-width="35" stroke-linejoin="round" d="M 11046,17380 C 11025,17371 11004,17362 10983,17352"/>
         <path fill="none" stroke="rgb(0,166,93)" stroke-width="35" stroke-linejoin="round" d="M 10919,17325 C 10898,17315 10877,17306 10856,17296"/>
         <path fill="none" stroke="rgb(0,166,93)" stroke-width="35" stroke-linejoin="round" d="M 10795,17267 C 10773,17257 10752,17247 10731,17236"/>
         <path fill="none" stroke="rgb(0,166,93)" stroke-width="35" stroke-linejoin="round" d="M 10670,17205 C 10649,17195 10629,17185 10609,17174"/>
         <path fill="none" stroke="rgb(0,166,93)" stroke-width="35" stroke-linejoin="round" d="M 10548,17141 C 10527,17130 10507,17118 10487,17107"/>
         <path fill="none" stroke="rgb(0,166,93)" stroke-width="35" stroke-linejoin="round" d="M 10428,17072 C 10408,17060 10389,17048 10369,17036"/>
         <path fill="none" stroke="rgb(0,166,93)" stroke-width="35" stroke-linejoin="round" d="M 10310,16998 C 10291,16985 10272,16972 10254,16959"/>
         <path fill="rgb(0,166,93)" stroke="none" d="M 10063,16797 L 10186,17004 10285,16889 10063,16797 Z"/>
        </g>
       </g>
       <g class="com.sun.star.drawing.OpenBezierShape">
        <g id="id20">
         <rect class="BoundingBox" stroke="none" fill="none" x="8175" y="15721" width="1738" height="856"/>
         <path fill="none" stroke="rgb(0,166,93)" stroke-width="35" stroke-linejoin="round" d="M 9894,16558 C 9881,16542 9865,16526 9849,16510"/>
         <path fill="none" stroke="rgb(0,166,93)" stroke-width="35" stroke-linejoin="round" d="M 9796,16463 C 9780,16448 9762,16434 9744,16420"/>
         <path fill="none" stroke="rgb(0,166,93)" stroke-width="35" stroke-linejoin="round" d="M 9687,16377 C 9670,16364 9651,16351 9632,16338"/>
         <path fill="none" stroke="rgb(0,166,93)" stroke-width="35" stroke-linejoin="round" d="M 9573,16299 C 9554,16287 9535,16275 9516,16263"/>
         <path fill="none" stroke="rgb(0,166,93)" stroke-width="35" stroke-linejoin="round" d="M 9456,16227 C 9437,16216 9416,16204 9396,16193"/>
         <path fill="none" stroke="rgb(0,166,93)" stroke-width="35" stroke-linejoin="round" d="M 9336,16160 C 9316,16149 9295,16138 9275,16127"/>
         <path fill="none" stroke="rgb(0,166,93)" stroke-width="35" stroke-linejoin="round" d="M 9213,16096 C 9193,16085 9172,16075 9151,16065"/>
         <path fill="none" stroke="rgb(0,166,93)" stroke-width="35" stroke-linejoin="round" d="M 9089,16036 C 9068,16026 9047,16017 9025,16007"/>
         <path fill="none" stroke="rgb(0,166,93)" stroke-width="35" stroke-linejoin="round" d="M 8962,15980 C 8941,15971 8920,15962 8899,15954"/>
         <path fill="none" stroke="rgb(0,166,93)" stroke-width="35" stroke-linejoin="round" d="M 8834,15928 C 8812,15920 8791,15912 8769,15904"/>
         <path fill="none" stroke="rgb(0,166,93)" stroke-width="35" stroke-linejoin="round" d="M 8704,15881 C 8682,15874 8660,15867 8638,15860"/>
         <path fill="none" stroke="rgb(0,166,93)" stroke-width="35" stroke-linejoin="round" d="M 8573,15840 C 8550,15833 8528,15827 8505,15821"/>
         <path fill="none" stroke="rgb(0,166,93)" stroke-width="35" stroke-linejoin="round" d="M 8438,15805 C 8421,15801 8405,15797 8388,15794"/>
         <path fill="rgb(0,166,93)" stroke="none" d="M 8175,15770 L 8393,15872 8410,15721 8175,15770 Z"/>
        </g>
       </g>
       <g class="com.sun.star.drawing.OpenBezierShape">
        <g id="id21">
         <rect class="BoundingBox" stroke="none" fill="none" x="12524" y="15903" width="2023" height="991"/>
         <path fill="none" stroke="rgb(0,166,93)" stroke-width="35" stroke-linejoin="round" d="M 14528,16875 C 14515,16860 14500,16845 14483,16829"/>
         <path fill="none" stroke="rgb(0,166,93)" stroke-width="35" stroke-linejoin="round" d="M 14428,16782 C 14411,16769 14394,16755 14375,16742"/>
         <path fill="none" stroke="rgb(0,166,93)" stroke-width="35" stroke-linejoin="round" d="M 14317,16700 C 14299,16688 14280,16676 14261,16663"/>
         <path fill="none" stroke="rgb(0,166,93)" stroke-width="35" stroke-linejoin="round" d="M 14202,16626 C 14183,16614 14162,16602 14141,16589"/>
         <path fill="none" stroke="rgb(0,166,93)" stroke-width="35" stroke-linejoin="round" d="M 14083,16555 C 14064,16544 14043,16533 14023,16521"/>
         <path fill="none" stroke="rgb(0,166,93)" stroke-width="35" stroke-linejoin="round" d="M 13961,16487 C 13941,16477 13921,16466 13901,16456"/>
         <path fill="none" stroke="rgb(0,166,93)" stroke-width="35" stroke-linejoin="round" d="M 13840,16424 C 13819,16413 13798,16403 13777,16392"/>
         <path fill="none" stroke="rgb(0,166,93)" stroke-width="35" stroke-linejoin="round" d="M 13716,16362 C 13695,16352 13674,16342 13654,16332"/>
         <path fill="none" stroke="rgb(0,166,93)" stroke-width="35" stroke-linejoin="round" d="M 13591,16303 C 13570,16293 13549,16283 13528,16274"/>
         <path fill="none" stroke="rgb(0,166,93)" stroke-width="35" stroke-linejoin="round" d="M 13465,16246 C 13444,16236 13423,16227 13401,16218"/>
         <path fill="none" stroke="rgb(0,166,93)" stroke-width="35" stroke-linejoin="round" d="M 13338,16191 C 13317,16182 13295,16173 13274,16164"/>
         <path fill="none" stroke="rgb(0,166,93)" stroke-width="35" stroke-linejoin="round" d="M 13210,16138 C 13188,16130 13167,16122 13146,16114"/>
         <path fill="none" stroke="rgb(0,166,93)" stroke-width="35" stroke-linejoin="round" d="M 13081,16089 C 13059,16081 13037,16073 13015,16065"/>
         <path fill="none" stroke="rgb(0,166,93)" stroke-width="35" stroke-linejoin="round" d="M 12951,16042 C 12929,16035 12907,16028 12885,16021"/>
         <path fill="none" stroke="rgb(0,166,93)" stroke-width="35" stroke-linejoin="round" d="M 12818,15999 C 12796,15993 12775,15986 12754,15980"/>
         <path fill="rgb(0,166,93)" stroke="none" d="M 12524,15931 L 12731,16053 12763,15904 12524,15931 Z"/>
        </g>
       </g>
       <g class="com.sun.star.drawing.OpenBezierShape">
        <g id="id22">
         <rect class="BoundingBox" stroke="none" fill="none" x="9972" y="14681" width="2305" height="1289"/>
         <path fill="none" stroke="rgb(0,166,93)" stroke-width="35" stroke-linejoin="round" d="M 12258,15951 C 12238,15947 12218,15942 12196,15937"/>
         <path fill="none" stroke="rgb(0,166,93)" stroke-width="35" stroke-linejoin="round" d="M 12128,15918 C 12106,15911 12084,15904 12061,15896"/>
         <path fill="none" stroke="rgb(0,166,93)" stroke-width="35" stroke-linejoin="round" d="M 11998,15874 C 11976,15867 11954,15858 11931,15850"/>
         <path fill="none" stroke="rgb(0,166,93)" stroke-width="35" stroke-linejoin="round" d="M 11866,15824 C 11846,15816 11825,15807 11804,15799"/>
         <path fill="none" stroke="rgb(0,166,93)" stroke-width="35" stroke-linejoin="round" d="M 11740,15771 C 11719,15762 11697,15752 11675,15743"/>
         <path fill="none" stroke="rgb(0,166,93)" stroke-width="35" stroke-linejoin="round" d="M 11613,15715 C 11593,15705 11572,15696 11551,15686"/>
         <path fill="none" stroke="rgb(0,166,93)" stroke-width="35" stroke-linejoin="round" d="M 11488,15656 C 11467,15646 11446,15636 11425,15625"/>
         <path fill="none" stroke="rgb(0,166,93)" stroke-width="35" stroke-linejoin="round" d="M 11364,15595 C 11344,15585 11323,15574 11303,15564"/>
         <path fill="none" stroke="rgb(0,166,93)" stroke-width="35" stroke-linejoin="round" d="M 11241,15532 C 11220,15521 11200,15510 11179,15500"/>
         <path fill="none" stroke="rgb(0,166,93)" stroke-width="35" stroke-linejoin="round" d="M 11119,15467 C 11098,15456 11078,15445 11058,15434"/>
         <path fill="none" stroke="rgb(0,166,93)" stroke-width="35" stroke-linejoin="round" d="M 10998,15401 C 10978,15389 10958,15378 10938,15367"/>
         <path fill="none" stroke="rgb(0,166,93)" stroke-width="35" stroke-linejoin="round" d="M 10877,15332 C 10857,15321 10837,15309 10817,15297"/>
         <path fill="none" stroke="rgb(0,166,93)" stroke-width="35" stroke-linejoin="round" d="M 10758,15262 C 10738,15250 10719,15239 10700,15227"/>
         <path fill="none" stroke="rgb(0,166,93)" stroke-width="35" stroke-linejoin="round" d="M 10640,15190 C 10620,15178 10600,15165 10581,15153"/>
         <path fill="none" stroke="rgb(0,166,93)" stroke-width="35" stroke-linejoin="round" d="M 10523,15116 C 10504,15104 10485,15091 10466,15079"/>
         <path fill="none" stroke="rgb(0,166,93)" stroke-width="35" stroke-linejoin="round" d="M 10407,15039 C 10388,15026 10369,15013 10350,15000"/>
         <path fill="none" stroke="rgb(0,166,93)" stroke-width="35" stroke-linejoin="round" d="M 10296,14962 C 10276,14947 10257,14933 10238,14919"/>
         <path fill="none" stroke="rgb(0,166,93)" stroke-width="35" stroke-linejoin="round" d="M 10183,14877 C 10165,14863 10148,14849 10132,14836"/>
         <path fill="rgb(0,166,93)" stroke="none" d="M 9972,14681 L 10083,14894 10189,14785 9972,14681 Z"/>
        </g>
       </g>
       <g class="com.sun.star.drawing.OpenBezierShape">
        <g id="id23">
         <rect class="BoundingBox" stroke="none" fill="none" x="12980" y="14110" width="1755" height="625"/>
         <path fill="none" stroke="rgb(0,166,93)" stroke-width="35" stroke-linejoin="round" d="M 14716,14716 C 14702,14701 14686,14686 14667,14671"/>
         <path fill="none" stroke="rgb(0,166,93)" stroke-width="35" stroke-linejoin="round" d="M 14611,14630 C 14592,14618 14573,14606 14552,14595"/>
         <path fill="none" stroke="rgb(0,166,93)" stroke-width="35" stroke-linejoin="round" d="M 14491,14562 C 14471,14552 14450,14542 14428,14532"/>
         <path fill="none" stroke="rgb(0,166,93)" stroke-width="35" stroke-linejoin="round" d="M 14364,14504 C 14344,14496 14323,14487 14301,14479"/>
         <path fill="none" stroke="rgb(0,166,93)" stroke-width="35" stroke-linejoin="round" d="M 14235,14453 C 14214,14446 14193,14438 14171,14430"/>
         <path fill="none" stroke="rgb(0,166,93)" stroke-width="35" stroke-linejoin="round" d="M 14106,14408 C 14084,14401 14062,14394 14040,14387"/>
         <path fill="none" stroke="rgb(0,166,93)" stroke-width="35" stroke-linejoin="round" d="M 13974,14366 C 13952,14360 13930,14353 13908,14347"/>
         <path fill="none" stroke="rgb(0,166,93)" stroke-width="35" stroke-linejoin="round" d="M 13841,14328 C 13819,14322 13797,14316 13774,14310"/>
         <path fill="none" stroke="rgb(0,166,93)" stroke-width="35" stroke-linejoin="round" d="M 13708,14293 C 13685,14287 13663,14281 13640,14276"/>
         <path fill="none" stroke="rgb(0,166,93)" stroke-width="35" stroke-linejoin="round" d="M 13573,14260 C 13550,14255 13528,14250 13506,14245"/>
         <path fill="none" stroke="rgb(0,166,93)" stroke-width="35" stroke-linejoin="round" d="M 13437,14231 C 13415,14226 13393,14222 13371,14218"/>
         <path fill="none" stroke="rgb(0,166,93)" stroke-width="35" stroke-linejoin="round" d="M 13302,14205 C 13279,14201 13256,14197 13234,14193"/>
         <path fill="rgb(0,166,93)" stroke="none" d="M 12980,14167 L 13214,14272 13230,14110 12980,14167 Z"/>
        </g>
       </g>
       <g class="com.sun.star.drawing.LineShape">
        <g id="id24">
         <rect class="BoundingBox" stroke="none" fill="none" x="8175" y="15856" width="1793" height="844"/>
         <path fill="none" stroke="rgb(0,0,0)" stroke-width="28" stroke-linejoin="round" d="M 9953,16685 L 8372,15948"/>
         <path fill="rgb(0,0,0)" stroke="none" d="M 8175,15856 L 8350,16021 8414,15883 8175,15856 Z"/>
        </g>
       </g>
       <g class="com.sun.star.drawing.CustomShape">
        <g id="id25">
         <rect class="BoundingBox" stroke="none" fill="none" x="12211" y="15769" width="310" height="310"/>
         <path fill="rgb(0,166,93)" stroke="none" d="M 12493,15923 C 12493,15995 12438,16050 12366,16050 12294,16050 12239,15995 12239,15923 12239,15851 12294,15796 12366,15796 12438,15796 12493,15851 12493,15923 Z M 12493,15796 L 12493,15796 Z M 12238,16051 L 12238,16051 Z"/>
         <path fill="none" stroke="rgb(237,28,36)" stroke-width="53" stroke-linejoin="round" d="M 12493,15923 C 12493,15995 12438,16050 12366,16050 12294,16050 12239,15995 12239,15923 12239,15851 12294,15796 12366,15796 12438,15796 12493,15851 12493,15923 Z"/>
        </g>
       </g>
       <g class="com.sun.star.drawing.CustomShape">
        <g id="id26">
         <rect class="BoundingBox" stroke="none" fill="none" x="7893" y="15642" width="310" height="310"/>
         <path fill="rgb(0,166,93)" stroke="none" d="M 8175,15796 C 8175,15868 8120,15923 8048,15923 7976,15923 7921,15868 7921,15796 7921,15724 7976,15669 8048,15669 8120,15669 8175,15724 8175,15796 Z M 8175,15669 L 8175,15669 Z M 7920,15924 L 7920,15924 Z"/>
         <path fill="none" stroke="rgb(0,166,93)" stroke-width="53" stroke-linejoin="round" d="M 8175,15796 C 8175,15868 8120,15923 8048,15923 7976,15923 7921,15868 7921,15796 7921,15724 7976,15669 8048,15669 8120,15669 8175,15724 8175,15796 Z"/>
        </g>
       </g>
       <g class="com.sun.star.drawing.CustomShape">
        <g id="id27">
         <rect class="BoundingBox" stroke="none" fill="none" x="14688" y="14689" width="310" height="310"/>
         <path fill="rgb(0,166,93)" stroke="none" d="M 14970,14843 C 14970,14915 14915,14970 14843,14970 14771,14970 14716,14915 14716,14843 14716,14771 14771,14716 14843,14716 14915,14716 14970,14771 14970,14843 Z M 14970,14716 L 14970,14716 Z M 14715,14971 L 14715,14971 Z"/>
         <path fill="none" stroke="rgb(0,166,93)" stroke-width="53" stroke-linejoin="round" d="M 14970,14843 C 14970,14915 14915,14970 14843,14970 14771,14970 14716,14915 14716,14843 14716,14771 14771,14716 14843,14716 14915,14716 14970,14771 14970,14843 Z"/>
        </g>
       </g>
       <g class="com.sun.star.drawing.CustomShape">
        <g id="id28">
         <rect class="BoundingBox" stroke="none" fill="none" x="12211" y="17547" width="310" height="310"/>
         <path fill="rgb(0,166,93)" stroke="none" d="M 12493,17701 C 12493,17773 12438,17828 12366,17828 12294,17828 12239,17773 12239,17701 12239,17629 12294,17574 12366,17574 12438,17574 12493,17629 12493,17701 Z M 12493,17574 L 12493,17574 Z M 12238,17829 L 12238,17829 Z"/>
         <path fill="none" stroke="rgb(237,28,36)" stroke-width="53" stroke-linejoin="round" d="M 12493,17701 C 12493,17773 12438,17828 12366,17828 12294,17828 12239,17773 12239,17701 12239,17629 12294,17574 12366,17574 12438,17574 12493,17629 12493,17701 Z"/>
        </g>
       </g>
       <g class="com.sun.star.drawing.CustomShape">
        <g id="id29">
         <rect class="BoundingBox" stroke="none" fill="none" x="10941" y="18563" width="310" height="310"/>
         <path fill="rgb(0,166,93)" stroke="none" d="M 11223,18717 C 11223,18789 11168,18844 11096,18844 11024,18844 10969,18789 10969,18717 10969,18645 11024,18590 11096,18590 11168,18590 11223,18645 11223,18717 Z M 11223,18590 L 11223,18590 Z M 10968,18845 L 10968,18845 Z"/>
         <path fill="none" stroke="rgb(237,28,36)" stroke-width="53" stroke-linejoin="round" d="M 11223,18717 C 11223,18789 11168,18844 11096,18844 11024,18844 10969,18789 10969,18717 10969,18645 11024,18590 11096,18590 11168,18590 11223,18645 11223,18717 Z"/>
        </g>
       </g>
       <g class="com.sun.star.drawing.CustomShape">
        <g id="id30">
         <rect class="BoundingBox" stroke="none" fill="none" x="12656" y="14054" width="310" height="310"/>
         <path fill="rgb(0,166,93)" stroke="none" d="M 12938,14208 C 12938,14280 12883,14335 12811,14335 12739,14335 12684,14280 12684,14208 12684,14136 12739,14081 12811,14081 12883,14081 12938,14136 12938,14208 Z M 12938,14081 L 12938,14081 Z M 12683,14336 L 12683,14336 Z"/>
         <path fill="none" stroke="rgb(237,28,36)" stroke-width="53" stroke-linejoin="round" d="M 12938,14208 C 12938,14280 12883,14335 12811,14335 12739,14335 12684,14280 12684,14208 12684,14136 12739,14081 12811,14081 12883,14081 12938,14136 12938,14208 Z"/>
        </g>
       </g>
       <g class="com.sun.star.drawing.CustomShape">
        <g id="id31">
         <rect class="BoundingBox" stroke="none" fill="none" x="9798" y="14372" width="310" height="310"/>
         <path fill="rgb(0,166,93)" stroke="none" d="M 10080,14526 C 10080,14598 10025,14653 9953,14653 9881,14653 9826,14598 9826,14526 9826,14454 9881,14399 9953,14399 10025,14399 10080,14454 10080,14526 Z M 10080,14399 L 10080,14399 Z M 9825,14654 L 9825,14654 Z"/>
         <path fill="none" stroke="rgb(0,166,93)" stroke-width="53" stroke-linejoin="round" d="M 10080,14526 C 10080,14598 10025,14653 9953,14653 9881,14653 9826,14598 9826,14526 9826,14454 9881,14399 9953,14399 10025,14399 10080,14454 10080,14526 Z"/>
        </g>
       </g>
       <g class="com.sun.star.drawing.CustomShape">
        <g id="id32">
         <rect class="BoundingBox" stroke="none" fill="none" x="9798" y="16531" width="310" height="310"/>
         <path fill="rgb(0,166,93)" stroke="none" d="M 10080,16685 C 10080,16757 10025,16812 9953,16812 9881,16812 9826,16757 9826,16685 9826,16613 9881,16558 9953,16558 10025,16558 10080,16613 10080,16685 Z M 10080,16558 L 10080,16558 Z M 9825,16813 L 9825,16813 Z"/>
         <path fill="none" stroke="rgb(0,166,93)" stroke-width="53" stroke-linejoin="round" d="M 10080,16685 C 10080,16757 10025,16812 9953,16812 9881,16812 9826,16757 9826,16685 9826,16613 9881,16558 9953,16558 10025,16558 10080,16613 10080,16685 Z"/>
        </g>
       </g>
       <g class="com.sun.star.drawing.CustomShape">
        <g id="id33">
         <rect class="BoundingBox" stroke="none" fill="none" x="7893" y="17801" width="310" height="310"/>
         <path fill="rgb(0,166,93)" stroke="none" d="M 8175,17955 C 8175,18027 8120,18082 8048,18082 7976,18082 7921,18027 7921,17955 7921,17883 7976,17828 8048,17828 8120,17828 8175,17883 8175,17955 Z M 8175,17828 L 8175,17828 Z M 7920,18083 L 7920,18083 Z"/>
         <path fill="none" stroke="rgb(0,166,93)" stroke-width="53" stroke-linejoin="round" d="M 8175,17955 C 8175,18027 8120,18082 8048,18082 7976,18082 7921,18027 7921,17955 7921,17883 7976,17828 8048,17828 8120,17828 8175,17883 8175,17955 Z"/>
        </g>
       </g>
       <g class="com.sun.star.drawing.CustomShape">
        <g id="id34">
         <rect class="BoundingBox" stroke="none" fill="none" x="14434" y="16848" width="310" height="310"/>
         <path fill="rgb(0,166,93)" stroke="none" d="M 14716,17002 C 14716,17074 14661,17129 14589,17129 14517,17129 14462,17074 14462,17002 14462,16930 14517,16875 14589,16875 14661,16875 14716,16930 14716,17002 Z M 14716,16875 L 14716,16875 Z M 14461,17130 L 14461,17130 Z"/>
         <path fill="none" stroke="rgb(0,166,93)" stroke-width="53" stroke-linejoin="round" d="M 14716,17002 C 14716,17074 14661,17129 14589,17129 14517,17129 14462,17074 14462,17002 14462,16930 14517,16875 14589,16875 14661,16875 14716,16930 14716,17002 Z"/>
        </g>
       </g>
       <g class="com.sun.star.drawing.CustomShape">
        <g id="id35">
         <rect class="BoundingBox" stroke="none" fill="none" x="16212" y="15840" width="310" height="310"/>
         <path fill="rgb(0,166,93)" stroke="none" d="M 16494,15994 C 16494,16066 16439,16121 16367,16121 16295,16121 16240,16066 16240,15994 16240,15922 16295,15867 16367,15867 16439,15867 16494,15922 16494,15994 Z M 16494,15867 L 16494,15867 Z M 16239,16122 L 16239,16122 Z"/>
         <path fill="none" stroke="rgb(0,166,93)" stroke-width="53" stroke-linejoin="round" d="M 16494,15994 C 16494,16066 16439,16121 16367,16121 16295,16121 16240,16066 16240,15994 16240,15922 16295,15867 16367,15867 16439,15867 16494,15922 16494,15994 Z"/>
        </g>
       </g>
      </g>
     </g>
    </g>
   </g>
  </g>
 </g>
</svg>