<?xml version="1.0" encoding="UTF-8"?>
<!DOCTYPE svg PUBLIC "-//W3C//DTD SVG 1.1//EN" "http://www.w3.org/Graphics/SVG/1.1/DTD/svg11.dtd">
<svg version="1.2" width="114.84mm" height="46.26mm" viewBox="6562 6435 11484 4626" preserveAspectRatio="xMidYMid" fill-rule="evenodd" stroke-width="28.222" stroke-linejoin="round" xmlns="http://www.w3.org/2000/svg" xmlns:ooo="http://xml.openoffice.org/svg/export" xmlns:xlink="http://www.w3.org/1999/xlink" xmlns:presentation="http://sun.com/xmlns/staroffice/presentation" xmlns:smil="http://www.w3.org/2001/SMIL20/" xmlns:anim="urn:oasis:names:tc:opendocument:xmlns:animation:1.0" xml:space="preserve">
 <defs class="ClipPathGroup">
  <clipPath id="presentation_clip_path" clipPathUnits="userSpaceOnUse">
   <rect x="6562" y="6435" width="11484" height="4626"/>
  </clipPath>
  <clipPath id="presentation_clip_path_shrink" clipPathUnits="userSpaceOnUse">
   <rect x="6573" y="6439" width="11462" height="4617"/>
  </clipPath>
 </defs>
 <defs class="TextShapeIndex">
  <g ooo:slide="id1" ooo:id-list="id3 id4 id5 id6 id7 id8 id9 id10 id11 id12 id13 id14 id15 id16 id17 id18 id19 id20 id21 id22 id23 id24 id25 id26 id27 id28 id29 id30 id31 id32 id33"/>
 </defs>
 <defs class="EmbeddedBulletChars">
  <g id="bullet-char-template-57356" transform="scale(0.00048828125,-0.00048828125)">
   <path d="M 580,1141 L 1163,571 580,0 -4,571 580,1141 Z"/>
  </g>
  <g id="bullet-char-template-57354" transform="scale(0.00048828125,-0.00048828125)">
   <path d="M 8,1128 L 1137,1128 1137,0 8,0 8,1128 Z"/>
  </g>
  <g id="bullet-char-template-10146" transform="scale(0.00048828125,-0.00048828125)">
   <path d="M 174,0 L 602,739 174,1481 1456,739 174,0 Z M 1358,739 L 309,1346 659,739 1358,739 Z"/>
  </g>
  <g id="bullet-char-template-10132" transform="scale(0.00048828125,-0.00048828125)">
   <path d="M 2015,739 L 1276,0 717,0 1260,543 174,543 174,936 1260,936 717,1481 1274,1481 2015,739 Z"/>
  </g>
  <g id="bullet-char-template-10007" transform="scale(0.00048828125,-0.00048828125)">
   <path d="M 0,-2 C -7,14 -16,27 -25,37 L 356,567 C 262,823 215,952 215,954 215,979 228,992 255,992 264,992 276,990 289,987 310,991 331,999 354,1012 L 381,999 492,748 772,1049 836,1024 860,1049 C 881,1039 901,1025 922,1006 886,937 835,863 770,784 769,783 710,716 594,584 L 774,223 C 774,196 753,168 711,139 L 727,119 C 717,90 699,76 672,76 641,76 570,178 457,381 L 164,-76 C 142,-110 111,-127 72,-127 30,-127 9,-110 8,-76 1,-67 -2,-52 -2,-32 -2,-23 -1,-13 0,-2 Z"/>
  </g>
  <g id="bullet-char-template-10004" transform="scale(0.00048828125,-0.00048828125)">
   <path d="M 285,-33 C 182,-33 111,30 74,156 52,228 41,333 41,471 41,549 55,616 82,672 116,743 169,778 240,778 293,778 328,747 346,684 L 369,508 C 377,444 397,411 428,410 L 1163,1116 C 1174,1127 1196,1133 1229,1133 1271,1133 1292,1118 1292,1087 L 1292,965 C 1292,929 1282,901 1262,881 L 442,47 C 390,-6 338,-33 285,-33 Z"/>
  </g>
  <g id="bullet-char-template-9679" transform="scale(0.00048828125,-0.00048828125)">
   <path d="M 813,0 C 632,0 489,54 383,161 276,268 223,411 223,592 223,773 276,916 383,1023 489,1130 632,1184 813,1184 992,1184 1136,1130 1245,1023 1353,916 1407,772 1407,592 1407,412 1353,268 1245,161 1136,54 992,0 813,0 Z"/>
  </g>
  <g id="bullet-char-template-8226" transform="scale(0.00048828125,-0.00048828125)">
   <path d="M 346,457 C 273,457 209,483 155,535 101,586 74,649 74,723 74,796 101,859 155,911 209,963 273,989 346,989 419,989 480,963 531,910 582,859 608,796 608,723 608,648 583,586 532,535 482,483 420,457 346,457 Z"/>
  </g>
  <g id="bullet-char-template-8211" transform="scale(0.00048828125,-0.00048828125)">
   <path d="M -4,459 L 1135,459 1135,606 -4,606 -4,459 Z"/>
  </g>
  <g id="bullet-char-template-61548" transform="scale(0.00048828125,-0.00048828125)">
   <path d="M 173,740 C 173,903 231,1043 346,1159 462,1274 601,1332 765,1332 928,1332 1067,1274 1183,1159 1299,1043 1357,903 1357,740 1357,577 1299,437 1183,322 1067,206 928,148 765,148 601,148 462,206 346,322 231,437 173,577 173,740 Z"/>
  </g>
 </defs>
 <defs class="TextEmbeddedBitmaps"/>
 <g class="SlideGroup">
  <g>
   <g id="container-id1">
    <g id="id1" class="Slide" clip-path="url(#presentation_clip_path)">
     <g class="Page">
      <g class="Group">
       <g class="com.sun.star.drawing.LineShape">
        <g id="id3">
         <rect class="BoundingBox" stroke="none" fill="none" x="10117" y="7831" width="817" height="3103"/>
         <path fill="none" stroke="rgb(0,166,93)" stroke-width="53" stroke-linejoin="round" d="M 10906,7858 L 10881,7959"/>
         <path fill="none" stroke="rgb(0,166,93)" stroke-width="53" stroke-linejoin="round" d="M 10855,8061 L 10830,8162"/>
         <path fill="none" stroke="rgb(0,166,93)" stroke-width="53" stroke-linejoin="round" d="M 10805,8263 L 10779,8364"/>
         <path fill="none" stroke="rgb(0,166,93)" stroke-width="53" stroke-linejoin="round" d="M 10754,8466 L 10729,8567"/>
         <path fill="none" stroke="rgb(0,166,93)" stroke-width="53" stroke-linejoin="round" d="M 10703,8668 L 10678,8770"/>
         <path fill="none" stroke="rgb(0,166,93)" stroke-width="53" stroke-linejoin="round" d="M 10653,8871 L 10627,8972"/>
         <path fill="none" stroke="rgb(0,166,93)" stroke-width="53" stroke-linejoin="round" d="M 10602,9074 L 10577,9175"/>
         <path fill="none" stroke="rgb(0,166,93)" stroke-width="53" stroke-linejoin="round" d="M 10551,9276 L 10526,9377"/>
         <path fill="none" stroke="rgb(0,166,93)" stroke-width="53" stroke-linejoin="round" d="M 10501,9479 L 10476,9580"/>
         <path fill="none" stroke="rgb(0,166,93)" stroke-width="53" stroke-linejoin="round" d="M 10450,9681 L 10425,9783"/>
         <path fill="none" stroke="rgb(0,166,93)" stroke-width="53" stroke-linejoin="round" d="M 10400,9884 L 10374,9985"/>
         <path fill="none" stroke="rgb(0,166,93)" stroke-width="53" stroke-linejoin="round" d="M 10349,10086 L 10324,10188"/>
         <path fill="none" stroke="rgb(0,166,93)" stroke-width="53" stroke-linejoin="round" d="M 10298,10289 L 10273,10390"/>
         <path fill="none" stroke="rgb(0,166,93)" stroke-width="53" stroke-linejoin="round" d="M 10248,10492 L 10222,10593"/>
         <path fill="none" stroke="rgb(0,166,93)" stroke-width="53" stroke-linejoin="round" d="M 10197,10694 L 10172,10795"/>
         <path fill="none" stroke="rgb(0,166,93)" stroke-width="53" stroke-linejoin="round" d="M 10146,10897 L 10144,10906"/>
        </g>
       </g>
       <g class="com.sun.star.drawing.LineShape">
        <g id="id4">
         <rect class="BoundingBox" stroke="none" fill="none" x="6688" y="8974" width="2214" height="55"/>
         <path fill="none" stroke="rgb(237,28,36)" stroke-width="53" stroke-linejoin="round" d="M 8874,9001 L 8770,9001"/>
         <path fill="none" stroke="rgb(237,28,36)" stroke-width="53" stroke-linejoin="round" d="M 8665,9001 L 8561,9001"/>
         <path fill="none" stroke="rgb(237,28,36)" stroke-width="53" stroke-linejoin="round" d="M 8456,9001 L 8352,9001"/>
         <path fill="none" stroke="rgb(237,28,36)" stroke-width="53" stroke-linejoin="round" d="M 8248,9001 L 8143,9001"/>
         <path fill="none" stroke="rgb(237,28,36)" stroke-width="53" stroke-linejoin="round" d="M 8039,9001 L 7934,9001"/>
         <path fill="none" stroke="rgb(237,28,36)" stroke-width="53" stroke-linejoin="round" d="M 7830,9001 L 7725,9001"/>
         <path fill="none" stroke="rgb(237,28,36)" stroke-width="53" stroke-linejoin="round" d="M 7621,9001 L 7517,9001"/>
         <path fill="none" stroke="rgb(237,28,36)" stroke-width="53" stroke-linejoin="round" d="M 7412,9001 L 7308,9001"/>
         <path fill="none" stroke="rgb(237,28,36)" stroke-width="53" stroke-linejoin="round" d="M 7203,9001 L 7099,9001"/>
         <path fill="none" stroke="rgb(237,28,36)" stroke-width="53" stroke-linejoin="round" d="M 6995,9001 L 6890,9001"/>
         <path fill="none" stroke="rgb(237,28,36)" stroke-width="53" stroke-linejoin="round" d="M 6786,9001 L 6715,9001"/>
        </g>
       </g>
       <g class="com.sun.star.drawing.CustomShape">
        <g id="id5">
         <rect class="BoundingBox" stroke="none" fill="none" x="7958" y="6434" width="310" height="310"/>
         <path fill="rgb(0,0,0)" stroke="none" d="M 8112,6461 C 8184,6461 8239,6516 8239,6588 8239,6660 8184,6715 8112,6715 8040,6715 7985,6660 7985,6588 7985,6516 8040,6461 8112,6461 Z M 7985,6461 L 7985,6461 Z M 8240,6716 L 8240,6716 Z"/>
         <path fill="none" stroke="rgb(0,0,0)" stroke-width="53" stroke-linejoin="round" d="M 8112,6461 C 8184,6461 8239,6516 8239,6588 8239,6660 8184,6715 8112,6715 8040,6715 7985,6660 7985,6588 7985,6516 8040,6461 8112,6461 Z"/>
        </g>
       </g>
       <g class="com.sun.star.drawing.LineShape">
        <g id="id6">
         <rect class="BoundingBox" stroke="none" fill="none" x="6789" y="6574" width="1338" height="2301"/>
         <path fill="none" stroke="rgb(0,0,0)" stroke-width="28" stroke-linejoin="round" d="M 8112,6588 L 6898,8685"/>
         <path fill="rgb(0,0,0)" stroke="none" d="M 6789,8874 L 6969,8715 6837,8639 6789,8874 Z"/>
        </g>
       </g>
       <g class="com.sun.star.drawing.CustomShape">
        <g id="id7">
         <rect class="BoundingBox" stroke="none" fill="none" x="6561" y="8847" width="310" height="310"/>
         <path fill="rgb(0,0,0)" stroke="none" d="M 6715,8874 C 6787,8874 6842,8929 6842,9001 6842,9073 6787,9128 6715,9128 6643,9128 6588,9073 6588,9001 6588,8929 6643,8874 6715,8874 Z M 6588,8874 L 6588,8874 Z M 6843,9129 L 6843,9129 Z"/>
         <path fill="none" stroke="rgb(0,0,0)" stroke-width="53" stroke-linejoin="round" d="M 6715,8874 C 6787,8874 6842,8929 6842,9001 6842,9073 6787,9128 6715,9128 6643,9128 6588,9073 6588,9001 6588,8929 6643,8874 6715,8874 Z"/>
        </g>
       </g>
       <g class="com.sun.star.drawing.CustomShape">
        <g id="id8">
         <rect class="BoundingBox" stroke="none" fill="none" x="8720" y="8847" width="310" height="310"/>
         <path fill="rgb(0,0,0)" stroke="none" d="M 8874,8874 C 8946,8874 9001,8929 9001,9001 9001,9073 8946,9128 8874,9128 8802,9128 8747,9073 8747,9001 8747,8929 8802,8874 8874,8874 Z M 8747,8874 L 8747,8874 Z M 9002,9129 L 9002,9129 Z"/>
         <path fill="none" stroke="rgb(0,0,0)" stroke-width="53" stroke-linejoin="round" d="M 8874,8874 C 8946,8874 9001,8929 9001,9001 9001,9073 8946,9128 8874,9128 8802,9128 8747,9073 8747,9001 8747,8929 8802,8874 8874,8874 Z"/>
        </g>
       </g>
       <g class="com.sun.star.drawing.CustomShape">
        <g id="id9">
         <rect class="BoundingBox" stroke="none" fill="none" x="7831" y="10752" width="310" height="310"/>
         <path fill="rgb(0,0,0)" stroke="none" d="M 7985,10779 C 8057,10779 8112,10834 8112,10906 8112,10978 8057,11033 7985,11033 7913,11033 7858,10978 7858,10906 7858,10834 7913,10779 7985,10779 Z M 7858,10779 L 7858,10779 Z M 8113,11034 L 8113,11034 Z"/>
         <path fill="none" stroke="rgb(0,0,0)" stroke-width="53" stroke-linejoin="round" d="M 7985,10779 C 8057,10779 8112,10834 8112,10906 8112,10978 8057,11033 7985,11033 7913,11033 7858,10978 7858,10906 7858,10834 7913,10779 7985,10779 Z"/>
        </g>
       </g>
       <g class="com.sun.star.drawing.CustomShape">
        <g id="id10">
         <rect class="BoundingBox" stroke="none" fill="none" x="9990" y="10752" width="310" height="310"/>
         <path fill="rgb(0,0,0)" stroke="none" d="M 10144,10779 C 10216,10779 10271,10834 10271,10906 10271,10978 10216,11033 10144,11033 10072,11033 10017,10978 10017,10906 10017,10834 10072,10779 10144,10779 Z M 10017,10779 L 10017,10779 Z M 10272,11034 L 10272,11034 Z"/>
         <path fill="none" stroke="rgb(0,0,0)" stroke-width="53" stroke-linejoin="round" d="M 10144,10779 C 10216,10779 10271,10834 10271,10906 10271,10978 10216,11033 10144,11033 10072,11033 10017,10978 10017,10906 10017,10834 10072,10779 10144,10779 Z"/>
        </g>
       </g>
       <g class="com.sun.star.drawing.CustomShape">
        <g id="id11">
         <rect class="BoundingBox" stroke="none" fill="none" x="9736" y="6434" width="310" height="310"/>
         <path fill="rgb(0,0,0)" stroke="none" d="M 9890,6461 C 9962,6461 10017,6516 10017,6588 10017,6660 9962,6715 9890,6715 9818,6715 9763,6660 9763,6588 9763,6516 9818,6461 9890,6461 Z M 9763,6461 L 9763,6461 Z M 10018,6716 L 10018,6716 Z"/>
         <path fill="none" stroke="rgb(0,0,0)" stroke-width="53" stroke-linejoin="round" d="M 9890,6461 C 9962,6461 10017,6516 10017,6588 10017,6660 9962,6715 9890,6715 9818,6715 9763,6660 9763,6588 9763,6516 9818,6461 9890,6461 Z"/>
        </g>
       </g>
       <g class="com.sun.star.drawing.CustomShape">
        <g id="id12">
         <rect class="BoundingBox" stroke="none" fill="none" x="10752" y="7704" width="310" height="310"/>
         <path fill="rgb(0,0,0)" stroke="none" d="M 10906,7731 C 10978,7731 11033,7786 11033,7858 11033,7930 10978,7985 10906,7985 10834,7985 10779,7930 10779,7858 10779,7786 10834,7731 10906,7731 Z M 10779,7731 L 10779,7731 Z M 11034,7986 L 11034,7986 Z"/>
         <path fill="none" stroke="rgb(0,0,0)" stroke-width="53" stroke-linejoin="round" d="M 10906,7731 C 10978,7731 11033,7786 11033,7858 11033,7930 10978,7985 10906,7985 10834,7985 10779,7930 10779,7858 10779,7786 10834,7731 10906,7731 Z"/>
        </g>
       </g>
       <g class="com.sun.star.drawing.LineShape">
        <g id="id13">
         <rect class="BoundingBox" stroke="none" fill="none" x="8106" y="6568" width="734" height="2307"/>
         <path fill="none" stroke="rgb(0,0,0)" stroke-width="28" stroke-linejoin="round" d="M 8120,6582 L 8769,8666"/>
         <path fill="rgb(0,0,0)" stroke="none" d="M 8834,8874 L 8839,8634 8694,8679 8834,8874 Z"/>
        </g>
       </g>
       <g class="com.sun.star.drawing.LineShape">
        <g id="id14">
         <rect class="BoundingBox" stroke="none" fill="none" x="8045" y="8987" width="844" height="1793"/>
         <path fill="none" stroke="rgb(0,0,0)" stroke-width="28" stroke-linejoin="round" d="M 8874,9001 L 8137,10582"/>
         <path fill="rgb(0,0,0)" stroke="none" d="M 8045,10779 L 8210,10604 8072,10540 8045,10779 Z"/>
        </g>
       </g>
       <g class="com.sun.star.drawing.LineShape">
        <g id="id15">
         <rect class="BoundingBox" stroke="none" fill="none" x="6701" y="8987" width="1211" height="1793"/>
         <path fill="none" stroke="rgb(0,0,0)" stroke-width="28" stroke-linejoin="round" d="M 6715,9001 L 7789,10598"/>
         <path fill="rgb(0,0,0)" stroke="none" d="M 7911,10779 L 7847,10547 7721,10632 7911,10779 Z"/>
        </g>
       </g>
       <g class="com.sun.star.drawing.LineShape">
        <g id="id16">
         <rect class="BoundingBox" stroke="none" fill="none" x="8860" y="8987" width="1200" height="1793"/>
         <path fill="none" stroke="rgb(0,0,0)" stroke-width="28" stroke-linejoin="round" d="M 8874,9001 L 9938,10598"/>
         <path fill="rgb(0,0,0)" stroke="none" d="M 10059,10779 L 9996,10547 9869,10631 10059,10779 Z"/>
        </g>
       </g>
       <g class="com.sun.star.drawing.LineShape">
        <g id="id17">
         <rect class="BoundingBox" stroke="none" fill="none" x="8928" y="6574" width="977" height="2301"/>
         <path fill="none" stroke="rgb(0,0,0)" stroke-width="28" stroke-linejoin="round" d="M 9890,6588 L 9013,8673"/>
         <path fill="rgb(0,0,0)" stroke="none" d="M 8928,8874 L 9086,8693 8946,8634 8928,8874 Z"/>
        </g>
       </g>
       <g class="com.sun.star.drawing.LineShape">
        <g id="id18">
         <rect class="BoundingBox" stroke="none" fill="none" x="9001" y="7844" width="1920" height="1084"/>
         <path fill="none" stroke="rgb(0,0,0)" stroke-width="28" stroke-linejoin="round" d="M 10906,7858 L 9191,8820"/>
         <path fill="rgb(0,0,0)" stroke="none" d="M 9001,8927 L 9237,8882 9163,8749 9001,8927 Z"/>
        </g>
       </g>
      </g>
      <g class="Group">
       <g class="com.sun.star.drawing.LineShape">
        <g id="id19">
         <rect class="BoundingBox" stroke="none" fill="none" x="13774" y="6574" width="1338" height="2301"/>
         <path fill="none" stroke="rgb(237,28,36)" stroke-width="28" stroke-linejoin="round" d="M 15097,6588 L 13883,8685"/>
         <path fill="rgb(237,28,36)" stroke="none" d="M 13774,8874 L 13954,8715 13822,8639 13774,8874 Z"/>
        </g>
       </g>
       <g class="com.sun.star.drawing.LineShape">
        <g id="id20">
         <rect class="BoundingBox" stroke="none" fill="none" x="15091" y="6568" width="734" height="2307"/>
         <path fill="none" stroke="rgb(0,102,179)" stroke-width="28" stroke-linejoin="round" d="M 15105,6582 L 15754,8666"/>
         <path fill="rgb(0,102,179)" stroke="none" d="M 15819,8874 L 15824,8634 15679,8679 15819,8874 Z"/>
        </g>
       </g>
       <g class="com.sun.star.drawing.LineShape">
        <g id="id21">
         <rect class="BoundingBox" stroke="none" fill="none" x="13827" y="8925" width="2047" height="153"/>
         <path fill="none" stroke="rgb(0,102,179)" stroke-width="28" stroke-linejoin="round" d="M 15859,9001 L 14045,9001"/>
         <path fill="rgb(0,102,179)" stroke="none" d="M 13827,9001 L 14055,9077 14055,8925 13827,9001 Z"/>
        </g>
       </g>
       <g class="com.sun.star.drawing.CustomShape">
        <g id="id22">
         <rect class="BoundingBox" stroke="none" fill="none" x="14943" y="6434" width="310" height="310"/>
         <path fill="rgb(0,0,0)" stroke="none" d="M 15097,6461 C 15169,6461 15224,6516 15224,6588 15224,6660 15169,6715 15097,6715 15025,6715 14970,6660 14970,6588 14970,6516 15025,6461 15097,6461 Z M 14970,6461 L 14970,6461 Z M 15225,6716 L 15225,6716 Z"/>
         <path fill="none" stroke="rgb(0,0,0)" stroke-width="53" stroke-linejoin="round" d="M 15097,6461 C 15169,6461 15224,6516 15224,6588 15224,6660 15169,6715 15097,6715 15025,6715 14970,6660 14970,6588 14970,6516 15025,6461 15097,6461 Z"/>
        </g>
       </g>
       <g class="com.sun.star.drawing.CustomShape">
        <g id="id23">
         <rect class="BoundingBox" stroke="none" fill="none" x="13546" y="8847" width="310" height="310"/>
         <path fill="rgb(0,0,0)" stroke="none" d="M 13700,8874 C 13772,8874 13827,8929 13827,9001 13827,9073 13772,9128 13700,9128 13628,9128 13573,9073 13573,9001 13573,8929 13628,8874 13700,8874 Z M 13573,8874 L 13573,8874 Z M 13828,9129 L 13828,9129 Z"/>
         <path fill="none" stroke="rgb(0,0,0)" stroke-width="53" stroke-linejoin="round" d="M 13700,8874 C 13772,8874 13827,8929 13827,9001 13827,9073 13772,9128 13700,9128 13628,9128 13573,9073 13573,9001 13573,8929 13628,8874 13700,8874 Z"/>
        </g>
       </g>
       <g class="com.sun.star.drawing.CustomShape">
        <g id="id24">
         <rect class="BoundingBox" stroke="none" fill="none" x="15705" y="8847" width="310" height="310"/>
         <path fill="rgb(0,0,0)" stroke="none" d="M 15859,8874 C 15931,8874 15986,8929 15986,9001 15986,9073 15931,9128 15859,9128 15787,9128 15732,9073 15732,9001 15732,8929 15787,8874 15859,8874 Z M 15732,8874 L 15732,8874 Z M 15987,9129 L 15987,9129 Z"/>
         <path fill="none" stroke="rgb(0,0,0)" stroke-width="53" stroke-linejoin="round" d="M 15859,8874 C 15931,8874 15986,8929 15986,9001 15986,9073 15931,9128 15859,9128 15787,9128 15732,9073 15732,9001 15732,8929 15787,8874 15859,8874 Z"/>
        </g>
       </g>
       <g class="com.sun.star.drawing.CustomShape">
        <g id="id25">
         <rect class="BoundingBox" stroke="none" fill="none" x="14816" y="10752" width="310" height="310"/>
         <path fill="rgb(0,0,0)" stroke="none" d="M 14970,10779 C 15042,10779 15097,10834 15097,10906 15097,10978 15042,11033 14970,11033 14898,11033 14843,10978 14843,10906 14843,10834 14898,10779 14970,10779 Z M 14843,10779 L 14843,10779 Z M 15098,11034 L 15098,11034 Z"/>
         <path fill="none" stroke="rgb(0,0,0)" stroke-width="53" stroke-linejoin="round" d="M 14970,10779 C 15042,10779 15097,10834 15097,10906 15097,10978 15042,11033 14970,11033 14898,11033 14843,10978 14843,10906 14843,10834 14898,10779 14970,10779 Z"/>
        </g>
       </g>
       <g class="com.sun.star.drawing.CustomShape">
        <g id="id26">
         <rect class="BoundingBox" stroke="none" fill="none" x="16975" y="10752" width="310" height="310"/>
         <path fill="rgb(0,0,0)" stroke="none" d="M 17129,10779 C 17201,10779 17256,10834 17256,10906 17256,10978 17201,11033 17129,11033 17057,11033 17002,10978 17002,10906 17002,10834 17057,10779 17129,10779 Z M 17002,10779 L 17002,10779 Z M 17257,11034 L 17257,11034 Z"/>
         <path fill="none" stroke="rgb(0,0,0)" stroke-width="53" stroke-linejoin="round" d="M 17129,10779 C 17201,10779 17256,10834 17256,10906 17256,10978 17201,11033 17129,11033 17057,11033 17002,10978 17002,10906 17002,10834 17057,10779 17129,10779 Z"/>
        </g>
       </g>
       <g class="com.sun.star.drawing.CustomShape">
        <g id="id27">
         <rect class="BoundingBox" stroke="none" fill="none" x="16721" y="6434" width="310" height="310"/>
         <path fill="rgb(0,0,0)" stroke="none" d="M 16875,6461 C 16947,6461 17002,6516 17002,6588 17002,6660 16947,6715 16875,6715 16803,6715 16748,6660 16748,6588 16748,6516 16803,6461 16875,6461 Z M 16748,6461 L 16748,6461 Z M 17003,6716 L 17003,6716 Z"/>
         <path fill="none" stroke="rgb(0,0,0)" stroke-width="53" stroke-linejoin="round" d="M 16875,6461 C 16947,6461 17002,6516 17002,6588 17002,6660 16947,6715 16875,6715 16803,6715 16748,6660 16748,6588 16748,6516 16803,6461 16875,6461 Z"/>
        </g>
       </g>
       <g class="com.sun.star.drawing.CustomShape">
        <g id="id28">
         <rect class="BoundingBox" stroke="none" fill="none" x="17737" y="7704" width="310" height="310"/>
         <path fill="rgb(0,0,0)" stroke="none" d="M 17891,7731 C 17963,7731 18018,7786 18018,7858 18018,7930 17963,7985 17891,7985 17819,7985 17764,7930 17764,7858 17764,7786 17819,7731 17891,7731 Z M 17764,7731 L 17764,7731 Z M 18019,7986 L 18019,7986 Z"/>
         <path fill="none" stroke="rgb(0,0,0)" stroke-width="53" stroke-linejoin="round" d="M 17891,7731 C 17963,7731 18018,7786 18018,7858 18018,7930 17963,7985 17891,7985 17819,7985 17764,7930 17764,7858 17764,7786 17819,7731 17891,7731 Z"/>
        </g>
       </g>
       <g class="com.sun.star.drawing.LineShape">
        <g id="id29">
         <rect class="BoundingBox" stroke="none" fill="none" x="15030" y="8987" width="844" height="1793"/>
         <path fill="none" stroke="rgb(0,0,0)" stroke-width="28" stroke-linejoin="round" d="M 15859,9001 L 15122,10582"/>
         <path fill="rgb(0,0,0)" stroke="none" d="M 15030,10779 L 15195,10604 15057,10540 15030,10779 Z"/>
        </g>
       </g>
       <g class="com.sun.star.drawing.LineShape">
        <g id="id30">
         <rect class="BoundingBox" stroke="none" fill="none" x="13686" y="8987" width="1211" height="1793"/>
         <path fill="none" stroke="rgb(0,0,0)" stroke-width="28" stroke-linejoin="round" d="M 13700,9001 L 14774,10598"/>
         <path fill="rgb(0,0,0)" stroke="none" d="M 14896,10779 L 14832,10547 14706,10632 14896,10779 Z"/>
        </g>
       </g>
       <g class="com.sun.star.drawing.LineShape">
        <g id="id31">
         <rect class="BoundingBox" stroke="none" fill="none" x="15845" y="8987" width="1200" height="1793"/>
         <path fill="none" stroke="rgb(0,0,0)" stroke-width="28" stroke-linejoin="round" d="M 15859,9001 L 16923,10598"/>
         <path fill="rgb(0,0,0)" stroke="none" d="M 17044,10779 L 16981,10547 16854,10631 17044,10779 Z"/>
        </g>
       </g>
       <g class="com.sun.star.drawing.LineShape">
        <g id="id32">
         <rect class="BoundingBox" stroke="none" fill="none" x="15913" y="6574" width="977" height="2301"/>
         <path fill="none" stroke="rgb(0,0,0)" stroke-width="28" stroke-linejoin="round" d="M 16875,6588 L 15998,8673"/>
         <path fill="rgb(0,0,0)" stroke="none" d="M 15913,8874 L 16071,8693 15931,8634 15913,8874 Z"/>
        </g>
       </g>
       <g class="com.sun.star.drawing.LineShape">
        <g id="id33">
         <rect class="BoundingBox" stroke="none" fill="none" x="15986" y="7844" width="1920" height="1084"/>
         <path fill="none" stroke="rgb(0,0,0)" stroke-width="28" stroke-linejoin="round" d="M 17891,7858 L 16176,8820"/>
         <path fill="rgb(0,0,0)" stroke="none" d="M 15986,8927 L 16222,8882 16148,8749 15986,8927 Z"/>
        </g>
       </g>
      </g>
     </g>
    </g>
   </g>
  </g>
 </g>
</svg>