<?xml version="1.0" encoding="UTF-8"?>
<!DOCTYPE svg PUBLIC "-//W3C//DTD SVG 1.1//EN" "http://www.w3.org/Graphics/SVG/1.1/DTD/svg11.dtd">
<svg version="1.2" width="83.24mm" height="48.17mm" viewBox="7894 14055 8324 4817" preserveAspectRatio="xMidYMid" fill-rule="evenodd" stroke-width="28.222" stroke-linejoin="round" xmlns="http://www.w3.org/2000/svg" xmlns:ooo="http://xml.openoffice.org/svg/export" xmlns:xlink="http://www.w3.org/1999/xlink" xmlns:presentation="http://sun.com/xmlns/staroffice/presentation" xmlns:smil="http://www.w3.org/2001/SMIL20/" xmlns:anim="urn:oasis:names:tc:opendocument:xmlns:animation:1.0" xml:space="preserve">
 <defs class="ClipPathGroup">
  <clipPath id="presentation_clip_path" clipPathUnits="userSpaceOnUse">
   <rect x="7894" y="14055" width="8324" height="4817"/>
  </clipPath>
  <clipPath id="presentation_clip_path_shrink" clipPathUnits="userSpaceOnUse">
   <rect x="7902" y="14059" width="8308" height="4808"/>
  </clipPath>
 </defs>
 <defs class="TextShapeIndex">
  <g ooo:slide="id1" ooo:id-list="id3 id4 id5 id6 id7 id8 id9 id10 id11 id12 id13 id14 id15 id16 id17 id18 id19 id20 id21 id22 id23 id24 id25 id26 id27 id28 id29 id30 id31"/>
 </defs>
 <defs class="EmbeddedBulletChars">
  <g id="bullet-char-template-57356" transform="scale(0.00048828125,-0.00048828125)">
   <path d="M 580,1141 L 1163,571 580,0 -4,571 580,1141 Z"/>
  </g>
  <g id="bullet-char-template-57354" transform="scale(0.00048828125,-0.00048828125)">
   <path d="M 8,1128 L 1137,1128 1137,0 8,0 8,1128 Z"/>
  </g>
  <g id="bullet-char-template-10146" transform="scale(0.00048828125,-0.00048828125)">
   <path d="M 174,0 L 602,739 174,1481 1456,739 174,0 Z M 1358,739 L 309,1346 659,739 1358,739 Z"/>
  </g>
  <g id="bullet-char-template-10132" transform="scale(0.00048828125,-0.00048828125)">
   <path d="M 2015,739 L 1276,0 717,0 1260,543 174,543 174,936 1260,936 717,1481 1274,1481 2015,739 Z"/>
  </g>
  <g id="bullet-char-template-10007" transform="scale(0.00048828125,-0.00048828125)">
   <path d="M 0,-2 C -7,14 -16,27 -25,37 L 356,567 C 262,823 215,952 215,954 215,979 228,992 255,992 264,992 276,990 289,987 310,991 331,999 354,1012 L 381,999 492,748 772,1049 836,1024 860,1049 C 881,1039 901,1025 922,1006 886,937 835,863 770,784 769,783 710,716 594,584 L 774,223 C 774,196 753,168 711,139 L 727,119 C 717,90 699,76 672,76 641,76 570,178 457,381 L 164,-76 C 142,-110 111,-127 72,-127 30,-127 9,-110 8,-76 1,-67 -2,-52 -2,-32 -2,-23 -1,-13 0,-2 Z"/>
  </g>
  <g id="bullet-char-template-10004" transform="scale(0.00048828125,-0.00048828125)">
   <path d="M 285,-33 C 182,-33 111,30 74,156 52,228 41,333 41,471 41,549 55,616 82,672 116,743 169,778 240,778 293,778 328,747 346,684 L 369,508 C 377,444 397,411 428,410 L 1163,1116 C 1174,1127 1196,1133 1229,1133 1271,1133 1292,1118 1292,1087 L 1292,965 C 1292,929 1282,901 1262,881 L 442,47 C 390,-6 338,-33 285,-33 Z"/>
  </g>
  <g id="bullet-char-template-9679" transform="scale(0.00048828125,-0.00048828125)">
   <path d="M 813,0 C 632,0 489,54 383,161 276,268 223,411 223,592 223,773 276,916 383,1023 489,1130 632,1184 813,1184 992,1184 1136,1130 1245,1023 1353,916 1407,772 1407,592 1407,412 1353,268 1245,161 1136,54 992,0 813,0 Z"/>
  </g>
  <g id="bullet-char-template-8226" transform="scale(0.00048828125,-0.00048828125)">
   <path d="M 346,457 C 273,457 209,483 155,535 101,586 74,649 74,723 74,796 101,859 155,911 209,963 273,989 346,989 419,989 480,963 531,910 582,859 608,796 608,723 608,648 583,586 532,535 482,483 420,457 346,457 Z"/>
  </g>
  <g id="bullet-char-template-8211" transform="scale(0.00048828125,-0.00048828125)">
   <path d="M -4,459 L 1135,459 1135,606 -4,606 -4,459 Z"/>
  </g>
  <g id="bullet-char-template-61548" transform="scale(0.00048828125,-0.00048828125)">
   <path d="M 173,740 C 173,903 231,1043 346,1159 462,1274 601,1332 765,1332 928,1332 1067,1274 1183,1159 1299,1043 1357,903 1357,740 1357,577 1299,437 1183,322 1067,206 928,148 765,148 601,148 462,206 346,322 231,437 173,577 173,740 Z"/>
  </g>
 </defs>
 <defs class="TextEmbeddedBitmaps"/>
 <g class="SlideGroup">
  <g>
   <g id="container-id1">
    <g id="id1" class="Slide" clip-path="url(#presentation_clip_path)">
     <g class="Page">
      <g class="Group">
       <g class="com.sun.star.drawing.LineShape">
        <g id="id3">
         <rect class="BoundingBox" stroke="none" fill="none" x="14942" y="14970" width="1157" height="1492"/>
         <path fill="none" stroke="rgb(0,0,0)" stroke-width="28" stroke-linejoin="round" d="M 16084,16447 L 15075,15142"/>
         <path fill="rgb(0,0,0)" stroke="none" d="M 14942,14970 L 15021,15197 15142,15104 14942,14970 Z"/>
        </g>
       </g>
       <g class="com.sun.star.drawing.LineShape">
        <g id="id4">
         <rect class="BoundingBox" stroke="none" fill="none" x="12354" y="14197" width="483" height="1753"/>
         <path fill="none" stroke="rgb(237,28,36)" stroke-width="35" stroke-linejoin="round" d="M 12818,14215 L 12801,14282"/>
         <path fill="none" stroke="rgb(237,28,36)" stroke-width="35" stroke-linejoin="round" d="M 12783,14348 L 12766,14415"/>
         <path fill="none" stroke="rgb(237,28,36)" stroke-width="35" stroke-linejoin="round" d="M 12749,14482 L 12731,14549"/>
         <path fill="none" stroke="rgb(237,28,36)" stroke-width="35" stroke-linejoin="round" d="M 12714,14615 L 12697,14682"/>
         <path fill="none" stroke="rgb(237,28,36)" stroke-width="35" stroke-linejoin="round" d="M 12679,14749 L 12662,14816"/>
         <path fill="none" stroke="rgb(237,28,36)" stroke-width="35" stroke-linejoin="round" d="M 12645,14882 L 12627,14949"/>
         <path fill="none" stroke="rgb(237,28,36)" stroke-width="35" stroke-linejoin="round" d="M 12610,15016 L 12593,15083"/>
         <path fill="none" stroke="rgb(237,28,36)" stroke-width="35" stroke-linejoin="round" d="M 12575,15149 L 12558,15216"/>
         <path fill="none" stroke="rgb(237,28,36)" stroke-width="35" stroke-linejoin="round" d="M 12540,15283 L 12523,15349"/>
         <path fill="none" stroke="rgb(237,28,36)" stroke-width="35" stroke-linejoin="round" d="M 12506,15416 L 12488,15483"/>
         <path fill="none" stroke="rgb(237,28,36)" stroke-width="35" stroke-linejoin="round" d="M 12471,15550 L 12454,15616"/>
         <path fill="none" stroke="rgb(237,28,36)" stroke-width="35" stroke-linejoin="round" d="M 12436,15683 L 12419,15750"/>
         <path fill="none" stroke="rgb(237,28,36)" stroke-width="35" stroke-linejoin="round" d="M 12402,15817 L 12384,15883"/>
        </g>
       </g>
       <g class="com.sun.star.drawing.LineShape">
        <g id="id5">
         <rect class="BoundingBox" stroke="none" fill="none" x="12348" y="15913" width="43" height="1807"/>
         <path fill="none" stroke="rgb(237,28,36)" stroke-width="35" stroke-linejoin="round" d="M 12366,17701 L 12366,17632"/>
         <path fill="none" stroke="rgb(237,28,36)" stroke-width="35" stroke-linejoin="round" d="M 12366,17563 L 12367,17494"/>
         <path fill="none" stroke="rgb(237,28,36)" stroke-width="35" stroke-linejoin="round" d="M 12367,17425 L 12367,17356"/>
         <path fill="none" stroke="rgb(237,28,36)" stroke-width="35" stroke-linejoin="round" d="M 12367,17287 L 12368,17218"/>
         <path fill="none" stroke="rgb(237,28,36)" stroke-width="35" stroke-linejoin="round" d="M 12368,17149 L 12368,17080"/>
         <path fill="none" stroke="rgb(237,28,36)" stroke-width="35" stroke-linejoin="round" d="M 12368,17012 L 12369,16943"/>
         <path fill="none" stroke="rgb(237,28,36)" stroke-width="35" stroke-linejoin="round" d="M 12369,16874 L 12369,16805"/>
         <path fill="none" stroke="rgb(237,28,36)" stroke-width="35" stroke-linejoin="round" d="M 12369,16736 L 12370,16667"/>
         <path fill="none" stroke="rgb(237,28,36)" stroke-width="35" stroke-linejoin="round" d="M 12370,16598 L 12370,16529"/>
         <path fill="none" stroke="rgb(237,28,36)" stroke-width="35" stroke-linejoin="round" d="M 12370,16460 L 12370,16391"/>
         <path fill="none" stroke="rgb(237,28,36)" stroke-width="35" stroke-linejoin="round" d="M 12371,16322 L 12371,16253"/>
         <path fill="none" stroke="rgb(237,28,36)" stroke-width="35" stroke-linejoin="round" d="M 12371,16184 L 12371,16115"/>
         <path fill="none" stroke="rgb(237,28,36)" stroke-width="35" stroke-linejoin="round" d="M 12372,16046 L 12372,15977"/>
        </g>
       </g>
       <g class="com.sun.star.drawing.LineShape">
        <g id="id6">
         <rect class="BoundingBox" stroke="none" fill="none" x="10080" y="14600" width="2301" height="1338"/>
         <path fill="none" stroke="rgb(0,0,0)" stroke-width="28" stroke-linejoin="round" d="M 12366,15923 L 10269,14709"/>
         <path fill="rgb(0,0,0)" stroke="none" d="M 10080,14600 L 10239,14780 10315,14648 10080,14600 Z"/>
        </g>
       </g>
       <g class="com.sun.star.drawing.CustomShape">
        <g id="id7">
         <rect class="BoundingBox" stroke="none" fill="none" x="9798" y="14372" width="310" height="310"/>
         <path fill="rgb(0,0,0)" stroke="none" d="M 10080,14526 C 10080,14598 10025,14653 9953,14653 9881,14653 9826,14598 9826,14526 9826,14454 9881,14399 9953,14399 10025,14399 10080,14454 10080,14526 Z M 10080,14399 L 10080,14399 Z M 9825,14654 L 9825,14654 Z"/>
         <path fill="none" stroke="rgb(0,0,0)" stroke-width="53" stroke-linejoin="round" d="M 10080,14526 C 10080,14598 10025,14653 9953,14653 9881,14653 9826,14598 9826,14526 9826,14454 9881,14399 9953,14399 10025,14399 10080,14454 10080,14526 Z"/>
        </g>
       </g>
       <g class="com.sun.star.drawing.CustomShape">
        <g id="id8">
         <rect class="BoundingBox" stroke="none" fill="none" x="9798" y="16531" width="310" height="310"/>
         <path fill="rgb(0,0,0)" stroke="none" d="M 10080,16685 C 10080,16757 10025,16812 9953,16812 9881,16812 9826,16757 9826,16685 9826,16613 9881,16558 9953,16558 10025,16558 10080,16613 10080,16685 Z M 10080,16558 L 10080,16558 Z M 9825,16813 L 9825,16813 Z"/>
         <path fill="none" stroke="rgb(0,0,0)" stroke-width="53" stroke-linejoin="round" d="M 10080,16685 C 10080,16757 10025,16812 9953,16812 9881,16812 9826,16757 9826,16685 9826,16613 9881,16558 9953,16558 10025,16558 10080,16613 10080,16685 Z"/>
        </g>
       </g>
       <g class="com.sun.star.drawing.CustomShape">
        <g id="id9">
         <rect class="BoundingBox" stroke="none" fill="none" x="7893" y="17801" width="310" height="310"/>
         <path fill="rgb(0,0,0)" stroke="none" d="M 8175,17955 C 8175,18027 8120,18082 8048,18082 7976,18082 7921,18027 7921,17955 7921,17883 7976,17828 8048,17828 8120,17828 8175,17883 8175,17955 Z M 8175,17828 L 8175,17828 Z M 7920,18083 L 7920,18083 Z"/>
         <path fill="none" stroke="rgb(0,0,0)" stroke-width="53" stroke-linejoin="round" d="M 8175,17955 C 8175,18027 8120,18082 8048,18082 7976,18082 7921,18027 7921,17955 7921,17883 7976,17828 8048,17828 8120,17828 8175,17883 8175,17955 Z"/>
        </g>
       </g>
       <g class="com.sun.star.drawing.LineShape">
        <g id="id10">
         <rect class="BoundingBox" stroke="none" fill="none" x="10080" y="15917" width="2307" height="734"/>
         <path fill="none" stroke="rgb(0,0,0)" stroke-width="28" stroke-linejoin="round" d="M 12372,15931 L 10288,16580"/>
         <path fill="rgb(0,0,0)" stroke="none" d="M 10080,16645 L 10320,16650 10275,16505 10080,16645 Z"/>
        </g>
       </g>
       <g class="com.sun.star.drawing.LineShape">
        <g id="id11">
         <rect class="BoundingBox" stroke="none" fill="none" x="8175" y="15856" width="1793" height="844"/>
         <path fill="none" stroke="rgb(0,0,0)" stroke-width="28" stroke-linejoin="round" d="M 9953,16685 L 8372,15948"/>
         <path fill="rgb(0,0,0)" stroke="none" d="M 8175,15856 L 8350,16021 8414,15883 8175,15856 Z"/>
        </g>
       </g>
       <g class="com.sun.star.drawing.LineShape">
        <g id="id12">
         <rect class="BoundingBox" stroke="none" fill="none" x="8175" y="14512" width="1793" height="1211"/>
         <path fill="none" stroke="rgb(0,0,0)" stroke-width="28" stroke-linejoin="round" d="M 9953,14526 L 8356,15600"/>
         <path fill="rgb(0,0,0)" stroke="none" d="M 8175,15722 L 8407,15658 8322,15532 8175,15722 Z"/>
        </g>
       </g>
       <g class="com.sun.star.drawing.LineShape">
        <g id="id13">
         <rect class="BoundingBox" stroke="none" fill="none" x="8175" y="16671" width="1793" height="1200"/>
         <path fill="none" stroke="rgb(0,0,0)" stroke-width="28" stroke-linejoin="round" d="M 9953,16685 L 8356,17749"/>
         <path fill="rgb(0,0,0)" stroke="none" d="M 8175,17870 L 8407,17807 8323,17680 8175,17870 Z"/>
        </g>
       </g>
       <g class="com.sun.star.drawing.LineShape">
        <g id="id14">
         <rect class="BoundingBox" stroke="none" fill="none" x="10080" y="16739" width="2301" height="977"/>
         <path fill="none" stroke="rgb(0,0,0)" stroke-width="28" stroke-linejoin="round" d="M 12366,17701 L 10281,16824"/>
         <path fill="rgb(0,0,0)" stroke="none" d="M 10080,16739 L 10261,16897 10320,16757 10080,16739 Z"/>
        </g>
       </g>
       <g class="com.sun.star.drawing.LineShape">
        <g id="id15">
         <rect class="BoundingBox" stroke="none" fill="none" x="10027" y="16812" width="1084" height="1920"/>
         <path fill="none" stroke="rgb(0,0,0)" stroke-width="28" stroke-linejoin="round" d="M 11096,18717 L 10134,17002"/>
         <path fill="rgb(0,0,0)" stroke="none" d="M 10027,16812 L 10072,17048 10205,16974 10027,16812 Z"/>
        </g>
       </g>
       <g class="com.sun.star.drawing.CustomShape">
        <g id="id16">
         <rect class="BoundingBox" stroke="none" fill="none" x="14434" y="16848" width="310" height="310"/>
         <path fill="rgb(0,0,0)" stroke="none" d="M 14716,17002 C 14716,17074 14661,17129 14589,17129 14517,17129 14462,17074 14462,17002 14462,16930 14517,16875 14589,16875 14661,16875 14716,16930 14716,17002 Z M 14716,16875 L 14716,16875 Z M 14461,17130 L 14461,17130 Z"/>
         <path fill="none" stroke="rgb(0,0,0)" stroke-width="53" stroke-linejoin="round" d="M 14716,17002 C 14716,17074 14661,17129 14589,17129 14517,17129 14462,17074 14462,17002 14462,16930 14517,16875 14589,16875 14661,16875 14716,16930 14716,17002 Z"/>
        </g>
       </g>
       <g class="com.sun.star.drawing.LineShape">
        <g id="id17">
         <rect class="BoundingBox" stroke="none" fill="none" x="12493" y="16988" width="2111" height="679"/>
         <path fill="none" stroke="rgb(0,0,0)" stroke-width="28" stroke-linejoin="round" d="M 14589,17002 L 12701,17596"/>
         <path fill="rgb(0,0,0)" stroke="none" d="M 12493,17661 L 12733,17665 12688,17520 12493,17661 Z"/>
        </g>
       </g>
       <g class="com.sun.star.drawing.LineShape">
        <g id="id18">
         <rect class="BoundingBox" stroke="none" fill="none" x="12493" y="15990" width="2111" height="1027"/>
         <path fill="none" stroke="rgb(0,0,0)" stroke-width="28" stroke-linejoin="round" d="M 14589,17002 L 12689,16085"/>
         <path fill="rgb(0,0,0)" stroke="none" d="M 12493,15990 L 12665,16158 12731,16021 12493,15990 Z"/>
        </g>
       </g>
       <g class="com.sun.star.drawing.LineShape">
        <g id="id19">
         <rect class="BoundingBox" stroke="none" fill="none" x="12493" y="14829" width="2365" height="1060"/>
         <path fill="none" stroke="rgb(0,0,0)" stroke-width="28" stroke-linejoin="round" d="M 14843,14843 L 12692,15799"/>
         <path fill="rgb(0,0,0)" stroke="none" d="M 12493,15888 L 12732,15865 12670,15726 12493,15888 Z"/>
        </g>
       </g>
       <g class="com.sun.star.drawing.LineShape">
        <g id="id20">
         <rect class="BoundingBox" stroke="none" fill="none" x="12938" y="14243" width="1920" height="615"/>
         <path fill="none" stroke="rgb(0,0,0)" stroke-width="28" stroke-linejoin="round" d="M 14843,14843 L 13146,14313"/>
         <path fill="rgb(0,0,0)" stroke="none" d="M 12938,14248 L 13133,14389 13178,14243 12938,14248 Z"/>
        </g>
       </g>
       <g class="com.sun.star.drawing.OpenBezierShape">
        <g id="id21">
         <rect class="BoundingBox" stroke="none" fill="none" x="12493" y="14825" width="2242" height="972"/>
         <path fill="none" stroke="rgb(0,166,93)" stroke-width="35" stroke-linejoin="round" d="M 14716,14843 C 14694,14843 14672,14844 14649,14845"/>
         <path fill="none" stroke="rgb(0,166,93)" stroke-width="35" stroke-linejoin="round" d="M 14580,14849 C 14557,14851 14533,14853 14510,14856"/>
         <path fill="none" stroke="rgb(0,166,93)" stroke-width="35" stroke-linejoin="round" d="M 14443,14866 C 14420,14869 14398,14873 14375,14877"/>
         <path fill="none" stroke="rgb(0,166,93)" stroke-width="35" stroke-linejoin="round" d="M 14306,14891 C 14284,14895 14262,14900 14239,14905"/>
         <path fill="none" stroke="rgb(0,166,93)" stroke-width="35" stroke-linejoin="round" d="M 14173,14922 C 14150,14928 14128,14934 14105,14940"/>
         <path fill="none" stroke="rgb(0,166,93)" stroke-width="35" stroke-linejoin="round" d="M 14039,14960 C 14017,14966 13995,14973 13974,14980"/>
         <path fill="none" stroke="rgb(0,166,93)" stroke-width="35" stroke-linejoin="round" d="M 13908,15002 C 13886,15009 13864,15017 13842,15025"/>
         <path fill="none" stroke="rgb(0,166,93)" stroke-width="35" stroke-linejoin="round" d="M 13778,15048 C 13756,15057 13735,15065 13713,15073"/>
         <path fill="none" stroke="rgb(0,166,93)" stroke-width="35" stroke-linejoin="round" d="M 13649,15099 C 13628,15108 13607,15117 13585,15126"/>
         <path fill="none" stroke="rgb(0,166,93)" stroke-width="35" stroke-linejoin="round" d="M 13522,15153 C 13501,15163 13480,15172 13459,15182"/>
         <path fill="none" stroke="rgb(0,166,93)" stroke-width="35" stroke-linejoin="round" d="M 13397,15211 C 13376,15221 13355,15231 13334,15241"/>
         <path fill="none" stroke="rgb(0,166,93)" stroke-width="35" stroke-linejoin="round" d="M 13273,15272 C 13252,15283 13232,15293 13212,15304"/>
         <path fill="none" stroke="rgb(0,166,93)" stroke-width="35" stroke-linejoin="round" d="M 13150,15336 C 13130,15348 13110,15359 13090,15370"/>
         <path fill="none" stroke="rgb(0,166,93)" stroke-width="35" stroke-linejoin="round" d="M 13030,15404 C 13010,15416 12990,15427 12971,15439"/>
         <path fill="none" stroke="rgb(0,166,93)" stroke-width="35" stroke-linejoin="round" d="M 12911,15476 C 12892,15488 12872,15500 12854,15512"/>
         <path fill="none" stroke="rgb(0,166,93)" stroke-width="35" stroke-linejoin="round" d="M 12796,15550 C 12776,15564 12757,15577 12738,15591"/>
         <path fill="none" stroke="rgb(0,166,93)" stroke-width="35" stroke-linejoin="round" d="M 12684,15630 C 12677,15635 12670,15640 12664,15645"/>
         <path fill="rgb(0,166,93)" stroke="none" d="M 12493,15796 L 12729,15697 12622,15575 12493,15796 Z"/>
        </g>
       </g>
       <g class="com.sun.star.drawing.CustomShape">
        <g id="id22">
         <rect class="BoundingBox" stroke="none" fill="none" x="12211" y="15769" width="310" height="310"/>
         <path fill="rgb(0,166,93)" stroke="none" d="M 12493,15923 C 12493,15995 12438,16050 12366,16050 12294,16050 12239,15995 12239,15923 12239,15851 12294,15796 12366,15796 12438,15796 12493,15851 12493,15923 Z M 12493,15796 L 12493,15796 Z M 12238,16051 L 12238,16051 Z"/>
         <path fill="none" stroke="rgb(237,28,36)" stroke-width="53" stroke-linejoin="round" d="M 12493,15923 C 12493,15995 12438,16050 12366,16050 12294,16050 12239,15995 12239,15923 12239,15851 12294,15796 12366,15796 12438,15796 12493,15851 12493,15923 Z"/>
        </g>
       </g>
       <g class="com.sun.star.drawing.CustomShape">
        <g id="id23">
         <rect class="BoundingBox" stroke="none" fill="none" x="7893" y="15642" width="310" height="310"/>
         <path fill="rgb(0,166,93)" stroke="none" d="M 8175,15796 C 8175,15868 8120,15923 8048,15923 7976,15923 7921,15868 7921,15796 7921,15724 7976,15669 8048,15669 8120,15669 8175,15724 8175,15796 Z M 8175,15669 L 8175,15669 Z M 7920,15924 L 7920,15924 Z"/>
         <path fill="none" stroke="rgb(0,166,93)" stroke-width="53" stroke-linejoin="round" d="M 8175,15796 C 8175,15868 8120,15923 8048,15923 7976,15923 7921,15868 7921,15796 7921,15724 7976,15669 8048,15669 8120,15669 8175,15724 8175,15796 Z"/>
        </g>
       </g>
       <g class="com.sun.star.drawing.CustomShape">
        <g id="id24">
         <rect class="BoundingBox" stroke="none" fill="none" x="14688" y="14689" width="310" height="310"/>
         <path fill="rgb(0,166,93)" stroke="none" d="M 14970,14843 C 14970,14915 14915,14970 14843,14970 14771,14970 14716,14915 14716,14843 14716,14771 14771,14716 14843,14716 14915,14716 14970,14771 14970,14843 Z M 14970,14716 L 14970,14716 Z M 14715,14971 L 14715,14971 Z"/>
         <path fill="none" stroke="rgb(0,166,93)" stroke-width="53" stroke-linejoin="round" d="M 14970,14843 C 14970,14915 14915,14970 14843,14970 14771,14970 14716,14915 14716,14843 14716,14771 14771,14716 14843,14716 14915,14716 14970,14771 14970,14843 Z"/>
        </g>
       </g>
       <g class="com.sun.star.drawing.LineShape">
        <g id="id25">
         <rect class="BoundingBox" stroke="none" fill="none" x="8175" y="15732" width="4210" height="218"/>
         <path fill="none" stroke="rgb(0,166,93)" stroke-width="35" stroke-linejoin="round" d="M 12366,15931 L 12297,15929"/>
         <path fill="none" stroke="rgb(0,166,93)" stroke-width="35" stroke-linejoin="round" d="M 12228,15927 L 12159,15925"/>
         <path fill="none" stroke="rgb(0,166,93)" stroke-width="35" stroke-linejoin="round" d="M 12090,15923 L 12021,15921"/>
         <path fill="none" stroke="rgb(0,166,93)" stroke-width="35" stroke-linejoin="round" d="M 11952,15919 L 11884,15917"/>
         <path fill="none" stroke="rgb(0,166,93)" stroke-width="35" stroke-linejoin="round" d="M 11815,15915 L 11746,15912"/>
         <path fill="none" stroke="rgb(0,166,93)" stroke-width="35" stroke-linejoin="round" d="M 11677,15910 L 11608,15908"/>
         <path fill="none" stroke="rgb(0,166,93)" stroke-width="35" stroke-linejoin="round" d="M 11539,15906 L 11470,15904"/>
         <path fill="none" stroke="rgb(0,166,93)" stroke-width="35" stroke-linejoin="round" d="M 11401,15902 L 11332,15900"/>
         <path fill="none" stroke="rgb(0,166,93)" stroke-width="35" stroke-linejoin="round" d="M 11263,15898 L 11194,15896"/>
         <path fill="none" stroke="rgb(0,166,93)" stroke-width="35" stroke-linejoin="round" d="M 11125,15894 L 11057,15892"/>
         <path fill="none" stroke="rgb(0,166,93)" stroke-width="35" stroke-linejoin="round" d="M 10988,15890 L 10919,15888"/>
         <path fill="none" stroke="rgb(0,166,93)" stroke-width="35" stroke-linejoin="round" d="M 10850,15886 L 10781,15884"/>
         <path fill="none" stroke="rgb(0,166,93)" stroke-width="35" stroke-linejoin="round" d="M 10712,15882 L 10643,15880"/>
         <path fill="none" stroke="rgb(0,166,93)" stroke-width="35" stroke-linejoin="round" d="M 10574,15878 L 10505,15875"/>
         <path fill="none" stroke="rgb(0,166,93)" stroke-width="35" stroke-linejoin="round" d="M 10436,15873 L 10367,15871"/>
         <path fill="none" stroke="rgb(0,166,93)" stroke-width="35" stroke-linejoin="round" d="M 10298,15869 L 10230,15867"/>
         <path fill="none" stroke="rgb(0,166,93)" stroke-width="35" stroke-linejoin="round" d="M 10161,15865 L 10092,15863"/>
         <path fill="none" stroke="rgb(0,166,93)" stroke-width="35" stroke-linejoin="round" d="M 10023,15861 L 9954,15859"/>
         <path fill="none" stroke="rgb(0,166,93)" stroke-width="35" stroke-linejoin="round" d="M 9885,15857 L 9816,15855"/>
         <path fill="none" stroke="rgb(0,166,93)" stroke-width="35" stroke-linejoin="round" d="M 9747,15853 L 9678,15851"/>
         <path fill="none" stroke="rgb(0,166,93)" stroke-width="35" stroke-linejoin="round" d="M 9609,15849 L 9540,15847"/>
         <path fill="none" stroke="rgb(0,166,93)" stroke-width="35" stroke-linejoin="round" d="M 9471,15845 L 9402,15843"/>
         <path fill="none" stroke="rgb(0,166,93)" stroke-width="35" stroke-linejoin="round" d="M 9334,15841 L 9265,15838"/>
         <path fill="none" stroke="rgb(0,166,93)" stroke-width="35" stroke-linejoin="round" d="M 9196,15836 L 9127,15834"/>
         <path fill="none" stroke="rgb(0,166,93)" stroke-width="35" stroke-linejoin="round" d="M 9058,15832 L 8989,15830"/>
         <path fill="none" stroke="rgb(0,166,93)" stroke-width="35" stroke-linejoin="round" d="M 8920,15828 L 8851,15826"/>
         <path fill="none" stroke="rgb(0,166,93)" stroke-width="35" stroke-linejoin="round" d="M 8782,15824 L 8713,15822"/>
         <path fill="none" stroke="rgb(0,166,93)" stroke-width="35" stroke-linejoin="round" d="M 8644,15820 L 8575,15818"/>
         <path fill="none" stroke="rgb(0,166,93)" stroke-width="35" stroke-linejoin="round" d="M 8507,15816 L 8438,15814"/>
         <path fill="rgb(0,166,93)" stroke="none" d="M 8175,15806 L 8415,15894 8420,15732 8175,15806 Z"/>
        </g>
       </g>
       <g class="com.sun.star.drawing.LineShape">
        <g id="id26">
         <rect class="BoundingBox" stroke="none" fill="none" x="11078" y="17683" width="1307" height="1053"/>
         <path fill="none" stroke="rgb(237,28,36)" stroke-width="35" stroke-linejoin="round" d="M 12366,17701 L 12312,17744"/>
         <path fill="none" stroke="rgb(237,28,36)" stroke-width="35" stroke-linejoin="round" d="M 12258,17787 L 12204,17830"/>
         <path fill="none" stroke="rgb(237,28,36)" stroke-width="35" stroke-linejoin="round" d="M 12151,17873 L 12097,17916"/>
         <path fill="none" stroke="rgb(237,28,36)" stroke-width="35" stroke-linejoin="round" d="M 12043,17959 L 11989,18003"/>
         <path fill="none" stroke="rgb(237,28,36)" stroke-width="35" stroke-linejoin="round" d="M 11935,18046 L 11881,18089"/>
         <path fill="none" stroke="rgb(237,28,36)" stroke-width="35" stroke-linejoin="round" d="M 11828,18132 L 11774,18175"/>
         <path fill="none" stroke="rgb(237,28,36)" stroke-width="35" stroke-linejoin="round" d="M 11720,18218 L 11666,18261"/>
         <path fill="none" stroke="rgb(237,28,36)" stroke-width="35" stroke-linejoin="round" d="M 11612,18304 L 11558,18347"/>
         <path fill="none" stroke="rgb(237,28,36)" stroke-width="35" stroke-linejoin="round" d="M 11505,18390 L 11451,18433"/>
         <path fill="none" stroke="rgb(237,28,36)" stroke-width="35" stroke-linejoin="round" d="M 11397,18476 L 11343,18519"/>
         <path fill="none" stroke="rgb(237,28,36)" stroke-width="35" stroke-linejoin="round" d="M 11289,18562 L 11235,18606"/>
         <path fill="none" stroke="rgb(237,28,36)" stroke-width="35" stroke-linejoin="round" d="M 11182,18649 L 11128,18692"/>
        </g>
       </g>
       <g class="com.sun.star.drawing.CustomShape">
        <g id="id27">
         <rect class="BoundingBox" stroke="none" fill="none" x="12211" y="17547" width="310" height="310"/>
         <path fill="rgb(237,28,36)" stroke="none" d="M 12493,17701 C 12493,17773 12438,17828 12366,17828 12294,17828 12239,17773 12239,17701 12239,17629 12294,17574 12366,17574 12438,17574 12493,17629 12493,17701 Z M 12493,17574 L 12493,17574 Z M 12238,17829 L 12238,17829 Z"/>
         <path fill="none" stroke="rgb(237,28,36)" stroke-width="53" stroke-linejoin="round" d="M 12493,17701 C 12493,17773 12438,17828 12366,17828 12294,17828 12239,17773 12239,17701 12239,17629 12294,17574 12366,17574 12438,17574 12493,17629 12493,17701 Z"/>
        </g>
       </g>
       <g class="com.sun.star.drawing.CustomShape">
        <g id="id28">
         <rect class="BoundingBox" stroke="none" fill="none" x="10941" y="18563" width="310" height="310"/>
         <path fill="rgb(237,28,36)" stroke="none" d="M 11223,18717 C 11223,18789 11168,18844 11096,18844 11024,18844 10969,18789 10969,18717 10969,18645 11024,18590 11096,18590 11168,18590 11223,18645 11223,18717 Z M 11223,18590 L 11223,18590 Z M 10968,18845 L 10968,18845 Z"/>
         <path fill="none" stroke="rgb(237,28,36)" stroke-width="53" stroke-linejoin="round" d="M 11223,18717 C 11223,18789 11168,18844 11096,18844 11024,18844 10969,18789 10969,18717 10969,18645 11024,18590 11096,18590 11168,18590 11223,18645 11223,18717 Z"/>
        </g>
       </g>
       <g class="com.sun.star.drawing.CustomShape">
        <g id="id29">
         <rect class="BoundingBox" stroke="none" fill="none" x="12656" y="14054" width="310" height="310"/>
         <path fill="rgb(237,28,36)" stroke="none" d="M 12938,14208 C 12938,14280 12883,14335 12811,14335 12739,14335 12684,14280 12684,14208 12684,14136 12739,14081 12811,14081 12883,14081 12938,14136 12938,14208 Z M 12938,14081 L 12938,14081 Z M 12683,14336 L 12683,14336 Z"/>
         <path fill="none" stroke="rgb(237,28,36)" stroke-width="53" stroke-linejoin="round" d="M 12938,14208 C 12938,14280 12883,14335 12811,14335 12739,14335 12684,14280 12684,14208 12684,14136 12739,14081 12811,14081 12883,14081 12938,14136 12938,14208 Z"/>
        </g>
       </g>
       <g class="com.sun.star.drawing.CustomShape">
        <g id="id30">
         <rect class="BoundingBox" stroke="none" fill="none" x="15909" y="16289" width="310" height="310"/>
         <path fill="rgb(0,166,93)" stroke="none" d="M 16191,16443 C 16191,16515 16136,16570 16064,16570 15992,16570 15937,16515 15937,16443 15937,16371 15992,16316 16064,16316 16136,16316 16191,16371 16191,16443 Z M 16191,16316 L 16191,16316 Z M 15936,16571 L 15936,16571 Z"/>
         <path fill="none" stroke="rgb(0,166,93)" stroke-width="53" stroke-linejoin="round" d="M 16191,16443 C 16191,16515 16136,16570 16064,16570 15992,16570 15937,16515 15937,16443 15937,16371 15992,16316 16064,16316 16136,16316 16191,16371 16191,16443 Z"/>
        </g>
       </g>
       <g class="com.sun.star.drawing.OpenBezierShape">
        <g id="id31">
         <rect class="BoundingBox" stroke="none" fill="none" x="14843" y="14970" width="1113" height="1496"/>
         <path fill="none" stroke="rgb(0,166,93)" stroke-width="35" stroke-linejoin="round" d="M 15937,16447 C 15917,16436 15897,16425 15877,16413"/>
         <path fill="none" stroke="rgb(0,166,93)" stroke-width="35" stroke-linejoin="round" d="M 15818,16377 C 15799,16365 15780,16352 15761,16339"/>
         <path fill="none" stroke="rgb(0,166,93)" stroke-width="35" stroke-linejoin="round" d="M 15705,16298 C 15687,16284 15669,16270 15651,16255"/>
         <path fill="none" stroke="rgb(0,166,93)" stroke-width="35" stroke-linejoin="round" d="M 15599,16210 C 15582,16195 15565,16180 15548,16164"/>
         <path fill="none" stroke="rgb(0,166,93)" stroke-width="35" stroke-linejoin="round" d="M 15499,16115 C 15483,16099 15467,16082 15451,16065"/>
         <path fill="none" stroke="rgb(0,166,93)" stroke-width="35" stroke-linejoin="round" d="M 15405,16014 C 15390,15997 15376,15979 15361,15961"/>
         <path fill="none" stroke="rgb(0,166,93)" stroke-width="35" stroke-linejoin="round" d="M 15318,15907 C 15304,15889 15290,15870 15277,15852"/>
         <path fill="none" stroke="rgb(0,166,93)" stroke-width="35" stroke-linejoin="round" d="M 15237,15795 C 15224,15776 15212,15757 15199,15738"/>
         <path fill="none" stroke="rgb(0,166,93)" stroke-width="35" stroke-linejoin="round" d="M 15162,15680 C 15150,15660 15139,15640 15127,15620"/>
         <path fill="none" stroke="rgb(0,166,93)" stroke-width="35" stroke-linejoin="round" d="M 15093,15560 C 15082,15540 15071,15520 15061,15499"/>
         <path fill="none" stroke="rgb(0,166,93)" stroke-width="35" stroke-linejoin="round" d="M 15030,15438 C 15019,15417 15009,15396 15000,15376"/>
         <path fill="none" stroke="rgb(0,166,93)" stroke-width="35" stroke-linejoin="round" d="M 14971,15313 C 14962,15292 14953,15271 14944,15249"/>
         <path fill="none" stroke="rgb(0,166,93)" stroke-width="35" stroke-linejoin="round" d="M 14918,15186 C 14916,15182 14915,15179 14914,15175"/>
         <path fill="rgb(0,166,93)" stroke="none" d="M 14843,14970 L 14846,15210 14990,15161 14843,14970 Z"/>
        </g>
       </g>
      </g>
     </g>
    </g>
   </g>
  </g>
 </g>
</svg>