<?xml version="1.0" encoding="UTF-8"?>
<!DOCTYPE svg PUBLIC "-//W3C//DTD SVG 1.1//EN" "http://www.w3.org/Graphics/SVG/1.1/DTD/svg11.dtd">
<svg version="1.2" width="83.24mm" height="48.17mm" viewBox="7816 13991 8324 4817" preserveAspectRatio="xMidYMid" fill-rule="evenodd" stroke-width="28.222" stroke-linejoin="round" xmlns="http://www.w3.org/2000/svg" xmlns:ooo="http://xml.openoffice.org/svg/export" xmlns:xlink="http://www.w3.org/1999/xlink" xmlns:presentation="http://sun.com/xmlns/staroffice/presentation" xmlns:smil="http://www.w3.org/2001/SMIL20/" xmlns:anim="urn:oasis:names:tc:opendocument:xmlns:animation:1.0" xml:space="preserve">
 <defs class="ClipPathGroup">
  <clipPath id="presentation_clip_path" clipPathUnits="userSpaceOnUse">
   <rect x="7816" y="13991" width="8324" height="4817"/>
  </clipPath>
  <clipPath id="presentation_clip_path_shrink" clipPathUnits="userSpaceOnUse">
   <rect x="7824" y="13995" width="8308" height="4808"/>
  </clipPath>
 </defs>
 <defs class="TextShapeIndex">
  <g ooo:slide="id1" ooo:id-list="id3 id4 id5 id6 id7 id8 id9 id10 id11 id12 id13 id14 id15 id16 id17 id18 id19 id20 id21 id22 id23 id24 id25 id26 id27 id28 id29 id30 id31 id32 id33 id34 id35 id36"/>
 </defs>
 <defs class="EmbeddedBulletChars">
  <g id="bullet-char-template-57356" transform="scale(0.00048828125,-0.00048828125)">
   <path d="M 580,1141 L 1163,571 580,0 -4,571 580,1141 Z"/>
  </g>
  <g id="bullet-char-template-57354" transform="scale(0.00048828125,-0.00048828125)">
   <path d="M 8,1128 L 1137,1128 1137,0 8,0 8,1128 Z"/>
  </g>
  <g id="bullet-char-template-10146" transform="scale(0.00048828125,-0.00048828125)">
   <path d="M 174,0 L 602,739 174,1481 1456,739 174,0 Z M 1358,739 L 309,1346 659,739 1358,739 Z"/>
  </g>
  <g id="bullet-char-template-10132" transform="scale(0.00048828125,-0.00048828125)">
   <path d="M 2015,739 L 1276,0 717,0 1260,543 174,543 174,936 1260,936 717,1481 1274,1481 2015,739 Z"/>
  </g>
  <g id="bullet-char-template-10007" transform="scale(0.00048828125,-0.00048828125)">
   <path d="M 0,-2 C -7,14 -16,27 -25,37 L 356,567 C 262,823 215,952 215,954 215,979 228,992 255,992 264,992 276,990 289,987 310,991 331,999 354,1012 L 381,999 492,748 772,1049 836,1024 860,1049 C 881,1039 901,1025 922,1006 886,937 835,863 770,784 769,783 710,716 594,584 L 774,223 C 774,196 753,168 711,139 L 727,119 C 717,90 699,76 672,76 641,76 570,178 457,381 L 164,-76 C 142,-110 111,-127 72,-127 30,-127 9,-110 8,-76 1,-67 -2,-52 -2,-32 -2,-23 -1,-13 0,-2 Z"/>
  </g>
  <g id="bullet-char-template-10004" transform="scale(0.00048828125,-0.00048828125)">
   <path d="M 285,-33 C 182,-33 111,30 74,156 52,228 41,333 41,471 41,549 55,616 82,672 116,743 169,778 240,778 293,778 328,747 346,684 L 369,508 C 377,444 397,411 428,410 L 1163,1116 C 1174,1127 1196,1133 1229,1133 1271,1133 1292,1118 1292,1087 L 1292,965 C 1292,929 1282,901 1262,881 L 442,47 C 390,-6 338,-33 285,-33 Z"/>
  </g>
  <g id="bullet-char-template-9679" transform="scale(0.00048828125,-0.00048828125)">
   <path d="M 813,0 C 632,0 489,54 383,161 276,268 223,411 223,592 223,773 276,916 383,1023 489,1130 632,1184 813,1184 992,1184 1136,1130 1245,1023 1353,916 1407,772 1407,592 1407,412 1353,268 1245,161 1136,54 992,0 813,0 Z"/>
  </g>
  <g id="bullet-char-template-8226" transform="scale(0.00048828125,-0.00048828125)">
   <path d="M 346,457 C 273,457 209,483 155,535 101,586 74,649 74,723 74,796 101,859 155,911 209,963 273,989 346,989 419,989 480,963 531,910 582,859 608,796 608,723 608,648 583,586 532,535 482,483 420,457 346,457 Z"/>
  </g>
  <g id="bullet-char-template-8211" transform="scale(0.00048828125,-0.00048828125)">
   <path d="M -4,459 L 1135,459 1135,606 -4,606 -4,459 Z"/>
  </g>
  <g id="bullet-char-template-61548" transform="scale(0.00048828125,-0.00048828125)">
   <path d="M 173,740 C 173,903 231,1043 346,1159 462,1274 601,1332 765,1332 928,1332 1067,1274 1183,1159 1299,1043 1357,903 1357,740 1357,577 1299,437 1183,322 1067,206 928,148 765,148 601,148 462,206 346,322 231,437 173,577 173,740 Z"/>
  </g>
 </defs>
 <defs class="TextEmbeddedBitmaps"/>
 <g class="SlideGroup">
  <g>
   <g id="container-id1">
    <g id="id1" class="Slide" clip-path="url(#presentation_clip_path)">
     <g class="Page">
      <g class="Group">
       <g class="com.sun.star.drawing.LineShape">
        <g id="id3">
         <rect class="BoundingBox" stroke="none" fill="none" x="9857" y="14444" width="37" height="2196"/>
         <path fill="none" stroke="rgb(237,28,36)" stroke-width="35" stroke-linejoin="round" d="M 9875,16621 L 9875,16552"/>
         <path fill="none" stroke="rgb(237,28,36)" stroke-width="35" stroke-linejoin="round" d="M 9875,16483 L 9875,16414"/>
         <path fill="none" stroke="rgb(237,28,36)" stroke-width="35" stroke-linejoin="round" d="M 9875,16345 L 9875,16276"/>
         <path fill="none" stroke="rgb(237,28,36)" stroke-width="35" stroke-linejoin="round" d="M 9875,16207 L 9875,16138"/>
         <path fill="none" stroke="rgb(237,28,36)" stroke-width="35" stroke-linejoin="round" d="M 9875,16069 L 9875,16000"/>
         <path fill="none" stroke="rgb(237,28,36)" stroke-width="35" stroke-linejoin="round" d="M 9875,15932 L 9875,15863"/>
         <path fill="none" stroke="rgb(237,28,36)" stroke-width="35" stroke-linejoin="round" d="M 9875,15794 L 9875,15725"/>
         <path fill="none" stroke="rgb(237,28,36)" stroke-width="35" stroke-linejoin="round" d="M 9875,15656 L 9875,15587"/>
         <path fill="none" stroke="rgb(237,28,36)" stroke-width="35" stroke-linejoin="round" d="M 9875,15518 L 9875,15449"/>
         <path fill="none" stroke="rgb(237,28,36)" stroke-width="35" stroke-linejoin="round" d="M 9875,15380 L 9875,15311"/>
         <path fill="none" stroke="rgb(237,28,36)" stroke-width="35" stroke-linejoin="round" d="M 9875,15242 L 9875,15173"/>
         <path fill="none" stroke="rgb(237,28,36)" stroke-width="35" stroke-linejoin="round" d="M 9875,15104 L 9875,15035"/>
         <path fill="none" stroke="rgb(237,28,36)" stroke-width="35" stroke-linejoin="round" d="M 9875,14966 L 9875,14897"/>
         <path fill="none" stroke="rgb(237,28,36)" stroke-width="35" stroke-linejoin="round" d="M 9875,14828 L 9875,14759"/>
         <path fill="none" stroke="rgb(237,28,36)" stroke-width="35" stroke-linejoin="round" d="M 9875,14690 L 9875,14621"/>
         <path fill="none" stroke="rgb(237,28,36)" stroke-width="35" stroke-linejoin="round" d="M 9875,14553 L 9875,14484"/>
        </g>
       </g>
       <g class="com.sun.star.drawing.LineShape">
        <g id="id4">
         <rect class="BoundingBox" stroke="none" fill="none" x="14493" y="16365" width="1532" height="592"/>
         <path fill="none" stroke="rgb(237,28,36)" stroke-width="35" stroke-linejoin="round" d="M 14511,16938 L 14576,16914"/>
         <path fill="none" stroke="rgb(237,28,36)" stroke-width="35" stroke-linejoin="round" d="M 14640,16890 L 14705,16866"/>
         <path fill="none" stroke="rgb(237,28,36)" stroke-width="35" stroke-linejoin="round" d="M 14770,16842 L 14834,16818"/>
         <path fill="none" stroke="rgb(237,28,36)" stroke-width="35" stroke-linejoin="round" d="M 14899,16794 L 14963,16770"/>
         <path fill="none" stroke="rgb(237,28,36)" stroke-width="35" stroke-linejoin="round" d="M 15028,16746 L 15093,16722"/>
         <path fill="none" stroke="rgb(237,28,36)" stroke-width="35" stroke-linejoin="round" d="M 15157,16698 L 15222,16674"/>
         <path fill="none" stroke="rgb(237,28,36)" stroke-width="35" stroke-linejoin="round" d="M 15287,16650 L 15351,16626"/>
         <path fill="none" stroke="rgb(237,28,36)" stroke-width="35" stroke-linejoin="round" d="M 15416,16602 L 15481,16578"/>
         <path fill="none" stroke="rgb(237,28,36)" stroke-width="35" stroke-linejoin="round" d="M 15545,16554 L 15610,16530"/>
         <path fill="none" stroke="rgb(237,28,36)" stroke-width="35" stroke-linejoin="round" d="M 15675,16506 L 15739,16482"/>
         <path fill="none" stroke="rgb(237,28,36)" stroke-width="35" stroke-linejoin="round" d="M 15804,16458 L 15868,16434"/>
         <path fill="none" stroke="rgb(237,28,36)" stroke-width="35" stroke-linejoin="round" d="M 15933,16410 L 15998,16386"/>
        </g>
       </g>
       <g class="com.sun.star.drawing.LineShape">
        <g id="id5">
         <rect class="BoundingBox" stroke="none" fill="none" x="7967" y="15714" width="37" height="2196"/>
         <path fill="none" stroke="rgb(237,28,36)" stroke-width="35" stroke-linejoin="round" d="M 7985,17891 L 7985,17822"/>
         <path fill="none" stroke="rgb(237,28,36)" stroke-width="35" stroke-linejoin="round" d="M 7985,17753 L 7985,17684"/>
         <path fill="none" stroke="rgb(237,28,36)" stroke-width="35" stroke-linejoin="round" d="M 7985,17615 L 7985,17546"/>
         <path fill="none" stroke="rgb(237,28,36)" stroke-width="35" stroke-linejoin="round" d="M 7985,17477 L 7985,17408"/>
         <path fill="none" stroke="rgb(237,28,36)" stroke-width="35" stroke-linejoin="round" d="M 7985,17339 L 7985,17270"/>
         <path fill="none" stroke="rgb(237,28,36)" stroke-width="35" stroke-linejoin="round" d="M 7985,17202 L 7985,17133"/>
         <path fill="none" stroke="rgb(237,28,36)" stroke-width="35" stroke-linejoin="round" d="M 7985,17064 L 7985,16995"/>
         <path fill="none" stroke="rgb(237,28,36)" stroke-width="35" stroke-linejoin="round" d="M 7985,16926 L 7985,16857"/>
         <path fill="none" stroke="rgb(237,28,36)" stroke-width="35" stroke-linejoin="round" d="M 7985,16788 L 7985,16719"/>
         <path fill="none" stroke="rgb(237,28,36)" stroke-width="35" stroke-linejoin="round" d="M 7985,16650 L 7985,16581"/>
         <path fill="none" stroke="rgb(237,28,36)" stroke-width="35" stroke-linejoin="round" d="M 7985,16512 L 7985,16443"/>
         <path fill="none" stroke="rgb(237,28,36)" stroke-width="35" stroke-linejoin="round" d="M 7985,16374 L 7985,16305"/>
         <path fill="none" stroke="rgb(237,28,36)" stroke-width="35" stroke-linejoin="round" d="M 7985,16236 L 7985,16167"/>
         <path fill="none" stroke="rgb(237,28,36)" stroke-width="35" stroke-linejoin="round" d="M 7985,16098 L 7985,16029"/>
         <path fill="none" stroke="rgb(237,28,36)" stroke-width="35" stroke-linejoin="round" d="M 7985,15960 L 7985,15891"/>
         <path fill="none" stroke="rgb(237,28,36)" stroke-width="35" stroke-linejoin="round" d="M 7985,15823 L 7985,15754"/>
        </g>
       </g>
       <g class="com.sun.star.drawing.LineShape">
        <g id="id6">
         <rect class="BoundingBox" stroke="none" fill="none" x="14864" y="14906" width="1157" height="1492"/>
         <path fill="none" stroke="rgb(0,0,0)" stroke-width="28" stroke-linejoin="round" d="M 16006,16383 L 14997,15078"/>
         <path fill="rgb(0,0,0)" stroke="none" d="M 14864,14906 L 14943,15133 15064,15040 14864,14906 Z"/>
        </g>
       </g>
       <g class="com.sun.star.drawing.LineShape">
        <g id="id7">
         <rect class="BoundingBox" stroke="none" fill="none" x="12276" y="14133" width="483" height="1753"/>
         <path fill="none" stroke="rgb(237,28,36)" stroke-width="35" stroke-linejoin="round" d="M 12740,14151 L 12723,14218"/>
         <path fill="none" stroke="rgb(237,28,36)" stroke-width="35" stroke-linejoin="round" d="M 12705,14284 L 12688,14351"/>
         <path fill="none" stroke="rgb(237,28,36)" stroke-width="35" stroke-linejoin="round" d="M 12671,14418 L 12653,14485"/>
         <path fill="none" stroke="rgb(237,28,36)" stroke-width="35" stroke-linejoin="round" d="M 12636,14551 L 12619,14618"/>
         <path fill="none" stroke="rgb(237,28,36)" stroke-width="35" stroke-linejoin="round" d="M 12601,14685 L 12584,14752"/>
         <path fill="none" stroke="rgb(237,28,36)" stroke-width="35" stroke-linejoin="round" d="M 12567,14818 L 12549,14885"/>
         <path fill="none" stroke="rgb(237,28,36)" stroke-width="35" stroke-linejoin="round" d="M 12532,14952 L 12515,15019"/>
         <path fill="none" stroke="rgb(237,28,36)" stroke-width="35" stroke-linejoin="round" d="M 12497,15085 L 12480,15152"/>
         <path fill="none" stroke="rgb(237,28,36)" stroke-width="35" stroke-linejoin="round" d="M 12462,15219 L 12445,15285"/>
         <path fill="none" stroke="rgb(237,28,36)" stroke-width="35" stroke-linejoin="round" d="M 12428,15352 L 12410,15419"/>
         <path fill="none" stroke="rgb(237,28,36)" stroke-width="35" stroke-linejoin="round" d="M 12393,15486 L 12376,15552"/>
         <path fill="none" stroke="rgb(237,28,36)" stroke-width="35" stroke-linejoin="round" d="M 12358,15619 L 12341,15686"/>
         <path fill="none" stroke="rgb(237,28,36)" stroke-width="35" stroke-linejoin="round" d="M 12324,15753 L 12306,15819"/>
        </g>
       </g>
       <g class="com.sun.star.drawing.LineShape">
        <g id="id8">
         <rect class="BoundingBox" stroke="none" fill="none" x="12270" y="15849" width="43" height="1807"/>
         <path fill="none" stroke="rgb(237,28,36)" stroke-width="35" stroke-linejoin="round" d="M 12288,17637 L 12288,17568"/>
         <path fill="none" stroke="rgb(237,28,36)" stroke-width="35" stroke-linejoin="round" d="M 12288,17499 L 12289,17430"/>
         <path fill="none" stroke="rgb(237,28,36)" stroke-width="35" stroke-linejoin="round" d="M 12289,17361 L 12289,17292"/>
         <path fill="none" stroke="rgb(237,28,36)" stroke-width="35" stroke-linejoin="round" d="M 12289,17223 L 12290,17154"/>
         <path fill="none" stroke="rgb(237,28,36)" stroke-width="35" stroke-linejoin="round" d="M 12290,17085 L 12290,17016"/>
         <path fill="none" stroke="rgb(237,28,36)" stroke-width="35" stroke-linejoin="round" d="M 12290,16948 L 12291,16879"/>
         <path fill="none" stroke="rgb(237,28,36)" stroke-width="35" stroke-linejoin="round" d="M 12291,16810 L 12291,16741"/>
         <path fill="none" stroke="rgb(237,28,36)" stroke-width="35" stroke-linejoin="round" d="M 12291,16672 L 12292,16603"/>
         <path fill="none" stroke="rgb(237,28,36)" stroke-width="35" stroke-linejoin="round" d="M 12292,16534 L 12292,16465"/>
         <path fill="none" stroke="rgb(237,28,36)" stroke-width="35" stroke-linejoin="round" d="M 12292,16396 L 12292,16327"/>
         <path fill="none" stroke="rgb(237,28,36)" stroke-width="35" stroke-linejoin="round" d="M 12293,16258 L 12293,16189"/>
         <path fill="none" stroke="rgb(237,28,36)" stroke-width="35" stroke-linejoin="round" d="M 12293,16120 L 12293,16051"/>
         <path fill="none" stroke="rgb(237,28,36)" stroke-width="35" stroke-linejoin="round" d="M 12294,15982 L 12294,15913"/>
        </g>
       </g>
       <g class="com.sun.star.drawing.LineShape">
        <g id="id9">
         <rect class="BoundingBox" stroke="none" fill="none" x="10002" y="14536" width="2301" height="1338"/>
         <path fill="none" stroke="rgb(0,0,0)" stroke-width="28" stroke-linejoin="round" d="M 12288,15859 L 10191,14645"/>
         <path fill="rgb(0,0,0)" stroke="none" d="M 10002,14536 L 10161,14716 10237,14584 10002,14536 Z"/>
        </g>
       </g>
       <g class="com.sun.star.drawing.LineShape">
        <g id="id10">
         <rect class="BoundingBox" stroke="none" fill="none" x="10002" y="15853" width="2307" height="734"/>
         <path fill="none" stroke="rgb(0,0,0)" stroke-width="28" stroke-linejoin="round" d="M 12294,15867 L 10210,16516"/>
         <path fill="rgb(0,0,0)" stroke="none" d="M 10002,16581 L 10242,16586 10197,16441 10002,16581 Z"/>
        </g>
       </g>
       <g class="com.sun.star.drawing.LineShape">
        <g id="id11">
         <rect class="BoundingBox" stroke="none" fill="none" x="8097" y="15792" width="1793" height="844"/>
         <path fill="none" stroke="rgb(0,0,0)" stroke-width="28" stroke-linejoin="round" d="M 9875,16621 L 8294,15884"/>
         <path fill="rgb(0,0,0)" stroke="none" d="M 8097,15792 L 8272,15957 8336,15819 8097,15792 Z"/>
        </g>
       </g>
       <g class="com.sun.star.drawing.LineShape">
        <g id="id12">
         <rect class="BoundingBox" stroke="none" fill="none" x="8097" y="14448" width="1793" height="1211"/>
         <path fill="none" stroke="rgb(0,0,0)" stroke-width="28" stroke-linejoin="round" d="M 9875,14462 L 8278,15536"/>
         <path fill="rgb(0,0,0)" stroke="none" d="M 8097,15658 L 8329,15594 8244,15468 8097,15658 Z"/>
        </g>
       </g>
       <g class="com.sun.star.drawing.LineShape">
        <g id="id13">
         <rect class="BoundingBox" stroke="none" fill="none" x="8097" y="16607" width="1793" height="1200"/>
         <path fill="none" stroke="rgb(0,0,0)" stroke-width="28" stroke-linejoin="round" d="M 9875,16621 L 8278,17685"/>
         <path fill="rgb(0,0,0)" stroke="none" d="M 8097,17806 L 8329,17743 8245,17616 8097,17806 Z"/>
        </g>
       </g>
       <g class="com.sun.star.drawing.LineShape">
        <g id="id14">
         <rect class="BoundingBox" stroke="none" fill="none" x="10002" y="16675" width="2301" height="977"/>
         <path fill="none" stroke="rgb(0,0,0)" stroke-width="28" stroke-linejoin="round" d="M 12288,17637 L 10203,16760"/>
         <path fill="rgb(0,0,0)" stroke="none" d="M 10002,16675 L 10183,16833 10242,16693 10002,16675 Z"/>
        </g>
       </g>
       <g class="com.sun.star.drawing.LineShape">
        <g id="id15">
         <rect class="BoundingBox" stroke="none" fill="none" x="9949" y="16748" width="1084" height="1920"/>
         <path fill="none" stroke="rgb(0,0,0)" stroke-width="28" stroke-linejoin="round" d="M 11018,18653 L 10056,16938"/>
         <path fill="rgb(0,0,0)" stroke="none" d="M 9949,16748 L 9994,16984 10127,16910 9949,16748 Z"/>
        </g>
       </g>
       <g class="com.sun.star.drawing.LineShape">
        <g id="id16">
         <rect class="BoundingBox" stroke="none" fill="none" x="12415" y="16924" width="2111" height="679"/>
         <path fill="none" stroke="rgb(0,0,0)" stroke-width="28" stroke-linejoin="round" d="M 14511,16938 L 12623,17532"/>
         <path fill="rgb(0,0,0)" stroke="none" d="M 12415,17597 L 12655,17601 12610,17456 12415,17597 Z"/>
        </g>
       </g>
       <g class="com.sun.star.drawing.LineShape">
        <g id="id17">
         <rect class="BoundingBox" stroke="none" fill="none" x="12415" y="15926" width="2111" height="1027"/>
         <path fill="none" stroke="rgb(0,0,0)" stroke-width="28" stroke-linejoin="round" d="M 14511,16938 L 12611,16021"/>
         <path fill="rgb(0,0,0)" stroke="none" d="M 12415,15926 L 12587,16094 12653,15957 12415,15926 Z"/>
        </g>
       </g>
       <g class="com.sun.star.drawing.LineShape">
        <g id="id18">
         <rect class="BoundingBox" stroke="none" fill="none" x="12415" y="14765" width="2365" height="1060"/>
         <path fill="none" stroke="rgb(0,0,0)" stroke-width="28" stroke-linejoin="round" d="M 14765,14779 L 12614,15735"/>
         <path fill="rgb(0,0,0)" stroke="none" d="M 12415,15824 L 12654,15801 12592,15662 12415,15824 Z"/>
        </g>
       </g>
       <g class="com.sun.star.drawing.LineShape">
        <g id="id19">
         <rect class="BoundingBox" stroke="none" fill="none" x="12860" y="14179" width="1920" height="615"/>
         <path fill="none" stroke="rgb(0,0,0)" stroke-width="28" stroke-linejoin="round" d="M 14765,14779 L 13068,14249"/>
         <path fill="rgb(0,0,0)" stroke="none" d="M 12860,14184 L 13055,14325 13100,14179 12860,14184 Z"/>
        </g>
       </g>
       <g class="com.sun.star.drawing.OpenBezierShape">
        <g id="id20">
         <rect class="BoundingBox" stroke="none" fill="none" x="12415" y="14761" width="2242" height="972"/>
         <path fill="none" stroke="rgb(0,166,93)" stroke-width="35" stroke-linejoin="round" d="M 14638,14779 C 14616,14779 14594,14780 14571,14781"/>
         <path fill="none" stroke="rgb(0,166,93)" stroke-width="35" stroke-linejoin="round" d="M 14502,14785 C 14479,14787 14455,14789 14432,14792"/>
         <path fill="none" stroke="rgb(0,166,93)" stroke-width="35" stroke-linejoin="round" d="M 14365,14802 C 14342,14805 14320,14809 14297,14813"/>
         <path fill="none" stroke="rgb(0,166,93)" stroke-width="35" stroke-linejoin="round" d="M 14228,14827 C 14206,14831 14184,14836 14161,14841"/>
         <path fill="none" stroke="rgb(0,166,93)" stroke-width="35" stroke-linejoin="round" d="M 14095,14858 C 14072,14864 14050,14870 14027,14876"/>
         <path fill="none" stroke="rgb(0,166,93)" stroke-width="35" stroke-linejoin="round" d="M 13961,14896 C 13939,14902 13917,14909 13896,14916"/>
         <path fill="none" stroke="rgb(0,166,93)" stroke-width="35" stroke-linejoin="round" d="M 13830,14938 C 13808,14945 13786,14953 13764,14961"/>
         <path fill="none" stroke="rgb(0,166,93)" stroke-width="35" stroke-linejoin="round" d="M 13700,14984 C 13678,14993 13657,15001 13635,15009"/>
         <path fill="none" stroke="rgb(0,166,93)" stroke-width="35" stroke-linejoin="round" d="M 13571,15035 C 13550,15044 13529,15053 13507,15062"/>
         <path fill="none" stroke="rgb(0,166,93)" stroke-width="35" stroke-linejoin="round" d="M 13444,15089 C 13423,15099 13402,15108 13381,15118"/>
         <path fill="none" stroke="rgb(0,166,93)" stroke-width="35" stroke-linejoin="round" d="M 13319,15147 C 13298,15157 13277,15167 13256,15177"/>
         <path fill="none" stroke="rgb(0,166,93)" stroke-width="35" stroke-linejoin="round" d="M 13195,15208 C 13174,15219 13154,15229 13134,15240"/>
         <path fill="none" stroke="rgb(0,166,93)" stroke-width="35" stroke-linejoin="round" d="M 13072,15272 C 13052,15284 13032,15295 13012,15306"/>
         <path fill="none" stroke="rgb(0,166,93)" stroke-width="35" stroke-linejoin="round" d="M 12952,15340 C 12932,15352 12912,15363 12893,15375"/>
         <path fill="none" stroke="rgb(0,166,93)" stroke-width="35" stroke-linejoin="round" d="M 12833,15412 C 12814,15424 12794,15436 12776,15448"/>
         <path fill="none" stroke="rgb(0,166,93)" stroke-width="35" stroke-linejoin="round" d="M 12718,15486 C 12698,15500 12679,15513 12660,15527"/>
         <path fill="none" stroke="rgb(0,166,93)" stroke-width="35" stroke-linejoin="round" d="M 12606,15566 C 12599,15571 12592,15576 12586,15581"/>
         <path fill="rgb(0,166,93)" stroke="none" d="M 12415,15732 L 12651,15633 12544,15511 12415,15732 Z"/>
        </g>
       </g>
       <g class="com.sun.star.drawing.CustomShape">
        <g id="id21">
         <rect class="BoundingBox" stroke="none" fill="none" x="12133" y="15705" width="310" height="310"/>
         <path fill="rgb(0,166,93)" stroke="none" d="M 12415,15859 C 12415,15931 12360,15986 12288,15986 12216,15986 12161,15931 12161,15859 12161,15787 12216,15732 12288,15732 12360,15732 12415,15787 12415,15859 Z M 12415,15732 L 12415,15732 Z M 12160,15987 L 12160,15987 Z"/>
         <path fill="none" stroke="rgb(237,28,36)" stroke-width="53" stroke-linejoin="round" d="M 12415,15859 C 12415,15931 12360,15986 12288,15986 12216,15986 12161,15931 12161,15859 12161,15787 12216,15732 12288,15732 12360,15732 12415,15787 12415,15859 Z"/>
        </g>
       </g>
       <g class="com.sun.star.drawing.CustomShape">
        <g id="id22">
         <rect class="BoundingBox" stroke="none" fill="none" x="7815" y="15578" width="310" height="310"/>
         <path fill="rgb(237,28,36)" stroke="none" d="M 8097,15732 C 8097,15804 8042,15859 7970,15859 7898,15859 7843,15804 7843,15732 7843,15660 7898,15605 7970,15605 8042,15605 8097,15660 8097,15732 Z M 8097,15605 L 8097,15605 Z M 7842,15860 L 7842,15860 Z"/>
         <path fill="none" stroke="rgb(237,28,36)" stroke-width="53" stroke-linejoin="round" d="M 8097,15732 C 8097,15804 8042,15859 7970,15859 7898,15859 7843,15804 7843,15732 7843,15660 7898,15605 7970,15605 8042,15605 8097,15660 8097,15732 Z"/>
        </g>
       </g>
       <g class="com.sun.star.drawing.CustomShape">
        <g id="id23">
         <rect class="BoundingBox" stroke="none" fill="none" x="14610" y="14625" width="310" height="310"/>
         <path fill="rgb(0,166,93)" stroke="none" d="M 14892,14779 C 14892,14851 14837,14906 14765,14906 14693,14906 14638,14851 14638,14779 14638,14707 14693,14652 14765,14652 14837,14652 14892,14707 14892,14779 Z M 14892,14652 L 14892,14652 Z M 14637,14907 L 14637,14907 Z"/>
         <path fill="none" stroke="rgb(237,28,36)" stroke-width="53" stroke-linejoin="round" d="M 14892,14779 C 14892,14851 14837,14906 14765,14906 14693,14906 14638,14851 14638,14779 14638,14707 14693,14652 14765,14652 14837,14652 14892,14707 14892,14779 Z"/>
        </g>
       </g>
       <g class="com.sun.star.drawing.LineShape">
        <g id="id24">
         <rect class="BoundingBox" stroke="none" fill="none" x="11000" y="17619" width="1307" height="1053"/>
         <path fill="none" stroke="rgb(237,28,36)" stroke-width="35" stroke-linejoin="round" d="M 12288,17637 L 12234,17680"/>
         <path fill="none" stroke="rgb(237,28,36)" stroke-width="35" stroke-linejoin="round" d="M 12180,17723 L 12126,17766"/>
         <path fill="none" stroke="rgb(237,28,36)" stroke-width="35" stroke-linejoin="round" d="M 12073,17809 L 12019,17852"/>
         <path fill="none" stroke="rgb(237,28,36)" stroke-width="35" stroke-linejoin="round" d="M 11965,17895 L 11911,17939"/>
         <path fill="none" stroke="rgb(237,28,36)" stroke-width="35" stroke-linejoin="round" d="M 11857,17982 L 11803,18025"/>
         <path fill="none" stroke="rgb(237,28,36)" stroke-width="35" stroke-linejoin="round" d="M 11750,18068 L 11696,18111"/>
         <path fill="none" stroke="rgb(237,28,36)" stroke-width="35" stroke-linejoin="round" d="M 11642,18154 L 11588,18197"/>
         <path fill="none" stroke="rgb(237,28,36)" stroke-width="35" stroke-linejoin="round" d="M 11534,18240 L 11480,18283"/>
         <path fill="none" stroke="rgb(237,28,36)" stroke-width="35" stroke-linejoin="round" d="M 11427,18326 L 11373,18369"/>
         <path fill="none" stroke="rgb(237,28,36)" stroke-width="35" stroke-linejoin="round" d="M 11319,18412 L 11265,18455"/>
         <path fill="none" stroke="rgb(237,28,36)" stroke-width="35" stroke-linejoin="round" d="M 11211,18498 L 11157,18542"/>
         <path fill="none" stroke="rgb(237,28,36)" stroke-width="35" stroke-linejoin="round" d="M 11104,18585 L 11050,18628"/>
        </g>
       </g>
       <g class="com.sun.star.drawing.CustomShape">
        <g id="id25">
         <rect class="BoundingBox" stroke="none" fill="none" x="12133" y="17483" width="310" height="310"/>
         <path fill="rgb(237,28,36)" stroke="none" d="M 12415,17637 C 12415,17709 12360,17764 12288,17764 12216,17764 12161,17709 12161,17637 12161,17565 12216,17510 12288,17510 12360,17510 12415,17565 12415,17637 Z M 12415,17510 L 12415,17510 Z M 12160,17765 L 12160,17765 Z"/>
         <path fill="none" stroke="rgb(237,28,36)" stroke-width="53" stroke-linejoin="round" d="M 12415,17637 C 12415,17709 12360,17764 12288,17764 12216,17764 12161,17709 12161,17637 12161,17565 12216,17510 12288,17510 12360,17510 12415,17565 12415,17637 Z"/>
        </g>
       </g>
       <g class="com.sun.star.drawing.CustomShape">
        <g id="id26">
         <rect class="BoundingBox" stroke="none" fill="none" x="10863" y="18499" width="310" height="310"/>
         <path fill="rgb(237,28,36)" stroke="none" d="M 11145,18653 C 11145,18725 11090,18780 11018,18780 10946,18780 10891,18725 10891,18653 10891,18581 10946,18526 11018,18526 11090,18526 11145,18581 11145,18653 Z M 11145,18526 L 11145,18526 Z M 10890,18781 L 10890,18781 Z"/>
         <path fill="none" stroke="rgb(237,28,36)" stroke-width="53" stroke-linejoin="round" d="M 11145,18653 C 11145,18725 11090,18780 11018,18780 10946,18780 10891,18725 10891,18653 10891,18581 10946,18526 11018,18526 11090,18526 11145,18581 11145,18653 Z"/>
        </g>
       </g>
       <g class="com.sun.star.drawing.CustomShape">
        <g id="id27">
         <rect class="BoundingBox" stroke="none" fill="none" x="12578" y="13990" width="310" height="310"/>
         <path fill="rgb(237,28,36)" stroke="none" d="M 12860,14144 C 12860,14216 12805,14271 12733,14271 12661,14271 12606,14216 12606,14144 12606,14072 12661,14017 12733,14017 12805,14017 12860,14072 12860,14144 Z M 12860,14017 L 12860,14017 Z M 12605,14272 L 12605,14272 Z"/>
         <path fill="none" stroke="rgb(237,28,36)" stroke-width="53" stroke-linejoin="round" d="M 12860,14144 C 12860,14216 12805,14271 12733,14271 12661,14271 12606,14216 12606,14144 12606,14072 12661,14017 12733,14017 12805,14017 12860,14072 12860,14144 Z"/>
        </g>
       </g>
       <g class="com.sun.star.drawing.CustomShape">
        <g id="id28">
         <rect class="BoundingBox" stroke="none" fill="none" x="15831" y="16225" width="310" height="310"/>
         <path fill="rgb(0,166,93)" stroke="none" d="M 16113,16379 C 16113,16451 16058,16506 15986,16506 15914,16506 15859,16451 15859,16379 15859,16307 15914,16252 15986,16252 16058,16252 16113,16307 16113,16379 Z M 16113,16252 L 16113,16252 Z M 15858,16507 L 15858,16507 Z"/>
         <path fill="none" stroke="rgb(237,28,36)" stroke-width="53" stroke-linejoin="round" d="M 16113,16379 C 16113,16451 16058,16506 15986,16506 15914,16506 15859,16451 15859,16379 15859,16307 15914,16252 15986,16252 16058,16252 16113,16307 16113,16379 Z"/>
        </g>
       </g>
       <g class="com.sun.star.drawing.OpenBezierShape">
        <g id="id29">
         <rect class="BoundingBox" stroke="none" fill="none" x="14765" y="14906" width="1113" height="1496"/>
         <path fill="none" stroke="rgb(0,166,93)" stroke-width="35" stroke-linejoin="round" d="M 15859,16383 C 15839,16372 15819,16361 15799,16349"/>
         <path fill="none" stroke="rgb(0,166,93)" stroke-width="35" stroke-linejoin="round" d="M 15740,16313 C 15721,16301 15702,16288 15683,16275"/>
         <path fill="none" stroke="rgb(0,166,93)" stroke-width="35" stroke-linejoin="round" d="M 15627,16234 C 15609,16220 15591,16206 15573,16191"/>
         <path fill="none" stroke="rgb(0,166,93)" stroke-width="35" stroke-linejoin="round" d="M 15521,16146 C 15504,16131 15487,16116 15470,16100"/>
         <path fill="none" stroke="rgb(0,166,93)" stroke-width="35" stroke-linejoin="round" d="M 15421,16051 C 15405,16035 15389,16018 15373,16001"/>
         <path fill="none" stroke="rgb(0,166,93)" stroke-width="35" stroke-linejoin="round" d="M 15327,15950 C 15312,15933 15298,15915 15283,15897"/>
         <path fill="none" stroke="rgb(0,166,93)" stroke-width="35" stroke-linejoin="round" d="M 15240,15843 C 15226,15825 15212,15806 15199,15788"/>
         <path fill="none" stroke="rgb(0,166,93)" stroke-width="35" stroke-linejoin="round" d="M 15159,15731 C 15146,15712 15134,15693 15121,15674"/>
         <path fill="none" stroke="rgb(0,166,93)" stroke-width="35" stroke-linejoin="round" d="M 15084,15616 C 15072,15596 15061,15576 15049,15556"/>
         <path fill="none" stroke="rgb(0,166,93)" stroke-width="35" stroke-linejoin="round" d="M 15015,15496 C 15004,15476 14993,15456 14983,15435"/>
         <path fill="none" stroke="rgb(0,166,93)" stroke-width="35" stroke-linejoin="round" d="M 14952,15374 C 14941,15353 14931,15332 14922,15312"/>
         <path fill="none" stroke="rgb(0,166,93)" stroke-width="35" stroke-linejoin="round" d="M 14893,15249 C 14884,15228 14875,15207 14866,15185"/>
         <path fill="none" stroke="rgb(0,166,93)" stroke-width="35" stroke-linejoin="round" d="M 14840,15122 C 14838,15118 14837,15115 14836,15111"/>
         <path fill="rgb(0,166,93)" stroke="none" d="M 14765,14906 L 14768,15146 14912,15097 14765,14906 Z"/>
        </g>
       </g>
       <g class="com.sun.star.drawing.OpenBezierShape">
        <g id="id30">
         <rect class="BoundingBox" stroke="none" fill="none" x="10032" y="15968" width="2184" height="721"/>
         <path fill="none" stroke="rgb(0,166,93)" stroke-width="35" stroke-linejoin="round" d="M 12197,15986 C 12178,15999 12159,16011 12140,16023"/>
         <path fill="none" stroke="rgb(0,166,93)" stroke-width="35" stroke-linejoin="round" d="M 12081,16059 C 12061,16071 12041,16082 12021,16093"/>
         <path fill="none" stroke="rgb(0,166,93)" stroke-width="35" stroke-linejoin="round" d="M 11960,16126 C 11940,16136 11919,16147 11898,16157"/>
         <path fill="none" stroke="rgb(0,166,93)" stroke-width="35" stroke-linejoin="round" d="M 11836,16187 C 11815,16196 11794,16205 11773,16215"/>
         <path fill="none" stroke="rgb(0,166,93)" stroke-width="35" stroke-linejoin="round" d="M 11710,16242 C 11689,16251 11667,16259 11646,16268"/>
         <path fill="none" stroke="rgb(0,166,93)" stroke-width="35" stroke-linejoin="round" d="M 11582,16293 C 11560,16301 11539,16309 11517,16317"/>
         <path fill="none" stroke="rgb(0,166,93)" stroke-width="35" stroke-linejoin="round" d="M 11452,16340 C 11430,16347 11408,16354 11386,16361"/>
         <path fill="none" stroke="rgb(0,166,93)" stroke-width="35" stroke-linejoin="round" d="M 11320,16382 C 11298,16389 11276,16396 11254,16402"/>
         <path fill="none" stroke="rgb(0,166,93)" stroke-width="35" stroke-linejoin="round" d="M 11188,16422 C 11166,16428 11144,16434 11122,16440"/>
         <path fill="none" stroke="rgb(0,166,93)" stroke-width="35" stroke-linejoin="round" d="M 11055,16458 C 11033,16463 11010,16469 10988,16475"/>
         <path fill="none" stroke="rgb(0,166,93)" stroke-width="35" stroke-linejoin="round" d="M 10921,16491 C 10899,16496 10876,16501 10854,16506"/>
         <path fill="none" stroke="rgb(0,166,93)" stroke-width="35" stroke-linejoin="round" d="M 10786,16521 C 10764,16526 10741,16530 10719,16535"/>
         <path fill="none" stroke="rgb(0,166,93)" stroke-width="35" stroke-linejoin="round" d="M 10651,16548 C 10628,16553 10606,16557 10583,16561"/>
         <path fill="none" stroke="rgb(0,166,93)" stroke-width="35" stroke-linejoin="round" d="M 10515,16573 C 10492,16577 10470,16580 10448,16584"/>
         <path fill="none" stroke="rgb(0,166,93)" stroke-width="35" stroke-linejoin="round" d="M 10379,16595 C 10356,16598 10333,16602 10310,16605"/>
         <path fill="rgb(0,166,93)" stroke="none" d="M 10032,16637 L 10267,16688 10250,16536 10032,16637 Z"/>
        </g>
       </g>
       <g class="com.sun.star.drawing.CustomShape">
        <g id="id31">
         <rect class="BoundingBox" stroke="none" fill="none" x="9720" y="16467" width="310" height="310"/>
         <path fill="rgb(0,166,93)" stroke="none" d="M 10002,16621 C 10002,16693 9947,16748 9875,16748 9803,16748 9748,16693 9748,16621 9748,16549 9803,16494 9875,16494 9947,16494 10002,16549 10002,16621 Z M 10002,16494 L 10002,16494 Z M 9747,16749 L 9747,16749 Z"/>
         <path fill="none" stroke="rgb(237,28,36)" stroke-width="53" stroke-linejoin="round" d="M 10002,16621 C 10002,16693 9947,16748 9875,16748 9803,16748 9748,16693 9748,16621 9748,16549 9803,16494 9875,16494 9947,16494 10002,16549 10002,16621 Z"/>
        </g>
       </g>
       <g class="com.sun.star.drawing.CustomShape">
        <g id="id32">
         <rect class="BoundingBox" stroke="none" fill="none" x="7815" y="17737" width="310" height="310"/>
         <path fill="rgb(0,166,93)" stroke="none" d="M 8097,17891 C 8097,17963 8042,18018 7970,18018 7898,18018 7843,17963 7843,17891 7843,17819 7898,17764 7970,17764 8042,17764 8097,17819 8097,17891 Z M 8097,17764 L 8097,17764 Z M 7842,18019 L 7842,18019 Z"/>
         <path fill="none" stroke="rgb(237,28,36)" stroke-width="53" stroke-linejoin="round" d="M 8097,17891 C 8097,17963 8042,18018 7970,18018 7898,18018 7843,17963 7843,17891 7843,17819 7898,17764 7970,17764 8042,17764 8097,17819 8097,17891 Z"/>
        </g>
       </g>
       <g class="com.sun.star.drawing.OpenBezierShape">
        <g id="id33">
         <rect class="BoundingBox" stroke="none" fill="none" x="8024" y="16603" width="1712" height="1162"/>
         <path fill="none" stroke="rgb(0,166,93)" stroke-width="35" stroke-linejoin="round" d="M 9717,16621 C 9696,16626 9675,16632 9653,16638"/>
         <path fill="none" stroke="rgb(0,166,93)" stroke-width="35" stroke-linejoin="round" d="M 9585,16661 C 9565,16668 9544,16676 9522,16684"/>
         <path fill="none" stroke="rgb(0,166,93)" stroke-width="35" stroke-linejoin="round" d="M 9458,16711 C 9437,16720 9416,16729 9395,16739"/>
         <path fill="none" stroke="rgb(0,166,93)" stroke-width="35" stroke-linejoin="round" d="M 9333,16769 C 9312,16779 9291,16790 9270,16801"/>
         <path fill="none" stroke="rgb(0,166,93)" stroke-width="35" stroke-linejoin="round" d="M 9210,16832 C 9190,16843 9170,16855 9150,16866"/>
         <path fill="none" stroke="rgb(0,166,93)" stroke-width="35" stroke-linejoin="round" d="M 9089,16901 C 9070,16912 9050,16924 9031,16936"/>
         <path fill="none" stroke="rgb(0,166,93)" stroke-width="35" stroke-linejoin="round" d="M 8972,16972 C 8952,16984 8933,16997 8913,17009"/>
         <path fill="none" stroke="rgb(0,166,93)" stroke-width="35" stroke-linejoin="round" d="M 8856,17047 C 8836,17060 8817,17073 8798,17086"/>
         <path fill="none" stroke="rgb(0,166,93)" stroke-width="35" stroke-linejoin="round" d="M 8741,17125 C 8723,17138 8704,17152 8685,17165"/>
         <path fill="none" stroke="rgb(0,166,93)" stroke-width="35" stroke-linejoin="round" d="M 8629,17206 C 8611,17220 8592,17233 8574,17247"/>
         <path fill="none" stroke="rgb(0,166,93)" stroke-width="35" stroke-linejoin="round" d="M 8519,17290 C 8501,17304 8483,17318 8466,17333"/>
         <path fill="none" stroke="rgb(0,166,93)" stroke-width="35" stroke-linejoin="round" d="M 8412,17376 C 8394,17391 8376,17406 8359,17421"/>
         <path fill="none" stroke="rgb(0,166,93)" stroke-width="35" stroke-linejoin="round" d="M 8308,17466 C 8290,17482 8273,17498 8256,17514"/>
         <path fill="none" stroke="rgb(0,166,93)" stroke-width="35" stroke-linejoin="round" d="M 8206,17561 C 8192,17575 8178,17588 8165,17602"/>
         <path fill="rgb(0,166,93)" stroke="none" d="M 8024,17764 L 8231,17643 8117,17542 8024,17764 Z"/>
        </g>
       </g>
       <g class="com.sun.star.drawing.CustomShape">
        <g id="id34">
         <rect class="BoundingBox" stroke="none" fill="none" x="9720" y="14308" width="310" height="310"/>
         <path fill="rgb(237,28,36)" stroke="none" d="M 10002,14462 C 10002,14534 9947,14589 9875,14589 9803,14589 9748,14534 9748,14462 9748,14390 9803,14335 9875,14335 9947,14335 10002,14390 10002,14462 Z M 10002,14335 L 10002,14335 Z M 9747,14590 L 9747,14590 Z"/>
         <path fill="none" stroke="rgb(237,28,36)" stroke-width="53" stroke-linejoin="round" d="M 10002,14462 C 10002,14534 9947,14589 9875,14589 9803,14589 9748,14534 9748,14462 9748,14390 9803,14335 9875,14335 9947,14335 10002,14390 10002,14462 Z"/>
        </g>
       </g>
       <g class="com.sun.star.drawing.CustomShape">
        <g id="id35">
         <rect class="BoundingBox" stroke="none" fill="none" x="14356" y="16784" width="310" height="310"/>
         <path fill="rgb(237,28,36)" stroke="none" d="M 14638,16938 C 14638,17010 14583,17065 14511,17065 14439,17065 14384,17010 14384,16938 14384,16866 14439,16811 14511,16811 14583,16811 14638,16866 14638,16938 Z M 14638,16811 L 14638,16811 Z M 14383,17066 L 14383,17066 Z"/>
         <path fill="none" stroke="rgb(237,28,36)" stroke-width="53" stroke-linejoin="round" d="M 14638,16938 C 14638,17010 14583,17065 14511,17065 14439,17065 14384,17010 14384,16938 14384,16866 14439,16811 14511,16811 14583,16811 14638,16866 14638,16938 Z"/>
        </g>
       </g>
       <g class="com.sun.star.drawing.CustomShape">
        <g id="id36">
         <rect class="BoundingBox" stroke="none" fill="none" x="14515" y="14531" width="497" height="497"/>
         <path fill="none" stroke="rgb(237,28,36)" stroke-width="35" stroke-linejoin="round" d="M 14992,14759 C 14993,14766 14993,14772 14993,14778 14993,14796 14991,14813 14988,14829"/>
         <path fill="none" stroke="rgb(237,28,36)" stroke-width="35" stroke-linejoin="round" d="M 14972,14877 C 14965,14893 14956,14907 14946,14921"/>
         <path fill="none" stroke="rgb(237,28,36)" stroke-width="35" stroke-linejoin="round" d="M 14910,14957 C 14897,14968 14883,14977 14867,14985"/>
         <path fill="none" stroke="rgb(237,28,36)" stroke-width="35" stroke-linejoin="round" d="M 14819,15002 C 14803,15005 14786,15008 14769,15008"/>
         <path fill="none" stroke="rgb(237,28,36)" stroke-width="35" stroke-linejoin="round" d="M 14718,15004 C 14701,15000 14684,14995 14669,14989"/>
         <path fill="none" stroke="rgb(237,28,36)" stroke-width="35" stroke-linejoin="round" d="M 14625,14963 C 14611,14953 14599,14941 14588,14928"/>
         <path fill="none" stroke="rgb(237,28,36)" stroke-width="35" stroke-linejoin="round" d="M 14560,14886 C 14552,14871 14546,14855 14542,14838"/>
         <path fill="none" stroke="rgb(237,28,36)" stroke-width="35" stroke-linejoin="round" d="M 14534,14788 C 14534,14785 14534,14781 14534,14778 14534,14764 14535,14750 14537,14737"/>
         <path fill="none" stroke="rgb(237,28,36)" stroke-width="35" stroke-linejoin="round" d="M 14551,14688 C 14558,14672 14566,14657 14576,14643"/>
         <path fill="none" stroke="rgb(237,28,36)" stroke-width="35" stroke-linejoin="round" d="M 14610,14606 C 14623,14594 14637,14585 14652,14577"/>
         <path fill="none" stroke="rgb(237,28,36)" stroke-width="35" stroke-linejoin="round" d="M 14699,14558 C 14715,14553 14732,14550 14749,14549"/>
         <path fill="none" stroke="rgb(237,28,36)" stroke-width="35" stroke-linejoin="round" d="M 14800,14552 C 14818,14554 14834,14559 14850,14565"/>
         <path fill="none" stroke="rgb(237,28,36)" stroke-width="35" stroke-linejoin="round" d="M 14895,14588 C 14909,14598 14922,14609 14934,14621"/>
         <path fill="none" stroke="rgb(237,28,36)" stroke-width="35" stroke-linejoin="round" d="M 14963,14662 C 14972,14677 14978,14693 14983,14709"/>
        </g>
       </g>
      </g>
     </g>
    </g>
   </g>
  </g>
 </g>
</svg>