<svg height="275.864375pt" version="1.1" viewBox="0 0 383.24375 275.864375" width="383.24375pt" xmlns="http://www.w3.org/2000/svg" xmlns:xlink="http://www.w3.org/1999/xlink" style="width: 100%; height: 100%;">
 <defs>
  <style type="text/css">
*{stroke-linecap:butt;stroke-linejoin:round;}
  </style>
 </defs>
 <g id="figure_1">
  <g id="patch_1">
   <path d="M 0 275.864375 
L 383.24375 275.864375 
L 383.24375 0 
L 0 0 
z
" style="fill:none;"></path>
  </g>
  <g id="axes_1">
   <g id="patch_2">
    <path d="M 41.24375 239.495625 
L 376.04375 239.495625 
L 376.04375 22.055625 
L 41.24375 22.055625 
z
" style="fill:#ffffff;"></path>
   </g>
   <g id="matplotlib.axis_1">
    <g id="xtick_1">
     <g id="line2d_1">
      <defs>
       <path d="M 0 0 
L 0 3.5 
" id="m8977072e61" style="stroke:#000000;stroke-width:0.8;"></path>
      </defs>
      <g>
       <use style="stroke:#000000;stroke-width:0.8;" x="56.461932" xlink:href="#m8977072e61" y="239.495625"></use>
      </g>
     </g>
     <g id="text_1">
      <!-- 0 -->
      <defs>
       <path d="M 55.09375 35.90625 
Q 55.09375 26.5 53.0625 19.59375 
Q 51.046875 12.703125 47.515625 8.171875 
Q 44 3.65625 39.21875 1.453125 
Q 34.453125 -0.75 28.953125 -0.75 
Q 23.453125 -0.75 18.671875 1.453125 
Q 13.90625 3.65625 10.40625 8.171875 
Q 6.90625 12.703125 4.90625 19.59375 
Q 2.90625 26.5 2.90625 35.90625 
Q 2.90625 45.296875 4.90625 52.21875 
Q 6.90625 59.15625 10.40625 63.671875 
Q 13.90625 68.203125 18.671875 70.390625 
Q 23.453125 72.59375 28.953125 72.59375 
Q 34.453125 72.59375 39.21875 70.390625 
Q 44 68.203125 47.515625 63.671875 
Q 51.046875 59.15625 53.0625 52.21875 
Q 55.09375 45.296875 55.09375 35.90625 
z
M 45 35.90625 
Q 45 44 43.671875 49.453125 
Q 42.34375 54.90625 40.125 58.21875 
Q 37.90625 61.546875 35 62.9375 
Q 32.09375 64.34375 28.953125 64.34375 
Q 25.796875 64.34375 22.890625 62.9375 
Q 20 61.546875 17.765625 58.21875 
Q 15.546875 54.90625 14.25 49.453125 
Q 12.953125 44 12.953125 35.90625 
Q 12.953125 27.796875 14.25 22.34375 
Q 15.546875 16.90625 17.765625 13.59375 
Q 20 10.296875 22.890625 8.890625 
Q 25.796875 7.5 28.953125 7.5 
Q 32.09375 7.5 35 8.890625 
Q 37.90625 10.296875 40.125 13.59375 
Q 42.34375 16.90625 43.671875 22.34375 
Q 45 27.796875 45 35.90625 
z
" id="Lato-Medium-48"></path>
      </defs>
      <g transform="translate(53.561932 253.875312)scale(0.1 -0.1)">
       <use xlink:href="#Lato-Medium-48"></use>
      </g>
     </g>
    </g>
    <g id="xtick_2">
     <g id="line2d_2">
      <g>
       <use style="stroke:#000000;stroke-width:0.8;" x="99.572928" xlink:href="#m8977072e61" y="239.495625"></use>
      </g>
     </g>
     <g id="text_2">
      <!-- 10000 -->
      <defs>
       <path d="M 51.09375 7.453125 
L 51.09375 0 
L 12.296875 0 
L 12.296875 7.453125 
L 27.5 7.453125 
L 27.5 54.5 
Q 27.5 56.75 27.65625 59.15625 
L 15.453125 48.796875 
Q 14.75 48.25 14.046875 48.09375 
Q 13.34375 47.953125 12.71875 48.046875 
Q 12.09375 48.15625 11.625 48.46875 
Q 11.15625 48.796875 10.84375 49.15625 
L 7.796875 53.40625 
L 29.296875 71.953125 
L 37.25 71.953125 
L 37.25 7.453125 
z
" id="Lato-Medium-49"></path>
      </defs>
      <g transform="translate(85.072928 253.875312)scale(0.1 -0.1)">
       <use xlink:href="#Lato-Medium-49"></use>
       <use x="58" xlink:href="#Lato-Medium-48"></use>
       <use x="116" xlink:href="#Lato-Medium-48"></use>
       <use x="174" xlink:href="#Lato-Medium-48"></use>
       <use x="232" xlink:href="#Lato-Medium-48"></use>
      </g>
     </g>
    </g>
    <g id="xtick_3">
     <g id="line2d_3">
      <g>
       <use style="stroke:#000000;stroke-width:0.8;" x="142.683925" xlink:href="#m8977072e61" y="239.495625"></use>
      </g>
     </g>
     <g id="text_3">
      <!-- 20000 -->
      <defs>
       <path d="M 49.296875 9.25 
Q 50.90625 9.25 51.796875 8.328125 
Q 52.703125 7.40625 52.703125 5.90625 
L 52.703125 0 
L 4.5 0 
L 4.5 3.34375 
Q 4.5 4.34375 4.890625 5.46875 
Q 5.296875 6.59375 6.25 7.5 
L 28.953125 30.25 
Q 31.796875 33.09375 34.09375 35.75 
Q 36.40625 38.40625 38 41.03125 
Q 39.59375 43.65625 40.46875 46.40625 
Q 41.34375 49.15625 41.34375 52.203125 
Q 41.34375 55.203125 40.390625 57.46875 
Q 39.453125 59.75 37.796875 61.25 
Q 36.15625 62.75 33.90625 63.5 
Q 31.65625 64.25 29.046875 64.25 
Q 26.453125 64.25 24.265625 63.5 
Q 22.09375 62.75 20.390625 61.390625 
Q 18.703125 60.046875 17.546875 58.1875 
Q 16.40625 56.34375 15.90625 54.203125 
Q 15.203125 52.296875 14.125 51.640625 
Q 13.046875 51 11 51.34375 
L 5.90625 52.25 
Q 6.59375 57.25 8.640625 61.046875 
Q 10.703125 64.84375 13.796875 67.421875 
Q 16.90625 70 20.921875 71.296875 
Q 24.953125 72.59375 29.59375 72.59375 
Q 34.296875 72.59375 38.265625 71.21875 
Q 42.25 69.84375 45.140625 67.25 
Q 48.046875 64.65625 49.6875 60.921875 
Q 51.34375 57.203125 51.34375 52.5 
Q 51.34375 48.5 50.171875 45.078125 
Q 49 41.65625 46.96875 38.546875 
Q 44.953125 35.453125 42.265625 32.515625 
Q 39.59375 29.59375 36.59375 26.59375 
L 18.40625 8 
Q 20.5 8.546875 22.625 8.890625 
Q 24.75 9.25 26.65625 9.25 
z
" id="Lato-Medium-50"></path>
      </defs>
      <g transform="translate(128.183925 253.875312)scale(0.1 -0.1)">
       <use xlink:href="#Lato-Medium-50"></use>
       <use x="58" xlink:href="#Lato-Medium-48"></use>
       <use x="116" xlink:href="#Lato-Medium-48"></use>
       <use x="174" xlink:href="#Lato-Medium-48"></use>
       <use x="232" xlink:href="#Lato-Medium-48"></use>
      </g>
     </g>
    </g>
    <g id="xtick_4">
     <g id="line2d_4">
      <g>
       <use style="stroke:#000000;stroke-width:0.8;" x="185.794922" xlink:href="#m8977072e61" y="239.495625"></use>
      </g>
     </g>
     <g id="text_4">
      <!-- 30000 -->
      <defs>
       <path d="M 6.203125 52.25 
Q 6.953125 57.25 9 61.046875 
Q 11.046875 64.84375 14.140625 67.421875 
Q 17.25 70 21.265625 71.296875 
Q 25.296875 72.59375 29.953125 72.59375 
Q 34.59375 72.59375 38.5 71.265625 
Q 42.40625 69.953125 45.171875 67.515625 
Q 47.953125 65.09375 49.5 61.6875 
Q 51.046875 58.296875 51.046875 54.203125 
Q 51.046875 50.75 50.1875 48.09375 
Q 49.34375 45.453125 47.765625 43.453125 
Q 46.203125 41.453125 43.953125 40.078125 
Q 41.703125 38.703125 38.90625 37.796875 
Q 45.75 35.90625 49.203125 31.625 
Q 52.65625 27.34375 52.65625 20.796875 
Q 52.65625 15.75 50.75 11.71875 
Q 48.84375 7.703125 45.546875 4.921875 
Q 42.25 2.15625 37.875 0.671875 
Q 33.5 -0.796875 28.546875 -0.796875 
Q 22.90625 -0.796875 18.84375 0.578125 
Q 14.796875 1.953125 11.9375 4.421875 
Q 9.09375 6.90625 7.21875 10.375 
Q 5.34375 13.84375 4.046875 18 
L 8.296875 19.796875 
Q 9.953125 20.5 11.5 20.203125 
Q 13.046875 19.90625 13.75 18.453125 
Q 14.5 16.953125 15.46875 15.078125 
Q 16.453125 13.203125 18.09375 11.515625 
Q 19.75 9.84375 22.21875 8.6875 
Q 24.703125 7.546875 28.453125 7.546875 
Q 32.046875 7.546875 34.75 8.71875 
Q 37.453125 9.90625 39.25 11.78125 
Q 41.046875 13.65625 41.9375 15.953125 
Q 42.84375 18.25 42.84375 20.5 
Q 42.84375 23.296875 42.140625 25.640625 
Q 41.453125 28 39.46875 29.671875 
Q 37.5 31.34375 34 32.296875 
Q 30.5 33.25 24.90625 33.25 
L 24.90625 40.34375 
Q 29.5 40.40625 32.671875 41.296875 
Q 35.84375 42.203125 37.796875 43.796875 
Q 39.75 45.40625 40.625 47.59375 
Q 41.5 49.796875 41.5 52.5 
Q 41.5 55.453125 40.59375 57.640625 
Q 39.703125 59.84375 38.078125 61.3125 
Q 36.453125 62.796875 34.21875 63.515625 
Q 32 64.25 29.40625 64.25 
Q 26.796875 64.25 24.59375 63.5 
Q 22.40625 62.75 20.703125 61.390625 
Q 19 60.046875 17.84375 58.1875 
Q 16.703125 56.34375 16.203125 54.203125 
Q 15.5 52.296875 14.421875 51.640625 
Q 13.34375 51 11.34375 51.34375 
z
" id="Lato-Medium-51"></path>
      </defs>
      <g transform="translate(171.294922 253.875312)scale(0.1 -0.1)">
       <use xlink:href="#Lato-Medium-51"></use>
       <use x="58" xlink:href="#Lato-Medium-48"></use>
       <use x="116" xlink:href="#Lato-Medium-48"></use>
       <use x="174" xlink:href="#Lato-Medium-48"></use>
       <use x="232" xlink:href="#Lato-Medium-48"></use>
      </g>
     </g>
    </g>
    <g id="xtick_5">
     <g id="line2d_5">
      <g>
       <use style="stroke:#000000;stroke-width:0.8;" x="228.905918" xlink:href="#m8977072e61" y="239.495625"></use>
      </g>
     </g>
     <g id="text_5">
      <!-- 40000 -->
      <defs>
       <path d="M 36.296875 26.203125 
L 36.296875 54.203125 
Q 36.296875 55.65625 36.375 57.28125 
Q 36.453125 58.90625 36.703125 60.65625 
L 11.546875 26.203125 
z
M 55.25 26.203125 
L 55.25 20.546875 
Q 55.25 19.703125 54.703125 19.09375 
Q 54.15625 18.5 53.15625 18.5 
L 44.84375 18.5 
L 44.84375 0 
L 36.296875 0 
L 36.296875 18.5 
L 4.796875 18.5 
Q 3.703125 18.5 2.953125 19.125 
Q 2.203125 19.75 1.953125 20.703125 
L 0.953125 25.703125 
L 35.65625 71.84375 
L 44.84375 71.84375 
L 44.84375 26.203125 
z
" id="Lato-Medium-52"></path>
      </defs>
      <g transform="translate(214.405918 253.875312)scale(0.1 -0.1)">
       <use xlink:href="#Lato-Medium-52"></use>
       <use x="58" xlink:href="#Lato-Medium-48"></use>
       <use x="116" xlink:href="#Lato-Medium-48"></use>
       <use x="174" xlink:href="#Lato-Medium-48"></use>
       <use x="232" xlink:href="#Lato-Medium-48"></use>
      </g>
     </g>
    </g>
    <g id="xtick_6">
     <g id="line2d_6">
      <g>
       <use style="stroke:#000000;stroke-width:0.8;" x="272.016915" xlink:href="#m8977072e61" y="239.495625"></use>
      </g>
     </g>
     <g id="text_6">
      <!-- 50000 -->
      <defs>
       <path d="M 18.65625 45 
Q 24.15625 46.15625 28.59375 46.15625 
Q 34.203125 46.15625 38.5 44.46875 
Q 42.796875 42.796875 45.71875 39.875 
Q 48.65625 36.953125 50.125 32.96875 
Q 51.59375 29 51.59375 24.34375 
Q 51.59375 18.65625 49.59375 14 
Q 47.59375 9.34375 44.09375 6.046875 
Q 40.59375 2.75 35.8125 0.96875 
Q 31.046875 -0.796875 25.546875 -0.796875 
Q 22.296875 -0.796875 19.375 -0.140625 
Q 16.453125 0.5 13.890625 1.578125 
Q 11.34375 2.65625 9.171875 4.046875 
Q 7 5.453125 5.296875 7 
L 8.296875 11.203125 
Q 9.25 12.59375 10.84375 12.59375 
Q 11.90625 12.59375 13.171875 11.8125 
Q 14.453125 11.046875 16.203125 10.09375 
Q 17.953125 9.15625 20.34375 8.375 
Q 22.75 7.59375 26.046875 7.59375 
Q 29.703125 7.59375 32.625 8.765625 
Q 35.546875 9.953125 37.5625 12.09375 
Q 39.59375 14.25 40.671875 17.25 
Q 41.75 20.25 41.75 23.90625 
Q 41.75 27.15625 40.796875 29.75 
Q 39.84375 32.34375 37.9375 34.1875 
Q 36.046875 36.046875 33.1875 37.015625 
Q 30.34375 38 26.546875 38 
Q 21.25 38 15.25 36.09375 
L 9.09375 37.90625 
L 14.953125 71.796875 
L 49.34375 71.796875 
L 49.34375 67.546875 
Q 49.34375 65.453125 48.015625 64.125 
Q 46.703125 62.796875 43.59375 62.796875 
L 21.75 62.796875 
z
" id="Lato-Medium-53"></path>
      </defs>
      <g transform="translate(257.516915 253.875312)scale(0.1 -0.1)">
       <use xlink:href="#Lato-Medium-53"></use>
       <use x="58" xlink:href="#Lato-Medium-48"></use>
       <use x="116" xlink:href="#Lato-Medium-48"></use>
       <use x="174" xlink:href="#Lato-Medium-48"></use>
       <use x="232" xlink:href="#Lato-Medium-48"></use>
      </g>
     </g>
    </g>
    <g id="xtick_7">
     <g id="line2d_7">
      <g>
       <use style="stroke:#000000;stroke-width:0.8;" x="315.127912" xlink:href="#m8977072e61" y="239.495625"></use>
      </g>
     </g>
     <g id="text_7">
      <!-- 60000 -->
      <defs>
       <path d="M 28.90625 7.34375 
Q 32.34375 7.34375 35.140625 8.46875 
Q 37.953125 9.59375 39.953125 11.546875 
Q 41.953125 13.5 43.046875 16.203125 
Q 44.15625 18.90625 44.15625 22.046875 
Q 44.15625 25.5 43.078125 28.21875 
Q 42 30.953125 40.078125 32.84375 
Q 38.15625 34.75 35.453125 35.75 
Q 32.75 36.75 29.453125 36.75 
Q 26 36.75 23.25 35.578125 
Q 20.5 34.40625 18.546875 32.421875 
Q 16.59375 30.453125 15.546875 27.796875 
Q 14.5 25.15625 14.5 22.25 
Q 14.5 18.953125 15.453125 16.203125 
Q 16.40625 13.453125 18.25 11.5 
Q 20.09375 9.546875 22.765625 8.4375 
Q 25.453125 7.34375 28.90625 7.34375 
z
M 24.296875 45.09375 
Q 23.453125 44 22.625 42.96875 
Q 21.796875 41.953125 21.046875 40.953125 
Q 23.453125 42.5 26.375 43.34375 
Q 29.296875 44.203125 32.703125 44.203125 
Q 36.953125 44.203125 40.796875 42.796875 
Q 44.65625 41.40625 47.578125 38.703125 
Q 50.5 36 52.203125 32 
Q 53.90625 28 53.90625 22.796875 
Q 53.90625 17.84375 52.09375 13.515625 
Q 50.296875 9.203125 47.015625 6.015625 
Q 43.75 2.84375 39.203125 1.015625 
Q 34.65625 -0.796875 29.09375 -0.796875 
Q 23.59375 -0.796875 19.171875 0.953125 
Q 14.75 2.703125 11.625 5.921875 
Q 8.5 9.15625 6.796875 13.71875 
Q 5.09375 18.296875 5.09375 23.90625 
Q 5.09375 28.703125 7.171875 34.015625 
Q 9.25 39.34375 13.75 45.40625 
L 31.703125 69.453125 
Q 32.453125 70.453125 33.796875 71.125 
Q 35.15625 71.796875 36.90625 71.796875 
L 45.59375 71.796875 
z
" id="Lato-Medium-54"></path>
      </defs>
      <g transform="translate(300.627912 253.875312)scale(0.1 -0.1)">
       <use xlink:href="#Lato-Medium-54"></use>
       <use x="58" xlink:href="#Lato-Medium-48"></use>
       <use x="116" xlink:href="#Lato-Medium-48"></use>
       <use x="174" xlink:href="#Lato-Medium-48"></use>
       <use x="232" xlink:href="#Lato-Medium-48"></use>
      </g>
     </g>
    </g>
    <g id="xtick_8">
     <g id="line2d_8">
      <g>
       <use style="stroke:#000000;stroke-width:0.8;" x="358.238908" xlink:href="#m8977072e61" y="239.495625"></use>
      </g>
     </g>
     <g id="text_8">
      <!-- 70000 -->
      <defs>
       <path d="M 54.203125 71.796875 
L 54.203125 67.453125 
Q 54.203125 65.546875 53.765625 64.375 
Q 53.34375 63.203125 52.953125 62.34375 
L 23.84375 3.453125 
Q 23.15625 2 21.90625 1 
Q 20.65625 0 18.546875 0 
L 11.546875 0 
L 41.09375 58.046875 
Q 41.84375 59.453125 42.59375 60.625 
Q 43.34375 61.796875 44.25 62.796875 
L 7.546875 62.796875 
Q 6.59375 62.796875 5.890625 63.5 
Q 5.203125 64.203125 5.203125 65.15625 
L 5.203125 71.796875 
z
" id="Lato-Medium-55"></path>
      </defs>
      <g transform="translate(343.738908 253.875312)scale(0.1 -0.1)">
       <use xlink:href="#Lato-Medium-55"></use>
       <use x="58" xlink:href="#Lato-Medium-48"></use>
       <use x="116" xlink:href="#Lato-Medium-48"></use>
       <use x="174" xlink:href="#Lato-Medium-48"></use>
       <use x="232" xlink:href="#Lato-Medium-48"></use>
      </g>
     </g>
    </g>
    <g id="text_9">
     <!-- number of branches -->
     <defs>
      <path d="M 16 43.75 
Q 17.65625 45.5 19.453125 46.953125 
Q 21.25 48.40625 23.265625 49.421875 
Q 25.296875 50.453125 27.625 51.015625 
Q 29.953125 51.59375 32.59375 51.59375 
Q 36.796875 51.59375 39.96875 50.1875 
Q 43.15625 48.796875 45.296875 46.265625 
Q 47.453125 43.75 48.546875 40.203125 
Q 49.65625 36.65625 49.65625 32.34375 
L 49.65625 0 
L 39.84375 0 
L 39.84375 32.34375 
Q 39.84375 37.796875 37.34375 40.8125 
Q 34.84375 43.84375 29.703125 43.84375 
Q 25.953125 43.84375 22.671875 42.0625 
Q 19.40625 40.296875 16.59375 37.25 
L 16.59375 0 
L 6.84375 0 
L 6.84375 50.796875 
L 12.703125 50.796875 
Q 14.75 50.796875 15.25 48.84375 
z
" id="Lato-Medium-110"></path>
      <path d="M 49.09375 50.796875 
L 49.09375 0 
L 43.25 0 
Q 41.25 0 40.65625 1.953125 
L 39.953125 7.046875 
Q 38.296875 5.296875 36.5 3.84375 
Q 34.703125 2.40625 32.640625 1.375 
Q 30.59375 0.34375 28.296875 -0.21875 
Q 26 -0.796875 23.34375 -0.796875 
Q 19.15625 -0.796875 15.96875 0.59375 
Q 12.796875 2 10.640625 4.515625 
Q 8.5 7.046875 7.390625 10.59375 
Q 6.296875 14.15625 6.296875 18.453125 
L 6.296875 50.796875 
L 16.09375 50.796875 
L 16.09375 18.453125 
Q 16.09375 13 18.59375 9.96875 
Q 21.09375 6.953125 26.25 6.953125 
Q 30 6.953125 33.25 8.71875 
Q 36.5 10.5 39.34375 13.59375 
L 39.34375 50.796875 
z
" id="Lato-Medium-117"></path>
      <path d="M 6.84375 0 
L 6.84375 50.796875 
L 12.703125 50.796875 
Q 14.75 50.796875 15.25 48.84375 
L 15.953125 44 
Q 18.75 47.34375 22.171875 49.46875 
Q 25.59375 51.59375 30.203125 51.59375 
Q 35.25 51.59375 38.390625 48.8125 
Q 41.546875 46.046875 43 41.296875 
Q 44.09375 44 45.84375 45.953125 
Q 47.59375 47.90625 49.75 49.15625 
Q 51.90625 50.40625 54.328125 51 
Q 56.75 51.59375 59.25 51.59375 
Q 63.296875 51.59375 66.46875 50.3125 
Q 69.65625 49.046875 71.84375 46.59375 
Q 74.046875 44.15625 75.1875 40.546875 
Q 76.34375 36.953125 76.34375 32.34375 
L 76.34375 0 
L 66.546875 0 
L 66.546875 32.34375 
Q 66.546875 38.046875 64.0625 40.9375 
Q 61.59375 43.84375 56.84375 43.84375 
Q 54.75 43.84375 52.84375 43.125 
Q 50.953125 42.40625 49.515625 40.953125 
Q 48.09375 39.5 47.265625 37.34375 
Q 46.453125 35.203125 46.453125 32.34375 
L 46.453125 0 
L 36.65625 0 
L 36.65625 32.34375 
Q 36.65625 38.25 34.296875 41.046875 
Q 31.953125 43.84375 27.40625 43.84375 
Q 24.25 43.84375 21.546875 42.1875 
Q 18.84375 40.546875 16.59375 37.703125 
L 16.59375 0 
z
" id="Lato-Medium-109"></path>
      <path d="M 16.59375 12.5 
Q 19 9.34375 21.796875 8.09375 
Q 24.59375 6.84375 27.90625 6.84375 
Q 34.703125 6.84375 38.375 11.6875 
Q 42.046875 16.546875 42.046875 26.34375 
Q 42.046875 35.40625 38.796875 39.625 
Q 35.546875 43.84375 29.59375 43.84375 
Q 25.40625 43.84375 22.328125 41.9375 
Q 19.25 40.046875 16.59375 36.546875 
z
M 16.59375 43.796875 
Q 19.75 47.296875 23.75 49.4375 
Q 27.75 51.59375 32.84375 51.59375 
Q 37.296875 51.59375 40.875 49.875 
Q 44.453125 48.15625 46.953125 44.921875 
Q 49.453125 41.703125 50.796875 37.09375 
Q 52.15625 32.5 52.15625 26.703125 
Q 52.15625 20.546875 50.625 15.5 
Q 49.09375 10.453125 46.265625 6.84375 
Q 43.453125 3.25 39.390625 1.265625 
Q 35.34375 -0.703125 30.296875 -0.703125 
Q 27.84375 -0.703125 25.796875 -0.21875 
Q 23.75 0.25 22.015625 1.140625 
Q 20.296875 2.046875 18.84375 3.34375 
Q 17.40625 4.65625 16.09375 6.296875 
L 15.65625 2.046875 
Q 15.25 0 13.15625 0 
L 6.84375 0 
L 6.84375 73.796875 
L 16.59375 73.796875 
z
" id="Lato-Medium-98"></path>
      <path d="M 40.5 31.046875 
Q 40.5 33.953125 39.671875 36.390625 
Q 38.84375 38.84375 37.25 40.640625 
Q 35.65625 42.453125 33.34375 43.453125 
Q 31.046875 44.453125 28.046875 44.453125 
Q 21.90625 44.453125 18.375 40.890625 
Q 14.84375 37.34375 13.90625 31.046875 
z
M 48.546875 7.25 
Q 46.75 5.15625 44.390625 3.625 
Q 42.046875 2.09375 39.390625 1.140625 
Q 36.75 0.203125 33.921875 -0.25 
Q 31.09375 -0.703125 28.34375 -0.703125 
Q 23.09375 -0.703125 18.625 1.0625 
Q 14.15625 2.84375 10.875 6.265625 
Q 7.59375 9.703125 5.765625 14.765625 
Q 3.953125 19.84375 3.953125 26.453125 
Q 3.953125 31.75 5.59375 36.328125 
Q 7.25 40.90625 10.328125 44.296875 
Q 13.40625 47.703125 17.84375 49.640625 
Q 22.296875 51.59375 27.84375 51.59375 
Q 32.5 51.59375 36.421875 50.0625 
Q 40.34375 48.546875 43.1875 45.640625 
Q 46.046875 42.75 47.671875 38.5 
Q 49.296875 34.25 49.296875 28.796875 
Q 49.296875 26.546875 48.796875 25.765625 
Q 48.296875 25 46.953125 25 
L 13.65625 25 
Q 13.796875 20.453125 14.9375 17.078125 
Q 16.09375 13.703125 18.125 11.453125 
Q 20.15625 9.203125 22.953125 8.09375 
Q 25.75 7 29.203125 7 
Q 32.453125 7 34.828125 7.75 
Q 37.203125 8.5 38.921875 9.375 
Q 40.65625 10.25 41.828125 11 
Q 43 11.75 43.90625 11.75 
Q 45.09375 11.75 45.75 10.84375 
z
" id="Lato-Medium-101"></path>
      <path d="M 16.046875 41.046875 
Q 18.5 46.046875 21.953125 48.890625 
Q 25.40625 51.75 30.25 51.75 
Q 31.90625 51.75 33.375 51.375 
Q 34.84375 51 35.953125 50.25 
L 35.296875 42.90625 
Q 34.953125 41.546875 33.65625 41.546875 
Q 32.953125 41.546875 31.546875 41.8125 
Q 30.15625 42.09375 28.546875 42.09375 
Q 26.203125 42.09375 24.390625 41.421875 
Q 22.59375 40.75 21.171875 39.421875 
Q 19.75 38.09375 18.640625 36.171875 
Q 17.546875 34.25 16.59375 31.796875 
L 16.59375 0 
L 6.84375 0 
L 6.84375 50.796875 
L 12.453125 50.796875 
Q 14.046875 50.796875 14.625 50.21875 
Q 15.203125 49.65625 15.453125 48.203125 
z
" id="Lato-Medium-114"></path>
      <path id="Lato-Medium-32"></path>
      <path d="M 28.5 51.59375 
Q 34.09375 51.59375 38.625 49.765625 
Q 43.15625 47.953125 46.328125 44.515625 
Q 49.5 41.09375 51.203125 36.265625 
Q 52.90625 31.453125 52.90625 25.453125 
Q 52.90625 19.453125 51.203125 14.59375 
Q 49.5 9.75 46.328125 6.34375 
Q 43.15625 2.953125 38.625 1.125 
Q 34.09375 -0.703125 28.5 -0.703125 
Q 22.84375 -0.703125 18.3125 1.125 
Q 13.796875 2.953125 10.59375 6.34375 
Q 7.40625 9.75 5.671875 14.59375 
Q 3.953125 19.453125 3.953125 25.453125 
Q 3.953125 31.453125 5.671875 36.265625 
Q 7.40625 41.09375 10.59375 44.515625 
Q 13.796875 47.953125 18.3125 49.765625 
Q 22.84375 51.59375 28.5 51.59375 
z
M 28.5 6.90625 
Q 35.703125 6.90625 39.25 11.75 
Q 42.796875 16.59375 42.796875 25.40625 
Q 42.796875 34.203125 39.25 39.078125 
Q 35.703125 43.953125 28.5 43.953125 
Q 21.203125 43.953125 17.625 39.078125 
Q 14.046875 34.203125 14.046875 25.40625 
Q 14.046875 16.59375 17.625 11.75 
Q 21.203125 6.90625 28.5 6.90625 
z
" id="Lato-Medium-111"></path>
      <path d="M 10.203125 0 
L 10.203125 42.796875 
L 4.90625 43.453125 
Q 3.75 43.703125 3.015625 44.265625 
Q 2.296875 44.84375 2.296875 45.953125 
L 2.296875 50 
L 10.203125 50 
L 10.203125 54.59375 
Q 10.203125 58.953125 11.453125 62.34375 
Q 12.703125 65.75 15.015625 68.125 
Q 17.34375 70.5 20.625 71.71875 
Q 23.90625 72.953125 28 72.953125 
Q 31.453125 72.953125 34.34375 71.953125 
L 34.15625 67.046875 
Q 34.09375 66.40625 33.75 66.078125 
Q 33.40625 65.75 32.828125 65.59375 
Q 32.25 65.453125 31.421875 65.421875 
Q 30.59375 65.40625 29.65625 65.40625 
Q 27.40625 65.40625 25.546875 64.84375 
Q 23.703125 64.296875 22.390625 63 
Q 21.09375 61.703125 20.390625 59.578125 
Q 19.703125 57.453125 19.703125 54.296875 
L 19.703125 50 
L 33.953125 50 
L 33.953125 42.90625 
L 20 42.90625 
L 20 0 
z
" id="Lato-Medium-102"></path>
      <path d="M 34.15625 22.546875 
Q 28.203125 22.34375 24.046875 21.625 
Q 19.90625 20.90625 17.296875 19.703125 
Q 14.703125 18.5 13.546875 16.875 
Q 12.40625 15.25 12.40625 13.25 
Q 12.40625 11.34375 13.03125 9.96875 
Q 13.65625 8.59375 14.71875 7.71875 
Q 15.796875 6.84375 17.25 6.4375 
Q 18.703125 6.046875 20.40625 6.046875 
Q 22.65625 6.046875 24.53125 6.5 
Q 26.40625 6.953125 28.046875 7.765625 
Q 29.703125 8.59375 31.203125 9.796875 
Q 32.703125 11 34.15625 12.546875 
z
M 5.546875 43.703125 
Q 9.796875 47.75 14.765625 49.75 
Q 19.75 51.75 25.703125 51.75 
Q 30.046875 51.75 33.390625 50.328125 
Q 36.75 48.90625 39.046875 46.34375 
Q 41.34375 43.796875 42.515625 40.25 
Q 43.703125 36.703125 43.703125 32.40625 
L 43.703125 0 
L 39.34375 0 
Q 37.90625 0 37.15625 0.46875 
Q 36.40625 0.953125 35.953125 2.25 
L 34.90625 6.703125 
Q 32.953125 4.90625 31.046875 3.53125 
Q 29.15625 2.15625 27.078125 1.171875 
Q 25 0.203125 22.640625 -0.296875 
Q 20.296875 -0.796875 17.453125 -0.796875 
Q 14.453125 -0.796875 11.828125 0.015625 
Q 9.203125 0.84375 7.25 2.546875 
Q 5.296875 4.25 4.171875 6.796875 
Q 3.046875 9.34375 3.046875 12.75 
Q 3.046875 15.75 4.671875 18.515625 
Q 6.296875 21.296875 9.96875 23.5 
Q 13.65625 25.703125 19.578125 27.09375 
Q 25.5 28.5 34.15625 28.703125 
L 34.15625 32.40625 
Q 34.15625 38.15625 31.703125 41 
Q 29.25 43.84375 24.5 43.84375 
Q 21.296875 43.84375 19.125 43.046875 
Q 16.953125 42.25 15.375 41.265625 
Q 13.796875 40.296875 12.625 39.5 
Q 11.453125 38.703125 10.203125 38.703125 
Q 9.203125 38.703125 8.46875 39.25 
Q 7.75 39.796875 7.296875 40.546875 
z
" id="Lato-Medium-97"></path>
      <path d="M 42.453125 41.296875 
Q 42 40.75 41.578125 40.421875 
Q 41.15625 40.09375 40.34375 40.09375 
Q 39.546875 40.09375 38.671875 40.71875 
Q 37.796875 41.34375 36.46875 42.0625 
Q 35.15625 42.796875 33.28125 43.421875 
Q 31.40625 44.046875 28.65625 44.046875 
Q 25.046875 44.046875 22.296875 42.75 
Q 19.546875 41.453125 17.71875 39.046875 
Q 15.90625 36.65625 14.953125 33.203125 
Q 14 29.75 14 25.453125 
Q 14 21 15 17.515625 
Q 16 14.046875 17.84375 11.671875 
Q 19.703125 9.296875 22.34375 8.0625 
Q 25 6.84375 28.25 6.84375 
Q 31.40625 6.84375 33.453125 7.625 
Q 35.5 8.40625 36.84375 9.296875 
Q 38.203125 10.203125 39.09375 10.96875 
Q 40 11.75 40.953125 11.75 
Q 42.15625 11.75 42.796875 10.84375 
L 45.59375 7.25 
Q 43.84375 5.09375 41.671875 3.59375 
Q 39.5 2.09375 37.046875 1.140625 
Q 34.59375 0.203125 31.921875 -0.25 
Q 29.25 -0.703125 26.5 -0.703125 
Q 21.75 -0.703125 17.625 1.046875 
Q 13.5 2.796875 10.46875 6.140625 
Q 7.453125 9.5 5.703125 14.375 
Q 3.953125 19.25 3.953125 25.453125 
Q 3.953125 31.09375 5.515625 35.890625 
Q 7.09375 40.703125 10.171875 44.171875 
Q 13.25 47.65625 17.75 49.625 
Q 22.25 51.59375 28.046875 51.59375 
Q 33.5 51.59375 37.640625 49.84375 
Q 41.796875 48.09375 45.046875 44.90625 
z
" id="Lato-Medium-99"></path>
      <path d="M 16.59375 44.34375 
Q 19.796875 47.59375 23.671875 49.59375 
Q 27.546875 51.59375 32.59375 51.59375 
Q 36.796875 51.59375 39.96875 50.1875 
Q 43.15625 48.796875 45.296875 46.265625 
Q 47.453125 43.75 48.546875 40.203125 
Q 49.65625 36.65625 49.65625 32.34375 
L 49.65625 0 
L 39.84375 0 
L 39.84375 32.34375 
Q 39.84375 37.796875 37.34375 40.8125 
Q 34.84375 43.84375 29.703125 43.84375 
Q 25.953125 43.84375 22.671875 42.0625 
Q 19.40625 40.296875 16.59375 37.25 
L 16.59375 0 
L 6.84375 0 
L 6.84375 73.796875 
L 16.59375 73.796875 
z
" id="Lato-Medium-104"></path>
      <path d="M 36.796875 42.046875 
Q 36.40625 41.40625 35.953125 41.125 
Q 35.5 40.84375 34.796875 40.84375 
Q 34 40.84375 33.015625 41.390625 
Q 32.046875 41.953125 30.671875 42.59375 
Q 29.296875 43.25 27.4375 43.796875 
Q 25.59375 44.34375 23.046875 44.34375 
Q 20.953125 44.34375 19.21875 43.8125 
Q 17.5 43.296875 16.296875 42.375 
Q 15.09375 41.453125 14.4375 40.171875 
Q 13.796875 38.90625 13.796875 37.453125 
Q 13.796875 35.546875 14.921875 34.296875 
Q 16.046875 33.046875 17.875 32.140625 
Q 19.703125 31.25 22.015625 30.515625 
Q 24.34375 29.796875 26.765625 29 
Q 29.203125 28.203125 31.515625 27.171875 
Q 33.84375 26.15625 35.671875 24.625 
Q 37.5 23.09375 38.625 20.9375 
Q 39.75 18.796875 39.75 15.703125 
Q 39.75 12.15625 38.46875 9.125 
Q 37.203125 6.09375 34.71875 3.890625 
Q 32.25 1.703125 28.59375 0.453125 
Q 24.953125 -0.796875 20.25 -0.796875 
Q 15 -0.796875 10.546875 0.953125 
Q 6.09375 2.703125 3.09375 5.40625 
L 5.40625 9.15625 
Q 5.796875 9.84375 6.390625 10.21875 
Q 7 10.59375 8 10.59375 
Q 8.953125 10.59375 9.953125 9.890625 
Q 10.953125 9.203125 12.34375 8.375 
Q 13.75 7.546875 15.75 6.875 
Q 17.75 6.203125 20.75 6.203125 
Q 23.25 6.203125 25.09375 6.828125 
Q 26.953125 7.453125 28.171875 8.515625 
Q 29.40625 9.59375 30 11 
Q 30.59375 12.40625 30.59375 13.953125 
Q 30.59375 15.953125 29.46875 17.265625 
Q 28.34375 18.59375 26.515625 19.546875 
Q 24.703125 20.5 22.34375 21.203125 
Q 20 21.90625 17.546875 22.703125 
Q 15.09375 23.5 12.75 24.546875 
Q 10.40625 25.59375 8.578125 27.1875 
Q 6.75 28.796875 5.625 31.09375 
Q 4.5 33.40625 4.5 36.703125 
Q 4.5 39.65625 5.71875 42.34375 
Q 6.953125 45.046875 9.265625 47.09375 
Q 11.59375 49.15625 15.015625 50.375 
Q 18.453125 51.59375 22.84375 51.59375 
Q 27.90625 51.59375 31.96875 50 
Q 36.046875 48.40625 38.953125 45.59375 
z
" id="Lato-Medium-115"></path>
     </defs>
     <g style="fill:#808080;" transform="translate(164.546094 266.959687)scale(0.1 -0.1)">
      <use xlink:href="#Lato-Medium-110"></use>
      <use x="55.950012" xlink:href="#Lato-Medium-117"></use>
      <use x="111.850021" xlink:href="#Lato-Medium-109"></use>
      <use x="194.500031" xlink:href="#Lato-Medium-98"></use>
      <use x="250.700043" xlink:href="#Lato-Medium-101"></use>
      <use x="303.650055" xlink:href="#Lato-Medium-114"></use>
      <use x="340.300064" xlink:href="#Lato-Medium-32"></use>
      <use x="365.550064" xlink:href="#Lato-Medium-111"></use>
      <use x="422.450073" xlink:href="#Lato-Medium-102"></use>
      <use x="457.700073" xlink:href="#Lato-Medium-32"></use>
      <use x="482.950073" xlink:href="#Lato-Medium-98"></use>
      <use x="539.150085" xlink:href="#Lato-Medium-114"></use>
      <use x="575.800095" xlink:href="#Lato-Medium-97"></use>
      <use x="625.750107" xlink:href="#Lato-Medium-110"></use>
      <use x="681.700119" xlink:href="#Lato-Medium-99"></use>
      <use x="729.550125" xlink:href="#Lato-Medium-104"></use>
      <use x="785.500137" xlink:href="#Lato-Medium-101"></use>
      <use x="838.45015" xlink:href="#Lato-Medium-115"></use>
     </g>
    </g>
   </g>
   <g id="matplotlib.axis_2">
    <g id="ytick_1">
     <g id="line2d_9">
      <defs>
       <path d="M 0 0 
L -3.5 0 
" id="m8bf454b422" style="stroke:#000000;stroke-width:0.8;"></path>
      </defs>
      <g>
       <use style="stroke:#000000;stroke-width:0.8;" x="41.24375" xlink:href="#m8bf454b422" y="229.611989"></use>
      </g>
     </g>
     <g id="text_10">
      <!-- 0.0 -->
      <defs>
       <path d="M 5.25 5.84375 
Q 5.25 7.203125 5.75 8.390625 
Q 6.25 9.59375 7.125 10.5 
Q 8 11.40625 9.203125 11.921875 
Q 10.40625 12.453125 11.796875 12.453125 
Q 13.15625 12.453125 14.34375 11.921875 
Q 15.546875 11.40625 16.4375 10.5 
Q 17.34375 9.59375 17.875 8.390625 
Q 18.40625 7.203125 18.40625 5.84375 
Q 18.40625 4.453125 17.875 3.25 
Q 17.34375 2.046875 16.4375 1.140625 
Q 15.546875 0.25 14.34375 -0.25 
Q 13.15625 -0.75 11.796875 -0.75 
Q 10.40625 -0.75 9.203125 -0.25 
Q 8 0.25 7.125 1.140625 
Q 6.25 2.046875 5.75 3.25 
Q 5.25 4.453125 5.25 5.84375 
z
" id="Lato-Medium-46"></path>
      </defs>
      <g transform="translate(20.284375 233.301832)scale(0.1 -0.1)">
       <use xlink:href="#Lato-Medium-48"></use>
       <use x="58" xlink:href="#Lato-Medium-46"></use>
       <use x="81.600006" xlink:href="#Lato-Medium-48"></use>
      </g>
     </g>
    </g>
    <g id="ytick_2">
     <g id="line2d_10">
      <g>
       <use style="stroke:#000000;stroke-width:0.8;" x="41.24375" xlink:href="#m8bf454b422" y="203.255625"></use>
      </g>
     </g>
     <g id="text_11">
      <!-- 0.1 -->
      <g transform="translate(20.284375 206.945469)scale(0.1 -0.1)">
       <use xlink:href="#Lato-Medium-48"></use>
       <use x="58" xlink:href="#Lato-Medium-46"></use>
       <use x="81.600006" xlink:href="#Lato-Medium-49"></use>
      </g>
     </g>
    </g>
    <g id="ytick_3">
     <g id="line2d_11">
      <g>
       <use style="stroke:#000000;stroke-width:0.8;" x="41.24375" xlink:href="#m8bf454b422" y="176.899261"></use>
      </g>
     </g>
     <g id="text_12">
      <!-- 0.2 -->
      <g transform="translate(20.284375 180.589105)scale(0.1 -0.1)">
       <use xlink:href="#Lato-Medium-48"></use>
       <use x="58" xlink:href="#Lato-Medium-46"></use>
       <use x="81.600006" xlink:href="#Lato-Medium-50"></use>
      </g>
     </g>
    </g>
    <g id="ytick_4">
     <g id="line2d_12">
      <g>
       <use style="stroke:#000000;stroke-width:0.8;" x="41.24375" xlink:href="#m8bf454b422" y="150.542898"></use>
      </g>
     </g>
     <g id="text_13">
      <!-- 0.3 -->
      <g transform="translate(20.284375 154.232741)scale(0.1 -0.1)">
       <use xlink:href="#Lato-Medium-48"></use>
       <use x="58" xlink:href="#Lato-Medium-46"></use>
       <use x="81.600006" xlink:href="#Lato-Medium-51"></use>
      </g>
     </g>
    </g>
    <g id="ytick_5">
     <g id="line2d_13">
      <g>
       <use style="stroke:#000000;stroke-width:0.8;" x="41.24375" xlink:href="#m8bf454b422" y="124.186534"></use>
      </g>
     </g>
     <g id="text_14">
      <!-- 0.4 -->
      <g transform="translate(20.284375 127.876378)scale(0.1 -0.1)">
       <use xlink:href="#Lato-Medium-48"></use>
       <use x="58" xlink:href="#Lato-Medium-46"></use>
       <use x="81.600006" xlink:href="#Lato-Medium-52"></use>
      </g>
     </g>
    </g>
    <g id="ytick_6">
     <g id="line2d_14">
      <g>
       <use style="stroke:#000000;stroke-width:0.8;" x="41.24375" xlink:href="#m8bf454b422" y="97.83017"></use>
      </g>
     </g>
     <g id="text_15">
      <!-- 0.5 -->
      <g transform="translate(20.284375 101.520014)scale(0.1 -0.1)">
       <use xlink:href="#Lato-Medium-48"></use>
       <use x="58" xlink:href="#Lato-Medium-46"></use>
       <use x="81.600006" xlink:href="#Lato-Medium-53"></use>
      </g>
     </g>
    </g>
    <g id="ytick_7">
     <g id="line2d_15">
      <g>
       <use style="stroke:#000000;stroke-width:0.8;" x="41.24375" xlink:href="#m8bf454b422" y="71.473807"></use>
      </g>
     </g>
     <g id="text_16">
      <!-- 0.6 -->
      <g transform="translate(20.284375 75.163651)scale(0.1 -0.1)">
       <use xlink:href="#Lato-Medium-48"></use>
       <use x="58" xlink:href="#Lato-Medium-46"></use>
       <use x="81.600006" xlink:href="#Lato-Medium-54"></use>
      </g>
     </g>
    </g>
    <g id="ytick_8">
     <g id="line2d_16">
      <g>
       <use style="stroke:#000000;stroke-width:0.8;" x="41.24375" xlink:href="#m8bf454b422" y="45.117443"></use>
      </g>
     </g>
     <g id="text_17">
      <!-- 0.7 -->
      <g transform="translate(20.284375 48.807287)scale(0.1 -0.1)">
       <use xlink:href="#Lato-Medium-48"></use>
       <use x="58" xlink:href="#Lato-Medium-46"></use>
       <use x="81.600006" xlink:href="#Lato-Medium-55"></use>
      </g>
     </g>
    </g>
    <g id="text_18">
     <!-- miss rate -->
     <defs>
      <path d="M 17.046875 50.796875 
L 17.046875 0 
L 7.296875 0 
L 7.296875 50.796875 
z
M 18.90625 66.5 
Q 18.90625 65.15625 18.34375 63.921875 
Q 17.796875 62.703125 16.875 61.765625 
Q 15.953125 60.84375 14.703125 60.3125 
Q 13.453125 59.796875 12.09375 59.796875 
Q 10.75 59.796875 9.546875 60.3125 
Q 8.34375 60.84375 7.421875 61.765625 
Q 6.5 62.703125 5.96875 63.921875 
Q 5.453125 65.15625 5.453125 66.5 
Q 5.453125 67.90625 5.96875 69.125 
Q 6.5 70.34375 7.421875 71.265625 
Q 8.34375 72.203125 9.546875 72.71875 
Q 10.75 73.25 12.09375 73.25 
Q 13.453125 73.25 14.703125 72.71875 
Q 15.953125 72.203125 16.875 71.265625 
Q 17.796875 70.34375 18.34375 69.125 
Q 18.90625 67.90625 18.90625 66.5 
z
" id="Lato-Medium-105"></path>
      <path d="M 22.75 -0.796875 
Q 16.59375 -0.796875 13.265625 2.640625 
Q 9.953125 6.09375 9.953125 12.5 
L 9.953125 42.90625 
L 4.046875 42.90625 
Q 3.203125 42.90625 2.625 43.421875 
Q 2.046875 43.953125 2.046875 45 
L 2.046875 48.953125 
L 10.296875 50.09375 
L 12.5 65.25 
Q 12.703125 66.09375 13.265625 66.5625 
Q 13.84375 67.046875 14.75 67.046875 
L 19.703125 67.046875 
L 19.703125 50 
L 34.09375 50 
L 34.09375 42.90625 
L 19.703125 42.90625 
L 19.703125 13.15625 
Q 19.703125 10.15625 21.171875 8.671875 
Q 22.65625 7.203125 24.953125 7.203125 
Q 26.296875 7.203125 27.265625 7.546875 
Q 28.25 7.90625 28.953125 8.328125 
Q 29.65625 8.75 30.15625 9.09375 
Q 30.65625 9.453125 31.046875 9.453125 
Q 31.546875 9.453125 31.8125 9.21875 
Q 32.09375 9 32.40625 8.5 
L 35.296875 3.796875 
Q 32.90625 1.59375 29.59375 0.390625 
Q 26.296875 -0.796875 22.75 -0.796875 
z
" id="Lato-Medium-116"></path>
     </defs>
     <g style="fill:#808080;" transform="translate(14.579688 150.521719)rotate(-90)scale(0.1 -0.1)">
      <use xlink:href="#Lato-Medium-109"></use>
      <use x="82.650009" xlink:href="#Lato-Medium-105"></use>
      <use x="107.000015" xlink:href="#Lato-Medium-115"></use>
      <use x="150.450012" xlink:href="#Lato-Medium-115"></use>
      <use x="193.900009" xlink:href="#Lato-Medium-32"></use>
      <use x="219.150009" xlink:href="#Lato-Medium-114"></use>
      <use x="255.800018" xlink:href="#Lato-Medium-97"></use>
      <use x="305.750031" xlink:href="#Lato-Medium-116"></use>
      <use x="341.950027" xlink:href="#Lato-Medium-101"></use>
     </g>
    </g>
   </g>
   <g id="line2d_17">
    <path clip-path="url(#p12986f3d44)" d="M 56.461932 229.611989 
L 56.474865 31.939261 
L 56.57402 92.954243 
L 56.638687 116.648614 
L 56.703353 114.012978 
L 56.733531 118.41449 
L 56.772331 106.844047 
L 56.819753 116.648614 
L 56.914597 102.811523 
L 56.949086 107.081254 
L 57.069797 114.540105 
L 56.96633 104.524687 
L 57.08273 113.275 
L 57.19913 105.499872 
L 57.216374 106.81769 
L 57.250863 106.422345 
L 57.319841 111.008352 
L 56.893042 106.975829 
L 57.324152 110.29673 
L 57.755262 112.273458 
L 58.186372 109.980454 
L 58.617482 110.718432 
L 59.048592 112.088963 
L 59.479702 112.668803 
L 59.910812 112.484309 
L 60.341922 110.850214 
L 60.773031 106.659552 
L 61.204141 105.605298 
L 61.635251 106.949472 
L 62.066361 106.633196 
L 62.497471 104.313836 
L 62.928581 103.022374 
L 63.359691 104.155698 
L 63.790801 104.419261 
L 64.221911 105.07817 
L 64.653021 104.972745 
L 65.515241 104.551043 
L 65.946351 102.916949 
L 66.377461 103.04873 
L 67.239681 103.99756 
L 67.670791 103.971203 
L 68.101901 102.864236 
L 68.533011 102.574316 
L 68.964121 103.233225 
L 69.395231 103.233225 
L 69.826341 103.575858 
L 70.257451 103.62857 
L 70.688561 102.732454 
L 71.119671 102.521603 
L 71.550781 102.152614 
L 71.981891 101.230141 
L 72.413001 101.203785 
L 72.844111 101.59913 
L 73.70633 101.757269 
L 74.13744 101.96812 
L 74.56855 101.757269 
L 74.99966 100.992934 
L 75.43077 101.203785 
L 76.29299 100.254956 
L 76.7241 100.782083 
L 77.58632 100.966578 
L 78.01743 101.38828 
L 78.44854 101.520061 
L 78.87965 100.887509 
L 79.31076 100.782083 
L 79.74187 101.177429 
L 80.60409 100.202243 
L 81.0352 100.43945 
L 81.46631 100.80844 
L 82.32853 100.913865 
L 82.75964 100.913865 
L 83.19075 101.256498 
L 83.62186 101.01929 
L 84.05297 100.51852 
L 84.48408 100.782083 
L 85.3463 100.044105 
L 86.20852 100.650301 
L 86.639629 100.703014 
L 87.070739 100.940221 
L 87.501849 101.045647 
L 88.364069 100.650301 
L 88.795179 100.913865 
L 89.226289 100.887509 
L 89.657399 100.413094 
L 90.088509 100.492163 
L 90.950729 100.017749 
L 91.381839 100.254956 
L 91.812949 100.2286 
L 92.244059 99.833254 
L 92.675169 99.780541 
L 93.537389 100.14953 
L 94.399609 100.360381 
L 94.830719 99.93868 
L 95.692939 100.202243 
L 96.124049 100.334025 
L 96.986269 99.93868 
L 97.417379 100.070461 
L 97.848489 99.780541 
L 101.297368 98.910781 
L 101.728478 98.963494 
L 102.590698 99.227058 
L 104.746248 99.675116 
L 105.177358 99.411552 
L 106.470688 99.596047 
L 107.332908 99.227058 
L 107.764018 99.35884 
L 108.626238 99.016207 
L 109.057348 99.042563 
L 109.488458 98.805356 
L 110.350678 98.779 
L 110.781788 99.016207 
L 111.644008 98.594505 
L 112.937337 98.910781 
L 114.661777 99.121632 
L 115.092887 98.884425 
L 115.955107 99.121632 
L 116.817327 99.306127 
L 117.248437 99.042563 
L 118.110657 99.042563 
L 118.541767 98.910781 
L 118.972877 99.042563 
L 119.403987 99.042563 
L 119.835097 98.858069 
L 123.283977 98.48908 
L 123.715087 98.594505 
L 124.146197 98.831712 
L 127.595076 98.831712 
L 128.026186 98.963494 
L 129.319516 98.910781 
L 129.750626 98.98985 
L 134.061726 98.462723 
L 134.492836 98.620861 
L 134.923946 98.568149 
L 135.355056 98.69993 
L 136.217276 98.436367 
L 137.510606 98.647218 
L 138.372825 98.541792 
L 139.235045 98.69993 
L 140.097265 98.831712 
L 140.528375 98.937138 
L 140.959485 98.779 
L 142.683925 98.752643 
L 143.977255 98.884425 
L 147.857245 98.515436 
L 148.288355 98.620861 
L 152.168344 98.172803 
L 153.030564 98.330941 
L 153.461674 98.357298 
L 154.323894 98.19916 
L 156.479444 98.541792 
L 158.203884 98.330941 
L 159.497214 98.48908 
L 162.083874 98.541792 
L 162.514984 98.462723 
L 162.946094 98.541792 
L 163.808313 98.330941 
L 164.670533 98.436367 
L 165.532753 98.304585 
L 166.826083 98.278229 
L 167.257193 98.172803 
L 168.119413 98.172803 
L 168.981633 98.12009 
L 170.274963 98.067378 
L 171.999403 98.278229 
L 173.292733 98.330941 
L 174.154953 98.19916 
L 174.586063 98.278229 
L 175.448283 98.225516 
L 175.879393 98.304585 
L 177.603832 98.19916 
L 180.621602 98.278229 
L 187.519362 98.19916 
L 187.950472 98.093734 
L 188.812692 98.093734 
L 189.243802 97.988309 
L 190.106021 98.067378 
L 192.692681 98.014665 
L 193.554901 97.961952 
L 195.279341 97.90924 
L 196.141561 97.988309 
L 197.003781 97.988309 
L 200.883771 98.093734 
L 201.745991 98.172803 
L 203.47043 98.067378 
L 204.76376 98.225516 
L 207.35042 98.278229 
L 210.36819 98.146447 
L 211.66152 98.251872 
L 212.52374 98.146447 
L 213.38596 98.12009 
L 215.110399 98.014665 
L 215.972619 97.961952 
L 218.559279 97.882883 
L 219.852609 97.935596 
L 222.439269 98.014665 
L 223.301489 98.093734 
L 225.888149 98.172803 
L 226.750369 98.146447 
L 227.612589 98.146447 
L 228.474808 98.067378 
L 230.199248 98.172803 
L 241.839217 98.067378 
L 244.425877 98.014665 
L 245.719207 97.988309 
L 247.012537 98.014665 
L 247.443647 98.12009 
L 249.599197 97.961952 
L 261.239166 98.067378 
L 263.394716 98.093734 
L 265.119156 97.988309 
L 269.861365 98.172803 
L 274.603575 98.067378 
L 275.896905 98.067378 
L 277.621345 98.12009 
L 279.345785 98.014665 
L 280.208004 98.014665 
L 281.932444 97.90924 
L 282.794664 97.935596 
L 284.519104 97.83017 
L 287.967984 97.961952 
L 290.985754 97.882883 
L 293.572413 98.093734 
L 299.607953 97.988309 
L 300.470173 97.935596 
L 301.332393 97.961952 
L 302.194613 97.935596 
L 304.781273 98.014665 
L 306.074602 98.093734 
L 311.247922 98.014665 
L 312.110142 98.014665 
L 313.834582 98.014665 
L 324.612331 97.935596 
L 325.474551 97.90924 
L 327.630101 98.014665 
L 328.923431 98.014665 
L 331.51009 97.961952 
L 333.23453 97.961952 
L 346.167829 98.067378 
L 347.030049 98.093734 
L 349.616709 98.014665 
L 350.478929 98.014665 
L 351.341149 97.988309 
L 353.496699 98.014665 
L 355.221139 98.014665 
L 356.945578 98.014665 
L 358.670018 98.014665 
L 360.825568 97.988309 
L 360.825568 97.988309 
" style="fill:none;stroke:#1f77b4;stroke-linecap:square;stroke-opacity:0.5;stroke-width:1.5;"></path>
   </g>
   <g id="line2d_18">
    <path clip-path="url(#p12986f3d44)" d="M 56.461932 229.611989 
L 56.474865 31.939261 
L 56.57402 131.988018 
L 56.595576 147.248352 
L 56.660242 128.667116 
L 56.699042 144.902636 
L 56.720598 138.867029 
L 56.824064 152.097923 
L 56.875797 139.94764 
L 56.953397 142.530563 
L 56.957708 141.001894 
L 57.00513 146.589443 
L 57.056864 144.29644 
L 57.061175 144.902636 
L 57.108597 138.840672 
L 57.12153 138.893385 
L 57.125841 137.786418 
L 57.207752 141.766229 
L 57.220685 141.766229 
L 57.289663 144.955349 
L 57.229308 141.265458 
L 57.319841 143.953807 
L 56.893042 143.505749 
L 57.324152 144.375509 
L 57.755262 154.311858 
L 58.186372 161.243581 
L 58.617482 161.217225 
L 59.048592 163.404803 
L 59.479702 163.43116 
L 59.910812 162.48233 
L 60.773031 164.037356 
L 61.204141 162.350549 
L 62.066361 162.139698 
L 62.497471 161.138156 
L 62.928581 160.769167 
L 63.359691 160.953661 
L 63.790801 160.505603 
L 64.221911 161.1118 
L 64.653021 160.980018 
L 65.084131 161.90249 
L 65.515241 161.375363 
L 66.377461 161.006374 
L 66.808571 160.663741 
L 67.670791 162.034272 
L 68.101901 162.27148 
L 68.533011 161.480789 
L 69.395231 160.769167 
L 69.826341 160.584672 
L 70.257451 161.1118 
L 70.688561 161.269938 
L 71.119671 160.874592 
L 71.550781 160.953661 
L 71.981891 161.69164 
L 72.413001 161.955203 
L 72.844111 161.507145 
L 73.275221 161.717996 
L 73.70633 161.770709 
L 74.13744 161.61257 
L 74.56855 161.797065 
L 74.99966 161.480789 
L 75.43077 161.823421 
L 75.86188 161.40172 
L 76.7241 161.823421 
L 77.58632 161.03273 
L 78.44854 161.349007 
L 79.31076 161.40172 
L 80.17298 161.059087 
L 81.0352 161.375363 
L 81.46631 161.190869 
L 81.89742 161.454432 
L 83.19075 161.823421 
L 84.05297 161.586214 
L 84.48408 161.61257 
L 84.91519 161.375363 
L 85.77741 161.717996 
L 86.20852 161.638927 
L 87.501849 162.086985 
L 87.932959 162.166054 
L 88.364069 161.849778 
L 88.795179 162.139698 
L 89.226289 162.034272 
L 89.657399 162.245123 
L 91.381839 162.535043 
L 91.812949 162.113341 
L 92.244059 162.245123 
L 93.537389 161.823421 
L 93.968499 161.69164 
L 94.399609 161.928847 
L 95.261829 161.876134 
L 95.692939 161.638927 
L 96.124049 161.717996 
L 97.417379 161.559858 
L 99.572928 162.086985 
L 100.004038 162.060629 
L 100.435148 162.218767 
L 101.297368 162.27148 
L 101.728478 162.587756 
L 102.159588 162.403261 
L 103.452918 162.403261 
L 104.315138 162.719538 
L 105.177358 162.455974 
L 105.608468 162.455974 
L 106.470688 162.666825 
L 107.332908 162.429618 
L 109.488458 162.77225 
L 110.350678 162.877676 
L 110.781788 162.904032 
L 111.212898 162.77225 
L 112.075117 162.85132 
L 112.506227 162.5614 
L 113.368447 162.455974 
L 113.799557 162.508687 
L 114.230667 162.745894 
L 115.092887 162.614112 
L 115.955107 162.640469 
L 118.541767 162.587756 
L 118.972877 162.640469 
L 119.835097 162.48233 
L 121.559537 162.508687 
L 122.421757 162.455974 
L 122.852867 162.535043 
L 123.715087 162.48233 
L 124.146197 162.614112 
L 125.008416 162.5614 
L 125.439526 162.693181 
L 126.301746 162.48233 
L 127.595076 162.48233 
L 128.888406 162.350549 
L 133.630616 162.719538 
L 134.492836 162.824963 
L 136.217276 162.719538 
L 137.510606 162.508687 
L 137.941715 162.666825 
L 139.666155 162.535043 
L 140.959485 162.5614 
L 141.821705 162.535043 
L 143.977255 162.614112 
L 144.839475 162.535043 
L 147.426135 162.640469 
L 149.581685 162.745894 
L 150.012795 162.614112 
L 150.875014 162.640469 
L 151.306124 162.5614 
L 152.168344 162.614112 
L 153.030564 162.587756 
L 153.892784 162.719538 
L 155.617224 162.693181 
L 156.910554 162.956745 
L 157.772774 162.904032 
L 168.981633 163.009458 
L 171.137183 163.035814 
L 172.430513 163.114883 
L 173.723843 163.246665 
L 175.448283 163.14124 
L 176.310503 163.114883 
L 177.172722 163.06217 
L 178.034942 162.983101 
L 178.897162 163.035814 
L 181.483822 162.930389 
L 183.208262 163.088527 
L 185.794922 163.035814 
L 187.950472 163.114883 
L 189.674911 163.378447 
L 190.537131 163.404803 
L 190.968241 163.483872 
L 192.692681 163.378447 
L 203.47043 163.457516 
L 204.33265 163.510229 
L 205.62598 163.483872 
L 206.4882 163.483872 
L 210.36819 163.589298 
L 211.66152 163.589298 
L 214.24818 163.536585 
L 216.834839 163.589298 
L 221.145939 163.483872 
L 222.870379 163.483872 
L 240.114778 163.404803 
L 241.408107 163.35209 
L 245.719207 163.536585 
L 247.012537 163.562941 
L 248.305867 163.562941 
L 249.599197 163.510229 
L 252.185857 163.404803 
L 253.910296 163.404803 
L 256.496956 163.510229 
L 257.790286 163.457516 
L 266.843595 163.35209 
L 267.705815 163.325734 
L 274.603575 163.43116 
L 277.190235 163.483872 
L 294.003523 163.589298 
L 296.159073 163.615654 
L 298.745733 163.72108 
L 301.332393 163.773792 
L 302.625723 163.773792 
L 306.074602 163.879218 
L 331.51009 163.800149 
L 332.37231 163.747436 
L 334.09675 163.773792 
L 336.68341 163.72108 
L 360.825568 163.615654 
L 360.825568 163.615654 
" style="fill:none;stroke:#ff7f0e;stroke-linecap:square;stroke-opacity:0.5;stroke-width:1.5;"></path>
   </g>
   <g id="line2d_19">
    <path clip-path="url(#p12986f3d44)" d="M 56.461932 229.611989 
L 56.474865 31.939261 
L 56.57402 92.954243 
L 56.582643 84.20393 
L 56.642998 125.425283 
L 56.655931 120.760207 
L 56.664554 119.785021 
L 56.824064 152.097923 
L 56.854242 146.53673 
L 56.931842 152.941327 
L 57.074108 166.936556 
L 57.117219 165.882301 
L 57.190508 164.485414 
L 57.220685 167.068338 
L 57.224996 165.935014 
L 57.302596 169.097778 
L 57.242241 165.882301 
L 57.319841 168.992352 
L 56.893042 148.724309 
L 57.324152 169.282272 
L 57.755262 177.953516 
L 58.186372 179.66668 
L 58.617482 182.803087 
L 59.048592 184.01548 
L 59.479702 184.489894 
L 59.910812 186.176701 
L 60.341922 186.308483 
L 60.773031 188.021647 
L 61.204141 188.443349 
L 61.635251 188.57513 
L 62.066361 188.28521 
L 62.497471 188.785981 
L 62.928581 189.919305 
L 63.359691 190.1038 
L 63.790801 189.945661 
L 64.221911 190.235581 
L 64.653021 190.1038 
L 65.084131 189.313109 
L 65.515241 189.471247 
L 65.946351 190.209225 
L 67.670791 190.1038 
L 68.964121 190.920847 
L 69.826341 190.762709 
L 71.119671 191.5534 
L 71.550781 191.289836 
L 71.981891 191.711538 
L 74.13744 191.500687 
L 74.56855 191.527043 
L 74.99966 191.922389 
L 75.43077 191.896032 
L 76.7241 192.396803 
L 77.15521 192.238665 
L 79.74187 192.528585 
L 80.17298 192.475872 
L 80.60409 192.660367 
L 81.89742 192.63401 
L 82.75964 192.212309 
L 83.62186 192.34409 
L 84.05297 192.607654 
L 84.91519 192.528585 
L 86.20852 192.792149 
L 87.070739 192.63401 
L 89.226289 192.686723 
L 89.657399 192.897574 
L 90.088509 192.818505 
L 91.381839 193.055712 
L 91.812949 193.003 
L 92.675169 193.161138 
L 95.261829 192.92393 
L 96.124049 192.976643 
L 96.555159 192.950287 
L 96.986269 193.082069 
L 97.417379 193.029356 
L 98.710709 193.161138 
L 100.866258 193.345632 
L 104.746248 193.187494 
L 105.608468 193.21385 
L 108.195128 193.266563 
L 109.057348 193.371989 
L 109.919568 193.451058 
L 111.212898 193.530127 
L 111.644008 193.635552 
L 112.937337 193.556483 
L 113.799557 193.556483 
L 114.661777 193.451058 
L 115.092887 193.556483 
L 115.955107 193.530127 
L 121.559537 193.820047 
L 122.421757 193.79369 
L 123.283977 193.820047 
L 123.715087 193.767334 
L 124.146197 193.846403 
L 126.732856 193.609196 
L 131.475066 193.688265 
L 132.337286 193.740978 
L 134.061726 193.714621 
L 137.510606 193.820047 
L 138.372825 193.767334 
L 148.719465 193.87276 
L 150.443905 193.978185 
L 152.168344 193.978185 
L 159.497214 193.899116 
L 160.359434 193.87276 
L 161.652764 193.925472 
L 165.101643 194.030898 
L 166.394973 194.004541 
L 168.119413 194.004541 
L 169.412743 194.057254 
L 170.706073 194.004541 
L 191.399351 194.109967 
L 192.692681 194.16268 
L 195.279341 194.215392 
L 196.572671 194.136323 
L 213.38596 194.215392 
L 214.24818 194.241749 
L 257.359176 194.347174 
L 259.083616 194.347174 
L 360.825568 194.426243 
L 360.825568 194.426243 
" style="fill:none;stroke:#2ca02c;stroke-linecap:square;stroke-opacity:0.5;stroke-width:1.5;"></path>
   </g>
   <g id="line2d_20">
    <path clip-path="url(#p12986f3d44)" d="M 56.461932 229.611989 
L 56.474865 31.939261 
L 56.57402 92.954243 
L 56.578332 88.420949 
L 56.642998 119.28425 
L 56.664554 114.302898 
L 56.824064 145.904178 
L 56.828375 143.795669 
L 56.836997 142.76777 
L 57.00513 159.056003 
L 57.022375 157.184701 
L 57.074108 163.273021 
L 57.104286 162.85132 
L 57.220685 165.592381 
L 57.23793 165.539669 
L 57.242241 164.432701 
L 57.289663 168.148949 
L 57.319841 167.674534 
L 56.893042 146.115029 
L 57.324152 167.99081 
L 57.755262 178.823276 
L 58.186372 184.911596 
L 59.048592 187.942578 
L 59.479702 188.627843 
L 59.910812 189.787523 
L 60.341922 189.840236 
L 61.204141 191.790607 
L 61.635251 192.080527 
L 62.066361 191.737894 
L 62.497471 191.237123 
L 63.359691 192.739436 
L 64.221911 192.739436 
L 64.653021 192.871218 
L 65.084131 193.398345 
L 65.515241 193.477414 
L 67.239681 194.426243 
L 67.670791 194.66345 
L 68.533011 194.795232 
L 68.964121 195.085152 
L 69.395231 194.66345 
L 69.826341 194.584381 
L 70.688561 194.795232 
L 71.119671 195.058796 
L 71.550781 195.058796 
L 72.413001 195.427785 
L 72.844111 195.085152 
L 73.70633 195.296003 
L 74.56855 194.847945 
L 75.43077 195.164221 
L 76.29299 195.401429 
L 76.7241 195.638636 
L 77.15521 195.401429 
L 78.87965 195.190578 
L 79.31076 195.401429 
L 79.74187 195.348716 
L 80.17298 195.164221 
L 84.48408 195.691349 
L 84.91519 195.480498 
L 85.77741 195.559567 
L 87.070739 195.796774 
L 88.364069 195.638636 
L 88.795179 195.744061 
L 89.226289 195.664992 
L 92.244059 195.954912 
L 93.106279 195.9022 
L 93.968499 195.744061 
L 94.830719 195.82313 
L 95.692939 195.770418 
L 96.124049 195.849487 
L 96.555159 195.770418 
L 97.417379 195.82313 
L 98.279599 195.770418 
L 99.572928 195.82313 
L 100.866258 195.82313 
L 103.452918 196.033981 
L 110.781788 196.40297 
L 113.799557 196.323901 
L 114.230667 196.429327 
L 116.386217 196.244832 
L 120.266207 196.40297 
L 125.008416 196.165763 
L 125.870636 196.19212 
L 128.457296 196.139407 
L 131.043956 196.19212 
L 133.630616 196.244832 
L 134.923946 196.376614 
L 139.235045 196.534752 
L 140.959485 196.508396 
L 143.115035 196.534752 
L 152.168344 196.455683 
L 153.030564 196.40297 
L 153.892784 196.429327 
L 158.634994 196.508396 
L 159.497214 196.508396 
L 160.359434 196.534752 
L 161.652764 196.587465 
L 190.968241 196.69289 
L 193.554901 196.745603 
L 194.848231 196.69289 
L 200.452661 196.798316 
L 202.60821 196.824672 
L 219.852609 196.719247 
L 221.577049 196.719247 
L 247.874757 196.824672 
L 249.599197 196.824672 
L 300.039063 196.930098 
L 302.625723 196.98281 
L 355.652249 196.877385 
L 358.238908 196.824672 
L 359.532238 196.824672 
L 360.825568 196.798316 
L 360.825568 196.798316 
" style="fill:none;stroke:#d62728;stroke-linecap:square;stroke-opacity:0.5;stroke-width:1.5;"></path>
   </g>
   <g id="patch_3">
    <path d="M 41.24375 239.495625 
L 41.24375 22.055625 
" style="fill:none;stroke:#000000;stroke-linecap:square;stroke-linejoin:miter;stroke-width:0.8;"></path>
   </g>
   <g id="patch_4">
    <path d="M 376.04375 239.495625 
L 376.04375 22.055625 
" style="fill:none;stroke:#000000;stroke-linecap:square;stroke-linejoin:miter;stroke-width:0.8;"></path>
   </g>
   <g id="patch_5">
    <path d="M 41.24375 239.495625 
L 376.04375 239.495625 
" style="fill:none;stroke:#000000;stroke-linecap:square;stroke-linejoin:miter;stroke-width:0.8;"></path>
   </g>
   <g id="patch_6">
    <path d="M 41.24375 22.055625 
L 376.04375 22.055625 
" style="fill:none;stroke:#000000;stroke-linecap:square;stroke-linejoin:miter;stroke-width:0.8;"></path>
   </g>
   <g id="text_19">
    <!-- COLLATZ -->
    <defs>
     <path d="M 59 15.40625 
Q 59.90625 15.40625 60.546875 14.703125 
L 64.75 10.09375 
Q 60.34375 4.90625 54.015625 2.046875 
Q 47.703125 -0.796875 38.796875 -0.796875 
Q 31 -0.796875 24.671875 1.890625 
Q 18.34375 4.59375 13.875 9.4375 
Q 9.40625 14.296875 6.953125 21.046875 
Q 4.5 27.796875 4.5 35.90625 
Q 4.5 44 7.078125 50.75 
Q 9.65625 57.5 14.296875 62.34375 
Q 18.953125 67.203125 25.421875 69.890625 
Q 31.90625 72.59375 39.75 72.59375 
Q 47.40625 72.59375 53.34375 70.09375 
Q 59.296875 67.59375 63.703125 63.453125 
L 60.203125 58.5 
Q 59.84375 57.953125 59.3125 57.59375 
Q 58.796875 57.25 57.953125 57.25 
Q 57 57.25 55.71875 58.203125 
Q 54.453125 59.15625 52.375 60.328125 
Q 50.296875 61.5 47.25 62.453125 
Q 44.203125 63.40625 39.65625 63.40625 
Q 34.296875 63.40625 29.84375 61.53125 
Q 25.40625 59.65625 22.171875 56.125 
Q 18.953125 52.59375 17.171875 47.46875 
Q 15.40625 42.34375 15.40625 35.90625 
Q 15.40625 29.34375 17.25 24.25 
Q 19.09375 19.15625 22.34375 15.59375 
Q 25.59375 12.046875 30 10.1875 
Q 34.40625 8.34375 39.5 8.34375 
Q 42.59375 8.34375 45.0625 8.71875 
Q 47.546875 9.09375 49.625 9.84375 
Q 51.703125 10.59375 53.546875 11.765625 
Q 55.40625 12.953125 57.203125 14.59375 
Q 57.59375 14.953125 58.046875 15.171875 
Q 58.5 15.40625 59 15.40625 
z
" id="Lato-Medium-67"></path>
     <path d="M 75.75 35.90625 
Q 75.75 27.84375 73.171875 21.125 
Q 70.59375 14.40625 65.890625 9.53125 
Q 61.203125 4.65625 54.640625 1.953125 
Q 48.09375 -0.75 40.09375 -0.75 
Q 32.15625 -0.75 25.578125 1.953125 
Q 19 4.65625 14.328125 9.53125 
Q 9.65625 14.40625 7.046875 21.125 
Q 4.453125 27.84375 4.453125 35.90625 
Q 4.453125 43.90625 7.046875 50.65625 
Q 9.65625 57.40625 14.328125 62.28125 
Q 19 67.15625 25.578125 69.875 
Q 32.15625 72.59375 40.09375 72.59375 
Q 48.09375 72.59375 54.640625 69.875 
Q 61.203125 67.15625 65.890625 62.28125 
Q 70.59375 57.40625 73.171875 50.65625 
Q 75.75 43.90625 75.75 35.90625 
z
M 64.84375 35.90625 
Q 64.84375 42.296875 63.09375 47.390625 
Q 61.34375 52.5 58.125 56.046875 
Q 54.90625 59.59375 50.328125 61.5 
Q 45.75 63.40625 40.09375 63.40625 
Q 34.453125 63.40625 29.875 61.5 
Q 25.296875 59.59375 22.046875 56.046875 
Q 18.796875 52.5 17.046875 47.390625 
Q 15.296875 42.296875 15.296875 35.90625 
Q 15.296875 29.453125 17.046875 24.375 
Q 18.796875 19.296875 22.046875 15.75 
Q 25.296875 12.203125 29.875 10.328125 
Q 34.453125 8.453125 40.09375 8.453125 
Q 45.75 8.453125 50.328125 10.328125 
Q 54.90625 12.203125 58.125 15.75 
Q 61.34375 19.296875 63.09375 24.375 
Q 64.84375 29.453125 64.84375 35.90625 
z
" id="Lato-Medium-79"></path>
     <path d="M 49.953125 8.953125 
L 49.953125 0 
L 8.84375 0 
L 8.84375 71.796875 
L 19.5 71.796875 
L 19.5 8.953125 
z
" id="Lato-Medium-76"></path>
     <path d="M 47 26.75 
L 36.34375 54.59375 
Q 35.203125 57.453125 34.046875 61.796875 
Q 33.5 59.65625 32.921875 57.796875 
Q 32.34375 55.953125 31.796875 54.5 
L 21.203125 26.75 
z
M 68.046875 0 
L 59.84375 0 
Q 58.453125 0 57.546875 0.703125 
Q 56.65625 1.40625 56.25 2.5 
L 49.90625 19.15625 
L 18.25 19.15625 
L 11.90625 2.5 
Q 11.546875 1.546875 10.59375 0.765625 
Q 9.65625 0 8.296875 0 
L 0.09375 0 
L 28.703125 71.796875 
L 39.453125 71.796875 
z
" id="Lato-Medium-65"></path>
     <path d="M 57.796875 62.90625 
L 35 62.90625 
L 35 0 
L 24.40625 0 
L 24.40625 62.90625 
L 1.5 62.90625 
L 1.5 71.796875 
L 57.796875 71.796875 
z
" id="Lato-Medium-84"></path>
     <path d="M 57.203125 67.84375 
Q 57.203125 66.046875 56.09375 64.40625 
L 16.453125 8.65625 
L 56.5 8.65625 
L 56.5 0 
L 2.5 0 
L 2.5 4.203125 
Q 2.5 5.046875 2.765625 5.796875 
Q 3.046875 6.546875 3.5 7.25 
L 43.25 63.15625 
L 4.5 63.15625 
L 4.5 71.796875 
L 57.203125 71.796875 
z
" id="Lato-Medium-90"></path>
    </defs>
    <g transform="translate(182.384375 16.055625)scale(0.12 -0.12)">
     <use xlink:href="#Lato-Medium-67"></use>
     <use x="66.650009" xlink:href="#Lato-Medium-79"></use>
     <use x="146.900024" xlink:href="#Lato-Medium-76"></use>
     <use x="198.400024" xlink:href="#Lato-Medium-76"></use>
     <use x="249.900024" xlink:href="#Lato-Medium-65"></use>
     <use x="318.050034" xlink:href="#Lato-Medium-84"></use>
     <use x="377.350037" xlink:href="#Lato-Medium-90"></use>
    </g>
   </g>
   <g id="legend_1">
    <g id="patch_7">
     <path d="M 285.109375 86.50875 
L 369.04375 86.50875 
Q 371.04375 86.50875 371.04375 84.50875 
L 371.04375 29.055625 
Q 371.04375 27.055625 369.04375 27.055625 
L 285.109375 27.055625 
Q 283.109375 27.055625 283.109375 29.055625 
L 283.109375 84.50875 
Q 283.109375 86.50875 285.109375 86.50875 
z
" style="fill:#ffffff;opacity:0.8;stroke:#cccccc;stroke-linejoin:miter;"></path>
    </g>
    <g id="line2d_21">
     <path d="M 287.109375 34.935312 
L 307.109375 34.935312 
" style="fill:none;stroke:#1f77b4;stroke-linecap:square;stroke-opacity:0.5;stroke-width:1.5;"></path>
    </g>
    <g id="line2d_22"></g>
    <g id="text_20">
     <!-- btfnt -->
     <g transform="translate(315.109375 38.435312)scale(0.1 -0.1)">
      <use xlink:href="#Lato-Medium-98"></use>
      <use x="56.200012" xlink:href="#Lato-Medium-116"></use>
      <use x="92.400009" xlink:href="#Lato-Medium-102"></use>
      <use x="127.650009" xlink:href="#Lato-Medium-110"></use>
      <use x="183.600021" xlink:href="#Lato-Medium-116"></use>
     </g>
    </g>
    <g id="line2d_23">
     <path d="M 287.109375 49.019687 
L 307.109375 49.019687 
" style="fill:none;stroke:#ff7f0e;stroke-linecap:square;stroke-opacity:0.5;stroke-width:1.5;"></path>
    </g>
    <g id="line2d_24"></g>
    <g id="text_21">
     <!-- lshare -->
     <defs>
      <path d="M 16.84375 73.796875 
L 16.84375 0 
L 7.046875 0 
L 7.046875 73.796875 
z
" id="Lato-Medium-108"></path>
     </defs>
     <g transform="translate(315.109375 52.519687)scale(0.1 -0.1)">
      <use xlink:href="#Lato-Medium-108"></use>
      <use x="23.899994" xlink:href="#Lato-Medium-115"></use>
      <use x="67.349991" xlink:href="#Lato-Medium-104"></use>
      <use x="123.300003" xlink:href="#Lato-Medium-97"></use>
      <use x="173.250015" xlink:href="#Lato-Medium-114"></use>
      <use x="209.900024" xlink:href="#Lato-Medium-101"></use>
     </g>
    </g>
    <g id="line2d_25">
     <path d="M 287.109375 63.104062 
L 307.109375 63.104062 
" style="fill:none;stroke:#2ca02c;stroke-linecap:square;stroke-opacity:0.5;stroke-width:1.5;"></path>
    </g>
    <g id="line2d_26"></g>
    <g id="text_22">
     <!-- gshare -->
     <defs>
      <path d="M 24.703125 25.34375 
Q 27.296875 25.34375 29.265625 26.046875 
Q 31.25 26.75 32.578125 28.015625 
Q 33.90625 29.296875 34.578125 31.09375 
Q 35.25 32.90625 35.25 35.046875 
Q 35.25 39.453125 32.578125 42.078125 
Q 29.90625 44.703125 24.703125 44.703125 
Q 19.546875 44.703125 16.875 42.078125 
Q 14.203125 39.453125 14.203125 35.046875 
Q 14.203125 32.90625 14.875 31.125 
Q 15.546875 29.34375 16.875 28.0625 
Q 18.203125 26.796875 20.171875 26.0625 
Q 22.15625 25.34375 24.703125 25.34375 
z
M 40.25 -2.65625 
Q 40.25 -0.84375 39.25 0.21875 
Q 38.25 1.296875 36.515625 1.921875 
Q 34.796875 2.546875 32.5 2.8125 
Q 30.203125 3.09375 27.671875 3.25 
Q 25.15625 3.40625 22.5 3.53125 
Q 19.84375 3.65625 17.40625 4 
Q 14.796875 2.703125 13.125 0.84375 
Q 11.453125 -1 11.453125 -3.5 
Q 11.453125 -5.09375 12.265625 -6.5 
Q 13.09375 -7.90625 14.8125 -8.921875 
Q 16.546875 -9.953125 19.171875 -10.515625 
Q 21.796875 -11.09375 25.453125 -11.09375 
Q 29.046875 -11.09375 31.796875 -10.46875 
Q 34.546875 -9.84375 36.421875 -8.71875 
Q 38.296875 -7.59375 39.265625 -6.046875 
Q 40.25 -4.5 40.25 -2.65625 
z
M 50.15625 48.90625 
L 50.15625 45.25 
Q 50.15625 43.453125 47.90625 43 
L 42.453125 42.203125 
Q 43.15625 40.65625 43.546875 38.921875 
Q 43.953125 37.203125 43.953125 35.296875 
Q 43.953125 31.546875 42.5 28.515625 
Q 41.046875 25.5 38.5 23.34375 
Q 35.953125 21.203125 32.421875 20.046875 
Q 28.90625 18.90625 24.703125 18.90625 
Q 21.25 18.90625 18.25 19.65625 
Q 16.75 18.75 15.96875 17.671875 
Q 15.203125 16.59375 15.203125 15.546875 
Q 15.203125 13.796875 16.671875 12.9375 
Q 18.15625 12.09375 20.53125 11.71875 
Q 22.90625 11.34375 25.96875 11.25 
Q 29.046875 11.15625 32.21875 10.921875 
Q 35.40625 10.703125 38.46875 10.125 
Q 41.546875 9.546875 43.921875 8.265625 
Q 46.296875 7 47.765625 4.765625 
Q 49.25 2.546875 49.25 -1 
Q 49.25 -4.296875 47.625 -7.390625 
Q 46 -10.5 42.890625 -12.890625 
Q 39.796875 -15.296875 35.34375 -16.75 
Q 30.90625 -18.203125 25.25 -18.203125 
Q 19.59375 -18.203125 15.421875 -17.09375 
Q 11.25 -16 8.46875 -14.140625 
Q 5.703125 -12.296875 4.328125 -9.84375 
Q 2.953125 -7.40625 2.953125 -4.75 
Q 2.953125 -1.046875 5.25 1.515625 
Q 7.546875 4.09375 11.59375 5.546875 
Q 9.40625 6.546875 8.09375 8.265625 
Q 6.796875 10 6.796875 12.84375 
Q 6.796875 13.953125 7.1875 15.125 
Q 7.59375 16.296875 8.421875 17.46875 
Q 9.25 18.65625 10.46875 19.703125 
Q 11.703125 20.75 13.296875 21.59375 
Q 9.546875 23.703125 7.390625 27.171875 
Q 5.25 30.65625 5.25 35.296875 
Q 5.25 39.046875 6.703125 42.046875 
Q 8.15625 45.046875 10.71875 47.1875 
Q 13.296875 49.34375 16.875 50.5 
Q 20.453125 51.65625 24.703125 51.65625 
Q 31.296875 51.65625 36.046875 48.90625 
z
" id="Lato-Medium-103"></path>
     </defs>
     <g transform="translate(315.109375 66.604062)scale(0.1 -0.1)">
      <use xlink:href="#Lato-Medium-103"></use>
      <use x="52.200012" xlink:href="#Lato-Medium-115"></use>
      <use x="95.650009" xlink:href="#Lato-Medium-104"></use>
      <use x="151.600021" xlink:href="#Lato-Medium-97"></use>
      <use x="201.550034" xlink:href="#Lato-Medium-114"></use>
      <use x="238.200043" xlink:href="#Lato-Medium-101"></use>
     </g>
    </g>
    <g id="line2d_27">
     <path d="M 287.109375 77.304062 
L 307.109375 77.304062 
" style="fill:none;stroke:#d62728;stroke-linecap:square;stroke-opacity:0.5;stroke-width:1.5;"></path>
    </g>
    <g id="line2d_28"></g>
    <g id="text_23">
     <!-- tournament -->
     <g transform="translate(315.109375 80.804062)scale(0.1 -0.1)">
      <use xlink:href="#Lato-Medium-116"></use>
      <use x="36.199997" xlink:href="#Lato-Medium-111"></use>
      <use x="93.100006" xlink:href="#Lato-Medium-117"></use>
      <use x="149.000015" xlink:href="#Lato-Medium-114"></use>
      <use x="185.650024" xlink:href="#Lato-Medium-110"></use>
      <use x="241.600037" xlink:href="#Lato-Medium-97"></use>
      <use x="291.550049" xlink:href="#Lato-Medium-109"></use>
      <use x="374.200058" xlink:href="#Lato-Medium-101"></use>
      <use x="427.15007" xlink:href="#Lato-Medium-110"></use>
      <use x="483.100082" xlink:href="#Lato-Medium-116"></use>
     </g>
    </g>
   </g>
  </g>
 </g>
 <defs>
  <clipPath id="p12986f3d44">
   <rect height="217.44" width="334.8" x="41.24375" y="22.055625"></rect>
  </clipPath>
 </defs>
</svg>