<svg height="275.864375pt" version="1.1" viewBox="0 0 397.27744 275.864375" width="397.27744pt" xmlns="http://www.w3.org/2000/svg" xmlns:xlink="http://www.w3.org/1999/xlink" style="width: 100%; height: 100%;">
 <defs>
  <style type="text/css">
*{stroke-linecap:butt;stroke-linejoin:round;}
  </style>
 </defs>
 <g id="figure_1">
  <g id="patch_1">
   <path d="M 0 275.864375 
L 397.27744 275.864375 
L 397.27744 0 
L 0 0 
z
" style="fill:none;"></path>
  </g>
  <g id="axes_1">
   <g id="patch_2">
    <path d="M 47.04375 239.495625 
L 381.84375 239.495625 
L 381.84375 22.055625 
L 47.04375 22.055625 
z
" style="fill:#ffffff;"></path>
   </g>
   <g id="matplotlib.axis_1">
    <g id="xtick_1">
     <g id="line2d_1">
      <defs>
       <path d="M 0 0 
L 0 3.5 
" id="mae7d54864b" style="stroke:#000000;stroke-width:0.8;"></path>
      </defs>
      <g>
       <use style="stroke:#000000;stroke-width:0.8;" x="62.261932" xlink:href="#mae7d54864b" y="239.495625"></use>
      </g>
     </g>
     <g id="text_1">
      <!-- 0 -->
      <defs>
       <path d="M 55.09375 35.90625 
Q 55.09375 26.5 53.0625 19.59375 
Q 51.046875 12.703125 47.515625 8.171875 
Q 44 3.65625 39.21875 1.453125 
Q 34.453125 -0.75 28.953125 -0.75 
Q 23.453125 -0.75 18.671875 1.453125 
Q 13.90625 3.65625 10.40625 8.171875 
Q 6.90625 12.703125 4.90625 19.59375 
Q 2.90625 26.5 2.90625 35.90625 
Q 2.90625 45.296875 4.90625 52.21875 
Q 6.90625 59.15625 10.40625 63.671875 
Q 13.90625 68.203125 18.671875 70.390625 
Q 23.453125 72.59375 28.953125 72.59375 
Q 34.453125 72.59375 39.21875 70.390625 
Q 44 68.203125 47.515625 63.671875 
Q 51.046875 59.15625 53.0625 52.21875 
Q 55.09375 45.296875 55.09375 35.90625 
z
M 45 35.90625 
Q 45 44 43.671875 49.453125 
Q 42.34375 54.90625 40.125 58.21875 
Q 37.90625 61.546875 35 62.9375 
Q 32.09375 64.34375 28.953125 64.34375 
Q 25.796875 64.34375 22.890625 62.9375 
Q 20 61.546875 17.765625 58.21875 
Q 15.546875 54.90625 14.25 49.453125 
Q 12.953125 44 12.953125 35.90625 
Q 12.953125 27.796875 14.25 22.34375 
Q 15.546875 16.90625 17.765625 13.59375 
Q 20 10.296875 22.890625 8.890625 
Q 25.796875 7.5 28.953125 7.5 
Q 32.09375 7.5 35 8.890625 
Q 37.90625 10.296875 40.125 13.59375 
Q 42.34375 16.90625 43.671875 22.34375 
Q 45 27.796875 45 35.90625 
z
" id="Lato-Medium-48"></path>
      </defs>
      <g transform="translate(59.361932 253.875312)scale(0.1 -0.1)">
       <use xlink:href="#Lato-Medium-48"></use>
      </g>
     </g>
    </g>
    <g id="xtick_2">
     <g id="line2d_2">
      <g>
       <use style="stroke:#000000;stroke-width:0.8;" x="107.02129" xlink:href="#mae7d54864b" y="239.495625"></use>
      </g>
     </g>
     <g id="text_2">
      <!-- 2500 -->
      <defs>
       <path d="M 49.296875 9.25 
Q 50.90625 9.25 51.796875 8.328125 
Q 52.703125 7.40625 52.703125 5.90625 
L 52.703125 0 
L 4.5 0 
L 4.5 3.34375 
Q 4.5 4.34375 4.890625 5.46875 
Q 5.296875 6.59375 6.25 7.5 
L 28.953125 30.25 
Q 31.796875 33.09375 34.09375 35.75 
Q 36.40625 38.40625 38 41.03125 
Q 39.59375 43.65625 40.46875 46.40625 
Q 41.34375 49.15625 41.34375 52.203125 
Q 41.34375 55.203125 40.390625 57.46875 
Q 39.453125 59.75 37.796875 61.25 
Q 36.15625 62.75 33.90625 63.5 
Q 31.65625 64.25 29.046875 64.25 
Q 26.453125 64.25 24.265625 63.5 
Q 22.09375 62.75 20.390625 61.390625 
Q 18.703125 60.046875 17.546875 58.1875 
Q 16.40625 56.34375 15.90625 54.203125 
Q 15.203125 52.296875 14.125 51.640625 
Q 13.046875 51 11 51.34375 
L 5.90625 52.25 
Q 6.59375 57.25 8.640625 61.046875 
Q 10.703125 64.84375 13.796875 67.421875 
Q 16.90625 70 20.921875 71.296875 
Q 24.953125 72.59375 29.59375 72.59375 
Q 34.296875 72.59375 38.265625 71.21875 
Q 42.25 69.84375 45.140625 67.25 
Q 48.046875 64.65625 49.6875 60.921875 
Q 51.34375 57.203125 51.34375 52.5 
Q 51.34375 48.5 50.171875 45.078125 
Q 49 41.65625 46.96875 38.546875 
Q 44.953125 35.453125 42.265625 32.515625 
Q 39.59375 29.59375 36.59375 26.59375 
L 18.40625 8 
Q 20.5 8.546875 22.625 8.890625 
Q 24.75 9.25 26.65625 9.25 
z
" id="Lato-Medium-50"></path>
       <path d="M 18.65625 45 
Q 24.15625 46.15625 28.59375 46.15625 
Q 34.203125 46.15625 38.5 44.46875 
Q 42.796875 42.796875 45.71875 39.875 
Q 48.65625 36.953125 50.125 32.96875 
Q 51.59375 29 51.59375 24.34375 
Q 51.59375 18.65625 49.59375 14 
Q 47.59375 9.34375 44.09375 6.046875 
Q 40.59375 2.75 35.8125 0.96875 
Q 31.046875 -0.796875 25.546875 -0.796875 
Q 22.296875 -0.796875 19.375 -0.140625 
Q 16.453125 0.5 13.890625 1.578125 
Q 11.34375 2.65625 9.171875 4.046875 
Q 7 5.453125 5.296875 7 
L 8.296875 11.203125 
Q 9.25 12.59375 10.84375 12.59375 
Q 11.90625 12.59375 13.171875 11.8125 
Q 14.453125 11.046875 16.203125 10.09375 
Q 17.953125 9.15625 20.34375 8.375 
Q 22.75 7.59375 26.046875 7.59375 
Q 29.703125 7.59375 32.625 8.765625 
Q 35.546875 9.953125 37.5625 12.09375 
Q 39.59375 14.25 40.671875 17.25 
Q 41.75 20.25 41.75 23.90625 
Q 41.75 27.15625 40.796875 29.75 
Q 39.84375 32.34375 37.9375 34.1875 
Q 36.046875 36.046875 33.1875 37.015625 
Q 30.34375 38 26.546875 38 
Q 21.25 38 15.25 36.09375 
L 9.09375 37.90625 
L 14.953125 71.796875 
L 49.34375 71.796875 
L 49.34375 67.546875 
Q 49.34375 65.453125 48.015625 64.125 
Q 46.703125 62.796875 43.59375 62.796875 
L 21.75 62.796875 
z
" id="Lato-Medium-53"></path>
      </defs>
      <g transform="translate(95.42129 253.875312)scale(0.1 -0.1)">
       <use xlink:href="#Lato-Medium-50"></use>
       <use x="58" xlink:href="#Lato-Medium-53"></use>
       <use x="116" xlink:href="#Lato-Medium-48"></use>
       <use x="174" xlink:href="#Lato-Medium-48"></use>
      </g>
     </g>
    </g>
    <g id="xtick_3">
     <g id="line2d_3">
      <g>
       <use style="stroke:#000000;stroke-width:0.8;" x="151.780648" xlink:href="#mae7d54864b" y="239.495625"></use>
      </g>
     </g>
     <g id="text_3">
      <!-- 5000 -->
      <g transform="translate(140.180648 253.875312)scale(0.1 -0.1)">
       <use xlink:href="#Lato-Medium-53"></use>
       <use x="58" xlink:href="#Lato-Medium-48"></use>
       <use x="116" xlink:href="#Lato-Medium-48"></use>
       <use x="174" xlink:href="#Lato-Medium-48"></use>
      </g>
     </g>
    </g>
    <g id="xtick_4">
     <g id="line2d_4">
      <g>
       <use style="stroke:#000000;stroke-width:0.8;" x="196.540007" xlink:href="#mae7d54864b" y="239.495625"></use>
      </g>
     </g>
     <g id="text_4">
      <!-- 7500 -->
      <defs>
       <path d="M 54.203125 71.796875 
L 54.203125 67.453125 
Q 54.203125 65.546875 53.765625 64.375 
Q 53.34375 63.203125 52.953125 62.34375 
L 23.84375 3.453125 
Q 23.15625 2 21.90625 1 
Q 20.65625 0 18.546875 0 
L 11.546875 0 
L 41.09375 58.046875 
Q 41.84375 59.453125 42.59375 60.625 
Q 43.34375 61.796875 44.25 62.796875 
L 7.546875 62.796875 
Q 6.59375 62.796875 5.890625 63.5 
Q 5.203125 64.203125 5.203125 65.15625 
L 5.203125 71.796875 
z
" id="Lato-Medium-55"></path>
      </defs>
      <g transform="translate(184.940007 253.875312)scale(0.1 -0.1)">
       <use xlink:href="#Lato-Medium-55"></use>
       <use x="58" xlink:href="#Lato-Medium-53"></use>
       <use x="116" xlink:href="#Lato-Medium-48"></use>
       <use x="174" xlink:href="#Lato-Medium-48"></use>
      </g>
     </g>
    </g>
    <g id="xtick_5">
     <g id="line2d_5">
      <g>
       <use style="stroke:#000000;stroke-width:0.8;" x="241.299365" xlink:href="#mae7d54864b" y="239.495625"></use>
      </g>
     </g>
     <g id="text_5">
      <!-- 10000 -->
      <defs>
       <path d="M 51.09375 7.453125 
L 51.09375 0 
L 12.296875 0 
L 12.296875 7.453125 
L 27.5 7.453125 
L 27.5 54.5 
Q 27.5 56.75 27.65625 59.15625 
L 15.453125 48.796875 
Q 14.75 48.25 14.046875 48.09375 
Q 13.34375 47.953125 12.71875 48.046875 
Q 12.09375 48.15625 11.625 48.46875 
Q 11.15625 48.796875 10.84375 49.15625 
L 7.796875 53.40625 
L 29.296875 71.953125 
L 37.25 71.953125 
L 37.25 7.453125 
z
" id="Lato-Medium-49"></path>
      </defs>
      <g transform="translate(226.799365 253.875312)scale(0.1 -0.1)">
       <use xlink:href="#Lato-Medium-49"></use>
       <use x="58" xlink:href="#Lato-Medium-48"></use>
       <use x="116" xlink:href="#Lato-Medium-48"></use>
       <use x="174" xlink:href="#Lato-Medium-48"></use>
       <use x="232" xlink:href="#Lato-Medium-48"></use>
      </g>
     </g>
    </g>
    <g id="xtick_6">
     <g id="line2d_6">
      <g>
       <use style="stroke:#000000;stroke-width:0.8;" x="286.058723" xlink:href="#mae7d54864b" y="239.495625"></use>
      </g>
     </g>
     <g id="text_6">
      <!-- 12500 -->
      <g transform="translate(271.558723 253.875312)scale(0.1 -0.1)">
       <use xlink:href="#Lato-Medium-49"></use>
       <use x="58" xlink:href="#Lato-Medium-50"></use>
       <use x="116" xlink:href="#Lato-Medium-53"></use>
       <use x="174" xlink:href="#Lato-Medium-48"></use>
       <use x="232" xlink:href="#Lato-Medium-48"></use>
      </g>
     </g>
    </g>
    <g id="xtick_7">
     <g id="line2d_7">
      <g>
       <use style="stroke:#000000;stroke-width:0.8;" x="330.818082" xlink:href="#mae7d54864b" y="239.495625"></use>
      </g>
     </g>
     <g id="text_7">
      <!-- 15000 -->
      <g transform="translate(316.318082 253.875312)scale(0.1 -0.1)">
       <use xlink:href="#Lato-Medium-49"></use>
       <use x="58" xlink:href="#Lato-Medium-53"></use>
       <use x="116" xlink:href="#Lato-Medium-48"></use>
       <use x="174" xlink:href="#Lato-Medium-48"></use>
       <use x="232" xlink:href="#Lato-Medium-48"></use>
      </g>
     </g>
    </g>
    <g id="xtick_8">
     <g id="line2d_8">
      <g>
       <use style="stroke:#000000;stroke-width:0.8;" x="375.57744" xlink:href="#mae7d54864b" y="239.495625"></use>
      </g>
     </g>
     <g id="text_8">
      <!-- 17500 -->
      <g transform="translate(361.07744 253.875312)scale(0.1 -0.1)">
       <use xlink:href="#Lato-Medium-49"></use>
       <use x="58" xlink:href="#Lato-Medium-55"></use>
       <use x="116" xlink:href="#Lato-Medium-53"></use>
       <use x="174" xlink:href="#Lato-Medium-48"></use>
       <use x="232" xlink:href="#Lato-Medium-48"></use>
      </g>
     </g>
    </g>
    <g id="text_9">
     <!-- number of branches -->
     <defs>
      <path d="M 16 43.75 
Q 17.65625 45.5 19.453125 46.953125 
Q 21.25 48.40625 23.265625 49.421875 
Q 25.296875 50.453125 27.625 51.015625 
Q 29.953125 51.59375 32.59375 51.59375 
Q 36.796875 51.59375 39.96875 50.1875 
Q 43.15625 48.796875 45.296875 46.265625 
Q 47.453125 43.75 48.546875 40.203125 
Q 49.65625 36.65625 49.65625 32.34375 
L 49.65625 0 
L 39.84375 0 
L 39.84375 32.34375 
Q 39.84375 37.796875 37.34375 40.8125 
Q 34.84375 43.84375 29.703125 43.84375 
Q 25.953125 43.84375 22.671875 42.0625 
Q 19.40625 40.296875 16.59375 37.25 
L 16.59375 0 
L 6.84375 0 
L 6.84375 50.796875 
L 12.703125 50.796875 
Q 14.75 50.796875 15.25 48.84375 
z
" id="Lato-Medium-110"></path>
      <path d="M 49.09375 50.796875 
L 49.09375 0 
L 43.25 0 
Q 41.25 0 40.65625 1.953125 
L 39.953125 7.046875 
Q 38.296875 5.296875 36.5 3.84375 
Q 34.703125 2.40625 32.640625 1.375 
Q 30.59375 0.34375 28.296875 -0.21875 
Q 26 -0.796875 23.34375 -0.796875 
Q 19.15625 -0.796875 15.96875 0.59375 
Q 12.796875 2 10.640625 4.515625 
Q 8.5 7.046875 7.390625 10.59375 
Q 6.296875 14.15625 6.296875 18.453125 
L 6.296875 50.796875 
L 16.09375 50.796875 
L 16.09375 18.453125 
Q 16.09375 13 18.59375 9.96875 
Q 21.09375 6.953125 26.25 6.953125 
Q 30 6.953125 33.25 8.71875 
Q 36.5 10.5 39.34375 13.59375 
L 39.34375 50.796875 
z
" id="Lato-Medium-117"></path>
      <path d="M 6.84375 0 
L 6.84375 50.796875 
L 12.703125 50.796875 
Q 14.75 50.796875 15.25 48.84375 
L 15.953125 44 
Q 18.75 47.34375 22.171875 49.46875 
Q 25.59375 51.59375 30.203125 51.59375 
Q 35.25 51.59375 38.390625 48.8125 
Q 41.546875 46.046875 43 41.296875 
Q 44.09375 44 45.84375 45.953125 
Q 47.59375 47.90625 49.75 49.15625 
Q 51.90625 50.40625 54.328125 51 
Q 56.75 51.59375 59.25 51.59375 
Q 63.296875 51.59375 66.46875 50.3125 
Q 69.65625 49.046875 71.84375 46.59375 
Q 74.046875 44.15625 75.1875 40.546875 
Q 76.34375 36.953125 76.34375 32.34375 
L 76.34375 0 
L 66.546875 0 
L 66.546875 32.34375 
Q 66.546875 38.046875 64.0625 40.9375 
Q 61.59375 43.84375 56.84375 43.84375 
Q 54.75 43.84375 52.84375 43.125 
Q 50.953125 42.40625 49.515625 40.953125 
Q 48.09375 39.5 47.265625 37.34375 
Q 46.453125 35.203125 46.453125 32.34375 
L 46.453125 0 
L 36.65625 0 
L 36.65625 32.34375 
Q 36.65625 38.25 34.296875 41.046875 
Q 31.953125 43.84375 27.40625 43.84375 
Q 24.25 43.84375 21.546875 42.1875 
Q 18.84375 40.546875 16.59375 37.703125 
L 16.59375 0 
z
" id="Lato-Medium-109"></path>
      <path d="M 16.59375 12.5 
Q 19 9.34375 21.796875 8.09375 
Q 24.59375 6.84375 27.90625 6.84375 
Q 34.703125 6.84375 38.375 11.6875 
Q 42.046875 16.546875 42.046875 26.34375 
Q 42.046875 35.40625 38.796875 39.625 
Q 35.546875 43.84375 29.59375 43.84375 
Q 25.40625 43.84375 22.328125 41.9375 
Q 19.25 40.046875 16.59375 36.546875 
z
M 16.59375 43.796875 
Q 19.75 47.296875 23.75 49.4375 
Q 27.75 51.59375 32.84375 51.59375 
Q 37.296875 51.59375 40.875 49.875 
Q 44.453125 48.15625 46.953125 44.921875 
Q 49.453125 41.703125 50.796875 37.09375 
Q 52.15625 32.5 52.15625 26.703125 
Q 52.15625 20.546875 50.625 15.5 
Q 49.09375 10.453125 46.265625 6.84375 
Q 43.453125 3.25 39.390625 1.265625 
Q 35.34375 -0.703125 30.296875 -0.703125 
Q 27.84375 -0.703125 25.796875 -0.21875 
Q 23.75 0.25 22.015625 1.140625 
Q 20.296875 2.046875 18.84375 3.34375 
Q 17.40625 4.65625 16.09375 6.296875 
L 15.65625 2.046875 
Q 15.25 0 13.15625 0 
L 6.84375 0 
L 6.84375 73.796875 
L 16.59375 73.796875 
z
" id="Lato-Medium-98"></path>
      <path d="M 40.5 31.046875 
Q 40.5 33.953125 39.671875 36.390625 
Q 38.84375 38.84375 37.25 40.640625 
Q 35.65625 42.453125 33.34375 43.453125 
Q 31.046875 44.453125 28.046875 44.453125 
Q 21.90625 44.453125 18.375 40.890625 
Q 14.84375 37.34375 13.90625 31.046875 
z
M 48.546875 7.25 
Q 46.75 5.15625 44.390625 3.625 
Q 42.046875 2.09375 39.390625 1.140625 
Q 36.75 0.203125 33.921875 -0.25 
Q 31.09375 -0.703125 28.34375 -0.703125 
Q 23.09375 -0.703125 18.625 1.0625 
Q 14.15625 2.84375 10.875 6.265625 
Q 7.59375 9.703125 5.765625 14.765625 
Q 3.953125 19.84375 3.953125 26.453125 
Q 3.953125 31.75 5.59375 36.328125 
Q 7.25 40.90625 10.328125 44.296875 
Q 13.40625 47.703125 17.84375 49.640625 
Q 22.296875 51.59375 27.84375 51.59375 
Q 32.5 51.59375 36.421875 50.0625 
Q 40.34375 48.546875 43.1875 45.640625 
Q 46.046875 42.75 47.671875 38.5 
Q 49.296875 34.25 49.296875 28.796875 
Q 49.296875 26.546875 48.796875 25.765625 
Q 48.296875 25 46.953125 25 
L 13.65625 25 
Q 13.796875 20.453125 14.9375 17.078125 
Q 16.09375 13.703125 18.125 11.453125 
Q 20.15625 9.203125 22.953125 8.09375 
Q 25.75 7 29.203125 7 
Q 32.453125 7 34.828125 7.75 
Q 37.203125 8.5 38.921875 9.375 
Q 40.65625 10.25 41.828125 11 
Q 43 11.75 43.90625 11.75 
Q 45.09375 11.75 45.75 10.84375 
z
" id="Lato-Medium-101"></path>
      <path d="M 16.046875 41.046875 
Q 18.5 46.046875 21.953125 48.890625 
Q 25.40625 51.75 30.25 51.75 
Q 31.90625 51.75 33.375 51.375 
Q 34.84375 51 35.953125 50.25 
L 35.296875 42.90625 
Q 34.953125 41.546875 33.65625 41.546875 
Q 32.953125 41.546875 31.546875 41.8125 
Q 30.15625 42.09375 28.546875 42.09375 
Q 26.203125 42.09375 24.390625 41.421875 
Q 22.59375 40.75 21.171875 39.421875 
Q 19.75 38.09375 18.640625 36.171875 
Q 17.546875 34.25 16.59375 31.796875 
L 16.59375 0 
L 6.84375 0 
L 6.84375 50.796875 
L 12.453125 50.796875 
Q 14.046875 50.796875 14.625 50.21875 
Q 15.203125 49.65625 15.453125 48.203125 
z
" id="Lato-Medium-114"></path>
      <path id="Lato-Medium-32"></path>
      <path d="M 28.5 51.59375 
Q 34.09375 51.59375 38.625 49.765625 
Q 43.15625 47.953125 46.328125 44.515625 
Q 49.5 41.09375 51.203125 36.265625 
Q 52.90625 31.453125 52.90625 25.453125 
Q 52.90625 19.453125 51.203125 14.59375 
Q 49.5 9.75 46.328125 6.34375 
Q 43.15625 2.953125 38.625 1.125 
Q 34.09375 -0.703125 28.5 -0.703125 
Q 22.84375 -0.703125 18.3125 1.125 
Q 13.796875 2.953125 10.59375 6.34375 
Q 7.40625 9.75 5.671875 14.59375 
Q 3.953125 19.453125 3.953125 25.453125 
Q 3.953125 31.453125 5.671875 36.265625 
Q 7.40625 41.09375 10.59375 44.515625 
Q 13.796875 47.953125 18.3125 49.765625 
Q 22.84375 51.59375 28.5 51.59375 
z
M 28.5 6.90625 
Q 35.703125 6.90625 39.25 11.75 
Q 42.796875 16.59375 42.796875 25.40625 
Q 42.796875 34.203125 39.25 39.078125 
Q 35.703125 43.953125 28.5 43.953125 
Q 21.203125 43.953125 17.625 39.078125 
Q 14.046875 34.203125 14.046875 25.40625 
Q 14.046875 16.59375 17.625 11.75 
Q 21.203125 6.90625 28.5 6.90625 
z
" id="Lato-Medium-111"></path>
      <path d="M 10.203125 0 
L 10.203125 42.796875 
L 4.90625 43.453125 
Q 3.75 43.703125 3.015625 44.265625 
Q 2.296875 44.84375 2.296875 45.953125 
L 2.296875 50 
L 10.203125 50 
L 10.203125 54.59375 
Q 10.203125 58.953125 11.453125 62.34375 
Q 12.703125 65.75 15.015625 68.125 
Q 17.34375 70.5 20.625 71.71875 
Q 23.90625 72.953125 28 72.953125 
Q 31.453125 72.953125 34.34375 71.953125 
L 34.15625 67.046875 
Q 34.09375 66.40625 33.75 66.078125 
Q 33.40625 65.75 32.828125 65.59375 
Q 32.25 65.453125 31.421875 65.421875 
Q 30.59375 65.40625 29.65625 65.40625 
Q 27.40625 65.40625 25.546875 64.84375 
Q 23.703125 64.296875 22.390625 63 
Q 21.09375 61.703125 20.390625 59.578125 
Q 19.703125 57.453125 19.703125 54.296875 
L 19.703125 50 
L 33.953125 50 
L 33.953125 42.90625 
L 20 42.90625 
L 20 0 
z
" id="Lato-Medium-102"></path>
      <path d="M 34.15625 22.546875 
Q 28.203125 22.34375 24.046875 21.625 
Q 19.90625 20.90625 17.296875 19.703125 
Q 14.703125 18.5 13.546875 16.875 
Q 12.40625 15.25 12.40625 13.25 
Q 12.40625 11.34375 13.03125 9.96875 
Q 13.65625 8.59375 14.71875 7.71875 
Q 15.796875 6.84375 17.25 6.4375 
Q 18.703125 6.046875 20.40625 6.046875 
Q 22.65625 6.046875 24.53125 6.5 
Q 26.40625 6.953125 28.046875 7.765625 
Q 29.703125 8.59375 31.203125 9.796875 
Q 32.703125 11 34.15625 12.546875 
z
M 5.546875 43.703125 
Q 9.796875 47.75 14.765625 49.75 
Q 19.75 51.75 25.703125 51.75 
Q 30.046875 51.75 33.390625 50.328125 
Q 36.75 48.90625 39.046875 46.34375 
Q 41.34375 43.796875 42.515625 40.25 
Q 43.703125 36.703125 43.703125 32.40625 
L 43.703125 0 
L 39.34375 0 
Q 37.90625 0 37.15625 0.46875 
Q 36.40625 0.953125 35.953125 2.25 
L 34.90625 6.703125 
Q 32.953125 4.90625 31.046875 3.53125 
Q 29.15625 2.15625 27.078125 1.171875 
Q 25 0.203125 22.640625 -0.296875 
Q 20.296875 -0.796875 17.453125 -0.796875 
Q 14.453125 -0.796875 11.828125 0.015625 
Q 9.203125 0.84375 7.25 2.546875 
Q 5.296875 4.25 4.171875 6.796875 
Q 3.046875 9.34375 3.046875 12.75 
Q 3.046875 15.75 4.671875 18.515625 
Q 6.296875 21.296875 9.96875 23.5 
Q 13.65625 25.703125 19.578125 27.09375 
Q 25.5 28.5 34.15625 28.703125 
L 34.15625 32.40625 
Q 34.15625 38.15625 31.703125 41 
Q 29.25 43.84375 24.5 43.84375 
Q 21.296875 43.84375 19.125 43.046875 
Q 16.953125 42.25 15.375 41.265625 
Q 13.796875 40.296875 12.625 39.5 
Q 11.453125 38.703125 10.203125 38.703125 
Q 9.203125 38.703125 8.46875 39.25 
Q 7.75 39.796875 7.296875 40.546875 
z
" id="Lato-Medium-97"></path>
      <path d="M 42.453125 41.296875 
Q 42 40.75 41.578125 40.421875 
Q 41.15625 40.09375 40.34375 40.09375 
Q 39.546875 40.09375 38.671875 40.71875 
Q 37.796875 41.34375 36.46875 42.0625 
Q 35.15625 42.796875 33.28125 43.421875 
Q 31.40625 44.046875 28.65625 44.046875 
Q 25.046875 44.046875 22.296875 42.75 
Q 19.546875 41.453125 17.71875 39.046875 
Q 15.90625 36.65625 14.953125 33.203125 
Q 14 29.75 14 25.453125 
Q 14 21 15 17.515625 
Q 16 14.046875 17.84375 11.671875 
Q 19.703125 9.296875 22.34375 8.0625 
Q 25 6.84375 28.25 6.84375 
Q 31.40625 6.84375 33.453125 7.625 
Q 35.5 8.40625 36.84375 9.296875 
Q 38.203125 10.203125 39.09375 10.96875 
Q 40 11.75 40.953125 11.75 
Q 42.15625 11.75 42.796875 10.84375 
L 45.59375 7.25 
Q 43.84375 5.09375 41.671875 3.59375 
Q 39.5 2.09375 37.046875 1.140625 
Q 34.59375 0.203125 31.921875 -0.25 
Q 29.25 -0.703125 26.5 -0.703125 
Q 21.75 -0.703125 17.625 1.046875 
Q 13.5 2.796875 10.46875 6.140625 
Q 7.453125 9.5 5.703125 14.375 
Q 3.953125 19.25 3.953125 25.453125 
Q 3.953125 31.09375 5.515625 35.890625 
Q 7.09375 40.703125 10.171875 44.171875 
Q 13.25 47.65625 17.75 49.625 
Q 22.25 51.59375 28.046875 51.59375 
Q 33.5 51.59375 37.640625 49.84375 
Q 41.796875 48.09375 45.046875 44.90625 
z
" id="Lato-Medium-99"></path>
      <path d="M 16.59375 44.34375 
Q 19.796875 47.59375 23.671875 49.59375 
Q 27.546875 51.59375 32.59375 51.59375 
Q 36.796875 51.59375 39.96875 50.1875 
Q 43.15625 48.796875 45.296875 46.265625 
Q 47.453125 43.75 48.546875 40.203125 
Q 49.65625 36.65625 49.65625 32.34375 
L 49.65625 0 
L 39.84375 0 
L 39.84375 32.34375 
Q 39.84375 37.796875 37.34375 40.8125 
Q 34.84375 43.84375 29.703125 43.84375 
Q 25.953125 43.84375 22.671875 42.0625 
Q 19.40625 40.296875 16.59375 37.25 
L 16.59375 0 
L 6.84375 0 
L 6.84375 73.796875 
L 16.59375 73.796875 
z
" id="Lato-Medium-104"></path>
      <path d="M 36.796875 42.046875 
Q 36.40625 41.40625 35.953125 41.125 
Q 35.5 40.84375 34.796875 40.84375 
Q 34 40.84375 33.015625 41.390625 
Q 32.046875 41.953125 30.671875 42.59375 
Q 29.296875 43.25 27.4375 43.796875 
Q 25.59375 44.34375 23.046875 44.34375 
Q 20.953125 44.34375 19.21875 43.8125 
Q 17.5 43.296875 16.296875 42.375 
Q 15.09375 41.453125 14.4375 40.171875 
Q 13.796875 38.90625 13.796875 37.453125 
Q 13.796875 35.546875 14.921875 34.296875 
Q 16.046875 33.046875 17.875 32.140625 
Q 19.703125 31.25 22.015625 30.515625 
Q 24.34375 29.796875 26.765625 29 
Q 29.203125 28.203125 31.515625 27.171875 
Q 33.84375 26.15625 35.671875 24.625 
Q 37.5 23.09375 38.625 20.9375 
Q 39.75 18.796875 39.75 15.703125 
Q 39.75 12.15625 38.46875 9.125 
Q 37.203125 6.09375 34.71875 3.890625 
Q 32.25 1.703125 28.59375 0.453125 
Q 24.953125 -0.796875 20.25 -0.796875 
Q 15 -0.796875 10.546875 0.953125 
Q 6.09375 2.703125 3.09375 5.40625 
L 5.40625 9.15625 
Q 5.796875 9.84375 6.390625 10.21875 
Q 7 10.59375 8 10.59375 
Q 8.953125 10.59375 9.953125 9.890625 
Q 10.953125 9.203125 12.34375 8.375 
Q 13.75 7.546875 15.75 6.875 
Q 17.75 6.203125 20.75 6.203125 
Q 23.25 6.203125 25.09375 6.828125 
Q 26.953125 7.453125 28.171875 8.515625 
Q 29.40625 9.59375 30 11 
Q 30.59375 12.40625 30.59375 13.953125 
Q 30.59375 15.953125 29.46875 17.265625 
Q 28.34375 18.59375 26.515625 19.546875 
Q 24.703125 20.5 22.34375 21.203125 
Q 20 21.90625 17.546875 22.703125 
Q 15.09375 23.5 12.75 24.546875 
Q 10.40625 25.59375 8.578125 27.1875 
Q 6.75 28.796875 5.625 31.09375 
Q 4.5 33.40625 4.5 36.703125 
Q 4.5 39.65625 5.71875 42.34375 
Q 6.953125 45.046875 9.265625 47.09375 
Q 11.59375 49.15625 15.015625 50.375 
Q 18.453125 51.59375 22.84375 51.59375 
Q 27.90625 51.59375 31.96875 50 
Q 36.046875 48.40625 38.953125 45.59375 
z
" id="Lato-Medium-115"></path>
     </defs>
     <g style="fill:#808080;" transform="translate(170.346094 266.959687)scale(0.1 -0.1)">
      <use xlink:href="#Lato-Medium-110"></use>
      <use x="55.950012" xlink:href="#Lato-Medium-117"></use>
      <use x="111.850021" xlink:href="#Lato-Medium-109"></use>
      <use x="194.500031" xlink:href="#Lato-Medium-98"></use>
      <use x="250.700043" xlink:href="#Lato-Medium-101"></use>
      <use x="303.650055" xlink:href="#Lato-Medium-114"></use>
      <use x="340.300064" xlink:href="#Lato-Medium-32"></use>
      <use x="365.550064" xlink:href="#Lato-Medium-111"></use>
      <use x="422.450073" xlink:href="#Lato-Medium-102"></use>
      <use x="457.700073" xlink:href="#Lato-Medium-32"></use>
      <use x="482.950073" xlink:href="#Lato-Medium-98"></use>
      <use x="539.150085" xlink:href="#Lato-Medium-114"></use>
      <use x="575.800095" xlink:href="#Lato-Medium-97"></use>
      <use x="625.750107" xlink:href="#Lato-Medium-110"></use>
      <use x="681.700119" xlink:href="#Lato-Medium-99"></use>
      <use x="729.550125" xlink:href="#Lato-Medium-104"></use>
      <use x="785.500137" xlink:href="#Lato-Medium-101"></use>
      <use x="838.45015" xlink:href="#Lato-Medium-115"></use>
     </g>
    </g>
   </g>
   <g id="matplotlib.axis_2">
    <g id="ytick_1">
     <g id="line2d_9">
      <defs>
       <path d="M 0 0 
L -3.5 0 
" id="m08ecccedf5" style="stroke:#000000;stroke-width:0.8;"></path>
      </defs>
      <g>
       <use style="stroke:#000000;stroke-width:0.8;" x="47.04375" xlink:href="#m08ecccedf5" y="229.611989"></use>
      </g>
     </g>
     <g id="text_10">
      <!-- 0.00 -->
      <defs>
       <path d="M 5.25 5.84375 
Q 5.25 7.203125 5.75 8.390625 
Q 6.25 9.59375 7.125 10.5 
Q 8 11.40625 9.203125 11.921875 
Q 10.40625 12.453125 11.796875 12.453125 
Q 13.15625 12.453125 14.34375 11.921875 
Q 15.546875 11.40625 16.4375 10.5 
Q 17.34375 9.59375 17.875 8.390625 
Q 18.40625 7.203125 18.40625 5.84375 
Q 18.40625 4.453125 17.875 3.25 
Q 17.34375 2.046875 16.4375 1.140625 
Q 15.546875 0.25 14.34375 -0.25 
Q 13.15625 -0.75 11.796875 -0.75 
Q 10.40625 -0.75 9.203125 -0.25 
Q 8 0.25 7.125 1.140625 
Q 6.25 2.046875 5.75 3.25 
Q 5.25 4.453125 5.25 5.84375 
z
" id="Lato-Medium-46"></path>
      </defs>
      <g transform="translate(20.284375 233.301832)scale(0.1 -0.1)">
       <use xlink:href="#Lato-Medium-48"></use>
       <use x="58" xlink:href="#Lato-Medium-46"></use>
       <use x="81.600006" xlink:href="#Lato-Medium-48"></use>
       <use x="139.600006" xlink:href="#Lato-Medium-48"></use>
      </g>
     </g>
    </g>
    <g id="ytick_2">
     <g id="line2d_10">
      <g>
       <use style="stroke:#000000;stroke-width:0.8;" x="47.04375" xlink:href="#m08ecccedf5" y="204.282321"></use>
      </g>
     </g>
     <g id="text_11">
      <!-- 0.05 -->
      <g transform="translate(20.284375 207.972165)scale(0.1 -0.1)">
       <use xlink:href="#Lato-Medium-48"></use>
       <use x="58" xlink:href="#Lato-Medium-46"></use>
       <use x="81.600006" xlink:href="#Lato-Medium-48"></use>
       <use x="139.600006" xlink:href="#Lato-Medium-53"></use>
      </g>
     </g>
    </g>
    <g id="ytick_3">
     <g id="line2d_11">
      <g>
       <use style="stroke:#000000;stroke-width:0.8;" x="47.04375" xlink:href="#m08ecccedf5" y="178.952653"></use>
      </g>
     </g>
     <g id="text_12">
      <!-- 0.10 -->
      <g transform="translate(20.284375 182.642497)scale(0.1 -0.1)">
       <use xlink:href="#Lato-Medium-48"></use>
       <use x="58" xlink:href="#Lato-Medium-46"></use>
       <use x="81.600006" xlink:href="#Lato-Medium-49"></use>
       <use x="139.600006" xlink:href="#Lato-Medium-48"></use>
      </g>
     </g>
    </g>
    <g id="ytick_4">
     <g id="line2d_12">
      <g>
       <use style="stroke:#000000;stroke-width:0.8;" x="47.04375" xlink:href="#m08ecccedf5" y="153.622985"></use>
      </g>
     </g>
     <g id="text_13">
      <!-- 0.15 -->
      <g transform="translate(20.284375 157.312829)scale(0.1 -0.1)">
       <use xlink:href="#Lato-Medium-48"></use>
       <use x="58" xlink:href="#Lato-Medium-46"></use>
       <use x="81.600006" xlink:href="#Lato-Medium-49"></use>
       <use x="139.600006" xlink:href="#Lato-Medium-53"></use>
      </g>
     </g>
    </g>
    <g id="ytick_5">
     <g id="line2d_13">
      <g>
       <use style="stroke:#000000;stroke-width:0.8;" x="47.04375" xlink:href="#m08ecccedf5" y="128.293318"></use>
      </g>
     </g>
     <g id="text_14">
      <!-- 0.20 -->
      <g transform="translate(20.284375 131.983161)scale(0.1 -0.1)">
       <use xlink:href="#Lato-Medium-48"></use>
       <use x="58" xlink:href="#Lato-Medium-46"></use>
       <use x="81.600006" xlink:href="#Lato-Medium-50"></use>
       <use x="139.600006" xlink:href="#Lato-Medium-48"></use>
      </g>
     </g>
    </g>
    <g id="ytick_6">
     <g id="line2d_14">
      <g>
       <use style="stroke:#000000;stroke-width:0.8;" x="47.04375" xlink:href="#m08ecccedf5" y="102.96365"></use>
      </g>
     </g>
     <g id="text_15">
      <!-- 0.25 -->
      <g transform="translate(20.284375 106.653494)scale(0.1 -0.1)">
       <use xlink:href="#Lato-Medium-48"></use>
       <use x="58" xlink:href="#Lato-Medium-46"></use>
       <use x="81.600006" xlink:href="#Lato-Medium-50"></use>
       <use x="139.600006" xlink:href="#Lato-Medium-53"></use>
      </g>
     </g>
    </g>
    <g id="ytick_7">
     <g id="line2d_15">
      <g>
       <use style="stroke:#000000;stroke-width:0.8;" x="47.04375" xlink:href="#m08ecccedf5" y="77.633982"></use>
      </g>
     </g>
     <g id="text_16">
      <!-- 0.30 -->
      <defs>
       <path d="M 6.203125 52.25 
Q 6.953125 57.25 9 61.046875 
Q 11.046875 64.84375 14.140625 67.421875 
Q 17.25 70 21.265625 71.296875 
Q 25.296875 72.59375 29.953125 72.59375 
Q 34.59375 72.59375 38.5 71.265625 
Q 42.40625 69.953125 45.171875 67.515625 
Q 47.953125 65.09375 49.5 61.6875 
Q 51.046875 58.296875 51.046875 54.203125 
Q 51.046875 50.75 50.1875 48.09375 
Q 49.34375 45.453125 47.765625 43.453125 
Q 46.203125 41.453125 43.953125 40.078125 
Q 41.703125 38.703125 38.90625 37.796875 
Q 45.75 35.90625 49.203125 31.625 
Q 52.65625 27.34375 52.65625 20.796875 
Q 52.65625 15.75 50.75 11.71875 
Q 48.84375 7.703125 45.546875 4.921875 
Q 42.25 2.15625 37.875 0.671875 
Q 33.5 -0.796875 28.546875 -0.796875 
Q 22.90625 -0.796875 18.84375 0.578125 
Q 14.796875 1.953125 11.9375 4.421875 
Q 9.09375 6.90625 7.21875 10.375 
Q 5.34375 13.84375 4.046875 18 
L 8.296875 19.796875 
Q 9.953125 20.5 11.5 20.203125 
Q 13.046875 19.90625 13.75 18.453125 
Q 14.5 16.953125 15.46875 15.078125 
Q 16.453125 13.203125 18.09375 11.515625 
Q 19.75 9.84375 22.21875 8.6875 
Q 24.703125 7.546875 28.453125 7.546875 
Q 32.046875 7.546875 34.75 8.71875 
Q 37.453125 9.90625 39.25 11.78125 
Q 41.046875 13.65625 41.9375 15.953125 
Q 42.84375 18.25 42.84375 20.5 
Q 42.84375 23.296875 42.140625 25.640625 
Q 41.453125 28 39.46875 29.671875 
Q 37.5 31.34375 34 32.296875 
Q 30.5 33.25 24.90625 33.25 
L 24.90625 40.34375 
Q 29.5 40.40625 32.671875 41.296875 
Q 35.84375 42.203125 37.796875 43.796875 
Q 39.75 45.40625 40.625 47.59375 
Q 41.5 49.796875 41.5 52.5 
Q 41.5 55.453125 40.59375 57.640625 
Q 39.703125 59.84375 38.078125 61.3125 
Q 36.453125 62.796875 34.21875 63.515625 
Q 32 64.25 29.40625 64.25 
Q 26.796875 64.25 24.59375 63.5 
Q 22.40625 62.75 20.703125 61.390625 
Q 19 60.046875 17.84375 58.1875 
Q 16.703125 56.34375 16.203125 54.203125 
Q 15.5 52.296875 14.421875 51.640625 
Q 13.34375 51 11.34375 51.34375 
z
" id="Lato-Medium-51"></path>
      </defs>
      <g transform="translate(20.284375 81.323826)scale(0.1 -0.1)">
       <use xlink:href="#Lato-Medium-48"></use>
       <use x="58" xlink:href="#Lato-Medium-46"></use>
       <use x="81.600006" xlink:href="#Lato-Medium-51"></use>
       <use x="139.600006" xlink:href="#Lato-Medium-48"></use>
      </g>
     </g>
    </g>
    <g id="ytick_8">
     <g id="line2d_16">
      <g>
       <use style="stroke:#000000;stroke-width:0.8;" x="47.04375" xlink:href="#m08ecccedf5" y="52.304314"></use>
      </g>
     </g>
     <g id="text_17">
      <!-- 0.35 -->
      <g transform="translate(20.284375 55.994158)scale(0.1 -0.1)">
       <use xlink:href="#Lato-Medium-48"></use>
       <use x="58" xlink:href="#Lato-Medium-46"></use>
       <use x="81.600006" xlink:href="#Lato-Medium-51"></use>
       <use x="139.600006" xlink:href="#Lato-Medium-53"></use>
      </g>
     </g>
    </g>
    <g id="ytick_9">
     <g id="line2d_17">
      <g>
       <use style="stroke:#000000;stroke-width:0.8;" x="47.04375" xlink:href="#m08ecccedf5" y="26.974646"></use>
      </g>
     </g>
     <g id="text_18">
      <!-- 0.40 -->
      <defs>
       <path d="M 36.296875 26.203125 
L 36.296875 54.203125 
Q 36.296875 55.65625 36.375 57.28125 
Q 36.453125 58.90625 36.703125 60.65625 
L 11.546875 26.203125 
z
M 55.25 26.203125 
L 55.25 20.546875 
Q 55.25 19.703125 54.703125 19.09375 
Q 54.15625 18.5 53.15625 18.5 
L 44.84375 18.5 
L 44.84375 0 
L 36.296875 0 
L 36.296875 18.5 
L 4.796875 18.5 
Q 3.703125 18.5 2.953125 19.125 
Q 2.203125 19.75 1.953125 20.703125 
L 0.953125 25.703125 
L 35.65625 71.84375 
L 44.84375 71.84375 
L 44.84375 26.203125 
z
" id="Lato-Medium-52"></path>
      </defs>
      <g transform="translate(20.284375 30.66449)scale(0.1 -0.1)">
       <use xlink:href="#Lato-Medium-48"></use>
       <use x="58" xlink:href="#Lato-Medium-46"></use>
       <use x="81.600006" xlink:href="#Lato-Medium-52"></use>
       <use x="139.600006" xlink:href="#Lato-Medium-48"></use>
      </g>
     </g>
    </g>
    <g id="text_19">
     <!-- miss rate -->
     <defs>
      <path d="M 17.046875 50.796875 
L 17.046875 0 
L 7.296875 0 
L 7.296875 50.796875 
z
M 18.90625 66.5 
Q 18.90625 65.15625 18.34375 63.921875 
Q 17.796875 62.703125 16.875 61.765625 
Q 15.953125 60.84375 14.703125 60.3125 
Q 13.453125 59.796875 12.09375 59.796875 
Q 10.75 59.796875 9.546875 60.3125 
Q 8.34375 60.84375 7.421875 61.765625 
Q 6.5 62.703125 5.96875 63.921875 
Q 5.453125 65.15625 5.453125 66.5 
Q 5.453125 67.90625 5.96875 69.125 
Q 6.5 70.34375 7.421875 71.265625 
Q 8.34375 72.203125 9.546875 72.71875 
Q 10.75 73.25 12.09375 73.25 
Q 13.453125 73.25 14.703125 72.71875 
Q 15.953125 72.203125 16.875 71.265625 
Q 17.796875 70.34375 18.34375 69.125 
Q 18.90625 67.90625 18.90625 66.5 
z
" id="Lato-Medium-105"></path>
      <path d="M 22.75 -0.796875 
Q 16.59375 -0.796875 13.265625 2.640625 
Q 9.953125 6.09375 9.953125 12.5 
L 9.953125 42.90625 
L 4.046875 42.90625 
Q 3.203125 42.90625 2.625 43.421875 
Q 2.046875 43.953125 2.046875 45 
L 2.046875 48.953125 
L 10.296875 50.09375 
L 12.5 65.25 
Q 12.703125 66.09375 13.265625 66.5625 
Q 13.84375 67.046875 14.75 67.046875 
L 19.703125 67.046875 
L 19.703125 50 
L 34.09375 50 
L 34.09375 42.90625 
L 19.703125 42.90625 
L 19.703125 13.15625 
Q 19.703125 10.15625 21.171875 8.671875 
Q 22.65625 7.203125 24.953125 7.203125 
Q 26.296875 7.203125 27.265625 7.546875 
Q 28.25 7.90625 28.953125 8.328125 
Q 29.65625 8.75 30.15625 9.09375 
Q 30.65625 9.453125 31.046875 9.453125 
Q 31.546875 9.453125 31.8125 9.21875 
Q 32.09375 9 32.40625 8.5 
L 35.296875 3.796875 
Q 32.90625 1.59375 29.59375 0.390625 
Q 26.296875 -0.796875 22.75 -0.796875 
z
" id="Lato-Medium-116"></path>
     </defs>
     <g style="fill:#808080;" transform="translate(14.579687 150.521719)rotate(-90)scale(0.1 -0.1)">
      <use xlink:href="#Lato-Medium-109"></use>
      <use x="82.650009" xlink:href="#Lato-Medium-105"></use>
      <use x="107.000015" xlink:href="#Lato-Medium-115"></use>
      <use x="150.450012" xlink:href="#Lato-Medium-115"></use>
      <use x="193.900009" xlink:href="#Lato-Medium-32"></use>
      <use x="219.150009" xlink:href="#Lato-Medium-114"></use>
      <use x="255.800018" xlink:href="#Lato-Medium-97"></use>
      <use x="305.750031" xlink:href="#Lato-Medium-116"></use>
      <use x="341.950027" xlink:href="#Lato-Medium-101"></use>
     </g>
    </g>
   </g>
   <g id="line2d_18">
    <path clip-path="url(#pbda36c3348)" d="M 62.261932 229.611989 
L 62.297739 229.611989 
L 62.387258 102.96365 
L 62.423066 128.293318 
L 62.440969 137.513317 
L 62.458873 102.96365 
L 62.476777 112.690242 
L 62.566295 60.764423 
L 62.602103 77.633982 
L 62.620007 84.878267 
L 62.63791 68.413983 
L 62.655814 75.455631 
L 62.727429 79.508377 
L 62.78114 60.764423 
L 62.870659 70.389697 
L 62.816948 55.445193 
L 62.906467 65.323763 
L 63.031793 45.414645 
L 63.085504 57.16761 
L 63.157119 50.835194 
L 63.282445 37.461129 
L 63.35406 33.509701 
L 63.407771 42.577722 
L 63.533098 32.597833 
L 63.586809 40.500689 
L 63.658424 37.258492 
L 63.712135 31.939261 
L 63.747943 36.59992 
L 63.78375 35.232118 
L 63.944884 48.302227 
L 63.998595 43.540249 
L 64.034402 47.238381 
L 64.052306 49.062117 
L 64.106017 44.502777 
L 64.123921 46.275853 
L 64.249247 39.63948 
L 64.320862 37.461129 
L 64.374574 42.324425 
L 64.4999 36.59992 
L 64.517803 38.1197 
L 64.571515 34.776184 
L 64.589418 36.245305 
L 64.607322 33.864316 
L 64.661033 38.221019 
L 64.678937 35.89069 
L 64.840071 44.452117 
L 64.714745 35.029481 
L 64.875878 43.540249 
L 64.965397 39.63948 
L 64.983301 40.905964 
L 65.162338 46.225194 
L 65.287664 41.868491 
L 65.305568 42.982997 
L 65.359279 40.348711 
L 65.377183 41.463216 
L 65.430894 38.93025 
L 65.466702 41.057942 
L 65.484606 42.071128 
L 65.538317 39.63948 
L 65.556221 40.652667 
L 65.681547 37.005195 
L 65.806873 41.20992 
L 65.717354 36.397283 
L 65.824777 39.63948 
L 64.052306 49.062117 
L 65.84268 40.602008 
L 67.633055 47.846293 
L 69.423429 42.628381 
L 71.213803 43.540249 
L 73.004178 45.870579 
L 76.584926 46.225194 
L 78.375301 50.835194 
L 80.165675 49.973985 
L 81.956049 66.286291 
L 83.746424 79.457718 
L 85.536798 90.602772 
L 87.327172 98.35365 
L 89.117547 104.736727 
L 90.907921 108.434858 
L 92.698295 113.754088 
L 94.48867 118.516066 
L 96.279044 122.77145 
L 98.069418 126.317603 
L 101.650167 135.486943 
L 103.440541 139.590349 
L 107.02129 146.581338 
L 108.811664 149.772876 
L 110.602039 151.393975 
L 112.392413 152.761777 
L 114.182787 148.253096 
L 115.973162 150.431447 
L 117.763536 152.153865 
L 119.55391 153.622985 
L 121.344285 151.191337 
L 123.134659 152.153865 
L 124.925033 149.012986 
L 126.715408 147.037272 
L 130.296156 142.325954 
L 132.086531 138.577163 
L 133.876905 135.284306 
L 137.457654 129.407823 
L 139.248028 126.216285 
L 141.038402 124.493867 
L 142.828777 125.507054 
L 144.619151 125.912329 
L 148.1999 127.482768 
L 151.780648 128.394636 
L 157.151771 134.068482 
L 158.942146 133.865844 
L 160.73252 131.434196 
L 164.313269 130.42101 
L 167.894017 132.751339 
L 169.684392 132.346064 
L 171.474766 132.447383 
L 173.26514 132.244746 
L 175.055515 130.572988 
L 176.845889 129.154526 
L 178.636263 127.229472 
L 180.426638 126.165625 
L 182.217012 126.722878 
L 185.797761 127.432109 
L 187.588135 126.064307 
L 189.378509 125.608373 
L 191.168884 124.949801 
L 192.959258 124.544527 
L 196.540007 124.240571 
L 198.330381 125.557713 
L 200.120755 126.5709 
L 201.91113 125.659032 
L 203.701504 125.557713 
L 207.282253 127.736065 
L 209.072627 128.293318 
L 210.863001 126.824197 
L 214.44375 127.229472 
L 216.234124 127.837384 
L 221.605247 125.507054 
L 223.395622 126.165625 
L 225.185996 125.760351 
L 228.766745 124.088593 
L 230.557119 125.101779 
L 232.347493 125.962988 
L 235.928242 126.114966 
L 237.718616 125.861669 
L 241.299365 124.797823 
L 243.089739 123.581999 
L 244.880114 123.683318 
L 248.460862 125.608373 
L 250.251237 126.165625 
L 252.041611 124.797823 
L 253.831985 124.088593 
L 255.62236 124.341889 
L 257.412734 124.848483 
L 259.203108 124.240571 
L 260.993483 124.341889 
L 262.783857 123.784637 
L 264.574231 123.581999 
L 266.364606 122.467494 
L 268.15498 122.366175 
L 269.945354 122.568813 
L 271.735729 122.01156 
L 273.526103 121.960901 
L 275.316477 121.707604 
L 277.106852 122.01156 
L 278.897226 121.606285 
L 280.6876 121.555626 
L 282.477975 121.352989 
L 286.058723 122.163538 
L 287.849098 122.112879 
L 291.429846 121.555626 
L 296.800969 119.579912 
L 298.591344 119.985187 
L 300.381718 119.174637 
L 302.172092 118.16145 
L 303.962467 118.617384 
L 309.33359 120.846395 
L 311.123964 120.643758 
L 312.914338 119.934527 
L 314.704713 119.833209 
L 318.285461 121.049033 
L 320.075836 121.656945 
L 323.656584 121.758263 
L 325.446959 122.416835 
L 327.237333 122.568813 
L 329.027707 122.416835 
L 330.818082 122.062219 
L 334.39883 123.278043 
L 336.189205 123.227384 
L 339.769953 124.037933 
L 341.560328 123.784637 
L 343.350702 123.126065 
L 345.141076 123.227384 
L 350.512199 122.619472 
L 352.302574 122.264857 
L 354.092948 122.315516 
L 355.883322 121.758263 
L 359.464071 122.619472 
L 363.04482 122.822109 
L 364.835194 122.720791 
L 366.625568 122.315516 
L 366.625568 122.315516 
" style="fill:none;stroke:#1f77b4;stroke-linecap:square;stroke-opacity:0.5;stroke-width:1.5;"></path>
   </g>
   <g id="line2d_19">
    <path clip-path="url(#pbda36c3348)" d="M 62.261932 229.611989 
L 62.297739 229.611989 
L 62.387258 102.96365 
L 62.423066 128.293318 
L 62.440969 137.513317 
L 62.458873 102.96365 
L 62.476777 112.690242 
L 62.566295 60.764423 
L 62.602103 77.633982 
L 62.620007 84.878267 
L 62.63791 68.413983 
L 62.655814 75.455631 
L 62.745333 48.707501 
L 62.78114 60.764423 
L 62.799044 66.184972 
L 62.852755 50.835194 
L 62.906467 65.323763 
L 62.978082 81.332114 
L 63.013889 76.468817 
L 63.031793 68.413983 
L 63.103408 81.838707 
L 63.228734 100.68398 
L 63.264541 96.276617 
L 63.282445 89.842882 
L 63.35406 98.860244 
L 63.389868 95.060793 
L 63.551001 111.626396 
L 63.568905 106.408485 
L 63.64052 112.690242 
L 63.909076 126.114966 
L 63.998595 115.88178 
L 64.034402 118.16145 
L 64.195536 127.38145 
L 64.231344 124.645845 
L 64.249247 121.049033 
L 64.320862 124.797823 
L 64.35667 122.264857 
L 64.589418 132.953976 
L 64.64313 131.332878 
L 64.732648 134.828372 
L 64.857975 129.002548 
L 64.875878 129.66112 
L 64.893782 126.925515 
L 64.911686 127.634746 
L 65.037012 122.467494 
L 65.07282 120.593099 
L 65.305568 128.90123 
L 65.323472 126.520241 
L 65.395087 128.85057 
L 65.466702 128.293318 
L 65.645739 133.612548 
L 65.735258 136.094855 
L 65.771066 134.473756 
L 65.824777 130.826284 
L 64.052306 119.275956 
L 65.84268 131.332878 
L 67.633055 120.238483 
L 69.423429 126.013647 
L 71.213803 133.561888 
L 73.004178 134.372438 
L 74.794552 136.398811 
L 76.584926 137.26002 
L 78.375301 136.297493 
L 80.165675 135.993537 
L 81.956049 144.504305 
L 83.746424 151.140678 
L 85.536798 156.003974 
L 87.327172 156.561227 
L 89.117547 158.081007 
L 90.907921 156.206611 
L 94.48867 160.15804 
L 96.279044 162.184413 
L 98.069418 163.298918 
L 101.650167 169.074083 
L 103.440541 171.708368 
L 108.811664 178.192763 
L 110.602039 178.598038 
L 112.392413 178.800675 
L 114.182787 173.734742 
L 115.973162 174.59595 
L 117.763536 175.203862 
L 119.55391 175.507818 
L 121.344285 172.062983 
L 123.134659 171.657709 
L 124.925033 168.668808 
L 126.715408 167.301006 
L 128.505782 163.90683 
L 130.296156 161.373864 
L 132.086531 162.336391 
L 133.876905 163.14694 
L 135.667279 163.400237 
L 137.457654 164.109468 
L 139.248028 165.325292 
L 141.038402 165.933204 
L 142.828777 165.781226 
L 144.619151 164.008149 
L 146.409525 163.653534 
L 148.1999 163.450896 
L 149.990274 162.640347 
L 151.780648 162.032435 
L 157.151771 165.781226 
L 158.942146 166.034523 
L 160.73252 166.541116 
L 162.522894 165.223973 
L 164.313269 164.210786 
L 166.103643 164.008149 
L 167.894017 164.362764 
L 169.684392 163.349578 
L 171.474766 162.539028 
L 173.26514 161.171226 
L 175.055515 159.499468 
L 176.845889 157.371776 
L 178.636263 157.82771 
L 180.426638 157.777051 
L 184.007386 156.763864 
L 185.797761 156.510567 
L 187.588135 155.244084 
L 189.378509 153.724304 
L 191.168884 152.50848 
L 192.959258 151.545953 
L 194.749632 151.039359 
L 196.540007 150.178151 
L 200.120755 151.74859 
L 201.91113 151.241997 
L 203.701504 151.393975 
L 205.491878 151.849909 
L 207.282253 152.559139 
L 209.072627 153.015073 
L 210.863001 153.217711 
L 212.653376 152.559139 
L 216.234124 152.407161 
L 219.814873 150.684744 
L 221.605247 150.22881 
L 223.395622 150.178151 
L 225.185996 149.772876 
L 228.766745 146.986612 
L 230.557119 147.493206 
L 232.347493 147.847821 
L 234.137868 147.645184 
L 235.928242 147.695843 
L 237.718616 146.935953 
L 239.508991 146.024085 
L 241.299365 145.264195 
L 243.089739 145.66947 
L 244.880114 145.872107 
L 246.670488 146.682656 
L 252.041611 148.607711 
L 253.831985 148.607711 
L 255.62236 148.202436 
L 257.412734 148.506392 
L 259.203108 148.405074 
L 260.993483 147.999799 
L 262.783857 146.935953 
L 264.574231 146.125404 
L 266.364606 146.277382 
L 268.15498 145.821448 
L 269.945354 145.61881 
L 271.735729 144.605624 
L 273.526103 144.048371 
L 275.316477 143.795074 
L 277.106852 143.744415 
L 282.477975 141.870019 
L 287.849098 141.920679 
L 289.639472 141.718041 
L 291.429846 140.958151 
L 293.220221 140.552877 
L 300.381718 141.05947 
L 302.172092 141.667382 
L 303.962467 141.870019 
L 309.33359 143.592437 
L 311.123964 143.440459 
L 314.704713 143.744415 
L 320.075836 144.85892 
L 323.656584 144.301668 
L 325.446959 144.706942 
L 329.027707 144.402986 
L 330.818082 143.947052 
L 332.608456 144.251008 
L 334.39883 144.706942 
L 336.189205 144.504305 
L 339.769953 144.706942 
L 343.350702 143.744415 
L 345.141076 143.491118 
L 346.931451 142.781888 
L 350.512199 141.971338 
L 352.302574 141.262107 
L 354.092948 141.110129 
L 355.883322 140.755514 
L 361.254445 141.110129 
L 363.04482 141.008811 
L 366.625568 139.995624 
L 366.625568 139.995624 
" style="fill:none;stroke:#ff7f0e;stroke-linecap:square;stroke-opacity:0.5;stroke-width:1.5;"></path>
   </g>
   <g id="line2d_20">
    <path clip-path="url(#pbda36c3348)" d="M 62.261932 229.611989 
L 62.297739 229.611989 
L 62.387258 102.96365 
L 62.423066 128.293318 
L 62.476777 151.697931 
L 62.49468 121.049033 
L 62.512584 128.293318 
L 62.602103 102.96365 
L 62.620007 108.992111 
L 62.655814 119.478593 
L 62.673718 102.96365 
L 62.691622 108.029583 
L 62.709525 93.237057 
L 62.78114 111.423759 
L 62.799044 115.223209 
L 62.816948 102.96365 
L 62.834852 106.813759 
L 62.852755 95.516727 
L 62.92437 109.650682 
L 62.960178 102.96365 
L 63.049697 117.046945 
L 63.0676 108.485517 
L 63.139215 118.16145 
L 63.371964 141.160789 
L 63.389868 134.625735 
L 63.479386 141.515404 
L 63.551001 146.328041 
L 63.568905 140.603536 
L 63.64052 145.162876 
L 63.730039 150.279469 
L 63.78375 147.13859 
L 63.801654 148.101118 
L 63.819557 143.237822 
L 63.873269 146.125404 
L 63.998595 136.550789 
L 64.016499 137.513317 
L 64.034402 133.359251 
L 64.123921 137.918591 
L 64.141825 134.017822 
L 64.338766 143.035184 
L 64.35667 139.438371 
L 64.625226 149.620898 
L 64.750552 146.3787 
L 64.768456 146.986612 
L 64.78636 143.997712 
L 64.804263 144.605624 
L 64.822167 141.667382 
L 64.92959 141.81936 
L 64.983301 143.541778 
L 65.001205 140.806173 
L 65.019108 141.363426 
L 65.037012 138.678481 
L 65.126531 141.515404 
L 65.144434 138.931778 
L 65.162338 139.489031 
L 65.180242 136.956064 
L 65.233953 138.627822 
L 65.251857 136.145515 
L 65.341376 138.830459 
L 65.645739 144.301668 
L 65.735258 146.480019 
L 65.771066 144.757602 
L 65.788969 142.62991 
L 65.824777 143.491118 
L 64.052306 134.321778 
L 65.84268 143.896393 
L 67.633055 133.663207 
L 69.423429 142.427272 
L 71.213803 143.643096 
L 73.004178 141.971338 
L 74.794552 142.883206 
L 76.584926 142.325954 
L 78.375301 137.411998 
L 80.165675 135.993537 
L 81.956049 144.504305 
L 83.746424 151.140678 
L 85.536798 156.003974 
L 87.327172 157.675732 
L 89.117547 159.752765 
L 90.907921 159.043534 
L 92.698295 161.120567 
L 96.279044 164.869358 
L 98.069418 166.085182 
L 101.650167 171.607049 
L 103.440541 174.140016 
L 108.811664 180.320455 
L 110.602039 180.827049 
L 112.392413 181.131005 
L 114.182787 177.736829 
L 115.973162 178.800675 
L 119.55391 179.611224 
L 121.344285 176.672983 
L 123.134659 176.267708 
L 124.925033 173.481445 
L 126.715408 172.518917 
L 128.505782 170.188588 
L 130.296156 168.972764 
L 133.876905 170.492544 
L 135.667279 170.7965 
L 137.457654 171.505731 
L 139.248028 172.468258 
L 141.038402 173.07617 
L 142.828777 172.31628 
L 144.619151 170.948478 
L 148.1999 169.783313 
L 149.990274 169.428698 
L 151.780648 168.922105 
L 155.361397 171.049797 
L 157.151771 172.164302 
L 158.942146 172.468258 
L 160.73252 173.07617 
L 162.522894 171.911005 
L 164.313269 170.593863 
L 166.103643 170.745841 
L 167.894017 171.252434 
L 169.684392 170.340566 
L 171.474766 169.833973 
L 173.26514 168.263533 
L 175.055515 167.199687 
L 176.845889 165.983863 
L 178.636263 166.389138 
L 180.426638 166.23716 
L 182.217012 165.882545 
L 184.007386 165.173314 
L 185.797761 164.768039 
L 187.588135 163.856171 
L 189.378509 162.38705 
L 192.959258 160.512655 
L 194.749632 159.955402 
L 196.540007 158.840897 
L 198.330381 159.651446 
L 200.120755 160.208699 
L 201.91113 159.600787 
L 203.701504 159.296831 
L 205.491878 159.702106 
L 207.282253 160.310018 
L 210.863001 160.715292 
L 212.653376 160.006062 
L 216.234124 160.006062 
L 218.024499 159.499468 
L 219.814873 158.5876 
L 221.605247 157.979688 
L 223.395622 157.929029 
L 225.185996 157.321117 
L 226.97637 156.206611 
L 228.766745 155.801337 
L 230.557119 156.358589 
L 232.347493 156.561227 
L 234.137868 156.105293 
L 235.928242 156.105293 
L 241.299365 154.484194 
L 244.880114 155.142765 
L 246.670488 155.851996 
L 250.251237 156.763864 
L 252.041611 157.422435 
L 253.831985 157.321117 
L 255.62236 156.915842 
L 257.412734 157.017161 
L 259.203108 156.966501 
L 264.574231 155.041447 
L 266.364606 154.990787 
L 268.15498 154.534853 
L 269.945354 154.433535 
L 271.735729 153.825623 
L 273.526103 153.724304 
L 275.316477 153.774963 
L 277.106852 153.673645 
L 278.897226 152.863095 
L 280.6876 152.305843 
L 282.477975 151.951227 
L 286.058723 152.001887 
L 287.849098 151.697931 
L 289.639472 151.545953 
L 293.220221 150.532766 
L 295.010595 150.380788 
L 300.381718 150.938041 
L 302.172092 151.495293 
L 303.962467 151.596612 
L 307.543215 152.457821 
L 309.33359 153.015073 
L 311.123964 152.913755 
L 314.704713 153.167051 
L 320.075836 154.180238 
L 323.656584 153.572326 
L 325.446959 154.02826 
L 327.237333 153.876282 
L 329.027707 153.572326 
L 330.818082 152.964414 
L 334.39883 153.673645 
L 337.979579 153.572326 
L 339.769953 153.673645 
L 341.560328 153.26837 
L 343.350702 153.065733 
L 346.931451 152.305843 
L 350.512199 151.900568 
L 354.092948 151.140678 
L 355.883322 150.9887 
L 357.673697 151.090019 
L 359.464071 151.343315 
L 364.835194 150.938041 
L 366.625568 150.482107 
L 366.625568 150.482107 
" style="fill:none;stroke:#2ca02c;stroke-linecap:square;stroke-opacity:0.5;stroke-width:1.5;"></path>
   </g>
   <g id="line2d_21">
    <path clip-path="url(#pbda36c3348)" d="M 62.261932 229.611989 
L 62.297739 229.611989 
L 62.387258 102.96365 
L 62.423066 128.293318 
L 62.476777 151.697931 
L 62.49468 121.049033 
L 62.512584 128.293318 
L 62.602103 102.96365 
L 62.620007 108.992111 
L 62.655814 119.478593 
L 62.673718 102.96365 
L 62.691622 108.029583 
L 62.709525 93.237057 
L 62.78114 111.423759 
L 62.799044 115.223209 
L 62.816948 102.96365 
L 62.834852 106.813759 
L 62.852755 95.516727 
L 62.92437 109.650682 
L 62.960178 102.96365 
L 63.049697 117.046945 
L 63.0676 108.485517 
L 63.139215 118.16145 
L 63.371964 141.160789 
L 63.389868 134.625735 
L 63.479386 141.515404 
L 63.551001 146.328041 
L 63.568905 140.603536 
L 63.64052 145.162876 
L 63.730039 150.279469 
L 63.78375 147.13859 
L 63.801654 148.101118 
L 63.819557 143.237822 
L 63.873269 146.125404 
L 64.034402 128.293318 
L 64.195536 136.652108 
L 64.231344 133.764526 
L 64.249247 130.117054 
L 64.338766 134.372438 
L 64.35667 130.876944 
L 64.446189 134.879031 
L 64.625226 142.021997 
L 64.696841 140.856833 
L 64.732648 142.123316 
L 64.750552 139.134415 
L 64.768456 139.792987 
L 64.857975 132.447383 
L 64.911686 134.423097 
L 65.037012 128.951889 
L 65.126531 132.092768 
L 65.162338 130.167713 
L 65.180242 127.685406 
L 65.269761 130.674306 
L 65.323472 129.458482 
L 65.448798 133.40991 
L 65.466702 131.13024 
L 65.556221 133.764526 
L 65.735258 138.678481 
L 65.771066 137.057383 
L 65.824777 133.359251 
L 64.052306 129.306504 
L 65.84268 133.815185 
L 67.633055 126.925515 
L 69.423429 136.145515 
L 71.213803 139.641009 
L 73.004178 138.577163 
L 74.794552 138.577163 
L 76.584926 139.185075 
L 78.375301 137.969251 
L 80.165675 135.486943 
L 81.956049 144.048371 
L 83.746424 150.735403 
L 85.536798 155.649359 
L 87.327172 156.915842 
L 89.117547 159.094194 
L 90.907921 158.435622 
L 94.48867 162.083094 
L 96.279044 164.058808 
L 98.069418 165.325292 
L 103.440541 173.481445 
L 108.811664 179.763202 
L 110.602039 180.269796 
L 112.392413 180.573752 
L 114.182787 177.027598 
L 115.973162 177.787488 
L 117.763536 177.838148 
L 119.55391 178.192763 
L 121.344285 175.305181 
L 123.134659 174.798588 
L 124.925033 171.607049 
L 126.715408 170.948478 
L 128.505782 168.415511 
L 130.296156 167.250347 
L 133.876905 168.820786 
L 135.667279 169.226061 
L 137.457654 169.935291 
L 139.248028 170.948478 
L 141.038402 171.607049 
L 142.828777 171.100456 
L 144.619151 169.378039 
L 151.780648 167.098369 
L 155.361397 169.327379 
L 157.151771 170.441885 
L 158.942146 170.7965 
L 160.73252 171.303093 
L 162.522894 170.289907 
L 164.313269 168.719467 
L 166.103643 168.719467 
L 167.894017 169.175401 
L 169.684392 168.263533 
L 171.474766 167.655621 
L 175.055515 164.565402 
L 176.845889 163.349578 
L 178.636263 163.856171 
L 180.426638 163.90683 
L 182.217012 163.552215 
L 184.007386 162.944303 
L 185.797761 162.589688 
L 187.588135 161.576501 
L 189.378509 160.10738 
L 192.959258 157.979688 
L 194.749632 157.523754 
L 196.540007 156.611886 
L 198.330381 157.422435 
L 200.120755 158.081007 
L 201.91113 157.523754 
L 203.701504 157.422435 
L 205.491878 157.726392 
L 207.282253 158.334304 
L 210.863001 158.891556 
L 212.653376 158.232985 
L 216.234124 158.030348 
L 218.024499 157.473095 
L 219.814873 156.409249 
L 221.605247 155.54804 
L 223.395622 155.294743 
L 225.185996 154.737491 
L 226.97637 153.471007 
L 228.766745 152.964414 
L 230.557119 153.572326 
L 232.347493 153.774963 
L 234.137868 153.319029 
L 235.928242 153.217711 
L 237.718616 152.50848 
L 239.508991 151.951227 
L 241.299365 151.241997 
L 243.089739 151.647271 
L 244.880114 151.900568 
L 246.670488 152.660458 
L 252.041611 154.281557 
L 253.831985 154.281557 
L 255.62236 153.622985 
L 257.412734 153.825623 
L 259.203108 153.724304 
L 260.993483 153.319029 
L 264.574231 151.951227 
L 266.364606 152.052546 
L 268.15498 151.495293 
L 269.945354 151.343315 
L 271.735729 150.684744 
L 273.526103 150.482107 
L 275.316477 150.583425 
L 277.106852 150.482107 
L 280.6876 149.316942 
L 282.477975 148.911667 
L 286.058723 148.911667 
L 287.849098 148.455733 
L 289.639472 148.202436 
L 291.429846 147.543865 
L 293.220221 147.087931 
L 295.010595 147.13859 
L 300.381718 147.746502 
L 302.172092 148.303755 
L 303.962467 148.455733 
L 309.33359 149.924854 
L 311.123964 149.772876 
L 314.704713 150.026173 
L 320.075836 151.039359 
L 323.656584 150.532766 
L 325.446959 150.887381 
L 329.027707 150.583425 
L 330.818082 149.924854 
L 334.39883 150.684744 
L 336.189205 150.431447 
L 337.979579 150.330129 
L 339.769953 150.482107 
L 341.560328 150.026173 
L 343.350702 149.823535 
L 348.721825 148.70903 
L 350.512199 148.506392 
L 352.302574 147.999799 
L 355.883322 147.645184 
L 357.673697 147.746502 
L 359.464071 147.999799 
L 364.835194 147.442546 
L 366.625568 146.935953 
L 366.625568 146.935953 
" style="fill:none;stroke:#d62728;stroke-linecap:square;stroke-opacity:0.5;stroke-width:1.5;"></path>
   </g>
   <g id="patch_3">
    <path d="M 47.04375 239.495625 
L 47.04375 22.055625 
" style="fill:none;stroke:#000000;stroke-linecap:square;stroke-linejoin:miter;stroke-width:0.8;"></path>
   </g>
   <g id="patch_4">
    <path d="M 381.84375 239.495625 
L 381.84375 22.055625 
" style="fill:none;stroke:#000000;stroke-linecap:square;stroke-linejoin:miter;stroke-width:0.8;"></path>
   </g>
   <g id="patch_5">
    <path d="M 47.04375 239.495625 
L 381.84375 239.495625 
" style="fill:none;stroke:#000000;stroke-linecap:square;stroke-linejoin:miter;stroke-width:0.8;"></path>
   </g>
   <g id="patch_6">
    <path d="M 47.04375 22.055625 
L 381.84375 22.055625 
" style="fill:none;stroke:#000000;stroke-linecap:square;stroke-linejoin:miter;stroke-width:0.8;"></path>
   </g>
   <g id="text_20">
    <!-- QSORT -->
    <defs>
     <path d="M 15.34375 35.90625 
Q 15.34375 29.453125 17.09375 24.375 
Q 18.84375 19.296875 22.09375 15.75 
Q 25.34375 12.203125 29.921875 10.328125 
Q 34.5 8.453125 40.15625 8.453125 
Q 45.796875 8.453125 50.375 10.328125 
Q 54.953125 12.203125 58.171875 15.75 
Q 61.40625 19.296875 63.15625 24.375 
Q 64.90625 29.453125 64.90625 35.90625 
Q 64.90625 42.296875 63.15625 47.390625 
Q 61.40625 52.5 58.171875 56.046875 
Q 54.953125 59.59375 50.375 61.5 
Q 45.796875 63.40625 40.15625 63.40625 
Q 34.5 63.40625 29.921875 61.5 
Q 25.34375 59.59375 22.09375 56.046875 
Q 18.84375 52.5 17.09375 47.390625 
Q 15.34375 42.296875 15.34375 35.90625 
z
M 79.25 -14.59375 
L 70.453125 -14.59375 
Q 68.5 -14.59375 67 -14.0625 
Q 65.5 -13.546875 64.203125 -12.15625 
L 52.09375 1.046875 
Q 46.59375 -0.75 40.15625 -0.75 
Q 32.203125 -0.75 25.625 1.953125 
Q 19.046875 4.65625 14.375 9.53125 
Q 9.703125 14.40625 7.09375 21.125 
Q 4.5 27.84375 4.5 35.90625 
Q 4.5 43.90625 7.09375 50.65625 
Q 9.703125 57.40625 14.375 62.28125 
Q 19.046875 67.15625 25.625 69.875 
Q 32.203125 72.59375 40.15625 72.59375 
Q 48.15625 72.59375 54.703125 69.875 
Q 61.25 67.15625 65.953125 62.28125 
Q 70.65625 57.40625 73.21875 50.65625 
Q 75.796875 43.90625 75.796875 35.90625 
Q 75.796875 30.90625 74.765625 26.375 
Q 73.75 21.84375 71.84375 17.9375 
Q 69.953125 14.046875 67.171875 10.84375 
Q 64.40625 7.65625 60.90625 5.25 
z
" id="Lato-Medium-81"></path>
     <path d="M 46 60.09375 
Q 45.5 59.25 44.953125 58.84375 
Q 44.40625 58.453125 43.546875 58.453125 
Q 42.65625 58.453125 41.5 59.265625 
Q 40.34375 60.09375 38.625 61.125 
Q 36.90625 62.15625 34.5 62.96875 
Q 32.09375 63.796875 28.75 63.796875 
Q 25.59375 63.796875 23.21875 62.96875 
Q 20.84375 62.15625 19.25 60.71875 
Q 17.65625 59.296875 16.828125 57.375 
Q 16 55.453125 16 53.203125 
Q 16 50.296875 17.46875 48.390625 
Q 18.953125 46.5 21.34375 45.140625 
Q 23.75 43.796875 26.796875 42.796875 
Q 29.84375 41.796875 33.046875 40.71875 
Q 36.25 39.65625 39.296875 38.25 
Q 42.34375 36.84375 44.75 34.71875 
Q 47.15625 32.59375 48.625 29.515625 
Q 50.09375 26.453125 50.09375 22 
Q 50.09375 17.25 48.46875 13.09375 
Q 46.84375 8.953125 43.75 5.84375 
Q 40.65625 2.75 36.125 0.96875 
Q 31.59375 -0.796875 25.84375 -0.796875 
Q 22.40625 -0.796875 19.15625 -0.125 
Q 15.90625 0.546875 13 1.765625 
Q 10.09375 3 7.5625 4.71875 
Q 5.046875 6.453125 3.046875 8.59375 
L 6.09375 13.703125 
Q 6.546875 14.296875 7.171875 14.6875 
Q 7.796875 15.09375 8.59375 15.09375 
Q 9.65625 15.09375 11.03125 14 
Q 12.40625 12.90625 14.421875 11.578125 
Q 16.453125 10.25 19.265625 9.140625 
Q 22.09375 8.046875 26.15625 8.046875 
Q 29.453125 8.046875 32.046875 8.921875 
Q 34.65625 9.796875 36.421875 11.421875 
Q 38.203125 13.046875 39.140625 15.34375 
Q 40.09375 17.65625 40.09375 20.453125 
Q 40.09375 23.59375 38.640625 25.59375 
Q 37.203125 27.59375 34.796875 28.9375 
Q 32.40625 30.296875 29.34375 31.25 
Q 26.296875 32.203125 23.09375 33.21875 
Q 19.90625 34.25 16.84375 35.59375 
Q 13.796875 36.953125 11.390625 39.125 
Q 9 41.296875 7.546875 44.5625 
Q 6.09375 47.84375 6.09375 52.65625 
Q 6.09375 56.5 7.59375 60.09375 
Q 9.09375 63.703125 11.96875 66.46875 
Q 14.84375 69.25 19.046875 70.921875 
Q 23.25 72.59375 28.65625 72.59375 
Q 34.703125 72.59375 39.765625 70.671875 
Q 44.84375 68.75 48.59375 65.15625 
z
" id="Lato-Medium-83"></path>
     <path d="M 75.75 35.90625 
Q 75.75 27.84375 73.171875 21.125 
Q 70.59375 14.40625 65.890625 9.53125 
Q 61.203125 4.65625 54.640625 1.953125 
Q 48.09375 -0.75 40.09375 -0.75 
Q 32.15625 -0.75 25.578125 1.953125 
Q 19 4.65625 14.328125 9.53125 
Q 9.65625 14.40625 7.046875 21.125 
Q 4.453125 27.84375 4.453125 35.90625 
Q 4.453125 43.90625 7.046875 50.65625 
Q 9.65625 57.40625 14.328125 62.28125 
Q 19 67.15625 25.578125 69.875 
Q 32.15625 72.59375 40.09375 72.59375 
Q 48.09375 72.59375 54.640625 69.875 
Q 61.203125 67.15625 65.890625 62.28125 
Q 70.59375 57.40625 73.171875 50.65625 
Q 75.75 43.90625 75.75 35.90625 
z
M 64.84375 35.90625 
Q 64.84375 42.296875 63.09375 47.390625 
Q 61.34375 52.5 58.125 56.046875 
Q 54.90625 59.59375 50.328125 61.5 
Q 45.75 63.40625 40.09375 63.40625 
Q 34.453125 63.40625 29.875 61.5 
Q 25.296875 59.59375 22.046875 56.046875 
Q 18.796875 52.5 17.046875 47.390625 
Q 15.296875 42.296875 15.296875 35.90625 
Q 15.296875 29.453125 17.046875 24.375 
Q 18.796875 19.296875 22.046875 15.75 
Q 25.296875 12.203125 29.875 10.328125 
Q 34.453125 8.453125 40.09375 8.453125 
Q 45.75 8.453125 50.328125 10.328125 
Q 54.90625 12.203125 58.125 15.75 
Q 61.34375 19.296875 63.09375 24.375 
Q 64.84375 29.453125 64.84375 35.90625 
z
" id="Lato-Medium-79"></path>
     <path d="M 29.203125 37.203125 
Q 33.296875 37.203125 36.421875 38.203125 
Q 39.546875 39.203125 41.640625 41.015625 
Q 43.75 42.84375 44.796875 45.375 
Q 45.84375 47.90625 45.84375 50.953125 
Q 45.84375 57.15625 41.765625 60.296875 
Q 37.703125 63.453125 29.546875 63.453125 
L 19.5 63.453125 
L 19.5 37.203125 
z
M 62.703125 0 
L 53.203125 0 
Q 50.34375 0 49.046875 2.25 
L 31.296875 27.15625 
Q 30.453125 28.40625 29.453125 28.921875 
Q 28.453125 29.453125 26.453125 29.453125 
L 19.5 29.453125 
L 19.5 0 
L 8.84375 0 
L 8.84375 71.796875 
L 29.546875 71.796875 
Q 36.5 71.796875 41.515625 70.375 
Q 46.546875 68.953125 49.8125 66.328125 
Q 53.09375 63.703125 54.671875 60 
Q 56.25 56.296875 56.25 51.703125 
Q 56.25 47.953125 55.09375 44.640625 
Q 53.953125 41.34375 51.71875 38.71875 
Q 49.5 36.09375 46.296875 34.1875 
Q 43.09375 32.296875 39.046875 31.296875 
Q 41.046875 30.09375 42.5 27.953125 
z
" id="Lato-Medium-82"></path>
     <path d="M 57.796875 62.90625 
L 35 62.90625 
L 35 0 
L 24.40625 0 
L 24.40625 62.90625 
L 1.5 62.90625 
L 1.5 71.796875 
L 57.796875 71.796875 
z
" id="Lato-Medium-84"></path>
    </defs>
    <g transform="translate(194.20875 16.055625)scale(0.12 -0.12)">
     <use xlink:href="#Lato-Medium-81"></use>
     <use x="80.250015" xlink:href="#Lato-Medium-83"></use>
     <use x="134.650024" xlink:href="#Lato-Medium-79"></use>
     <use x="214.90004" xlink:href="#Lato-Medium-82"></use>
     <use x="277.950043" xlink:href="#Lato-Medium-84"></use>
    </g>
   </g>
   <g id="legend_1">
    <g id="patch_7">
     <path d="M 290.909375 86.50875 
L 374.84375 86.50875 
Q 376.84375 86.50875 376.84375 84.50875 
L 376.84375 29.055625 
Q 376.84375 27.055625 374.84375 27.055625 
L 290.909375 27.055625 
Q 288.909375 27.055625 288.909375 29.055625 
L 288.909375 84.50875 
Q 288.909375 86.50875 290.909375 86.50875 
z
" style="fill:#ffffff;opacity:0.8;stroke:#cccccc;stroke-linejoin:miter;"></path>
    </g>
    <g id="line2d_22">
     <path d="M 292.909375 34.935312 
L 312.909375 34.935312 
" style="fill:none;stroke:#1f77b4;stroke-linecap:square;stroke-opacity:0.5;stroke-width:1.5;"></path>
    </g>
    <g id="line2d_23"></g>
    <g id="text_21">
     <!-- btfnt -->
     <g transform="translate(320.909375 38.435312)scale(0.1 -0.1)">
      <use xlink:href="#Lato-Medium-98"></use>
      <use x="56.200012" xlink:href="#Lato-Medium-116"></use>
      <use x="92.400009" xlink:href="#Lato-Medium-102"></use>
      <use x="127.650009" xlink:href="#Lato-Medium-110"></use>
      <use x="183.600021" xlink:href="#Lato-Medium-116"></use>
     </g>
    </g>
    <g id="line2d_24">
     <path d="M 292.909375 49.019687 
L 312.909375 49.019687 
" style="fill:none;stroke:#ff7f0e;stroke-linecap:square;stroke-opacity:0.5;stroke-width:1.5;"></path>
    </g>
    <g id="line2d_25"></g>
    <g id="text_22">
     <!-- lshare -->
     <defs>
      <path d="M 16.84375 73.796875 
L 16.84375 0 
L 7.046875 0 
L 7.046875 73.796875 
z
" id="Lato-Medium-108"></path>
     </defs>
     <g transform="translate(320.909375 52.519687)scale(0.1 -0.1)">
      <use xlink:href="#Lato-Medium-108"></use>
      <use x="23.899994" xlink:href="#Lato-Medium-115"></use>
      <use x="67.349991" xlink:href="#Lato-Medium-104"></use>
      <use x="123.300003" xlink:href="#Lato-Medium-97"></use>
      <use x="173.250015" xlink:href="#Lato-Medium-114"></use>
      <use x="209.900024" xlink:href="#Lato-Medium-101"></use>
     </g>
    </g>
    <g id="line2d_26">
     <path d="M 292.909375 63.104062 
L 312.909375 63.104062 
" style="fill:none;stroke:#2ca02c;stroke-linecap:square;stroke-opacity:0.5;stroke-width:1.5;"></path>
    </g>
    <g id="line2d_27"></g>
    <g id="text_23">
     <!-- gshare -->
     <defs>
      <path d="M 24.703125 25.34375 
Q 27.296875 25.34375 29.265625 26.046875 
Q 31.25 26.75 32.578125 28.015625 
Q 33.90625 29.296875 34.578125 31.09375 
Q 35.25 32.90625 35.25 35.046875 
Q 35.25 39.453125 32.578125 42.078125 
Q 29.90625 44.703125 24.703125 44.703125 
Q 19.546875 44.703125 16.875 42.078125 
Q 14.203125 39.453125 14.203125 35.046875 
Q 14.203125 32.90625 14.875 31.125 
Q 15.546875 29.34375 16.875 28.0625 
Q 18.203125 26.796875 20.171875 26.0625 
Q 22.15625 25.34375 24.703125 25.34375 
z
M 40.25 -2.65625 
Q 40.25 -0.84375 39.25 0.21875 
Q 38.25 1.296875 36.515625 1.921875 
Q 34.796875 2.546875 32.5 2.8125 
Q 30.203125 3.09375 27.671875 3.25 
Q 25.15625 3.40625 22.5 3.53125 
Q 19.84375 3.65625 17.40625 4 
Q 14.796875 2.703125 13.125 0.84375 
Q 11.453125 -1 11.453125 -3.5 
Q 11.453125 -5.09375 12.265625 -6.5 
Q 13.09375 -7.90625 14.8125 -8.921875 
Q 16.546875 -9.953125 19.171875 -10.515625 
Q 21.796875 -11.09375 25.453125 -11.09375 
Q 29.046875 -11.09375 31.796875 -10.46875 
Q 34.546875 -9.84375 36.421875 -8.71875 
Q 38.296875 -7.59375 39.265625 -6.046875 
Q 40.25 -4.5 40.25 -2.65625 
z
M 50.15625 48.90625 
L 50.15625 45.25 
Q 50.15625 43.453125 47.90625 43 
L 42.453125 42.203125 
Q 43.15625 40.65625 43.546875 38.921875 
Q 43.953125 37.203125 43.953125 35.296875 
Q 43.953125 31.546875 42.5 28.515625 
Q 41.046875 25.5 38.5 23.34375 
Q 35.953125 21.203125 32.421875 20.046875 
Q 28.90625 18.90625 24.703125 18.90625 
Q 21.25 18.90625 18.25 19.65625 
Q 16.75 18.75 15.96875 17.671875 
Q 15.203125 16.59375 15.203125 15.546875 
Q 15.203125 13.796875 16.671875 12.9375 
Q 18.15625 12.09375 20.53125 11.71875 
Q 22.90625 11.34375 25.96875 11.25 
Q 29.046875 11.15625 32.21875 10.921875 
Q 35.40625 10.703125 38.46875 10.125 
Q 41.546875 9.546875 43.921875 8.265625 
Q 46.296875 7 47.765625 4.765625 
Q 49.25 2.546875 49.25 -1 
Q 49.25 -4.296875 47.625 -7.390625 
Q 46 -10.5 42.890625 -12.890625 
Q 39.796875 -15.296875 35.34375 -16.75 
Q 30.90625 -18.203125 25.25 -18.203125 
Q 19.59375 -18.203125 15.421875 -17.09375 
Q 11.25 -16 8.46875 -14.140625 
Q 5.703125 -12.296875 4.328125 -9.84375 
Q 2.953125 -7.40625 2.953125 -4.75 
Q 2.953125 -1.046875 5.25 1.515625 
Q 7.546875 4.09375 11.59375 5.546875 
Q 9.40625 6.546875 8.09375 8.265625 
Q 6.796875 10 6.796875 12.84375 
Q 6.796875 13.953125 7.1875 15.125 
Q 7.59375 16.296875 8.421875 17.46875 
Q 9.25 18.65625 10.46875 19.703125 
Q 11.703125 20.75 13.296875 21.59375 
Q 9.546875 23.703125 7.390625 27.171875 
Q 5.25 30.65625 5.25 35.296875 
Q 5.25 39.046875 6.703125 42.046875 
Q 8.15625 45.046875 10.71875 47.1875 
Q 13.296875 49.34375 16.875 50.5 
Q 20.453125 51.65625 24.703125 51.65625 
Q 31.296875 51.65625 36.046875 48.90625 
z
" id="Lato-Medium-103"></path>
     </defs>
     <g transform="translate(320.909375 66.604062)scale(0.1 -0.1)">
      <use xlink:href="#Lato-Medium-103"></use>
      <use x="52.200012" xlink:href="#Lato-Medium-115"></use>
      <use x="95.650009" xlink:href="#Lato-Medium-104"></use>
      <use x="151.600021" xlink:href="#Lato-Medium-97"></use>
      <use x="201.550034" xlink:href="#Lato-Medium-114"></use>
      <use x="238.200043" xlink:href="#Lato-Medium-101"></use>
     </g>
    </g>
    <g id="line2d_28">
     <path d="M 292.909375 77.304062 
L 312.909375 77.304062 
" style="fill:none;stroke:#d62728;stroke-linecap:square;stroke-opacity:0.5;stroke-width:1.5;"></path>
    </g>
    <g id="line2d_29"></g>
    <g id="text_24">
     <!-- tournament -->
     <g transform="translate(320.909375 80.804062)scale(0.1 -0.1)">
      <use xlink:href="#Lato-Medium-116"></use>
      <use x="36.199997" xlink:href="#Lato-Medium-111"></use>
      <use x="93.100006" xlink:href="#Lato-Medium-117"></use>
      <use x="149.000015" xlink:href="#Lato-Medium-114"></use>
      <use x="185.650024" xlink:href="#Lato-Medium-110"></use>
      <use x="241.600037" xlink:href="#Lato-Medium-97"></use>
      <use x="291.550049" xlink:href="#Lato-Medium-109"></use>
      <use x="374.200058" xlink:href="#Lato-Medium-101"></use>
      <use x="427.15007" xlink:href="#Lato-Medium-110"></use>
      <use x="483.100082" xlink:href="#Lato-Medium-116"></use>
     </g>
    </g>
   </g>
  </g>
 </g>
 <defs>
  <clipPath id="pbda36c3348">
   <rect height="217.44" width="334.8" x="47.04375" y="22.055625"></rect>
  </clipPath>
 </defs>
</svg>