<?xml version="1.0" encoding="UTF-8"?>
<!DOCTYPE svg PUBLIC "-//W3C//DTD SVG 1.1//EN" "http://www.w3.org/Graphics/SVG/1.1/DTD/svg11.dtd">
<svg version="1.2" width="121.24mm" height="60.67mm" viewBox="4293 19930 12124 6067" preserveAspectRatio="xMidYMid" fill-rule="evenodd" stroke-width="28.222" stroke-linejoin="round" xmlns="http://www.w3.org/2000/svg" xmlns:ooo="http://xml.openoffice.org/svg/export" xmlns:xlink="http://www.w3.org/1999/xlink" xmlns:presentation="http://sun.com/xmlns/staroffice/presentation" xmlns:smil="http://www.w3.org/2001/SMIL20/" xmlns:anim="urn:oasis:names:tc:opendocument:xmlns:animation:1.0" xml:space="preserve">
 <defs class="ClipPathGroup">
  <clipPath id="presentation_clip_path" clipPathUnits="userSpaceOnUse">
   <rect x="4293" y="19930" width="12124" height="6067"/>
  </clipPath>
  <clipPath id="presentation_clip_path_shrink" clipPathUnits="userSpaceOnUse">
   <rect x="4305" y="19936" width="12100" height="6055"/>
  </clipPath>
 </defs>
 <defs class="TextShapeIndex">
  <g ooo:slide="id1" ooo:id-list="id3 id4 id5 id6 id7 id8 id9 id10 id11 id12 id13 id14 id15 id16 id17 id18 id19 id20 id21 id22 id23 id24 id25 id26 id27 id28 id29 id30 id31 id32 id33 id34 id35 id36 id37 id38 id39 id40 id41 id42 id43 id44 id45 id46 id47 id48 id49 id50 id51 id52 id53 id54 id55 id56 id57"/>
 </defs>
 <defs class="EmbeddedBulletChars">
  <g id="bullet-char-template(57356)" transform="scale(0.00048828125,-0.00048828125)">
   <path d="M 580,1141 L 1163,571 580,0 -4,571 580,1141 Z"/>
  </g>
  <g id="bullet-char-template(57354)" transform="scale(0.00048828125,-0.00048828125)">
   <path d="M 8,1128 L 1137,1128 1137,0 8,0 8,1128 Z"/>
  </g>
  <g id="bullet-char-template(10146)" transform="scale(0.00048828125,-0.00048828125)">
   <path d="M 174,0 L 602,739 174,1481 1456,739 174,0 Z M 1358,739 L 309,1346 659,739 1358,739 Z"/>
  </g>
  <g id="bullet-char-template(10132)" transform="scale(0.00048828125,-0.00048828125)">
   <path d="M 2015,739 L 1276,0 717,0 1260,543 174,543 174,936 1260,936 717,1481 1274,1481 2015,739 Z"/>
  </g>
  <g id="bullet-char-template(10007)" transform="scale(0.00048828125,-0.00048828125)">
   <path d="M 0,-2 C -7,14 -16,27 -25,37 L 356,567 C 262,823 215,952 215,954 215,979 228,992 255,992 264,992 276,990 289,987 310,991 331,999 354,1012 L 381,999 492,748 772,1049 836,1024 860,1049 C 881,1039 901,1025 922,1006 886,937 835,863 770,784 769,783 710,716 594,584 L 774,223 C 774,196 753,168 711,139 L 727,119 C 717,90 699,76 672,76 641,76 570,178 457,381 L 164,-76 C 142,-110 111,-127 72,-127 30,-127 9,-110 8,-76 1,-67 -2,-52 -2,-32 -2,-23 -1,-13 0,-2 Z"/>
  </g>
  <g id="bullet-char-template(10004)" transform="scale(0.00048828125,-0.00048828125)">
   <path d="M 285,-33 C 182,-33 111,30 74,156 52,228 41,333 41,471 41,549 55,616 82,672 116,743 169,778 240,778 293,778 328,747 346,684 L 369,508 C 377,444 397,411 428,410 L 1163,1116 C 1174,1127 1196,1133 1229,1133 1271,1133 1292,1118 1292,1087 L 1292,965 C 1292,929 1282,901 1262,881 L 442,47 C 390,-6 338,-33 285,-33 Z"/>
  </g>
  <g id="bullet-char-template(9679)" transform="scale(0.00048828125,-0.00048828125)">
   <path d="M 813,0 C 632,0 489,54 383,161 276,268 223,411 223,592 223,773 276,916 383,1023 489,1130 632,1184 813,1184 992,1184 1136,1130 1245,1023 1353,916 1407,772 1407,592 1407,412 1353,268 1245,161 1136,54 992,0 813,0 Z"/>
  </g>
  <g id="bullet-char-template(8226)" transform="scale(0.00048828125,-0.00048828125)">
   <path d="M 346,457 C 273,457 209,483 155,535 101,586 74,649 74,723 74,796 101,859 155,911 209,963 273,989 346,989 419,989 480,963 531,910 582,859 608,796 608,723 608,648 583,586 532,535 482,483 420,457 346,457 Z"/>
  </g>
  <g id="bullet-char-template(8211)" transform="scale(0.00048828125,-0.00048828125)">
   <path d="M -4,459 L 1135,459 1135,606 -4,606 -4,459 Z"/>
  </g>
  <g id="bullet-char-template(61548)" transform="scale(0.00048828125,-0.00048828125)">
   <path d="M 173,740 C 173,903 231,1043 346,1159 462,1274 601,1332 765,1332 928,1332 1067,1274 1183,1159 1299,1043 1357,903 1357,740 1357,577 1299,437 1183,322 1067,206 928,148 765,148 601,148 462,206 346,322 231,437 173,577 173,740 Z"/>
  </g>
 </defs>
 <defs class="TextEmbeddedBitmaps"/>
 <g class="SlideGroup">
  <g>
   <g id="container-id1">
    <g id="id1" class="Slide" clip-path="url(#presentation_clip_path)">
     <g class="Page">
      <g class="com.sun.star.drawing.OpenFreeHandShape">
       <g id="id3">
        <rect class="BoundingBox" stroke="none" fill="none" x="9853" y="19998" width="6565" height="5359"/>
        <path fill="none" stroke="rgb(0,0,0)" d="M 9854,19999 C 9979,20351 10155,20684 10293,21031 10465,21467 10745,21852 10972,22261 11190,22653 11445,23032 11785,23314 12155,23622 12585,23850 12992,24104 13381,24347 13795,24553 14221,24719 14607,24869 14970,25084 15384,25158 15671,25209 15947,25323 16241,25333 L 16416,25355"/>
       </g>
      </g>
      <g class="com.sun.star.drawing.OpenFreeHandShape">
       <g id="id4">
        <rect class="BoundingBox" stroke="none" fill="none" x="4292" y="19949" width="5580" height="5578"/>
        <path fill="none" stroke="rgb(0,0,0)" d="M 9867,19950 C 9886,20252 9791,20540 9670,20807 9558,21054 9436,21297 9341,21553 9234,21841 9083,22112 8946,22386 8780,22718 8522,22982 8288,23264 8077,23519 7808,23724 7542,23923 7301,24104 7055,24283 6817,24471 6536,24694 6203,24837 5894,25020 5609,25190 5299,25315 4973,25349 L 4754,25416 4490,25459 4293,25525"/>
       </g>
      </g>
      <g class="com.sun.star.drawing.OpenFreeHandShape">
       <g id="id5">
        <rect class="BoundingBox" stroke="none" fill="none" x="10247" y="23467" width="1751" height="1868"/>
        <path fill="none" stroke="rgb(0,0,0)" d="M 10248,25333 C 10330,25037 10521,24792 10685,24543 10850,24292 11019,24018 11275,23862 11502,23724 11728,23588 11974,23490 L 11996,23468"/>
       </g>
      </g>
      <g class="com.sun.star.drawing.OpenFreeHandShape">
       <g id="id6">
        <rect class="BoundingBox" stroke="none" fill="none" x="8386" y="23138" width="1831" height="2197"/>
        <path fill="none" stroke="rgb(0,0,0)" d="M 10204,25333 C 10249,25079 10156,24848 10025,24647 9840,24362 9721,24082 9486,23848 9269,23632 9041,23403 8745,23294 L 8522,23183 8387,23139"/>
       </g>
      </g>
      <g class="com.sun.star.drawing.LineShape">
       <g id="id7">
        <rect class="BoundingBox" stroke="none" fill="none" x="9632" y="20808" width="947" height="765"/>
        <path fill="none" stroke="rgb(0,127,255)" stroke-width="35" stroke-linejoin="round" d="M 10560,21554 L 9650,20826"/>
       </g>
      </g>
      <g class="com.sun.star.drawing.LineShape">
       <g id="id8">
        <rect class="BoundingBox" stroke="none" fill="none" x="9541" y="21008" width="1312" height="1056"/>
        <path fill="none" stroke="rgb(0,127,255)" stroke-width="35" stroke-linejoin="round" d="M 10834,22045 L 9559,21026"/>
       </g>
      </g>
      <g class="com.sun.star.drawing.LineShape">
       <g id="id9">
        <rect class="BoundingBox" stroke="none" fill="none" x="9458" y="21216" width="1709" height="1373"/>
        <path fill="none" stroke="rgb(0,127,255)" stroke-width="35" stroke-linejoin="round" d="M 11148,22570 L 9476,21234"/>
       </g>
      </g>
      <g class="com.sun.star.drawing.LineShape">
       <g id="id10">
        <rect class="BoundingBox" stroke="none" fill="none" x="9354" y="21406" width="2638" height="2116"/>
        <path fill="none" stroke="rgb(0,127,255)" stroke-width="35" stroke-linejoin="round" d="M 11973,23503 L 9372,21424"/>
       </g>
      </g>
      <g class="com.sun.star.drawing.LineShape">
       <g id="id11">
        <rect class="BoundingBox" stroke="none" fill="none" x="9278" y="21616" width="2499" height="2007"/>
        <path fill="none" stroke="rgb(0,127,255)" stroke-width="35" stroke-linejoin="round" d="M 11758,23604 L 9296,21634"/>
       </g>
      </g>
      <g class="com.sun.star.drawing.LineShape">
       <g id="id12">
        <rect class="BoundingBox" stroke="none" fill="none" x="9198" y="21824" width="2375" height="1909"/>
        <path fill="none" stroke="rgb(0,127,255)" stroke-width="35" stroke-linejoin="round" d="M 11554,23714 L 9216,21842"/>
       </g>
      </g>
      <g class="com.sun.star.drawing.LineShape">
       <g id="id13">
        <rect class="BoundingBox" stroke="none" fill="none" x="9104" y="22024" width="2276" height="1827"/>
        <path fill="none" stroke="rgb(0,127,255)" stroke-width="35" stroke-linejoin="round" d="M 11361,23832 L 9122,22042"/>
       </g>
      </g>
      <g class="com.sun.star.drawing.LineShape">
       <g id="id14">
        <rect class="BoundingBox" stroke="none" fill="none" x="8997" y="22210" width="2198" height="1766"/>
        <path fill="none" stroke="rgb(0,127,255)" stroke-width="35" stroke-linejoin="round" d="M 11176,23957 L 9015,22228"/>
       </g>
      </g>
      <g class="com.sun.star.drawing.LineShape">
       <g id="id15">
        <rect class="BoundingBox" stroke="none" fill="none" x="8877" y="22387" width="2163" height="1739"/>
        <path fill="none" stroke="rgb(0,127,255)" stroke-width="35" stroke-linejoin="round" d="M 11021,24107 L 8895,22405"/>
       </g>
      </g>
      <g class="com.sun.star.drawing.LineShape">
       <g id="id16">
        <rect class="BoundingBox" stroke="none" fill="none" x="8786" y="22588" width="2118" height="1702"/>
        <path fill="none" stroke="rgb(0,127,255)" stroke-width="35" stroke-linejoin="round" d="M 10885,24271 L 8804,22606"/>
       </g>
      </g>
      <g class="com.sun.star.drawing.LineShape">
       <g id="id17">
        <rect class="BoundingBox" stroke="none" fill="none" x="8654" y="22756" width="2135" height="1714"/>
        <path fill="none" stroke="rgb(0,127,255)" stroke-width="35" stroke-linejoin="round" d="M 10770,24451 L 8672,22774"/>
       </g>
      </g>
      <g class="com.sun.star.drawing.LineShape">
       <g id="id18">
        <rect class="BoundingBox" stroke="none" fill="none" x="8529" y="22928" width="2133" height="1714"/>
        <path fill="none" stroke="rgb(0,127,255)" stroke-width="35" stroke-linejoin="round" d="M 10643,24623 L 8547,22946"/>
       </g>
      </g>
      <g class="com.sun.star.drawing.LineShape">
       <g id="id19">
        <rect class="BoundingBox" stroke="none" fill="none" x="9706" y="24143" width="829" height="671"/>
        <path fill="none" stroke="rgb(0,127,255)" stroke-width="35" stroke-linejoin="round" d="M 10516,24795 L 9724,24161"/>
       </g>
      </g>
      <g class="com.sun.star.drawing.LineShape">
       <g id="id20">
        <rect class="BoundingBox" stroke="none" fill="none" x="10042" y="24686" width="393" height="321"/>
        <path fill="none" stroke="rgb(0,127,255)" stroke-width="35" stroke-linejoin="round" d="M 10416,24988 L 10060,24704"/>
       </g>
      </g>
      <g class="com.sun.star.drawing.LineShape">
       <g id="id21">
        <rect class="BoundingBox" stroke="none" fill="none" x="10180" y="25066" width="159" height="135"/>
        <path fill="none" stroke="rgb(0,127,255)" stroke-width="35" stroke-linejoin="round" d="M 10320,25182 L 10198,25084"/>
       </g>
      </g>
      <g class="com.sun.star.drawing.LineShape">
       <g id="id22">
        <rect class="BoundingBox" stroke="none" fill="none" x="9712" y="20617" width="647" height="525"/>
        <path fill="none" stroke="rgb(0,127,255)" stroke-width="35" stroke-linejoin="round" d="M 10340,21123 L 9730,20635"/>
       </g>
      </g>
      <g class="com.sun.star.drawing.LineShape">
       <g id="id23">
        <rect class="BoundingBox" stroke="none" fill="none" x="9796" y="20414" width="385" height="315"/>
        <path fill="none" stroke="rgb(0,127,255)" stroke-width="35" stroke-linejoin="round" d="M 10162,20710 L 9814,20432"/>
       </g>
      </g>
      <g class="com.sun.star.drawing.LineShape">
       <g id="id24">
        <rect class="BoundingBox" stroke="none" fill="none" x="9781" y="20403" width="407" height="333"/>
        <path fill="none" stroke="rgb(0,127,255)" stroke-width="35" stroke-linejoin="round" d="M 10169,20717 L 9799,20421"/>
       </g>
      </g>
      <g class="com.sun.star.drawing.LineShape">
       <g id="id25">
        <rect class="BoundingBox" stroke="none" fill="none" x="9834" y="20174" width="177" height="149"/>
        <path fill="none" stroke="rgb(0,127,255)" stroke-width="35" stroke-linejoin="round" d="M 9992,20304 L 9852,20192"/>
       </g>
      </g>
      <g class="com.sun.star.drawing.LineShape">
       <g id="id26">
        <rect class="BoundingBox" stroke="none" fill="none" x="4294" y="25505" width="250" height="453"/>
        <path fill="none" stroke="rgb(204,204,204)" stroke-width="35" stroke-linejoin="round" d="M 4525,25939 L 4312,25523"/>
       </g>
      </g>
      <g class="com.sun.star.drawing.LineShape">
       <g id="id27">
        <rect class="BoundingBox" stroke="none" fill="none" x="4646" y="25398" width="306" height="562"/>
        <path fill="none" stroke="rgb(204,204,204)" stroke-width="35" stroke-linejoin="round" d="M 4933,25941 L 4664,25416"/>
       </g>
      </g>
      <g class="com.sun.star.drawing.LineShape">
       <g id="id28">
        <rect class="BoundingBox" stroke="none" fill="none" x="5012" y="25316" width="348" height="645"/>
        <path fill="none" stroke="rgb(204,204,204)" stroke-width="35" stroke-linejoin="round" d="M 5341,25942 L 5030,25334"/>
       </g>
      </g>
      <g class="com.sun.star.drawing.LineShape">
       <g id="id29">
        <rect class="BoundingBox" stroke="none" fill="none" x="5375" y="25231" width="393" height="731"/>
        <path fill="none" stroke="rgb(204,204,204)" stroke-width="35" stroke-linejoin="round" d="M 5749,25943 L 5393,25249"/>
       </g>
      </g>
      <g class="com.sun.star.drawing.LineShape">
       <g id="id30">
        <rect class="BoundingBox" stroke="none" fill="none" x="5710" y="25091" width="466" height="873"/>
        <path fill="none" stroke="rgb(204,204,204)" stroke-width="35" stroke-linejoin="round" d="M 6157,25945 L 5728,25109"/>
       </g>
      </g>
      <g class="com.sun.star.drawing.LineShape">
       <g id="id31">
        <rect class="BoundingBox" stroke="none" fill="none" x="6019" y="24899" width="564" height="1066"/>
        <path fill="none" stroke="rgb(204,204,204)" stroke-width="35" stroke-linejoin="round" d="M 6564,25946 L 6037,24917"/>
       </g>
      </g>
      <g class="com.sun.star.drawing.LineShape">
       <g id="id32">
        <rect class="BoundingBox" stroke="none" fill="none" x="6351" y="24745" width="640" height="1221"/>
        <path fill="none" stroke="rgb(204,204,204)" stroke-width="35" stroke-linejoin="round" d="M 6972,25947 L 6369,24763"/>
       </g>
      </g>
      <g class="com.sun.star.drawing.LineShape">
       <g id="id33">
        <rect class="BoundingBox" stroke="none" fill="none" x="6659" y="24558" width="740" height="1410"/>
        <path fill="none" stroke="rgb(204,204,204)" stroke-width="35" stroke-linejoin="round" d="M 7380,25949 L 6677,24576"/>
       </g>
      </g>
      <g class="com.sun.star.drawing.LineShape">
       <g id="id34">
        <rect class="BoundingBox" stroke="none" fill="none" x="6950" y="24330" width="857" height="1639"/>
        <path fill="none" stroke="rgb(204,204,204)" stroke-width="35" stroke-linejoin="round" d="M 7788,25950 L 6968,24348"/>
       </g>
      </g>
      <g class="com.sun.star.drawing.LineShape">
       <g id="id35">
        <rect class="BoundingBox" stroke="none" fill="none" x="7241" y="24105" width="973" height="1865"/>
        <path fill="none" stroke="rgb(204,204,204)" stroke-width="35" stroke-linejoin="round" d="M 8195,25951 L 7259,24123"/>
       </g>
      </g>
      <g class="com.sun.star.drawing.LineShape">
       <g id="id36">
        <rect class="BoundingBox" stroke="none" fill="none" x="7537" y="23886" width="1085" height="2086"/>
        <path fill="none" stroke="rgb(204,204,204)" stroke-width="35" stroke-linejoin="round" d="M 8603,25953 L 7555,23904"/>
       </g>
      </g>
      <g class="com.sun.star.drawing.LineShape">
       <g id="id37">
        <rect class="BoundingBox" stroke="none" fill="none" x="7829" y="23662" width="1201" height="2311"/>
        <path fill="none" stroke="rgb(204,204,204)" stroke-width="35" stroke-linejoin="round" d="M 9011,25954 L 7847,23680"/>
       </g>
      </g>
      <g class="com.sun.star.drawing.LineShape">
       <g id="id38">
        <rect class="BoundingBox" stroke="none" fill="none" x="8108" y="23411" width="1330" height="2563"/>
        <path fill="none" stroke="rgb(204,204,204)" stroke-width="35" stroke-linejoin="round" d="M 9419,25955 L 8126,23429"/>
       </g>
      </g>
      <g class="com.sun.star.drawing.LineShape">
       <g id="id39">
        <rect class="BoundingBox" stroke="none" fill="none" x="8365" y="23118" width="1480" height="2858"/>
        <path fill="none" stroke="rgb(204,204,204)" stroke-width="35" stroke-linejoin="round" d="M 9826,25957 L 8383,23136"/>
       </g>
      </g>
      <g class="com.sun.star.drawing.LineShape">
       <g id="id40">
        <rect class="BoundingBox" stroke="none" fill="none" x="8896" y="23360" width="1357" height="2617"/>
        <path fill="none" stroke="rgb(204,204,204)" stroke-width="35" stroke-linejoin="round" d="M 10234,25958 L 8914,23378"/>
       </g>
      </g>
      <g class="com.sun.star.drawing.LineShape">
       <g id="id41">
        <rect class="BoundingBox" stroke="none" fill="none" x="10286" y="25280" width="375" height="699"/>
        <path fill="none" stroke="rgb(204,204,204)" stroke-width="35" stroke-linejoin="round" d="M 10642,25960 L 10304,25298"/>
       </g>
      </g>
      <g class="com.sun.star.drawing.LineShape">
       <g id="id42">
        <rect class="BoundingBox" stroke="none" fill="none" x="10461" y="24828" width="608" height="1152"/>
        <path fill="none" stroke="rgb(204,204,204)" stroke-width="35" stroke-linejoin="round" d="M 11050,25961 L 10479,24846"/>
       </g>
      </g>
      <g class="com.sun.star.drawing.LineShape">
       <g id="id43">
        <rect class="BoundingBox" stroke="none" fill="none" x="10692" y="24484" width="785" height="1497"/>
        <path fill="none" stroke="rgb(204,204,204)" stroke-width="35" stroke-linejoin="round" d="M 11458,25962 L 10710,24502"/>
       </g>
      </g>
      <g class="com.sun.star.drawing.LineShape">
       <g id="id44">
        <rect class="BoundingBox" stroke="none" fill="none" x="10927" y="24149" width="957" height="1834"/>
        <path fill="none" stroke="rgb(204,204,204)" stroke-width="35" stroke-linejoin="round" d="M 11865,25964 L 10945,24167"/>
       </g>
      </g>
      <g class="com.sun.star.drawing.LineShape">
       <g id="id45">
        <rect class="BoundingBox" stroke="none" fill="none" x="11196" y="23880" width="1096" height="2104"/>
        <path fill="none" stroke="rgb(204,204,204)" stroke-width="35" stroke-linejoin="round" d="M 12273,25965 L 11214,23898"/>
       </g>
      </g>
      <g class="com.sun.star.drawing.LineShape">
       <g id="id46">
        <rect class="BoundingBox" stroke="none" fill="none" x="11507" y="23692" width="1193" height="2293"/>
        <path fill="none" stroke="rgb(204,204,204)" stroke-width="35" stroke-linejoin="round" d="M 12681,25966 L 11525,23710"/>
       </g>
      </g>
      <g class="com.sun.star.drawing.LineShape">
       <g id="id47">
        <rect class="BoundingBox" stroke="none" fill="none" x="11830" y="23526" width="1278" height="2461"/>
        <path fill="none" stroke="rgb(204,204,204)" stroke-width="35" stroke-linejoin="round" d="M 13089,25968 L 11848,23544"/>
       </g>
      </g>
      <g class="com.sun.star.drawing.LineShape">
       <g id="id48">
        <rect class="BoundingBox" stroke="none" fill="none" x="12316" y="23681" width="1199" height="2307"/>
        <path fill="none" stroke="rgb(204,204,204)" stroke-width="35" stroke-linejoin="round" d="M 13496,25969 L 12334,23699"/>
       </g>
      </g>
      <g class="com.sun.star.drawing.LineShape">
       <g id="id49">
        <rect class="BoundingBox" stroke="none" fill="none" x="12914" y="24055" width="1009" height="1934"/>
        <path fill="none" stroke="rgb(204,204,204)" stroke-width="35" stroke-linejoin="round" d="M 13904,25970 L 12932,24073"/>
       </g>
      </g>
      <g class="com.sun.star.drawing.LineShape">
       <g id="id50">
        <rect class="BoundingBox" stroke="none" fill="none" x="13485" y="24374" width="846" height="1617"/>
        <path fill="none" stroke="rgb(204,204,204)" stroke-width="35" stroke-linejoin="round" d="M 14312,25972 L 13503,24392"/>
       </g>
      </g>
      <g class="com.sun.star.drawing.LineShape">
       <g id="id51">
        <rect class="BoundingBox" stroke="none" fill="none" x="14025" y="24634" width="714" height="1358"/>
        <path fill="none" stroke="rgb(204,204,204)" stroke-width="35" stroke-linejoin="round" d="M 14720,25973 L 14043,24652"/>
       </g>
      </g>
      <g class="com.sun.star.drawing.LineShape">
       <g id="id52">
        <rect class="BoundingBox" stroke="none" fill="none" x="14532" y="24828" width="614" height="1166"/>
        <path fill="none" stroke="rgb(204,204,204)" stroke-width="35" stroke-linejoin="round" d="M 15127,25975 L 14550,24846"/>
       </g>
      </g>
      <g class="com.sun.star.drawing.LineShape">
       <g id="id53">
        <rect class="BoundingBox" stroke="none" fill="none" x="15046" y="25038" width="508" height="957"/>
        <path fill="none" stroke="rgb(204,204,204)" stroke-width="35" stroke-linejoin="round" d="M 15535,25976 L 15064,25056"/>
       </g>
      </g>
      <g class="com.sun.star.drawing.LineShape">
       <g id="id54">
        <rect class="BoundingBox" stroke="none" fill="none" x="15512" y="25153" width="450" height="843"/>
        <path fill="none" stroke="rgb(204,204,204)" stroke-width="35" stroke-linejoin="round" d="M 15943,25977 L 15530,25171"/>
       </g>
      </g>
      <g class="com.sun.star.drawing.LineShape">
       <g id="id55">
        <rect class="BoundingBox" stroke="none" fill="none" x="15993" y="25297" width="377" height="701"/>
        <path fill="none" stroke="rgb(204,204,204)" stroke-width="35" stroke-linejoin="round" d="M 16351,25979 L 16011,25315"/>
       </g>
      </g>
      <g class="com.sun.star.drawing.CustomShape">
       <g id="id56">
        <rect class="BoundingBox" stroke="none" fill="none" x="10160" y="25234" width="156" height="157"/>
        <path fill="rgb(0,0,0)" stroke="none" d="M 10237,25235 C 10280,25235 10313,25268 10313,25311 10313,25354 10280,25388 10237,25388 10194,25388 10161,25354 10161,25311 10161,25268 10194,25235 10237,25235 Z M 10161,25235 L 10161,25235 Z M 10314,25389 L 10314,25389 Z"/>
        <path fill="none" stroke="rgb(0,0,0)" d="M 10237,25235 C 10280,25235 10313,25268 10313,25311 10313,25354 10280,25388 10237,25388 10194,25388 10161,25354 10161,25311 10161,25268 10194,25235 10237,25235 Z"/>
        <path fill="none" stroke="rgb(0,0,0)" d="M 10161,25235 L 10161,25235 Z"/>
        <path fill="none" stroke="rgb(0,0,0)" d="M 10314,25389 L 10314,25389 Z"/>
       </g>
      </g>
      <g class="com.sun.star.drawing.CustomShape">
       <g id="id57">
        <rect class="BoundingBox" stroke="none" fill="none" x="9790" y="19929" width="156" height="156"/>
        <path fill="rgb(0,0,0)" stroke="none" d="M 9867,19930 C 9910,19930 9943,19963 9943,20006 9943,20049 9910,20082 9867,20082 9824,20082 9791,20049 9791,20006 9791,19963 9824,19930 9867,19930 Z M 9791,19930 L 9791,19930 Z M 9944,20083 L 9944,20083 Z"/>
        <path fill="none" stroke="rgb(0,0,0)" d="M 9867,19930 C 9910,19930 9943,19963 9943,20006 9943,20049 9910,20082 9867,20082 9824,20082 9791,20049 9791,20006 9791,19963 9824,19930 9867,19930 Z"/>
        <path fill="none" stroke="rgb(0,0,0)" d="M 9791,19930 L 9791,19930 Z"/>
        <path fill="none" stroke="rgb(0,0,0)" d="M 9944,20083 L 9944,20083 Z"/>
       </g>
      </g>
     </g>
    </g>
   </g>
  </g>
 </g>
</svg>