<?xml version="1.0" encoding="UTF-8"?>
<!DOCTYPE svg PUBLIC "-//W3C//DTD SVG 1.1//EN" "http://www.w3.org/Graphics/SVG/1.1/DTD/svg11.dtd">
<svg version="1.2" width="69.55mm" height="39.45mm" viewBox="17954 1120 6955 3945" preserveAspectRatio="xMidYMid" fill-rule="evenodd" stroke-width="28.222" stroke-linejoin="round" xmlns="http://www.w3.org/2000/svg" xmlns:ooo="http://xml.openoffice.org/svg/export" xmlns:xlink="http://www.w3.org/1999/xlink" xmlns:presentation="http://sun.com/xmlns/staroffice/presentation" xmlns:smil="http://www.w3.org/2001/SMIL20/" xmlns:anim="urn:oasis:names:tc:opendocument:xmlns:animation:1.0" xml:space="preserve">
 <defs class="ClipPathGroup">
  <clipPath id="presentation_clip_path" clipPathUnits="userSpaceOnUse">
   <rect x="17954" y="1120" width="6955" height="3945"/>
  </clipPath>
  <clipPath id="presentation_clip_path_shrink" clipPathUnits="userSpaceOnUse">
   <rect x="17960" y="1123" width="6942" height="3938"/>
  </clipPath>
 </defs>
 <defs class="TextShapeIndex">
  <g ooo:slide="id1" ooo:id-list="id3 id4 id5 id6 id7 id8 id9 id10 id11 id12 id13 id14 id15 id16 id17 id18 id19"/>
 </defs>
 <defs class="EmbeddedBulletChars">
  <g id="bullet-char-template-57356" transform="scale(0.00048828125,-0.00048828125)">
   <path d="M 580,1141 L 1163,571 580,0 -4,571 580,1141 Z"/>
  </g>
  <g id="bullet-char-template-57354" transform="scale(0.00048828125,-0.00048828125)">
   <path d="M 8,1128 L 1137,1128 1137,0 8,0 8,1128 Z"/>
  </g>
  <g id="bullet-char-template-10146" transform="scale(0.00048828125,-0.00048828125)">
   <path d="M 174,0 L 602,739 174,1481 1456,739 174,0 Z M 1358,739 L 309,1346 659,739 1358,739 Z"/>
  </g>
  <g id="bullet-char-template-10132" transform="scale(0.00048828125,-0.00048828125)">
   <path d="M 2015,739 L 1276,0 717,0 1260,543 174,543 174,936 1260,936 717,1481 1274,1481 2015,739 Z"/>
  </g>
  <g id="bullet-char-template-10007" transform="scale(0.00048828125,-0.00048828125)">
   <path d="M 0,-2 C -7,14 -16,27 -25,37 L 356,567 C 262,823 215,952 215,954 215,979 228,992 255,992 264,992 276,990 289,987 310,991 331,999 354,1012 L 381,999 492,748 772,1049 836,1024 860,1049 C 881,1039 901,1025 922,1006 886,937 835,863 770,784 769,783 710,716 594,584 L 774,223 C 774,196 753,168 711,139 L 727,119 C 717,90 699,76 672,76 641,76 570,178 457,381 L 164,-76 C 142,-110 111,-127 72,-127 30,-127 9,-110 8,-76 1,-67 -2,-52 -2,-32 -2,-23 -1,-13 0,-2 Z"/>
  </g>
  <g id="bullet-char-template-10004" transform="scale(0.00048828125,-0.00048828125)">
   <path d="M 285,-33 C 182,-33 111,30 74,156 52,228 41,333 41,471 41,549 55,616 82,672 116,743 169,778 240,778 293,778 328,747 346,684 L 369,508 C 377,444 397,411 428,410 L 1163,1116 C 1174,1127 1196,1133 1229,1133 1271,1133 1292,1118 1292,1087 L 1292,965 C 1292,929 1282,901 1262,881 L 442,47 C 390,-6 338,-33 285,-33 Z"/>
  </g>
  <g id="bullet-char-template-9679" transform="scale(0.00048828125,-0.00048828125)">
   <path d="M 813,0 C 632,0 489,54 383,161 276,268 223,411 223,592 223,773 276,916 383,1023 489,1130 632,1184 813,1184 992,1184 1136,1130 1245,1023 1353,916 1407,772 1407,592 1407,412 1353,268 1245,161 1136,54 992,0 813,0 Z"/>
  </g>
  <g id="bullet-char-template-8226" transform="scale(0.00048828125,-0.00048828125)">
   <path d="M 346,457 C 273,457 209,483 155,535 101,586 74,649 74,723 74,796 101,859 155,911 209,963 273,989 346,989 419,989 480,963 531,910 582,859 608,796 608,723 608,648 583,586 532,535 482,483 420,457 346,457 Z"/>
  </g>
  <g id="bullet-char-template-8211" transform="scale(0.00048828125,-0.00048828125)">
   <path d="M -4,459 L 1135,459 1135,606 -4,606 -4,459 Z"/>
  </g>
  <g id="bullet-char-template-61548" transform="scale(0.00048828125,-0.00048828125)">
   <path d="M 173,740 C 173,903 231,1043 346,1159 462,1274 601,1332 765,1332 928,1332 1067,1274 1183,1159 1299,1043 1357,903 1357,740 1357,577 1299,437 1183,322 1067,206 928,148 765,148 601,148 462,206 346,322 231,437 173,577 173,740 Z"/>
  </g>
 </defs>
 <defs class="TextEmbeddedBitmaps"/>
 <g class="SlideGroup">
  <g>
   <g id="container-id1">
    <g id="id1" class="Slide" clip-path="url(#presentation_clip_path)">
     <g class="Page">
      <g class="Group">
       <g class="com.sun.star.drawing.CustomShape">
        <g id="id3">
         <rect class="BoundingBox" stroke="none" fill="none" x="17953" y="2515" width="413" height="413"/>
         <path fill="rgb(255,255,255)" stroke="none" d="M 18158,2516 C 18274,2516 18363,2604 18363,2720 18363,2836 18274,2925 18158,2925 18042,2925 17954,2836 17954,2720 17954,2604 18042,2516 18158,2516 Z M 17954,2516 L 17954,2516 Z M 18364,2926 L 18364,2926 Z"/>
         <path fill="none" stroke="rgb(255,255,255)" d="M 18158,2516 C 18274,2516 18363,2604 18363,2720 18363,2836 18274,2925 18158,2925 18042,2925 17954,2836 17954,2720 17954,2604 18042,2516 18158,2516 Z"/>
         <path fill="none" stroke="rgb(255,255,255)" d="M 17954,2516 L 17954,2516 Z"/>
         <path fill="none" stroke="rgb(255,255,255)" d="M 18364,2926 L 18364,2926 Z"/>
        </g>
       </g>
       <g class="com.sun.star.drawing.CustomShape">
        <g id="id4">
         <rect class="BoundingBox" stroke="none" fill="none" x="19941" y="4332" width="413" height="413"/>
         <path fill="rgb(0,0,0)" stroke="none" d="M 20146,4333 C 20262,4333 20351,4421 20351,4537 20351,4653 20262,4742 20146,4742 20030,4742 19942,4653 19942,4537 19942,4421 20030,4333 20146,4333 Z M 19942,4333 L 19942,4333 Z M 20352,4743 L 20352,4743 Z"/>
         <path fill="none" stroke="rgb(0,0,0)" d="M 20146,4333 C 20262,4333 20351,4421 20351,4537 20351,4653 20262,4742 20146,4742 20030,4742 19942,4653 19942,4537 19942,4421 20030,4333 20146,4333 Z"/>
         <path fill="none" stroke="rgb(0,0,0)" d="M 19942,4333 L 19942,4333 Z"/>
         <path fill="none" stroke="rgb(0,0,0)" d="M 20352,4743 L 20352,4743 Z"/>
        </g>
       </g>
       <g class="com.sun.star.drawing.CustomShape">
        <g id="id5">
         <rect class="BoundingBox" stroke="none" fill="none" x="20262" y="1119" width="413" height="413"/>
         <path fill="rgb(255,255,255)" stroke="none" d="M 20467,1120 C 20583,1120 20672,1208 20672,1324 20672,1440 20583,1529 20467,1529 20351,1529 20263,1440 20263,1324 20263,1208 20351,1120 20467,1120 Z M 20263,1120 L 20263,1120 Z M 20673,1530 L 20673,1530 Z"/>
         <path fill="none" stroke="rgb(255,255,255)" d="M 20467,1120 C 20583,1120 20672,1208 20672,1324 20672,1440 20583,1529 20467,1529 20351,1529 20263,1440 20263,1324 20263,1208 20351,1120 20467,1120 Z"/>
         <path fill="none" stroke="rgb(255,255,255)" d="M 20263,1120 L 20263,1120 Z"/>
         <path fill="none" stroke="rgb(255,255,255)" d="M 20673,1530 L 20673,1530 Z"/>
        </g>
       </g>
       <g class="com.sun.star.drawing.CustomShape">
        <g id="id6">
         <rect class="BoundingBox" stroke="none" fill="none" x="20060" y="2793" width="413" height="413"/>
         <path fill="rgb(237,28,36)" stroke="none" d="M 20265,2794 C 20381,2794 20470,2882 20470,2998 20470,3114 20381,3203 20265,3203 20149,3203 20061,3114 20061,2998 20061,2882 20149,2794 20265,2794 Z M 20061,2794 L 20061,2794 Z M 20471,3204 L 20471,3204 Z"/>
         <path fill="none" stroke="rgb(237,28,36)" d="M 20265,2794 C 20381,2794 20470,2882 20470,2998 20470,3114 20381,3203 20265,3203 20149,3203 20061,3114 20061,2998 20061,2882 20149,2794 20265,2794 Z"/>
         <path fill="none" stroke="rgb(237,28,36)" d="M 20061,2794 L 20061,2794 Z"/>
         <path fill="none" stroke="rgb(237,28,36)" d="M 20471,3204 L 20471,3204 Z"/>
        </g>
       </g>
       <g class="com.sun.star.drawing.CustomShape">
        <g id="id7">
         <rect class="BoundingBox" stroke="none" fill="none" x="22343" y="2259" width="413" height="413"/>
         <path fill="rgb(0,0,0)" stroke="none" d="M 22548,2260 C 22664,2260 22753,2348 22753,2464 22753,2580 22664,2669 22548,2669 22432,2669 22344,2580 22344,2464 22344,2348 22432,2260 22548,2260 Z M 22344,2260 L 22344,2260 Z M 22754,2670 L 22754,2670 Z"/>
         <path fill="none" stroke="rgb(0,0,0)" d="M 22548,2260 C 22664,2260 22753,2348 22753,2464 22753,2580 22664,2669 22548,2669 22432,2669 22344,2580 22344,2464 22344,2348 22432,2260 22548,2260 Z"/>
         <path fill="none" stroke="rgb(0,0,0)" d="M 22344,2260 L 22344,2260 Z"/>
         <path fill="none" stroke="rgb(0,0,0)" d="M 22754,2670 L 22754,2670 Z"/>
        </g>
       </g>
       <g class="com.sun.star.drawing.CustomShape">
        <g id="id8">
         <rect class="BoundingBox" stroke="none" fill="none" x="22380" y="3806" width="413" height="413"/>
         <path fill="rgb(0,0,0)" stroke="none" d="M 22585,3807 C 22701,3807 22790,3895 22790,4011 22790,4127 22701,4216 22585,4216 22469,4216 22381,4127 22381,4011 22381,3895 22469,3807 22585,3807 Z M 22381,3807 L 22381,3807 Z M 22791,4217 L 22791,4217 Z"/>
         <path fill="none" stroke="rgb(0,0,0)" d="M 22585,3807 C 22701,3807 22790,3895 22790,4011 22790,4127 22701,4216 22585,4216 22469,4216 22381,4127 22381,4011 22381,3895 22469,3807 22585,3807 Z"/>
         <path fill="none" stroke="rgb(0,0,0)" d="M 22381,3807 L 22381,3807 Z"/>
         <path fill="none" stroke="rgb(0,0,0)" d="M 22791,4217 L 22791,4217 Z"/>
        </g>
       </g>
       <g class="com.sun.star.drawing.CustomShape">
        <g id="id9">
         <rect class="BoundingBox" stroke="none" fill="none" x="24239" y="4653" width="413" height="413"/>
         <path fill="rgb(0,0,0)" stroke="none" d="M 24444,4654 C 24560,4654 24649,4742 24649,4858 24649,4974 24560,5063 24444,5063 24328,5063 24240,4974 24240,4858 24240,4742 24328,4654 24444,4654 Z M 24240,4654 L 24240,4654 Z M 24650,5064 L 24650,5064 Z"/>
         <path fill="none" stroke="rgb(0,0,0)" d="M 24444,4654 C 24560,4654 24649,4742 24649,4858 24649,4974 24560,5063 24444,5063 24328,5063 24240,4974 24240,4858 24240,4742 24328,4654 24444,4654 Z"/>
         <path fill="none" stroke="rgb(0,0,0)" d="M 24240,4654 L 24240,4654 Z"/>
         <path fill="none" stroke="rgb(0,0,0)" d="M 24650,5064 L 24650,5064 Z"/>
        </g>
       </g>
       <g class="com.sun.star.drawing.CustomShape">
        <g id="id10">
         <rect class="BoundingBox" stroke="none" fill="none" x="24497" y="2923" width="413" height="413"/>
         <path fill="rgb(0,0,0)" stroke="none" d="M 24702,2924 C 24818,2924 24907,3012 24907,3128 24907,3244 24818,3333 24702,3333 24586,3333 24498,3244 24498,3128 24498,3012 24586,2924 24702,2924 Z M 24498,2924 L 24498,2924 Z M 24908,3334 L 24908,3334 Z"/>
         <path fill="none" stroke="rgb(0,0,0)" d="M 24702,2924 C 24818,2924 24907,3012 24907,3128 24907,3244 24818,3333 24702,3333 24586,3333 24498,3244 24498,3128 24498,3012 24586,2924 24702,2924 Z"/>
         <path fill="none" stroke="rgb(0,0,0)" d="M 24498,2924 L 24498,2924 Z"/>
         <path fill="none" stroke="rgb(0,0,0)" d="M 24908,3334 L 24908,3334 Z"/>
        </g>
       </g>
       <g class="com.sun.star.drawing.LineShape">
        <g id="id11">
         <rect class="BoundingBox" stroke="none" fill="none" x="18134" y="2703" width="1843" height="1695"/>
         <path fill="none" stroke="rgb(255,255,255)" stroke-width="35" stroke-linejoin="round" d="M 18152,2721 L 19762,4200"/>
         <path fill="rgb(255,255,255)" stroke="none" d="M 19976,4397 L 19820,4116 19683,4266 19976,4397 Z"/>
        </g>
       </g>
       <g class="com.sun.star.drawing.LineShape">
        <g id="id12">
         <rect class="BoundingBox" stroke="none" fill="none" x="18125" y="2703" width="1944" height="341"/>
         <path fill="none" stroke="rgb(255,255,255)" stroke-width="35" stroke-linejoin="round" d="M 18143,2721 L 19780,2944"/>
         <path fill="rgb(255,255,255)" stroke="none" d="M 20068,2983 L 19780,2841 19753,3043 20068,2983 Z"/>
        </g>
       </g>
       <g class="com.sun.star.drawing.LineShape">
        <g id="id13">
         <rect class="BoundingBox" stroke="none" fill="none" x="18117" y="1429" width="2148" height="1332"/>
         <path fill="none" stroke="rgb(255,255,255)" stroke-width="35" stroke-linejoin="round" d="M 18135,2742 L 20016,1582"/>
         <path fill="rgb(255,255,255)" stroke="none" d="M 20264,1429 L 19952,1502 20058,1675 20264,1429 Z"/>
        </g>
       </g>
       <g class="com.sun.star.drawing.LineShape">
        <g id="id14">
         <rect class="BoundingBox" stroke="none" fill="none" x="20458" y="1302" width="1924" height="1070"/>
         <path fill="none" stroke="rgb(255,255,255)" stroke-width="35" stroke-linejoin="round" d="M 20476,1320 L 22126,2230"/>
         <path fill="rgb(255,255,255)" stroke="none" d="M 22381,2371 L 22163,2135 22065,2313 22381,2371 Z"/>
        </g>
       </g>
       <g class="com.sun.star.drawing.LineShape">
        <g id="id15">
         <rect class="BoundingBox" stroke="none" fill="none" x="20181" y="4036" width="2202" height="522"/>
         <path fill="none" stroke="rgb(0,0,0)" stroke-width="35" stroke-linejoin="round" d="M 20199,4539 L 22097,4133"/>
         <path fill="rgb(0,0,0)" stroke="none" d="M 22382,4072 L 22063,4036 22105,4235 22382,4072 Z"/>
        </g>
       </g>
       <g class="com.sun.star.drawing.LineShape">
        <g id="id16">
         <rect class="BoundingBox" stroke="none" fill="none" x="20173" y="2614" width="2224" height="1936"/>
         <path fill="none" stroke="rgb(0,0,0)" stroke-width="35" stroke-linejoin="round" d="M 20191,4531 L 22176,2805"/>
         <path fill="rgb(0,0,0)" stroke="none" d="M 22396,2614 L 22100,2737 22233,2890 22396,2614 Z"/>
        </g>
       </g>
       <g class="com.sun.star.drawing.LineShape">
        <g id="id17">
         <rect class="BoundingBox" stroke="none" fill="none" x="22528" y="2447" width="1972" height="631"/>
         <path fill="none" stroke="rgb(0,0,0)" stroke-width="35" stroke-linejoin="round" d="M 22546,2465 L 24221,2983"/>
         <path fill="rgb(0,0,0)" stroke="none" d="M 24499,3069 L 24238,2882 24178,3076 24499,3069 Z"/>
        </g>
       </g>
       <g class="com.sun.star.drawing.LineShape">
        <g id="id18">
         <rect class="BoundingBox" stroke="none" fill="none" x="22595" y="3208" width="1905" height="838"/>
         <path fill="none" stroke="rgb(0,0,0)" stroke-width="35" stroke-linejoin="round" d="M 22613,4027 L 24232,3324"/>
         <path fill="rgb(0,0,0)" stroke="none" d="M 24499,3208 L 24179,3236 24260,3422 24499,3208 Z"/>
        </g>
       </g>
       <g class="com.sun.star.drawing.LineShape">
        <g id="id19">
         <rect class="BoundingBox" stroke="none" fill="none" x="22559" y="3982" width="1683" height="798"/>
         <path fill="none" stroke="rgb(0,0,0)" stroke-width="35" stroke-linejoin="round" d="M 22577,4000 L 23977,4656"/>
         <path fill="rgb(0,0,0)" stroke="none" d="M 24241,4779 L 24008,4558 23922,4742 24241,4779 Z"/>
        </g>
       </g>
      </g>
     </g>
    </g>
   </g>
  </g>
 </g>
</svg>