<?xml version="1.0" encoding="UTF-8"?>
<!DOCTYPE svg PUBLIC "-//W3C//DTD SVG 1.1//EN" "http://www.w3.org/Graphics/SVG/1.1/DTD/svg11.dtd">
<svg version="1.2" width="87.58mm" height="62.27mm" viewBox="12044 8123 8758 6227" preserveAspectRatio="xMidYMid" fill-rule="evenodd" stroke-width="28.222" stroke-linejoin="round" xmlns="http://www.w3.org/2000/svg" xmlns:ooo="http://xml.openoffice.org/svg/export" xmlns:xlink="http://www.w3.org/1999/xlink" xmlns:presentation="http://sun.com/xmlns/staroffice/presentation" xmlns:smil="http://www.w3.org/2001/SMIL20/" xmlns:anim="urn:oasis:names:tc:opendocument:xmlns:animation:1.0" xml:space="preserve">
 <defs class="ClipPathGroup">
  <clipPath id="presentation_clip_path" clipPathUnits="userSpaceOnUse">
   <rect x="12044" y="8123" width="8758" height="6227"/>
  </clipPath>
  <clipPath id="presentation_clip_path_shrink" clipPathUnits="userSpaceOnUse">
   <rect x="12052" y="8129" width="8741" height="6215"/>
  </clipPath>
 </defs>
 <defs class="TextShapeIndex">
  <g ooo:slide="id1" ooo:id-list="id3 id4 id5 id6 id7 id8 id9 id10 id11 id12 id13 id14 id15 id16 id17 id18 id19 id20"/>
 </defs>
 <defs class="EmbeddedBulletChars">
  <g id="bullet-char-template-57356" transform="scale(0.00048828125,-0.00048828125)">
   <path d="M 580,1141 L 1163,571 580,0 -4,571 580,1141 Z"/>
  </g>
  <g id="bullet-char-template-57354" transform="scale(0.00048828125,-0.00048828125)">
   <path d="M 8,1128 L 1137,1128 1137,0 8,0 8,1128 Z"/>
  </g>
  <g id="bullet-char-template-10146" transform="scale(0.00048828125,-0.00048828125)">
   <path d="M 174,0 L 602,739 174,1481 1456,739 174,0 Z M 1358,739 L 309,1346 659,739 1358,739 Z"/>
  </g>
  <g id="bullet-char-template-10132" transform="scale(0.00048828125,-0.00048828125)">
   <path d="M 2015,739 L 1276,0 717,0 1260,543 174,543 174,936 1260,936 717,1481 1274,1481 2015,739 Z"/>
  </g>
  <g id="bullet-char-template-10007" transform="scale(0.00048828125,-0.00048828125)">
   <path d="M 0,-2 C -7,14 -16,27 -25,37 L 356,567 C 262,823 215,952 215,954 215,979 228,992 255,992 264,992 276,990 289,987 310,991 331,999 354,1012 L 381,999 492,748 772,1049 836,1024 860,1049 C 881,1039 901,1025 922,1006 886,937 835,863 770,784 769,783 710,716 594,584 L 774,223 C 774,196 753,168 711,139 L 727,119 C 717,90 699,76 672,76 641,76 570,178 457,381 L 164,-76 C 142,-110 111,-127 72,-127 30,-127 9,-110 8,-76 1,-67 -2,-52 -2,-32 -2,-23 -1,-13 0,-2 Z"/>
  </g>
  <g id="bullet-char-template-10004" transform="scale(0.00048828125,-0.00048828125)">
   <path d="M 285,-33 C 182,-33 111,30 74,156 52,228 41,333 41,471 41,549 55,616 82,672 116,743 169,778 240,778 293,778 328,747 346,684 L 369,508 C 377,444 397,411 428,410 L 1163,1116 C 1174,1127 1196,1133 1229,1133 1271,1133 1292,1118 1292,1087 L 1292,965 C 1292,929 1282,901 1262,881 L 442,47 C 390,-6 338,-33 285,-33 Z"/>
  </g>
  <g id="bullet-char-template-9679" transform="scale(0.00048828125,-0.00048828125)">
   <path d="M 813,0 C 632,0 489,54 383,161 276,268 223,411 223,592 223,773 276,916 383,1023 489,1130 632,1184 813,1184 992,1184 1136,1130 1245,1023 1353,916 1407,772 1407,592 1407,412 1353,268 1245,161 1136,54 992,0 813,0 Z"/>
  </g>
  <g id="bullet-char-template-8226" transform="scale(0.00048828125,-0.00048828125)">
   <path d="M 346,457 C 273,457 209,483 155,535 101,586 74,649 74,723 74,796 101,859 155,911 209,963 273,989 346,989 419,989 480,963 531,910 582,859 608,796 608,723 608,648 583,586 532,535 482,483 420,457 346,457 Z"/>
  </g>
  <g id="bullet-char-template-8211" transform="scale(0.00048828125,-0.00048828125)">
   <path d="M -4,459 L 1135,459 1135,606 -4,606 -4,459 Z"/>
  </g>
  <g id="bullet-char-template-61548" transform="scale(0.00048828125,-0.00048828125)">
   <path d="M 173,740 C 173,903 231,1043 346,1159 462,1274 601,1332 765,1332 928,1332 1067,1274 1183,1159 1299,1043 1357,903 1357,740 1357,577 1299,437 1183,322 1067,206 928,148 765,148 601,148 462,206 346,322 231,437 173,577 173,740 Z"/>
  </g>
 </defs>
 <defs class="TextEmbeddedBitmaps"/>
 <g class="SlideGroup">
  <g>
   <g id="container-id1">
    <g id="id1" class="Slide" clip-path="url(#presentation_clip_path)">
     <g class="Page">
      <g class="Group">
       <g class="com.sun.star.drawing.CustomShape">
        <g id="id3">
         <rect class="BoundingBox" stroke="none" fill="none" x="13671" y="12382" width="413" height="413"/>
         <path fill="rgb(0,0,0)" stroke="none" d="M 13876,12383 C 13992,12383 14081,12471 14081,12587 14081,12703 13992,12792 13876,12792 13760,12792 13672,12703 13672,12587 13672,12471 13760,12383 13876,12383 Z M 13672,12383 L 13672,12383 Z M 14082,12793 L 14082,12793 Z"/>
         <path fill="none" stroke="rgb(0,0,0)" d="M 13876,12383 C 13992,12383 14081,12471 14081,12587 14081,12703 13992,12792 13876,12792 13760,12792 13672,12703 13672,12587 13672,12471 13760,12383 13876,12383 Z"/>
         <path fill="none" stroke="rgb(0,0,0)" d="M 13672,12383 L 13672,12383 Z"/>
         <path fill="none" stroke="rgb(0,0,0)" d="M 14082,12793 L 14082,12793 Z"/>
        </g>
       </g>
       <g class="com.sun.star.drawing.CustomShape">
        <g id="id4">
         <rect class="BoundingBox" stroke="none" fill="none" x="17759" y="9956" width="413" height="413"/>
         <path fill="rgb(0,0,0)" stroke="none" d="M 17964,9957 C 18080,9957 18169,10045 18169,10161 18169,10277 18080,10366 17964,10366 17848,10366 17760,10277 17760,10161 17760,10045 17848,9957 17964,9957 Z M 17760,9957 L 17760,9957 Z M 18170,10367 L 18170,10367 Z"/>
         <path fill="none" stroke="rgb(0,0,0)" d="M 17964,9957 C 18080,9957 18169,10045 18169,10161 18169,10277 18080,10366 17964,10366 17848,10366 17760,10277 17760,10161 17760,10045 17848,9957 17964,9957 Z"/>
         <path fill="none" stroke="rgb(0,0,0)" d="M 17760,9957 L 17760,9957 Z"/>
         <path fill="none" stroke="rgb(0,0,0)" d="M 18170,10367 L 18170,10367 Z"/>
        </g>
       </g>
       <g class="com.sun.star.drawing.CustomShape">
        <g id="id5">
         <rect class="BoundingBox" stroke="none" fill="none" x="17759" y="9956" width="413" height="413"/>
         <path fill="rgb(0,0,0)" stroke="none" d="M 17964,9957 C 18080,9957 18169,10045 18169,10161 18169,10277 18080,10366 17964,10366 17848,10366 17760,10277 17760,10161 17760,10045 17848,9957 17964,9957 Z M 17760,9957 L 17760,9957 Z M 18170,10367 L 18170,10367 Z"/>
         <path fill="none" stroke="rgb(0,0,0)" d="M 17964,9957 C 18080,9957 18169,10045 18169,10161 18169,10277 18080,10366 17964,10366 17848,10366 17760,10277 17760,10161 17760,10045 17848,9957 17964,9957 Z"/>
         <path fill="none" stroke="rgb(0,0,0)" d="M 17760,9957 L 17760,9957 Z"/>
         <path fill="none" stroke="rgb(0,0,0)" d="M 18170,10367 L 18170,10367 Z"/>
        </g>
       </g>
       <g class="com.sun.star.drawing.CustomShape">
        <g id="id6">
         <rect class="BoundingBox" stroke="none" fill="none" x="14777" y="9942" width="413" height="413"/>
         <path fill="rgb(0,0,0)" stroke="none" d="M 14982,9943 C 15098,9943 15187,10031 15187,10147 15187,10263 15098,10352 14982,10352 14866,10352 14778,10263 14778,10147 14778,10031 14866,9943 14982,9943 Z M 14778,9943 L 14778,9943 Z M 15188,10353 L 15188,10353 Z"/>
         <path fill="none" stroke="rgb(0,0,0)" d="M 14982,9943 C 15098,9943 15187,10031 15187,10147 15187,10263 15098,10352 14982,10352 14866,10352 14778,10263 14778,10147 14778,10031 14866,9943 14982,9943 Z"/>
         <path fill="none" stroke="rgb(0,0,0)" d="M 14778,9943 L 14778,9943 Z"/>
         <path fill="none" stroke="rgb(0,0,0)" d="M 15188,10353 L 15188,10353 Z"/>
        </g>
       </g>
       <g class="com.sun.star.drawing.CustomShape">
        <g id="id7">
         <rect class="BoundingBox" stroke="none" fill="none" x="15991" y="12303" width="413" height="413"/>
         <path fill="rgb(0,0,0)" stroke="none" d="M 16196,12304 C 16312,12304 16401,12392 16401,12508 16401,12624 16312,12713 16196,12713 16080,12713 15992,12624 15992,12508 15992,12392 16080,12304 16196,12304 Z M 15992,12304 L 15992,12304 Z M 16402,12714 L 16402,12714 Z"/>
         <path fill="none" stroke="rgb(0,0,0)" d="M 16196,12304 C 16312,12304 16401,12392 16401,12508 16401,12624 16312,12713 16196,12713 16080,12713 15992,12624 15992,12508 15992,12392 16080,12304 16196,12304 Z"/>
         <path fill="none" stroke="rgb(0,0,0)" d="M 15992,12304 L 15992,12304 Z"/>
         <path fill="none" stroke="rgb(0,0,0)" d="M 16402,12714 L 16402,12714 Z"/>
        </g>
       </g>
       <g class="com.sun.star.drawing.CustomShape">
        <g id="id8">
         <rect class="BoundingBox" stroke="none" fill="none" x="12043" y="11130" width="413" height="413"/>
         <path fill="rgb(0,0,0)" stroke="none" d="M 12248,11131 C 12364,11131 12453,11219 12453,11335 12453,11451 12364,11540 12248,11540 12132,11540 12044,11451 12044,11335 12044,11219 12132,11131 12248,11131 Z M 12044,11131 L 12044,11131 Z M 12454,11541 L 12454,11541 Z"/>
         <path fill="none" stroke="rgb(0,0,0)" d="M 12248,11131 C 12364,11131 12453,11219 12453,11335 12453,11451 12364,11540 12248,11540 12132,11540 12044,11451 12044,11335 12044,11219 12132,11131 12248,11131 Z"/>
         <path fill="none" stroke="rgb(0,0,0)" d="M 12044,11131 L 12044,11131 Z"/>
         <path fill="none" stroke="rgb(0,0,0)" d="M 12454,11541 L 12454,11541 Z"/>
        </g>
       </g>
       <g class="com.sun.star.drawing.CustomShape">
        <g id="id9">
         <rect class="BoundingBox" stroke="none" fill="none" x="18606" y="11815" width="413" height="413"/>
         <path fill="rgb(0,0,0)" stroke="none" d="M 18811,11816 C 18927,11816 19016,11904 19016,12020 19016,12136 18927,12225 18811,12225 18695,12225 18607,12136 18607,12020 18607,11904 18695,11816 18811,11816 Z M 18607,11816 L 18607,11816 Z M 19017,12226 L 19017,12226 Z"/>
         <path fill="none" stroke="rgb(0,0,0)" d="M 18811,11816 C 18927,11816 19016,11904 19016,12020 19016,12136 18927,12225 18811,12225 18695,12225 18607,12136 18607,12020 18607,11904 18695,11816 18811,11816 Z"/>
         <path fill="none" stroke="rgb(0,0,0)" d="M 18607,11816 L 18607,11816 Z"/>
         <path fill="none" stroke="rgb(0,0,0)" d="M 19017,12226 L 19017,12226 Z"/>
        </g>
       </g>
       <g class="com.sun.star.drawing.CustomShape">
        <g id="id10">
         <rect class="BoundingBox" stroke="none" fill="none" x="18049" y="13938" width="413" height="413"/>
         <path fill="rgb(0,0,0)" stroke="none" d="M 18254,13939 C 18370,13939 18459,14027 18459,14143 18459,14259 18370,14348 18254,14348 18138,14348 18050,14259 18050,14143 18050,14027 18138,13939 18254,13939 Z M 18050,13939 L 18050,13939 Z M 18460,14349 L 18460,14349 Z"/>
         <path fill="none" stroke="rgb(0,0,0)" d="M 18254,13939 C 18370,13939 18459,14027 18459,14143 18459,14259 18370,14348 18254,14348 18138,14348 18050,14259 18050,14143 18050,14027 18138,13939 18254,13939 Z"/>
         <path fill="none" stroke="rgb(0,0,0)" d="M 18050,13939 L 18050,13939 Z"/>
         <path fill="none" stroke="rgb(0,0,0)" d="M 18460,14349 L 18460,14349 Z"/>
        </g>
       </g>
       <g class="com.sun.star.drawing.CustomShape">
        <g id="id11">
         <rect class="BoundingBox" stroke="none" fill="none" x="20390" y="13269" width="413" height="413"/>
         <path fill="rgb(0,0,0)" stroke="none" d="M 20595,13270 C 20711,13270 20800,13358 20800,13474 20800,13590 20711,13679 20595,13679 20479,13679 20391,13590 20391,13474 20391,13358 20479,13270 20595,13270 Z M 20391,13270 L 20391,13270 Z M 20801,13680 L 20801,13680 Z"/>
         <path fill="none" stroke="rgb(0,0,0)" d="M 20595,13270 C 20711,13270 20800,13358 20800,13474 20800,13590 20711,13679 20595,13679 20479,13679 20391,13590 20391,13474 20391,13358 20479,13270 20595,13270 Z"/>
         <path fill="none" stroke="rgb(0,0,0)" d="M 20391,13270 L 20391,13270 Z"/>
         <path fill="none" stroke="rgb(0,0,0)" d="M 20801,13680 L 20801,13680 Z"/>
        </g>
       </g>
       <g class="com.sun.star.drawing.LineShape">
        <g id="id12">
         <rect class="BoundingBox" stroke="none" fill="none" x="14964" y="8320" width="1413" height="1859"/>
         <path fill="none" stroke="rgb(0,0,0)" stroke-width="35" stroke-linejoin="round" d="M 14982,10160 L 16358,8338"/>
        </g>
       </g>
       <g class="com.sun.star.drawing.LineShape">
        <g id="id13">
         <rect class="BoundingBox" stroke="none" fill="none" x="16340" y="8320" width="1619" height="1883"/>
         <path fill="none" stroke="rgb(0,0,0)" stroke-width="35" stroke-linejoin="round" d="M 17940,10184 L 16358,8338"/>
        </g>
       </g>
       <g class="com.sun.star.drawing.LineShape">
        <g id="id14">
         <rect class="BoundingBox" stroke="none" fill="none" x="17922" y="10166" width="899" height="1878"/>
         <path fill="none" stroke="rgb(0,0,0)" stroke-width="35" stroke-linejoin="round" d="M 17940,10184 L 18802,12025"/>
        </g>
       </g>
       <g class="com.sun.star.drawing.LineShape">
        <g id="id15">
         <rect class="BoundingBox" stroke="none" fill="none" x="18268" y="11989" width="553" height="2208"/>
         <path fill="none" stroke="rgb(0,0,0)" stroke-width="35" stroke-linejoin="round" d="M 18286,14178 L 18802,12007"/>
        </g>
       </g>
       <g class="com.sun.star.drawing.LineShape">
        <g id="id16">
         <rect class="BoundingBox" stroke="none" fill="none" x="18784" y="11990" width="1853" height="1532"/>
         <path fill="none" stroke="rgb(0,0,0)" stroke-width="35" stroke-linejoin="round" d="M 20618,13503 L 18802,12008"/>
        </g>
       </g>
       <g class="com.sun.star.drawing.LineShape">
        <g id="id17">
         <rect class="BoundingBox" stroke="none" fill="none" x="14964" y="10142" width="1289" height="2393"/>
         <path fill="none" stroke="rgb(0,0,0)" stroke-width="35" stroke-linejoin="round" d="M 14982,10160 L 16234,12516"/>
        </g>
       </g>
       <g class="com.sun.star.drawing.LineShape">
        <g id="id18">
         <rect class="BoundingBox" stroke="none" fill="none" x="13860" y="10142" width="1141" height="2485"/>
         <path fill="none" stroke="rgb(0,0,0)" stroke-width="35" stroke-linejoin="round" d="M 14982,10160 L 13878,12608"/>
        </g>
       </g>
       <g class="com.sun.star.drawing.LineShape">
        <g id="id19">
         <rect class="BoundingBox" stroke="none" fill="none" x="12253" y="10142" width="2748" height="1230"/>
         <path fill="none" stroke="rgb(0,0,0)" stroke-width="35" stroke-linejoin="round" d="M 14982,10160 L 12271,11353"/>
        </g>
       </g>
       <g class="com.sun.star.drawing.CustomShape">
        <g id="id20">
         <rect class="BoundingBox" stroke="none" fill="none" x="16154" y="8122" width="413" height="413"/>
         <path fill="rgb(206,24,30)" stroke="none" d="M 16359,8123 C 16475,8123 16564,8211 16564,8327 16564,8443 16475,8532 16359,8532 16243,8532 16155,8443 16155,8327 16155,8211 16243,8123 16359,8123 Z M 16155,8123 L 16155,8123 Z M 16565,8533 L 16565,8533 Z"/>
         <path fill="none" stroke="rgb(206,24,30)" d="M 16359,8123 C 16475,8123 16564,8211 16564,8327 16564,8443 16475,8532 16359,8532 16243,8532 16155,8443 16155,8327 16155,8211 16243,8123 16359,8123 Z"/>
         <path fill="none" stroke="rgb(206,24,30)" d="M 16155,8123 L 16155,8123 Z"/>
         <path fill="none" stroke="rgb(206,24,30)" d="M 16565,8533 L 16565,8533 Z"/>
        </g>
       </g>
      </g>
     </g>
    </g>
   </g>
  </g>
 </g>
</svg>