<?xml version="1.0" encoding="UTF-8"?>
<!DOCTYPE svg PUBLIC "-//W3C//DTD SVG 1.1//EN" "http://www.w3.org/Graphics/SVG/1.1/DTD/svg11.dtd">
<svg version="1.2" width="32.83mm" height="35.92mm" viewBox="22709 3207 3283 3592" preserveAspectRatio="xMidYMid" fill-rule="evenodd" stroke-width="28.222" stroke-linejoin="round" xmlns="http://www.w3.org/2000/svg" xmlns:ooo="http://xml.openoffice.org/svg/export" xmlns:xlink="http://www.w3.org/1999/xlink" xmlns:presentation="http://sun.com/xmlns/staroffice/presentation" xmlns:smil="http://www.w3.org/2001/SMIL20/" xmlns:anim="urn:oasis:names:tc:opendocument:xmlns:animation:1.0" xml:space="preserve">
 <defs class="ClipPathGroup">
  <clipPath id="presentation_clip_path" clipPathUnits="userSpaceOnUse">
   <rect x="22709" y="3207" width="3283" height="3592"/>
  </clipPath>
  <clipPath id="presentation_clip_path_shrink" clipPathUnits="userSpaceOnUse">
   <rect x="22712" y="3210" width="3277" height="3585"/>
  </clipPath>
 </defs>
 <defs class="TextShapeIndex">
  <g ooo:slide="id1" ooo:id-list="id3 id4 id5 id6 id7 id8 id9 id10 id11 id12 id13 id14"/>
 </defs>
 <defs class="EmbeddedBulletChars">
  <g id="bullet-char-template-57356" transform="scale(0.00048828125,-0.00048828125)">
   <path d="M 580,1141 L 1163,571 580,0 -4,571 580,1141 Z"/>
  </g>
  <g id="bullet-char-template-57354" transform="scale(0.00048828125,-0.00048828125)">
   <path d="M 8,1128 L 1137,1128 1137,0 8,0 8,1128 Z"/>
  </g>
  <g id="bullet-char-template-10146" transform="scale(0.00048828125,-0.00048828125)">
   <path d="M 174,0 L 602,739 174,1481 1456,739 174,0 Z M 1358,739 L 309,1346 659,739 1358,739 Z"/>
  </g>
  <g id="bullet-char-template-10132" transform="scale(0.00048828125,-0.00048828125)">
   <path d="M 2015,739 L 1276,0 717,0 1260,543 174,543 174,936 1260,936 717,1481 1274,1481 2015,739 Z"/>
  </g>
  <g id="bullet-char-template-10007" transform="scale(0.00048828125,-0.00048828125)">
   <path d="M 0,-2 C -7,14 -16,27 -25,37 L 356,567 C 262,823 215,952 215,954 215,979 228,992 255,992 264,992 276,990 289,987 310,991 331,999 354,1012 L 381,999 492,748 772,1049 836,1024 860,1049 C 881,1039 901,1025 922,1006 886,937 835,863 770,784 769,783 710,716 594,584 L 774,223 C 774,196 753,168 711,139 L 727,119 C 717,90 699,76 672,76 641,76 570,178 457,381 L 164,-76 C 142,-110 111,-127 72,-127 30,-127 9,-110 8,-76 1,-67 -2,-52 -2,-32 -2,-23 -1,-13 0,-2 Z"/>
  </g>
  <g id="bullet-char-template-10004" transform="scale(0.00048828125,-0.00048828125)">
   <path d="M 285,-33 C 182,-33 111,30 74,156 52,228 41,333 41,471 41,549 55,616 82,672 116,743 169,778 240,778 293,778 328,747 346,684 L 369,508 C 377,444 397,411 428,410 L 1163,1116 C 1174,1127 1196,1133 1229,1133 1271,1133 1292,1118 1292,1087 L 1292,965 C 1292,929 1282,901 1262,881 L 442,47 C 390,-6 338,-33 285,-33 Z"/>
  </g>
  <g id="bullet-char-template-9679" transform="scale(0.00048828125,-0.00048828125)">
   <path d="M 813,0 C 632,0 489,54 383,161 276,268 223,411 223,592 223,773 276,916 383,1023 489,1130 632,1184 813,1184 992,1184 1136,1130 1245,1023 1353,916 1407,772 1407,592 1407,412 1353,268 1245,161 1136,54 992,0 813,0 Z"/>
  </g>
  <g id="bullet-char-template-8226" transform="scale(0.00048828125,-0.00048828125)">
   <path d="M 346,457 C 273,457 209,483 155,535 101,586 74,649 74,723 74,796 101,859 155,911 209,963 273,989 346,989 419,989 480,963 531,910 582,859 608,796 608,723 608,648 583,586 532,535 482,483 420,457 346,457 Z"/>
  </g>
  <g id="bullet-char-template-8211" transform="scale(0.00048828125,-0.00048828125)">
   <path d="M -4,459 L 1135,459 1135,606 -4,606 -4,459 Z"/>
  </g>
  <g id="bullet-char-template-61548" transform="scale(0.00048828125,-0.00048828125)">
   <path d="M 173,740 C 173,903 231,1043 346,1159 462,1274 601,1332 765,1332 928,1332 1067,1274 1183,1159 1299,1043 1357,903 1357,740 1357,577 1299,437 1183,322 1067,206 928,148 765,148 601,148 462,206 346,322 231,437 173,577 173,740 Z"/>
  </g>
 </defs>
 <defs class="TextEmbeddedBitmaps"/>
 <g class="SlideGroup">
  <g>
   <g id="container-id1">
    <g id="id1" class="Slide" clip-path="url(#presentation_clip_path)">
     <g class="Page">
      <g class="Group">
       <g class="com.sun.star.drawing.LineShape">
        <g id="id3">
         <rect class="BoundingBox" stroke="none" fill="none" x="23743" y="3403" width="960" height="1417"/>
         <path fill="none" stroke="rgb(0,166,93)" stroke-width="35" stroke-linejoin="round" d="M 24684,3421 L 23905,4578"/>
         <path fill="rgb(0,166,93)" stroke="none" d="M 23743,4819 L 23997,4623 23829,4510 23743,4819 Z"/>
        </g>
       </g>
       <g class="com.sun.star.drawing.LineShape">
        <g id="id4">
         <rect class="BoundingBox" stroke="none" fill="none" x="23005" y="4967" width="643" height="1404"/>
         <path fill="none" stroke="rgb(0,166,93)" stroke-width="35" stroke-linejoin="round" d="M 23629,4985 L 23125,6105"/>
         <path fill="rgb(0,166,93)" stroke="none" d="M 23005,6370 L 23223,6134 23038,6051 23005,6370 Z"/>
        </g>
       </g>
       <g class="com.sun.star.drawing.LineShape">
        <g id="id5">
         <rect class="BoundingBox" stroke="none" fill="none" x="24666" y="3403" width="1006" height="1374"/>
         <path fill="none" stroke="rgb(237,28,36)" stroke-width="35" stroke-linejoin="round" d="M 24684,3421 L 25500,4541"/>
         <path fill="rgb(237,28,36)" stroke="none" d="M 25671,4776 L 25574,4470 25410,4590 25671,4776 Z"/>
        </g>
       </g>
       <g class="com.sun.star.drawing.LineShape">
        <g id="id6">
         <rect class="BoundingBox" stroke="none" fill="none" x="25299" y="4931" width="517" height="1473"/>
         <path fill="none" stroke="rgb(0,0,0)" stroke-width="35" stroke-linejoin="round" d="M 25797,4949 L 25393,6128"/>
         <path fill="rgb(0,0,0)" stroke="none" d="M 25299,6403 L 25494,6148 25302,6082 25299,6403 Z"/>
        </g>
       </g>
       <g class="com.sun.star.drawing.LineShape">
        <g id="id7">
         <rect class="BoundingBox" stroke="none" fill="none" x="23104" y="4931" width="2712" height="1530"/>
         <path fill="none" stroke="rgb(0,0,0)" stroke-width="35" stroke-linejoin="round" d="M 25797,4949 L 23358,6317"/>
         <path fill="rgb(0,0,0)" stroke="none" d="M 23104,6459 L 23419,6399 23320,6222 23104,6459 Z"/>
        </g>
       </g>
       <g class="com.sun.star.drawing.LineShape">
        <g id="id8">
         <rect class="BoundingBox" stroke="none" fill="none" x="24668" y="3617" width="576" height="3015"/>
         <path fill="none" stroke="rgb(0,0,0)" stroke-width="35" stroke-linejoin="round" d="M 25225,6613 L 24767,3904"/>
         <path fill="rgb(0,0,0)" stroke="none" d="M 24718,3617 L 24669,3934 24869,3900 24718,3617 Z"/>
        </g>
       </g>
       <g class="com.sun.star.drawing.OpenBezierShape">
        <g id="id9">
         <rect class="BoundingBox" stroke="none" fill="none" x="22793" y="3421" width="1707" height="3015"/>
         <path fill="none" stroke="rgb(0,0,0)" stroke-width="35" stroke-linejoin="round" d="M 22814,6417 C 22813,6395 22812,6373 22812,6351"/>
         <path fill="none" stroke="rgb(0,0,0)" stroke-width="35" stroke-linejoin="round" d="M 22811,6283 C 22812,6260 22812,6237 22813,6213"/>
         <path fill="none" stroke="rgb(0,0,0)" stroke-width="35" stroke-linejoin="round" d="M 22817,6141 C 22818,6119 22820,6097 22822,6075"/>
         <path fill="none" stroke="rgb(0,0,0)" stroke-width="35" stroke-linejoin="round" d="M 22829,6007 C 22832,5984 22835,5961 22838,5938"/>
         <path fill="none" stroke="rgb(0,0,0)" stroke-width="35" stroke-linejoin="round" d="M 22848,5868 C 22852,5846 22856,5823 22860,5800"/>
         <path fill="none" stroke="rgb(0,0,0)" stroke-width="35" stroke-linejoin="round" d="M 22872,5734 C 22877,5711 22882,5689 22887,5666"/>
         <path fill="none" stroke="rgb(0,0,0)" stroke-width="35" stroke-linejoin="round" d="M 22902,5598 C 22907,5576 22913,5553 22919,5530"/>
         <path fill="none" stroke="rgb(0,0,0)" stroke-width="35" stroke-linejoin="round" d="M 22937,5464 C 22943,5442 22949,5420 22955,5398"/>
         <path fill="none" stroke="rgb(0,0,0)" stroke-width="35" stroke-linejoin="round" d="M 22975,5332 C 22982,5310 22989,5288 22997,5266"/>
         <path fill="none" stroke="rgb(0,0,0)" stroke-width="35" stroke-linejoin="round" d="M 23019,5200 C 23027,5178 23034,5157 23042,5136"/>
         <path fill="none" stroke="rgb(0,0,0)" stroke-width="35" stroke-linejoin="round" d="M 23067,5071 C 23075,5050 23083,5029 23092,5007"/>
         <path fill="none" stroke="rgb(0,0,0)" stroke-width="35" stroke-linejoin="round" d="M 23119,4943 C 23128,4922 23137,4901 23147,4880"/>
         <path fill="none" stroke="rgb(0,0,0)" stroke-width="35" stroke-linejoin="round" d="M 23175,4817 C 23185,4796 23195,4776 23205,4755"/>
         <path fill="none" stroke="rgb(0,0,0)" stroke-width="35" stroke-linejoin="round" d="M 23236,4693 C 23246,4673 23257,4652 23268,4632"/>
         <path fill="none" stroke="rgb(0,0,0)" stroke-width="35" stroke-linejoin="round" d="M 23301,4571 C 23312,4551 23324,4531 23335,4511"/>
         <path fill="none" stroke="rgb(0,0,0)" stroke-width="35" stroke-linejoin="round" d="M 23371,4452 C 23383,4432 23395,4413 23407,4393"/>
         <path fill="none" stroke="rgb(0,0,0)" stroke-width="35" stroke-linejoin="round" d="M 23445,4336 C 23458,4316 23471,4297 23484,4279"/>
         <path fill="none" stroke="rgb(0,0,0)" stroke-width="35" stroke-linejoin="round" d="M 23524,4222 C 23537,4204 23551,4185 23565,4167"/>
         <path fill="none" stroke="rgb(0,0,0)" stroke-width="35" stroke-linejoin="round" d="M 23608,4112 C 23622,4094 23637,4077 23651,4059"/>
         <path fill="none" stroke="rgb(0,0,0)" stroke-width="35" stroke-linejoin="round" d="M 23696,4007 C 23711,3990 23727,3973 23742,3956"/>
         <path fill="none" stroke="rgb(0,0,0)" stroke-width="35" stroke-linejoin="round" d="M 23790,3905 C 23806,3889 23823,3873 23839,3857"/>
         <path fill="none" stroke="rgb(0,0,0)" stroke-width="35" stroke-linejoin="round" d="M 23889,3809 C 23906,3794 23923,3779 23940,3764"/>
         <path fill="none" stroke="rgb(0,0,0)" stroke-width="35" stroke-linejoin="round" d="M 23993,3719 C 24011,3705 24030,3691 24048,3677"/>
         <path fill="none" stroke="rgb(0,0,0)" stroke-width="35" stroke-linejoin="round" d="M 24104,3636 C 24122,3622 24141,3609 24160,3597"/>
         <path fill="none" stroke="rgb(0,0,0)" stroke-width="35" stroke-linejoin="round" d="M 24218,3560 C 24225,3556 24233,3551 24240,3547"/>
         <path fill="rgb(0,0,0)" stroke="none" d="M 24499,3421 L 24181,3464 24270,3646 24499,3421 Z"/>
        </g>
       </g>
       <g class="com.sun.star.drawing.CustomShape">
        <g id="id10">
         <rect class="BoundingBox" stroke="none" fill="none" x="24497" y="3206" width="413" height="413"/>
         <path fill="rgb(0,0,0)" stroke="none" d="M 24702,3207 C 24818,3207 24907,3295 24907,3411 24907,3527 24818,3616 24702,3616 24586,3616 24498,3527 24498,3411 24498,3295 24586,3207 24702,3207 Z M 24498,3207 L 24498,3207 Z M 24908,3617 L 24908,3617 Z"/>
         <path fill="none" stroke="rgb(0,0,0)" d="M 24702,3207 C 24818,3207 24907,3295 24907,3411 24907,3527 24818,3616 24702,3616 24586,3616 24498,3527 24498,3411 24498,3295 24586,3207 24702,3207 Z"/>
         <path fill="none" stroke="rgb(0,0,0)" d="M 24498,3207 L 24498,3207 Z"/>
         <path fill="none" stroke="rgb(0,0,0)" d="M 24908,3617 L 24908,3617 Z"/>
        </g>
       </g>
       <g class="com.sun.star.drawing.CustomShape">
        <g id="id11">
         <rect class="BoundingBox" stroke="none" fill="none" x="23421" y="4777" width="413" height="413"/>
         <path fill="rgb(0,0,0)" stroke="none" d="M 23626,4778 C 23742,4778 23831,4866 23831,4982 23831,5098 23742,5187 23626,5187 23510,5187 23422,5098 23422,4982 23422,4866 23510,4778 23626,4778 Z M 23422,4778 L 23422,4778 Z M 23832,5188 L 23832,5188 Z"/>
         <path fill="none" stroke="rgb(0,0,0)" d="M 23626,4778 C 23742,4778 23831,4866 23831,4982 23831,5098 23742,5187 23626,5187 23510,5187 23422,5098 23422,4982 23422,4866 23510,4778 23626,4778 Z"/>
         <path fill="none" stroke="rgb(0,0,0)" d="M 23422,4778 L 23422,4778 Z"/>
         <path fill="none" stroke="rgb(0,0,0)" d="M 23832,5188 L 23832,5188 Z"/>
        </g>
       </g>
       <g class="com.sun.star.drawing.CustomShape">
        <g id="id12">
         <rect class="BoundingBox" stroke="none" fill="none" x="22708" y="6351" width="413" height="413"/>
         <path fill="rgb(0,0,0)" stroke="none" d="M 22913,6352 C 23029,6352 23118,6440 23118,6556 23118,6672 23029,6761 22913,6761 22797,6761 22709,6672 22709,6556 22709,6440 22797,6352 22913,6352 Z M 22709,6352 L 22709,6352 Z M 23119,6762 L 23119,6762 Z"/>
         <path fill="none" stroke="rgb(0,0,0)" d="M 22913,6352 C 23029,6352 23118,6440 23118,6556 23118,6672 23029,6761 22913,6761 22797,6761 22709,6672 22709,6556 22709,6440 22797,6352 22913,6352 Z"/>
         <path fill="none" stroke="rgb(0,0,0)" d="M 22709,6352 L 22709,6352 Z"/>
         <path fill="none" stroke="rgb(0,0,0)" d="M 23119,6762 L 23119,6762 Z"/>
        </g>
       </g>
       <g class="com.sun.star.drawing.CustomShape">
        <g id="id13">
         <rect class="BoundingBox" stroke="none" fill="none" x="25580" y="4743" width="413" height="413"/>
         <path fill="rgb(0,0,0)" stroke="none" d="M 25785,4744 C 25901,4744 25990,4832 25990,4948 25990,5064 25901,5153 25785,5153 25669,5153 25581,5064 25581,4948 25581,4832 25669,4744 25785,4744 Z M 25581,4744 L 25581,4744 Z M 25991,5154 L 25991,5154 Z"/>
         <path fill="none" stroke="rgb(0,0,0)" d="M 25785,4744 C 25901,4744 25990,4832 25990,4948 25990,5064 25901,5153 25785,5153 25669,5153 25581,5064 25581,4948 25581,4832 25669,4744 25785,4744 Z"/>
         <path fill="none" stroke="rgb(0,0,0)" d="M 25581,4744 L 25581,4744 Z"/>
         <path fill="none" stroke="rgb(0,0,0)" d="M 25991,5154 L 25991,5154 Z"/>
        </g>
       </g>
       <g class="com.sun.star.drawing.CustomShape">
        <g id="id14">
         <rect class="BoundingBox" stroke="none" fill="none" x="25004" y="6387" width="413" height="413"/>
         <path fill="rgb(0,0,0)" stroke="none" d="M 25209,6388 C 25325,6388 25414,6476 25414,6592 25414,6708 25325,6797 25209,6797 25093,6797 25005,6708 25005,6592 25005,6476 25093,6388 25209,6388 Z M 25005,6388 L 25005,6388 Z M 25415,6798 L 25415,6798 Z"/>
         <path fill="none" stroke="rgb(0,0,0)" d="M 25209,6388 C 25325,6388 25414,6476 25414,6592 25414,6708 25325,6797 25209,6797 25093,6797 25005,6708 25005,6592 25005,6476 25093,6388 25209,6388 Z"/>
         <path fill="none" stroke="rgb(0,0,0)" d="M 25005,6388 L 25005,6388 Z"/>
         <path fill="none" stroke="rgb(0,0,0)" d="M 25415,6798 L 25415,6798 Z"/>
        </g>
       </g>
      </g>
     </g>
    </g>
   </g>
  </g>
 </g>
</svg>