<?xml version="1.0" encoding="UTF-8"?>
<!DOCTYPE svg PUBLIC "-//W3C//DTD SVG 1.1//EN" "http://www.w3.org/Graphics/SVG/1.1/DTD/svg11.dtd">
<svg version="1.2" width="108.63mm" height="45.61mm" viewBox="2861 2456 10863 4561" preserveAspectRatio="xMidYMid" fill-rule="evenodd" stroke-width="28.222" stroke-linejoin="round" xmlns="http://www.w3.org/2000/svg" xmlns:ooo="http://xml.openoffice.org/svg/export" xmlns:xlink="http://www.w3.org/1999/xlink" xmlns:presentation="http://sun.com/xmlns/staroffice/presentation" xmlns:smil="http://www.w3.org/2001/SMIL20/" xmlns:anim="urn:oasis:names:tc:opendocument:xmlns:animation:1.0" xml:space="preserve">
 <defs class="ClipPathGroup">
  <clipPath id="presentation_clip_path" clipPathUnits="userSpaceOnUse">
   <rect x="2861" y="2456" width="10863" height="4561"/>
  </clipPath>
  <clipPath id="presentation_clip_path_shrink" clipPathUnits="userSpaceOnUse">
   <rect x="2871" y="2460" width="10842" height="4552"/>
  </clipPath>
 </defs>
 <defs class="TextShapeIndex">
  <g ooo:slide="id1" ooo:id-list="id3 id4 id5 id6 id7 id8 id9 id10 id11 id12 id13 id14 id15 id16 id17 id18 id19 id20 id21 id22 id23 id24 id25 id26 id27 id28 id29 id30 id31 id32 id33 id34 id35 id36 id37 id38"/>
 </defs>
 <defs class="EmbeddedBulletChars">
  <g id="bullet-char-template-57356" transform="scale(0.00048828125,-0.00048828125)">
   <path d="M 580,1141 L 1163,571 580,0 -4,571 580,1141 Z"/>
  </g>
  <g id="bullet-char-template-57354" transform="scale(0.00048828125,-0.00048828125)">
   <path d="M 8,1128 L 1137,1128 1137,0 8,0 8,1128 Z"/>
  </g>
  <g id="bullet-char-template-10146" transform="scale(0.00048828125,-0.00048828125)">
   <path d="M 174,0 L 602,739 174,1481 1456,739 174,0 Z M 1358,739 L 309,1346 659,739 1358,739 Z"/>
  </g>
  <g id="bullet-char-template-10132" transform="scale(0.00048828125,-0.00048828125)">
   <path d="M 2015,739 L 1276,0 717,0 1260,543 174,543 174,936 1260,936 717,1481 1274,1481 2015,739 Z"/>
  </g>
  <g id="bullet-char-template-10007" transform="scale(0.00048828125,-0.00048828125)">
   <path d="M 0,-2 C -7,14 -16,27 -25,37 L 356,567 C 262,823 215,952 215,954 215,979 228,992 255,992 264,992 276,990 289,987 310,991 331,999 354,1012 L 381,999 492,748 772,1049 836,1024 860,1049 C 881,1039 901,1025 922,1006 886,937 835,863 770,784 769,783 710,716 594,584 L 774,223 C 774,196 753,168 711,139 L 727,119 C 717,90 699,76 672,76 641,76 570,178 457,381 L 164,-76 C 142,-110 111,-127 72,-127 30,-127 9,-110 8,-76 1,-67 -2,-52 -2,-32 -2,-23 -1,-13 0,-2 Z"/>
  </g>
  <g id="bullet-char-template-10004" transform="scale(0.00048828125,-0.00048828125)">
   <path d="M 285,-33 C 182,-33 111,30 74,156 52,228 41,333 41,471 41,549 55,616 82,672 116,743 169,778 240,778 293,778 328,747 346,684 L 369,508 C 377,444 397,411 428,410 L 1163,1116 C 1174,1127 1196,1133 1229,1133 1271,1133 1292,1118 1292,1087 L 1292,965 C 1292,929 1282,901 1262,881 L 442,47 C 390,-6 338,-33 285,-33 Z"/>
  </g>
  <g id="bullet-char-template-9679" transform="scale(0.00048828125,-0.00048828125)">
   <path d="M 813,0 C 632,0 489,54 383,161 276,268 223,411 223,592 223,773 276,916 383,1023 489,1130 632,1184 813,1184 992,1184 1136,1130 1245,1023 1353,916 1407,772 1407,592 1407,412 1353,268 1245,161 1136,54 992,0 813,0 Z"/>
  </g>
  <g id="bullet-char-template-8226" transform="scale(0.00048828125,-0.00048828125)">
   <path d="M 346,457 C 273,457 209,483 155,535 101,586 74,649 74,723 74,796 101,859 155,911 209,963 273,989 346,989 419,989 480,963 531,910 582,859 608,796 608,723 608,648 583,586 532,535 482,483 420,457 346,457 Z"/>
  </g>
  <g id="bullet-char-template-8211" transform="scale(0.00048828125,-0.00048828125)">
   <path d="M -4,459 L 1135,459 1135,606 -4,606 -4,459 Z"/>
  </g>
  <g id="bullet-char-template-61548" transform="scale(0.00048828125,-0.00048828125)">
   <path d="M 173,740 C 173,903 231,1043 346,1159 462,1274 601,1332 765,1332 928,1332 1067,1274 1183,1159 1299,1043 1357,903 1357,740 1357,577 1299,437 1183,322 1067,206 928,148 765,148 601,148 462,206 346,322 231,437 173,577 173,740 Z"/>
  </g>
 </defs>
 <defs class="TextEmbeddedBitmaps"/>
 <g class="SlideGroup">
  <g>
   <g id="container-id1">
    <g id="id1" class="Slide" clip-path="url(#presentation_clip_path)">
     <g class="Page">
      <g class="com.sun.star.drawing.CustomShape">
       <g id="id3">
        <rect class="BoundingBox" stroke="none" fill="none" x="5385" y="3513" width="289" height="289"/>
        <path fill="rgb(0,0,0)" stroke="none" d="M 5529,3513 C 5610,3513 5673,3576 5673,3657 5673,3738 5610,3801 5529,3801 5448,3801 5385,3738 5385,3657 5385,3576 5448,3513 5529,3513 Z"/>
       </g>
      </g>
      <g class="com.sun.star.drawing.CustomShape">
       <g id="id4">
        <rect class="BoundingBox" stroke="none" fill="none" x="2862" y="6072" width="289" height="289"/>
        <path fill="rgb(0,0,0)" stroke="none" d="M 3006,6072 C 3087,6072 3150,6135 3150,6216 3150,6297 3087,6360 3006,6360 2925,6360 2862,6297 2862,6216 2862,6135 2925,6072 3006,6072 Z"/>
       </g>
      </g>
      <g class="com.sun.star.drawing.CustomShape">
       <g id="id5">
        <rect class="BoundingBox" stroke="none" fill="none" x="4131" y="4781" width="289" height="289"/>
        <path fill="rgb(0,0,0)" stroke="none" d="M 4275,4781 C 4356,4781 4419,4844 4419,4925 4419,5006 4356,5069 4275,5069 4194,5069 4131,5006 4131,4925 4131,4844 4194,4781 4275,4781 Z"/>
       </g>
      </g>
      <g class="com.sun.star.drawing.CustomShape">
       <g id="id6">
        <rect class="BoundingBox" stroke="none" fill="none" x="11026" y="2456" width="289" height="289"/>
        <path fill="rgb(0,0,0)" stroke="none" d="M 11170,2456 C 11251,2456 11314,2519 11314,2600 11314,2681 11251,2744 11170,2744 11089,2744 11026,2681 11026,2600 11026,2519 11089,2456 11170,2456 Z"/>
       </g>
      </g>
      <g class="com.sun.star.drawing.CustomShape">
       <g id="id7">
        <rect class="BoundingBox" stroke="none" fill="none" x="8593" y="4094" width="290" height="289"/>
        <path fill="rgb(0,0,0)" stroke="none" d="M 8738,4094 C 8819,4094 8882,4157 8882,4238 8882,4319 8819,4382 8738,4382 8657,4382 8594,4319 8594,4238 8594,4157 8657,4094 8738,4094 Z"/>
       </g>
      </g>
      <g class="com.sun.star.drawing.CustomShape">
       <g id="id8">
        <rect class="BoundingBox" stroke="none" fill="none" x="13436" y="4106" width="289" height="289"/>
        <path fill="rgb(0,0,0)" stroke="none" d="M 13580,4106 C 13661,4106 13724,4169 13724,4250 13724,4331 13661,4394 13580,4394 13499,4394 13436,4331 13436,4250 13436,4169 13499,4106 13580,4106 Z"/>
       </g>
      </g>
      <g class="com.sun.star.drawing.CustomShape">
       <g id="id9">
        <rect class="BoundingBox" stroke="none" fill="none" x="9565" y="6729" width="289" height="289"/>
        <path fill="rgb(0,0,0)" stroke="none" d="M 9709,6729 C 9790,6729 9853,6792 9853,6873 9853,6954 9790,7017 9709,7017 9628,7017 9565,6954 9565,6873 9565,6792 9628,6729 9709,6729 Z"/>
       </g>
      </g>
      <g class="com.sun.star.drawing.CustomShape">
       <g id="id10">
        <rect class="BoundingBox" stroke="none" fill="none" x="12441" y="6729" width="289" height="289"/>
        <path fill="rgb(0,0,0)" stroke="none" d="M 12585,6729 C 12666,6729 12729,6792 12729,6873 12729,6954 12666,7017 12585,7017 12504,7017 12441,6954 12441,6873 12441,6792 12504,6729 12585,6729 Z"/>
       </g>
      </g>
      <g class="com.sun.star.drawing.CustomShape">
       <g id="id11">
        <rect class="BoundingBox" stroke="none" fill="none" x="11015" y="3618" width="290" height="289"/>
        <path fill="rgb(0,0,0)" stroke="none" d="M 11160,3618 C 11241,3618 11304,3681 11304,3762 11304,3843 11241,3906 11160,3906 11079,3906 11016,3843 11016,3762 11016,3681 11079,3618 11160,3618 Z"/>
       </g>
      </g>
      <g class="com.sun.star.drawing.CustomShape">
       <g id="id12">
        <rect class="BoundingBox" stroke="none" fill="none" x="9771" y="4462" width="289" height="289"/>
        <path fill="rgb(0,0,0)" stroke="none" d="M 9915,4462 C 9996,4462 10059,4525 10059,4606 10059,4687 9996,4750 9915,4750 9834,4750 9771,4687 9771,4606 9771,4525 9834,4462 9915,4462 Z"/>
       </g>
      </g>
      <g class="com.sun.star.drawing.CustomShape">
       <g id="id13">
        <rect class="BoundingBox" stroke="none" fill="none" x="12202" y="4460" width="289" height="289"/>
        <path fill="rgb(0,0,0)" stroke="none" d="M 12346,4460 C 12427,4460 12490,4523 12490,4604 12490,4685 12427,4748 12346,4748 12265,4748 12202,4685 12202,4604 12202,4523 12265,4460 12346,4460 Z"/>
       </g>
      </g>
      <g class="com.sun.star.drawing.CustomShape">
       <g id="id14">
        <rect class="BoundingBox" stroke="none" fill="none" x="10368" y="5896" width="290" height="289"/>
        <path fill="rgb(0,0,0)" stroke="none" d="M 10513,5896 C 10594,5896 10657,5959 10657,6040 10657,6121 10594,6184 10513,6184 10432,6184 10369,6121 10369,6040 10369,5959 10432,5896 10513,5896 Z"/>
       </g>
      </g>
      <g class="com.sun.star.drawing.CustomShape">
       <g id="id15">
        <rect class="BoundingBox" stroke="none" fill="none" x="11712" y="5896" width="289" height="289"/>
        <path fill="rgb(0,0,0)" stroke="none" d="M 11856,5896 C 11937,5896 12000,5959 12000,6040 12000,6121 11937,6184 11856,6184 11775,6184 11712,6121 11712,6040 11712,5959 11775,5896 11856,5896 Z"/>
       </g>
      </g>
      <g class="com.sun.star.drawing.LineShape">
       <g id="id16">
        <rect class="BoundingBox" stroke="none" fill="none" x="5491" y="3619" width="95" height="2619"/>
        <path fill="none" stroke="rgb(0,0,0)" stroke-width="81" stroke-linejoin="round" d="M 5544,6196 L 5532,3660"/>
       </g>
      </g>
      <g class="com.sun.star.drawing.LineShape">
       <g id="id17">
        <rect class="BoundingBox" stroke="none" fill="none" x="2968" y="3607" width="2606" height="95"/>
        <path fill="none" stroke="rgb(0,0,0)" stroke-width="81" stroke-linejoin="round" d="M 3009,3648 L 5532,3660"/>
       </g>
      </g>
      <g class="com.sun.star.drawing.LineShape">
       <g id="id18">
        <rect class="BoundingBox" stroke="none" fill="none" x="2969" y="3607" width="1347" height="1363"/>
        <path fill="none" stroke="rgb(0,0,0)" stroke-width="81" stroke-linejoin="round" d="M 3010,3648 L 4274,4928"/>
       </g>
      </g>
      <g class="com.sun.star.drawing.LineShape">
       <g id="id19">
        <rect class="BoundingBox" stroke="none" fill="none" x="4233" y="4887" width="1353" height="1351"/>
        <path fill="none" stroke="rgb(0,0,0)" stroke-width="81" stroke-linejoin="round" d="M 5544,6196 L 4274,4928"/>
       </g>
      </g>
      <g class="com.sun.star.drawing.LineShape">
       <g id="id20">
        <rect class="BoundingBox" stroke="none" fill="none" x="2967" y="6153" width="2619" height="85"/>
        <path fill="none" stroke="rgb(0,0,0)" stroke-width="81" stroke-linejoin="round" d="M 5544,6196 L 3008,6194"/>
       </g>
      </g>
      <g class="com.sun.star.drawing.LineShape">
       <g id="id21">
        <rect class="BoundingBox" stroke="none" fill="none" x="2967" y="3607" width="84" height="2629"/>
        <path fill="none" stroke="rgb(0,0,0)" stroke-width="81" stroke-linejoin="round" d="M 3009,3648 L 3008,6194"/>
       </g>
      </g>
      <g class="com.sun.star.drawing.CustomShape">
       <g id="id22">
        <rect class="BoundingBox" stroke="none" fill="none" x="2860" y="3502" width="290" height="289"/>
        <path fill="rgb(241,13,12)" stroke="none" d="M 3005,3502 C 3086,3502 3149,3565 3149,3646 3149,3727 3086,3790 3005,3790 2924,3790 2861,3727 2861,3646 2861,3565 2924,3502 3005,3502 Z"/>
       </g>
      </g>
      <g class="com.sun.star.drawing.CustomShape">
       <g id="id23">
        <rect class="BoundingBox" stroke="none" fill="none" x="5386" y="6059" width="289" height="290"/>
        <path fill="rgb(241,13,12)" stroke="none" d="M 5530,6060 C 5611,6060 5674,6123 5674,6204 5674,6285 5611,6348 5530,6348 5449,6348 5386,6285 5386,6204 5386,6123 5449,6060 5530,6060 Z"/>
       </g>
      </g>
      <g class="com.sun.star.drawing.LineShape">
       <g id="id24">
        <rect class="BoundingBox" stroke="none" fill="none" x="8713" y="4207" width="1039" height="2714"/>
        <path fill="none" stroke="rgb(0,0,0)" stroke-width="81" stroke-linejoin="round" d="M 9710,6879 L 8754,4248"/>
       </g>
      </g>
      <g class="com.sun.star.drawing.LineShape">
       <g id="id25">
        <rect class="BoundingBox" stroke="none" fill="none" x="9669" y="6831" width="2957" height="91"/>
        <path fill="none" stroke="rgb(0,0,0)" stroke-width="81" stroke-linejoin="round" d="M 9710,6880 L 12584,6872"/>
       </g>
      </g>
      <g class="com.sun.star.drawing.LineShape">
       <g id="id26">
        <rect class="BoundingBox" stroke="none" fill="none" x="12543" y="4221" width="1084" height="2693"/>
        <path fill="none" stroke="rgb(0,0,0)" stroke-width="81" stroke-linejoin="round" d="M 13585,4262 L 12584,6872"/>
       </g>
      </g>
      <g class="com.sun.star.drawing.LineShape">
       <g id="id27">
        <rect class="BoundingBox" stroke="none" fill="none" x="11124" y="2545" width="2503" height="1759"/>
        <path fill="none" stroke="rgb(0,0,0)" stroke-width="81" stroke-linejoin="round" d="M 13585,4262 L 11165,2586"/>
       </g>
      </g>
      <g class="com.sun.star.drawing.LineShape">
       <g id="id28">
        <rect class="BoundingBox" stroke="none" fill="none" x="8713" y="2545" width="2495" height="1745"/>
        <path fill="none" stroke="rgb(0,0,0)" stroke-width="81" stroke-linejoin="round" d="M 8754,4248 L 11166,2586"/>
       </g>
      </g>
      <g class="com.sun.star.drawing.LineShape">
       <g id="id29">
        <rect class="BoundingBox" stroke="none" fill="none" x="8713" y="4207" width="1247" height="433"/>
        <path fill="none" stroke="rgb(0,0,0)" stroke-width="81" stroke-linejoin="round" d="M 8754,4248 L 9918,4598"/>
       </g>
      </g>
      <g class="com.sun.star.drawing.LineShape">
       <g id="id30">
        <rect class="BoundingBox" stroke="none" fill="none" x="9877" y="4557" width="682" height="1538"/>
        <path fill="none" stroke="rgb(0,0,0)" stroke-width="81" stroke-linejoin="round" d="M 10517,6053 L 9918,4598"/>
       </g>
      </g>
      <g class="com.sun.star.drawing.LineShape">
       <g id="id31">
        <rect class="BoundingBox" stroke="none" fill="none" x="9669" y="6013" width="891" height="909"/>
        <path fill="none" stroke="rgb(0,0,0)" stroke-width="81" stroke-linejoin="round" d="M 10518,6054 L 9710,6880"/>
       </g>
      </g>
      <g class="com.sun.star.drawing.LineShape">
       <g id="id32">
        <rect class="BoundingBox" stroke="none" fill="none" x="10477" y="6006" width="1434" height="90"/>
        <path fill="none" stroke="rgb(0,0,0)" stroke-width="81" stroke-linejoin="round" d="M 10518,6054 L 11869,6047"/>
       </g>
      </g>
      <g class="com.sun.star.drawing.LineShape">
       <g id="id33">
        <rect class="BoundingBox" stroke="none" fill="none" x="11829" y="6007" width="797" height="907"/>
        <path fill="none" stroke="rgb(0,0,0)" stroke-width="81" stroke-linejoin="round" d="M 12584,6872 L 11870,6048"/>
       </g>
      </g>
      <g class="com.sun.star.drawing.LineShape">
       <g id="id34">
        <rect class="BoundingBox" stroke="none" fill="none" x="11829" y="4575" width="597" height="1515"/>
        <path fill="none" stroke="rgb(0,0,0)" stroke-width="81" stroke-linejoin="round" d="M 12384,4616 L 11870,6048"/>
       </g>
      </g>
      <g class="com.sun.star.drawing.LineShape">
       <g id="id35">
        <rect class="BoundingBox" stroke="none" fill="none" x="12343" y="4221" width="1284" height="437"/>
        <path fill="none" stroke="rgb(0,0,0)" stroke-width="81" stroke-linejoin="round" d="M 12384,4616 L 13585,4262"/>
       </g>
      </g>
      <g class="com.sun.star.drawing.LineShape">
       <g id="id36">
        <rect class="BoundingBox" stroke="none" fill="none" x="11124" y="3707" width="1302" height="951"/>
        <path fill="none" stroke="rgb(0,0,0)" stroke-width="81" stroke-linejoin="round" d="M 12384,4616 L 11165,3748"/>
       </g>
      </g>
      <g class="com.sun.star.drawing.LineShape">
       <g id="id37">
        <rect class="BoundingBox" stroke="none" fill="none" x="11125" y="2545" width="83" height="1246"/>
        <path fill="none" stroke="rgb(0,0,0)" stroke-width="81" stroke-linejoin="round" d="M 11166,2586 L 11166,3749"/>
       </g>
      </g>
      <g class="com.sun.star.drawing.LineShape">
       <g id="id38">
        <rect class="BoundingBox" stroke="none" fill="none" x="9877" y="3709" width="1331" height="931"/>
        <path fill="none" stroke="rgb(0,0,0)" stroke-width="81" stroke-linejoin="round" d="M 9918,4598 L 11166,3750"/>
       </g>
      </g>
     </g>
    </g>
   </g>
  </g>
 </g>
</svg>