<?xml version="1.0" encoding="UTF-8"?>
<!DOCTYPE svg PUBLIC "-//W3C//DTD SVG 1.1//EN" "http://www.w3.org/Graphics/SVG/1.1/DTD/svg11.dtd">
<svg version="1.2" width="79.55mm" height="62.75mm" viewBox="12081 13501 7955 6275" preserveAspectRatio="xMidYMid" fill-rule="evenodd" stroke-width="28.222" stroke-linejoin="round" xmlns="http://www.w3.org/2000/svg" xmlns:ooo="http://xml.openoffice.org/svg/export" xmlns:xlink="http://www.w3.org/1999/xlink" xmlns:presentation="http://sun.com/xmlns/staroffice/presentation" xmlns:smil="http://www.w3.org/2001/SMIL20/" xmlns:anim="urn:oasis:names:tc:opendocument:xmlns:animation:1.0" xml:space="preserve">
 <defs class="ClipPathGroup">
  <clipPath id="presentation_clip_path" clipPathUnits="userSpaceOnUse">
   <rect x="12081" y="13501" width="7955" height="6275"/>
  </clipPath>
  <clipPath id="presentation_clip_path_shrink" clipPathUnits="userSpaceOnUse">
   <rect x="12088" y="13507" width="7940" height="6263"/>
  </clipPath>
 </defs>
 <defs class="TextShapeIndex">
  <g ooo:slide="id1" ooo:id-list="id3 id4 id5 id6 id7 id8 id9 id10 id11 id12 id13 id14 id15 id16 id17 id18 id19"/>
 </defs>
 <defs class="EmbeddedBulletChars">
  <g id="bullet-char-template-57356" transform="scale(0.00048828125,-0.00048828125)">
   <path d="M 580,1141 L 1163,571 580,0 -4,571 580,1141 Z"/>
  </g>
  <g id="bullet-char-template-57354" transform="scale(0.00048828125,-0.00048828125)">
   <path d="M 8,1128 L 1137,1128 1137,0 8,0 8,1128 Z"/>
  </g>
  <g id="bullet-char-template-10146" transform="scale(0.00048828125,-0.00048828125)">
   <path d="M 174,0 L 602,739 174,1481 1456,739 174,0 Z M 1358,739 L 309,1346 659,739 1358,739 Z"/>
  </g>
  <g id="bullet-char-template-10132" transform="scale(0.00048828125,-0.00048828125)">
   <path d="M 2015,739 L 1276,0 717,0 1260,543 174,543 174,936 1260,936 717,1481 1274,1481 2015,739 Z"/>
  </g>
  <g id="bullet-char-template-10007" transform="scale(0.00048828125,-0.00048828125)">
   <path d="M 0,-2 C -7,14 -16,27 -25,37 L 356,567 C 262,823 215,952 215,954 215,979 228,992 255,992 264,992 276,990 289,987 310,991 331,999 354,1012 L 381,999 492,748 772,1049 836,1024 860,1049 C 881,1039 901,1025 922,1006 886,937 835,863 770,784 769,783 710,716 594,584 L 774,223 C 774,196 753,168 711,139 L 727,119 C 717,90 699,76 672,76 641,76 570,178 457,381 L 164,-76 C 142,-110 111,-127 72,-127 30,-127 9,-110 8,-76 1,-67 -2,-52 -2,-32 -2,-23 -1,-13 0,-2 Z"/>
  </g>
  <g id="bullet-char-template-10004" transform="scale(0.00048828125,-0.00048828125)">
   <path d="M 285,-33 C 182,-33 111,30 74,156 52,228 41,333 41,471 41,549 55,616 82,672 116,743 169,778 240,778 293,778 328,747 346,684 L 369,508 C 377,444 397,411 428,410 L 1163,1116 C 1174,1127 1196,1133 1229,1133 1271,1133 1292,1118 1292,1087 L 1292,965 C 1292,929 1282,901 1262,881 L 442,47 C 390,-6 338,-33 285,-33 Z"/>
  </g>
  <g id="bullet-char-template-9679" transform="scale(0.00048828125,-0.00048828125)">
   <path d="M 813,0 C 632,0 489,54 383,161 276,268 223,411 223,592 223,773 276,916 383,1023 489,1130 632,1184 813,1184 992,1184 1136,1130 1245,1023 1353,916 1407,772 1407,592 1407,412 1353,268 1245,161 1136,54 992,0 813,0 Z"/>
  </g>
  <g id="bullet-char-template-8226" transform="scale(0.00048828125,-0.00048828125)">
   <path d="M 346,457 C 273,457 209,483 155,535 101,586 74,649 74,723 74,796 101,859 155,911 209,963 273,989 346,989 419,989 480,963 531,910 582,859 608,796 608,723 608,648 583,586 532,535 482,483 420,457 346,457 Z"/>
  </g>
  <g id="bullet-char-template-8211" transform="scale(0.00048828125,-0.00048828125)">
   <path d="M -4,459 L 1135,459 1135,606 -4,606 -4,459 Z"/>
  </g>
  <g id="bullet-char-template-61548" transform="scale(0.00048828125,-0.00048828125)">
   <path d="M 173,740 C 173,903 231,1043 346,1159 462,1274 601,1332 765,1332 928,1332 1067,1274 1183,1159 1299,1043 1357,903 1357,740 1357,577 1299,437 1183,322 1067,206 928,148 765,148 601,148 462,206 346,322 231,437 173,577 173,740 Z"/>
  </g>
 </defs>
 <defs class="TextEmbeddedBitmaps"/>
 <g class="SlideGroup">
  <g>
   <g id="container-id1">
    <g id="id1" class="Slide" clip-path="url(#presentation_clip_path)">
     <g class="Page">
      <g class="com.sun.star.drawing.LineShape">
       <g id="id3">
        <rect class="BoundingBox" stroke="none" fill="none" x="12414" y="13731" width="1093" height="1895"/>
        <path fill="none" stroke="rgb(52,101,164)" stroke-width="53" stroke-linejoin="round" d="M 13479,13758 L 12612,15278"/>
        <path fill="rgb(52,101,164)" stroke="none" d="M 12414,15625 L 12743,15331 12500,15192 12414,15625 Z"/>
       </g>
      </g>
      <g class="com.sun.star.drawing.LineShape">
       <g id="id4">
        <rect class="BoundingBox" stroke="none" fill="none" x="12261" y="15818" width="307" height="2039"/>
        <path fill="none" stroke="rgb(52,101,164)" stroke-width="53" stroke-linejoin="round" d="M 12288,15845 L 12429,17458"/>
        <path fill="rgb(52,101,164)" stroke="none" d="M 12464,17856 L 12566,17427 12289,17451 12464,17856 Z"/>
       </g>
      </g>
      <g class="com.sun.star.drawing.LineShape">
       <g id="id5">
        <rect class="BoundingBox" stroke="none" fill="none" x="12452" y="17994" width="1513" height="1432"/>
        <path fill="none" stroke="rgb(52,101,164)" stroke-width="53" stroke-linejoin="round" d="M 12479,18021 L 13673,19150"/>
        <path fill="rgb(52,101,164)" stroke="none" d="M 13964,19425 L 13756,19036 13564,19239 13964,19425 Z"/>
       </g>
      </g>
      <g class="com.sun.star.drawing.LineShape">
       <g id="id6">
        <rect class="BoundingBox" stroke="none" fill="none" x="18065" y="15949" width="1792" height="3644"/>
        <path fill="none" stroke="rgb(52,101,164)" stroke-width="53" stroke-linejoin="round" d="M 19829,19565 L 19783,19471"/>
        <path fill="none" stroke="rgb(52,101,164)" stroke-width="53" stroke-linejoin="round" d="M 19737,19377 L 19692,19283"/>
        <path fill="none" stroke="rgb(52,101,164)" stroke-width="53" stroke-linejoin="round" d="M 19646,19190 L 19600,19096"/>
        <path fill="none" stroke="rgb(52,101,164)" stroke-width="53" stroke-linejoin="round" d="M 19554,19002 L 19509,18908"/>
        <path fill="none" stroke="rgb(52,101,164)" stroke-width="53" stroke-linejoin="round" d="M 19463,18814 L 19417,18720"/>
        <path fill="none" stroke="rgb(52,101,164)" stroke-width="53" stroke-linejoin="round" d="M 19371,18627 L 19325,18533"/>
        <path fill="none" stroke="rgb(52,101,164)" stroke-width="53" stroke-linejoin="round" d="M 19280,18439 L 19234,18345"/>
        <path fill="none" stroke="rgb(52,101,164)" stroke-width="53" stroke-linejoin="round" d="M 19188,18251 L 19142,18157"/>
        <path fill="none" stroke="rgb(52,101,164)" stroke-width="53" stroke-linejoin="round" d="M 19097,18064 L 19051,17970"/>
        <path fill="none" stroke="rgb(52,101,164)" stroke-width="53" stroke-linejoin="round" d="M 19005,17876 L 18959,17782"/>
        <path fill="none" stroke="rgb(52,101,164)" stroke-width="53" stroke-linejoin="round" d="M 18913,17688 L 18868,17594"/>
        <path fill="none" stroke="rgb(52,101,164)" stroke-width="53" stroke-linejoin="round" d="M 18822,17501 L 18776,17407"/>
        <path fill="none" stroke="rgb(52,101,164)" stroke-width="53" stroke-linejoin="round" d="M 18730,17313 L 18685,17219"/>
        <path fill="none" stroke="rgb(52,101,164)" stroke-width="53" stroke-linejoin="round" d="M 18639,17125 L 18593,17031"/>
        <path fill="none" stroke="rgb(52,101,164)" stroke-width="53" stroke-linejoin="round" d="M 18547,16937 L 18501,16844"/>
        <path fill="none" stroke="rgb(52,101,164)" stroke-width="53" stroke-linejoin="round" d="M 18456,16750 L 18410,16656"/>
        <path fill="none" stroke="rgb(52,101,164)" stroke-width="53" stroke-linejoin="round" d="M 18364,16562 L 18318,16468"/>
        <path fill="none" stroke="rgb(52,101,164)" stroke-width="53" stroke-linejoin="round" d="M 18273,16374 L 18240,16308"/>
        <path fill="rgb(52,101,164)" stroke="none" d="M 18065,15949 L 18123,16386 18374,16264 18065,15949 Z"/>
       </g>
      </g>
      <g class="com.sun.star.drawing.LineShape">
       <g id="id7">
        <rect class="BoundingBox" stroke="none" fill="none" x="17965" y="15833" width="307" height="2039"/>
        <path fill="none" stroke="rgb(52,101,164)" stroke-width="53" stroke-linejoin="round" d="M 17992,15860 L 18133,17473"/>
        <path fill="rgb(52,101,164)" stroke="none" d="M 18168,17871 L 18270,17442 17993,17466 18168,17871 Z"/>
       </g>
      </g>
      <g class="com.sun.star.drawing.LineShape">
       <g id="id8">
        <rect class="BoundingBox" stroke="none" fill="none" x="19170" y="13733" width="752" height="5656"/>
        <path fill="none" stroke="rgb(52,101,164)" stroke-width="53" stroke-linejoin="round" d="M 19197,13760 L 19784,18991"/>
        <path fill="rgb(52,101,164)" stroke="none" d="M 19829,19388 L 19921,18957 19644,18988 19829,19388 Z"/>
       </g>
      </g>
      <g class="com.sun.star.drawing.LineShape">
       <g id="id9">
        <rect class="BoundingBox" stroke="none" fill="none" x="12361" y="15934" width="1792" height="3644"/>
        <path fill="none" stroke="rgb(255,0,0)" stroke-width="53" stroke-linejoin="round" d="M 14125,19550 L 14079,19456"/>
        <path fill="none" stroke="rgb(255,0,0)" stroke-width="53" stroke-linejoin="round" d="M 14033,19362 L 13988,19268"/>
        <path fill="none" stroke="rgb(255,0,0)" stroke-width="53" stroke-linejoin="round" d="M 13942,19175 L 13896,19081"/>
        <path fill="none" stroke="rgb(255,0,0)" stroke-width="53" stroke-linejoin="round" d="M 13850,18987 L 13805,18893"/>
        <path fill="none" stroke="rgb(255,0,0)" stroke-width="53" stroke-linejoin="round" d="M 13759,18799 L 13713,18705"/>
        <path fill="none" stroke="rgb(255,0,0)" stroke-width="53" stroke-linejoin="round" d="M 13667,18612 L 13621,18518"/>
        <path fill="none" stroke="rgb(255,0,0)" stroke-width="53" stroke-linejoin="round" d="M 13576,18424 L 13530,18330"/>
        <path fill="none" stroke="rgb(255,0,0)" stroke-width="53" stroke-linejoin="round" d="M 13484,18236 L 13438,18142"/>
        <path fill="none" stroke="rgb(255,0,0)" stroke-width="53" stroke-linejoin="round" d="M 13393,18049 L 13347,17955"/>
        <path fill="none" stroke="rgb(255,0,0)" stroke-width="53" stroke-linejoin="round" d="M 13301,17861 L 13255,17767"/>
        <path fill="none" stroke="rgb(255,0,0)" stroke-width="53" stroke-linejoin="round" d="M 13209,17673 L 13164,17579"/>
        <path fill="none" stroke="rgb(255,0,0)" stroke-width="53" stroke-linejoin="round" d="M 13118,17486 L 13072,17392"/>
        <path fill="none" stroke="rgb(255,0,0)" stroke-width="53" stroke-linejoin="round" d="M 13026,17298 L 12981,17204"/>
        <path fill="none" stroke="rgb(255,0,0)" stroke-width="53" stroke-linejoin="round" d="M 12935,17110 L 12889,17016"/>
        <path fill="none" stroke="rgb(255,0,0)" stroke-width="53" stroke-linejoin="round" d="M 12843,16922 L 12797,16829"/>
        <path fill="none" stroke="rgb(255,0,0)" stroke-width="53" stroke-linejoin="round" d="M 12752,16735 L 12706,16641"/>
        <path fill="none" stroke="rgb(255,0,0)" stroke-width="53" stroke-linejoin="round" d="M 12660,16547 L 12614,16453"/>
        <path fill="none" stroke="rgb(255,0,0)" stroke-width="53" stroke-linejoin="round" d="M 12569,16359 L 12536,16293"/>
        <path fill="rgb(255,0,0)" stroke="none" d="M 12361,15934 L 12419,16371 12670,16249 12361,15934 Z"/>
       </g>
      </g>
      <g class="com.sun.star.drawing.CustomShape">
       <g id="id10">
        <rect class="BoundingBox" stroke="none" fill="none" x="12081" y="15602" width="413" height="411"/>
        <path fill="rgb(0,0,0)" stroke="none" d="M 12287,15602 C 12404,15602 12493,15691 12493,15807 12493,15923 12404,16012 12287,16012 12170,16012 12081,15923 12081,15807 12081,15691 12170,15602 12287,15602 Z"/>
       </g>
      </g>
      <g class="com.sun.star.drawing.CustomShape">
       <g id="id11">
        <rect class="BoundingBox" stroke="none" fill="none" x="12272" y="17807" width="413" height="411"/>
        <path fill="rgb(0,0,0)" stroke="none" d="M 12478,17807 C 12595,17807 12684,17896 12684,18012 12684,18128 12595,18217 12478,18217 12361,18217 12272,18128 12272,18012 12272,17896 12361,17807 12478,17807 Z"/>
       </g>
      </g>
      <g class="com.sun.star.drawing.CustomShape">
       <g id="id12">
        <rect class="BoundingBox" stroke="none" fill="none" x="13920" y="19351" width="413" height="411"/>
        <path fill="rgb(0,0,0)" stroke="none" d="M 14126,19351 C 14243,19351 14332,19440 14332,19556 14332,19672 14243,19761 14126,19761 14009,19761 13920,19672 13920,19556 13920,19440 14009,19351 14126,19351 Z"/>
       </g>
      </g>
      <g class="com.sun.star.drawing.CustomShape">
       <g id="id13">
        <rect class="BoundingBox" stroke="none" fill="none" x="17784" y="15617" width="414" height="411"/>
        <path fill="rgb(0,0,0)" stroke="none" d="M 17991,15617 C 18108,15617 18197,15706 18197,15822 18197,15938 18108,16027 17991,16027 17874,16027 17785,15938 17785,15822 17785,15706 17874,15617 17991,15617 Z"/>
       </g>
      </g>
      <g class="com.sun.star.drawing.CustomShape">
       <g id="id14">
        <rect class="BoundingBox" stroke="none" fill="none" x="17975" y="17822" width="414" height="411"/>
        <path fill="rgb(0,0,0)" stroke="none" d="M 18182,17822 C 18299,17822 18388,17911 18388,18027 18388,18143 18299,18232 18182,18232 18065,18232 17976,18143 17976,18027 17976,17911 18065,17822 18182,17822 Z"/>
       </g>
      </g>
      <g class="com.sun.star.drawing.CustomShape">
       <g id="id15">
        <rect class="BoundingBox" stroke="none" fill="none" x="19624" y="19366" width="413" height="411"/>
        <path fill="rgb(0,0,0)" stroke="none" d="M 19830,19366 C 19947,19366 20036,19455 20036,19571 20036,19687 19947,19776 19830,19776 19713,19776 19624,19687 19624,19571 19624,19455 19713,19366 19830,19366 Z"/>
       </g>
      </g>
      <g class="com.sun.star.drawing.LineShape">
       <g id="id16">
        <rect class="BoundingBox" stroke="none" fill="none" x="18118" y="13746" width="1093" height="1895"/>
        <path fill="none" stroke="rgb(0,0,0)" stroke-width="53" stroke-linejoin="round" d="M 19183,13773 L 18316,15293"/>
        <path fill="rgb(0,0,0)" stroke="none" d="M 18118,15640 L 18447,15346 18204,15207 18118,15640 Z"/>
       </g>
      </g>
      <g class="com.sun.star.drawing.LineShape">
       <g id="id17">
        <rect class="BoundingBox" stroke="none" fill="none" x="18156" y="18009" width="1513" height="1432"/>
        <path fill="none" stroke="rgb(0,0,0)" stroke-width="53" stroke-linejoin="round" d="M 18183,18036 L 19377,19165"/>
        <path fill="rgb(0,0,0)" stroke="none" d="M 19668,19440 L 19460,19051 19268,19254 19668,19440 Z"/>
       </g>
      </g>
      <g class="com.sun.star.drawing.CustomShape">
       <g id="id18">
        <rect class="BoundingBox" stroke="none" fill="none" x="13284" y="13501" width="414" height="411"/>
        <path fill="rgb(70,138,26)" stroke="none" d="M 13491,13501 C 13608,13501 13697,13590 13697,13706 13697,13822 13608,13911 13491,13911 13374,13911 13285,13822 13285,13706 13285,13590 13374,13501 13491,13501 Z"/>
       </g>
      </g>
      <g class="com.sun.star.drawing.CustomShape">
       <g id="id19">
        <rect class="BoundingBox" stroke="none" fill="none" x="18988" y="13516" width="414" height="411"/>
        <path fill="rgb(70,138,26)" stroke="none" d="M 19195,13516 C 19312,13516 19401,13605 19401,13721 19401,13837 19312,13926 19195,13926 19078,13926 18989,13837 18989,13721 18989,13605 19078,13516 19195,13516 Z"/>
       </g>
      </g>
     </g>
    </g>
   </g>
  </g>
 </g>
</svg>